<?xml version="1.0" encoding="utf-8"?>
<!-- Generator: Adobe Illustrator 16.0.0, SVG Export Plug-In . SVG Version: 6.00 Build 0)  -->
<!DOCTYPE svg PUBLIC "-//W3C//DTD SVG 1.1//EN" "http://www.w3.org/Graphics/SVG/1.1/DTD/svg11.dtd">
<svg version="1.1" id="Layer_1" xmlns="http://www.w3.org/2000/svg" xmlns:xlink="http://www.w3.org/1999/xlink" x="0px" y="0px"
	 width="128px" height="128px" viewBox="0 0 128 128" enable-background="new 0 0 128 128" xml:space="preserve">
<g>
	<g>
		<path d="M8.766,119.203c-0.498-0.504-0.775-1.199-0.768-1.906c0.023-1.344,0.393-13.309,6.707-19.625
			c2.913-2.914,9.013-6.07,17.986-10.561c9.576-4.785,14.886-7.639,17.333-9.953l5.396-5.102l-4.688-5.76
			c-7.384-9.072-11.621-19.09-11.621-27.482c0-6.473,0-13.809,3.063-19.877C45.84,11.68,53.181,8,64,8
			c10.816,0,18.161,3.68,21.824,10.936c3.063,6.07,3.063,13.406,3.063,19.879c0,8.391-4.237,18.408-11.624,27.482l-4.688,5.762
			l5.4,5.104c1.461,1.381,3.979,2.969,7.798,5.039l5.911-5.91c-3.615-1.898-7.021-3.814-8.214-4.943
			c8.491-10.434,13.416-22.217,13.416-32.533c0-7,0-15.713-3.918-23.482C89.435,8.338,81.544,0,64,0
			C46.454,0,38.563,8.338,35.033,15.332c-3.923,7.77-3.923,16.48-3.923,23.482c0,10.318,4.925,22.1,13.417,32.533
			c-2.028,1.918-10.389,6.098-15.413,8.607c-9.965,4.984-16.287,8.279-20.066,12.061c-8.371,8.371-9.004,22.422-9.047,25.156
			c-0.043,2.852,1.059,5.609,3.065,7.648c2.004,2.031,4.741,3.18,7.599,3.18h45.304v-8H10.665
			C9.958,120,9.263,119.711,8.766,119.203z M121.224,94.758l-5.747,5.746c3.368,5.316,4.458,12.703,4.521,16.789
			c0.012,0.711-0.266,1.406-0.762,1.91c-0.508,0.516-1.184,0.797-1.903,0.797H95.977l-8.001,8h29.356c2.86,0,5.596-1.148,7.6-3.18
			c2.004-2.039,3.11-4.797,3.067-7.652C127.96,114.715,127.393,103.16,121.224,94.758z M125.639,83.313
			c3.126-3.125,3.126-8.191,0-11.313l-5.657-5.656c-1.563-1.563-3.61-2.344-5.657-2.344c-2.048,0-4.095,0.781-5.657,2.344
			l-34.353,34.344c-1.561,1.563-6.341,7.605-6.343,9.652L63.971,128l17.659-4c0,0,8.096-4.781,9.658-6.344L125.639,83.313z
			 M84.533,117.527l-10.365-10.363c1.063-1.457,2.246-2.922,2.975-3.648l25.867-25.859l11.314,11.313L88.468,114.82
			C88.015,115.25,86.447,116.309,84.533,117.527z"/>
	</g>
</g>
</svg>
