<svg height="512" viewBox="0 0 512 512" width="512" xmlns="http://www.w3.org/2000/svg"><g id="_18-brand_champion" data-name="18-brand champion"><g id="linear_color" data-name="linear color"><path d="m444.819 209 9.091-39.832a12 12 0 0 0 -2.317-10.152l-25.473-31.942-9.091-39.831a12 12 0 0 0 -6.492-8.141l-36.809-17.727-25.474-31.942a12 12 0 0 0 -9.382-4.518h-40.855l-36.81-17.727a12.005 12.005 0 0 0 -10.414 0l-36.81 17.727h-40.855a12 12 0 0 0 -9.381 4.518l-25.474 31.942-36.809 17.725a12 12 0 0 0 -6.493 8.141l-9.091 39.833-25.473 31.942a12 12 0 0 0 -2.318 10.152l9.092 39.832-9.092 39.832a12 12 0 0 0 2.318 10.152l25.473 31.942 9.091 39.831a12 12 0 0 0 6.493 8.141l28.382 13.669-59.717 78.518c-5.44 6.723-1.219 17.708 7.324 19.056l46.835 8.846 21.033 42.778c3.585 7.867 15.274 9.016 20.32 1.969l74.559-98.026 10.6 5.1a12.005 12.005 0 0 0 10.414 0l10.6-5.1 74.553 98.026c5.048 7.048 16.736 5.9 20.321-1.969l21.033-42.778 46.836-8.846c8.543-1.349 12.763-12.334 7.324-19.056l-59.717-78.518 28.373-13.667a12 12 0 0 0 6.492-8.141l9.091-39.831 25.473-31.942a12 12 0 0 0 2.317-10.152zm-286.527 264.752-15.113-30.737a12 12 0 0 0 -8.542-6.5l-33.653-6.358 46.829-61.573 15.934 19.979a12 12 0 0 0 9.381 4.518h40.855l4.142 2zm219.07-37.234a12 12 0 0 0 -8.541 6.5l-15.113 30.737-59.833-78.675 4.142-2h40.855a12 12 0 0 0 9.382-4.518l15.933-19.978 46.83 61.572zm43.45-224.848 8.414 36.868-23.578 29.562a12 12 0 0 0 -2.317 4.812l-8.414 36.867-34.071 16.411a12 12 0 0 0 -4.175 3.33l-23.578 29.565h-37.816a12.009 12.009 0 0 0 -5.207 1.188l-34.07 16.408-34.071-16.408a12 12 0 0 0 -5.206-1.188h-37.816l-23.578-29.565a12 12 0 0 0 -4.175-3.33l-34.071-16.408-8.414-36.867a12 12 0 0 0 -2.317-4.812l-23.579-29.565 8.415-36.868a12 12 0 0 0 0-5.34l-8.415-36.868 23.579-29.562a12 12 0 0 0 2.317-4.812l8.414-36.867 34.071-16.411a12 12 0 0 0 4.175-3.33l23.578-29.565h37.816a12 12 0 0 0 5.206-1.188l34.071-16.408 34.07 16.408a12.009 12.009 0 0 0 5.207 1.188h37.816l23.578 29.565a12 12 0 0 0 4.175 3.33l34.071 16.408 8.414 36.867a12 12 0 0 0 2.317 4.812l23.578 29.565-8.414 36.868a11.973 11.973 0 0 0 0 5.34z"/><path d="m256 64c-80.5 0-146 65.5-146 146s65.5 146 146 146 146-65.495 146-146-65.495-146-146-146zm0 268a122 122 0 1 1 122-122 122.138 122.138 0 0 1 -122 122z"/><path d="m325.365 193.443a12 12 0 0 0 -13.125 0l-24.6 16.067-21.391-35.1a12 12 0 0 0 -20.494 0l-21.39 35.1-24.6-16.067a12 12 0 0 0 -18.4 12.02l11.419 68.511a12 12 0 0 0 11.833 10.026h102.766a12 12 0 0 0 11.837-10.027l11.419-68.511a12 12 0 0 0 -5.274-12.019zm-28.147 66.557h-82.436l-5.252-31.513 12.076 7.886a12 12 0 0 0 16.809-3.8l17.585-28.86 17.586 28.857a12 12 0 0 0 16.809 3.8l12.075-7.886z"/><circle cx="256" cy="148.326" r="12"/><circle cx="340" cy="180" r="12"/><circle cx="172" cy="180" r="12"/></g></g></svg>