<svg width="37" height="33" viewBox="0 0 37 33" fill="none" xmlns="http://www.w3.org/2000/svg">
    <path d="M35.7588 6.90901C35.1959 5.60573 34.3843 4.42471 33.3694 3.43206C32.3538 2.43645 31.1563 1.64525 29.8421 1.10149C28.4793 0.535411 27.0177 0.245657 25.5421 0.249053C23.4719 0.249053 21.4521 0.815947 19.6968 1.88675C19.2769 2.1429 18.8779 2.42425 18.5 2.73079C18.1221 2.42425 17.7231 2.1429 17.3032 1.88675C15.5479 0.815947 13.5281 0.249053 11.4579 0.249053C9.96719 0.249053 8.52266 0.5346 7.15791 1.10149C5.83935 1.64739 4.65098 2.43265 3.63057 3.43206C2.61434 4.42359 1.80255 5.60489 1.24121 6.90901C0.65752 8.26536 0.359375 9.70569 0.359375 11.188C0.359375 12.5864 0.644922 14.0435 1.21182 15.5258C1.68633 16.7646 2.3666 18.0495 3.23584 19.3471C4.61318 21.4005 6.50703 23.5421 8.85859 25.7131C12.7555 29.3118 16.6146 31.7978 16.7783 31.8986L17.7735 32.5368C18.2145 32.8182 18.7813 32.8182 19.2223 32.5368L20.2175 31.8986C20.3813 31.7936 24.2361 29.3118 28.1372 25.7131C30.4888 23.5421 32.3826 21.4005 33.76 19.3471C34.6292 18.0495 35.3137 16.7646 35.784 15.5258C36.3509 14.0435 36.6364 12.5864 36.6364 11.188C36.6406 9.70569 36.3425 8.26536 35.7588 6.90901ZM18.5 29.2153C18.5 29.2153 3.55078 19.6368 3.55078 11.188C3.55078 6.90901 7.09072 3.44046 11.4579 3.44046C14.5275 3.44046 17.1898 5.15374 18.5 7.65647C19.8102 5.15374 22.4725 3.44046 25.5421 3.44046C29.9093 3.44046 33.4492 6.90901 33.4492 11.188C33.4492 19.6368 18.5 29.2153 18.5 29.2153Z" fill="#3E3E3E"/>
</svg>
