<svg width="36" height="36" viewBox="0 0 36 36" fill="none" xmlns="http://www.w3.org/2000/svg">
    <g clip-path="url(#clip0)">
        <path fill-rule="evenodd" clip-rule="evenodd" d="M13.7745 0.882017C14.3747 0.533917 15.0562 0.350586 15.75 0.350586C16.4438 0.350586 17.1253 0.533917 17.7255 0.882017L29.538 7.73327C30.753 8.43752 31.5 9.73577 31.5 11.1398V16.3125C31.5 16.7601 31.3222 17.1893 31.0057 17.5058C30.6893 17.8222 30.26 18 29.8125 18C29.3649 18 28.9357 17.8222 28.6193 17.5058C28.3028 17.1893 28.125 16.7601 28.125 16.3125V12.7733L17.4375 18.972V33.336C17.4375 33.7314 17.3334 34.1199 17.1355 34.4622C16.9376 34.8046 16.653 35.0888 16.3104 35.2861C15.9677 35.4834 15.5791 35.587 15.1837 35.5863C14.7883 35.5856 14.4 35.4808 14.058 35.2823L1.962 28.2668C1.36519 27.9206 0.869808 27.4237 0.525469 26.8259C0.181131 26.228 -7.54944e-05 25.5502 2.35945e-08 24.8603L2.35945e-08 11.1398C2.35945e-08 9.73577 0.747 8.43977 1.962 7.73327L13.7745 0.882017ZM16.0312 3.80252L26.4487 9.84377L15.75 16.0493L5.05125 9.84377L15.4687 3.80252C15.5543 3.75315 15.6513 3.72716 15.75 3.72716C15.8487 3.72716 15.9457 3.75315 16.0312 3.80252ZM3.375 24.8603V12.7733L14.0625 18.972V31.383L3.65625 25.3463C3.57091 25.297 3.5 25.2262 3.45064 25.1409C3.40128 25.0556 3.3752 24.9588 3.375 24.8603ZM27.738 33.1493C27.4295 33.4736 27.2624 33.9072 27.2736 34.3547C27.2848 34.8022 27.4733 35.2269 27.7976 35.5354C28.1219 35.8439 28.5555 36.0109 29.003 35.9998C29.4505 35.9886 29.8752 35.8001 30.1837 35.4758L35.5342 29.8508C35.8328 29.537 35.9992 29.1206 35.9992 28.6875C35.9992 28.2545 35.8328 27.838 35.5342 27.5243L30.1837 21.8993C29.8752 21.5749 29.4505 21.3865 29.003 21.3753C28.5555 21.3641 28.1219 21.5311 27.7976 21.8396C27.4733 22.1482 27.2848 22.5729 27.2736 23.0204C27.2624 23.4678 27.4295 23.9014 27.738 24.2258L30.3772 27H23.0625C22.6149 27 22.1857 27.1778 21.8693 27.4943C21.5528 27.8107 21.375 28.24 21.375 28.6875C21.375 29.1351 21.5528 29.5643 21.8693 29.8808C22.1857 30.1972 22.6149 30.375 23.0625 30.375H30.3772L27.738 33.1493Z" fill="#3E3E3E"/>
    </g>
    <defs>
        <clipPath id="clip0">
            <rect width="36" height="36" fill="white"/>
        </clipPath>
    </defs>
</svg>
