<?xml version="1.0" encoding="UTF-8" standalone="no"?>
<!-- Created with Inkscape (http://www.inkscape.org/) -->

<svg
   xmlns:dc="http://purl.org/dc/elements/1.1/"
   xmlns:cc="http://creativecommons.org/ns#"
   xmlns:rdf="http://www.w3.org/1999/02/22-rdf-syntax-ns#"
   xmlns:svg="http://www.w3.org/2000/svg"
   xmlns="http://www.w3.org/2000/svg"
   xmlns:sodipodi="http://sodipodi.sourceforge.net/DTD/sodipodi-0.dtd"
   xmlns:inkscape="http://www.inkscape.org/namespaces/inkscape"
   width="332.3526"
   height="121.97186"
   viewBox="0 0 87.934958 32.27172"
   version="1.1"
   id="svg8"
   inkscape:version="0.92.0 r15299"
   sodipodi:docname="sparknz.svg">
  <defs
     id="defs2">
	
	
	
	
	
	
	

		
	</defs>
  <sodipodi:namedview
     id="base"
     pagecolor="#ffffff"
     bordercolor="#666666"
     borderopacity="1.0"
     inkscape:pageopacity="0.0"
     inkscape:pageshadow="2"
     inkscape:zoom="2.7152806"
     inkscape:cx="165.1763"
     inkscape:cy="59.986879"
     inkscape:document-units="mm"
     inkscape:current-layer="layer1"
     showgrid="false"
     fit-margin-top="0"
     fit-margin-left="0"
     fit-margin-right="0"
     fit-margin-bottom="0"
     units="px"
     inkscape:window-width="1280"
     inkscape:window-height="744"
     inkscape:window-x="-4"
     inkscape:window-y="-4"
     inkscape:window-maximized="1" />
  <metadata
     id="metadata5">
    <rdf:RDF>
      <cc:Work
         rdf:about="">
        <dc:format>image/svg+xml</dc:format>
        <dc:type
           rdf:resource="http://purl.org/dc/dcmitype/StillImage" />
        <dc:title></dc:title>
      </cc:Work>
    </rdf:RDF>
  </metadata>
  <g
     inkscape:label="Layer 1"
     inkscape:groupmode="layer"
     id="layer1"
     transform="translate(14.220754,-336.5403)">
    <g
       id="g63"
       transform="translate(0.26458336,-0.26456924)">
      <path
         id="path12"
         d="m 10.425872,352.19343 c 0,0 0.02646,0 0,0 0.02646,0 0.02646,0 0,0 m -23.944792,-0.15875 c -0.02646,0.0265 0,0.0265 0.02646,0.0265 0.02646,0 0.05292,0 0.05292,0.0265 0.502709,0.13229 1.031875,0.29104 1.508125,0.42333 0.02646,0 0.02646,0.0265 0.05292,0 -0.555625,-0.13229 -1.084792,-0.3175 -1.640417,-0.47625 0,0 0,0 0,0 m 31.617708,4.23334 c -1.455208,-0.23813 -5.132916,-0.23813 -7.381875,-0.21167 -0.132291,-0.0529 -0.238125,-0.10583 -0.370416,-0.18521 -0.9525003,-0.44979 -1.9314586,-0.89958 -2.8839586,-1.34937 0.15875,-0.15875 0.3175,-0.29104 0.5027083,-0.44979 0,0 0,0 0,0 1.42875,0.52916 3.6512503,1.29645 5.1064583,1.79916 v 0 c 0,0 0,0 0,0 0,0 0,0 0,0 0.105833,0.0265 0.3175,-0.15875 0.396875,-0.44979 0.07938,-0.29104 0.05292,-0.55562 -0.05292,-0.60854 0,0 -3.280833,-1.13771 -4.5243746,-1.5875 0.6614583,-0.58208 1.3493746,-1.13771 2.0108336,-1.71979 0.661458,-0.58209 1.349375,-1.13771 2.010833,-1.69334 0.343958,-0.29104 0.687917,-0.55562 1.031875,-0.84666 0.687917,-0.55563 1.375833,-1.11125 2.116667,-1.61396 0.185208,-0.13229 0.370416,-0.26458 0.555625,-0.37042 0.132291,-0.0794 0.238125,-0.15875 0.370416,-0.21166 0.07937,-0.0529 0.15875,-0.0794 0.238125,-0.10584 0,0 0,0 0,0 0,-0.0265 -0.02646,0 0,-0.0265 0,0 0.02646,-0.0265 0.05292,-0.0265 0,-0.0529 0.02646,-0.1323 0,-0.18521 -0.05292,0 -0.07938,0.0265 -0.132292,0.0265 0,0 0,-0.0265 0,-0.0265 -0.185208,0.10583 -0.370416,0.18521 -0.555625,0.29104 -0.02646,0.0265 -0.07937,0.0265 -0.105833,0.0529 0,0 -0.02646,0 -0.02646,0.0265 -0.264584,0.1323 -0.529167,0.26459 -0.79375,0.39688 -0.238125,0.13229 -0.502709,0.23812 -0.740834,0.37042 -0.238125,0.13229 -0.47625,0.23812 -0.740833,0.37041 -0.978958,0.52917 -1.931458,1.03188 -2.883958,1.56104 0.105833,-0.0794 0.211666,-0.1852 0.3175,-0.23812 0.132291,-0.0794 0.238125,-0.13229 0.370416,-0.21167 0.740834,-0.39687 1.455209,-0.82021 2.196042,-1.21708 0.502708,-0.26458 0.978958,-0.52917 1.481667,-0.79375 0.423333,-0.21167 0.873125,-0.44979 1.322916,-0.66146 0.05292,-0.0265 0.132292,-0.0794 0.211667,-0.0529 0,0 0.02646,0 0.02646,0.0265 0.02646,0.0265 0.05292,0.0265 0.07937,0.0529 0.02646,0.0529 0.05292,0.15875 0.02646,0.23812 0,0.0265 -0.02646,0.0265 -0.05292,0.0529 0,0 -0.02646,0.0265 -0.02646,0.0265 -0.02646,0.0265 -0.05292,0.0265 -0.05292,0.0265 -0.132292,0.0794 -0.238125,0.13229 -0.370417,0.21166 -0.238125,0.15875 -0.47625,0.3175 -0.687916,0.47625 -0.07938,0.0529 -0.15875,0.10584 -0.238125,0.15875 -0.449792,0.3175 -0.899584,0.66146 -1.322917,1.00542 -0.291042,0.23813 -0.582083,0.47625 -0.873125,0.71438 -0.05292,0.0529 -0.132292,0.10583 -0.185208,0.15875 -0.635,0.52916 -1.243542,1.08479 -1.878542,1.61395 -0.423333,0.37042 -0.820208,0.71438 -1.243542,1.0848 0,0 0,0 0,0 1.005417,-0.84667 2.010834,-1.66688 3.01625,-2.48709 -0.820208,0.68792 -1.640416,1.37584 -2.434166,2.09021 0,0 0,0 0,0 0.105833,-0.0794 0.211666,-0.15875 0.3175,-0.23812 -0.3175,0.3175 -0.661459,0.60854 -0.978959,0.92604 -0.264583,0.23812 -0.502708,0.44979 -0.740833,0.68791 -0.079375,0.0529 -0.15875,0.1323 -0.2116666,0.21167 0,0 -0.026458,0.0265 -0.026458,0.0265 0.1058334,-0.0794 0.1852084,-0.15875 0.2645834,-0.21167 0.4497912,-0.37041 0.8731242,-0.76729 1.3229162,-1.13771 0.343958,-0.29104 0.714375,-0.60854 1.058333,-0.89958 0.185209,-0.15875 0.370417,-0.29104 0.529167,-0.44979 0,0 0,0 0.02646,-0.0265 0.02646,-0.0265 0.02646,-0.0265 0.05292,-0.0529 0.343958,-0.29104 0.661458,-0.55562 1.005417,-0.84666 0.529166,-0.44979 1.084791,-0.87313 1.640416,-1.29646 0.291042,-0.21167 0.555625,-0.42333 0.846667,-0.635 0.105833,-0.0794 0.185208,-0.13229 0.291042,-0.21167 0.291041,-0.21166 0.582083,-0.39687 0.899583,-0.55562 0.105833,-0.0529 0.211667,-0.10584 0.291042,-0.21167 0.05292,-0.10583 0.105833,-0.23812 0.07938,-0.39687 -0.02646,-0.1323 -0.07938,-0.23813 -0.185209,-0.29105 0.05292,0.0529 0.105834,0.10584 0.132292,0.18521 0.02646,0.0794 0.05292,0.15875 0.05292,0.26459 0,0.0265 -0.02646,0.0794 -0.02646,0.10583 -0.02646,0.0794 -0.07937,0.13229 -0.132291,0.18521 -0.02646,0.0265 -0.05292,0.0529 -0.105834,0.0794 -0.07937,0.0529 -0.132291,0.0794 -0.211666,0.10584 -0.211667,0.10583 -0.423334,0.23812 -0.608542,0.34395 -0.132292,0.0794 -0.264583,0.18521 -0.396875,0.23813 0.264583,-0.23813 0.582083,-0.44979 0.926042,-0.635 0.07938,-0.0529 0.15875,-0.10583 0.238125,-0.13229 0.07938,-0.0529 0.15875,-0.10584 0.185208,-0.21167 0.05292,-0.10583 0.02646,-0.23812 0,-0.3175 -0.05292,-0.0794 -0.105833,-0.15875 -0.211667,-0.18521 0.132292,-0.0529 0.264584,-0.13229 0.396875,-0.21166 0.07937,-0.0529 0.185209,-0.10584 0.264584,-0.18521 0.02646,-0.0265 0.05292,-0.0529 0.07937,-0.0794 0.05292,-0.0529 0.07938,-0.10583 0.105833,-0.18521 0.02646,-0.0529 0.05292,-0.13229 0.05292,-0.21166 0,-0.0794 -0.02646,-0.15875 -0.05292,-0.23813 -0.02646,-0.0794 -0.05292,-0.13229 -0.105833,-0.18521 -0.07937,-0.10583 -0.185209,-0.1852 -0.343959,-0.21166 -0.07938,-0.0265 -0.15875,-0.0265 -0.238125,-0.0265 -0.740833,0.0794 -1.322916,0.3175 -1.931458,0.52917 0.105833,-0.0265 0.264583,-0.10584 0.396875,-0.1323 -0.396875,0.15875 -0.820208,0.3175 -1.217083,0.47625 -0.238125,0.10584 -0.449792,0.23813 -0.635,0.37042 0.185208,-0.15875 0.370416,-0.3175 0.555625,-0.50271 0.15875,-0.15875 0.3175,-0.37041 0.47625,-0.55562 0.07937,-0.0794 0.132291,-0.18521 0.211666,-0.29104 0.07938,-0.10584 0.132292,-0.21167 0.15875,-0.34396 0.02646,-0.0794 0.02646,-0.18521 0,-0.23813 -0.02646,-0.0529 -0.05292,-0.10583 -0.105833,-0.15875 -0.02646,-0.0529 -0.07938,-0.0794 -0.132292,-0.10583 -0.05292,-0.0265 -0.105833,-0.0794 -0.185208,-0.0794 -0.02646,0 -0.07937,0 -0.105833,0.0265 -0.185209,0.0265 -0.3175,0.10584 -0.449792,0.21167 -0.05292,0.0265 -0.105833,0.0794 -0.15875,0.10583 -0.423333,0.29104 -0.767292,0.60854 -1.137708,0.92604 -0.555625,0.47625 -1.11125,0.97896 -1.666875,1.45521 -0.529167,0.47625 -1.058334,0.92604 -1.5874999,1.40229 -0.026458,0.0265 -0.052917,0.0529 -0.079375,0.0529 -0.7408333,0.635 -1.4816667,1.29646 -2.2225,1.93146 -0.555625,0.47625 -1.11125,0.97896 -1.666875,1.45521 0.396875,-0.39688 0.79375,-0.79375 1.2170834,-1.16417 0.1058333,-0.10583 0.2116666,-0.18521 0.2910416,-0.29104 0.1058334,-0.10583 0.1852084,-0.21167 0.2910417,-0.29104 0.1058333,-0.10584 0.2116667,-0.18521 0.2910416,-0.29104 0.1058334,-0.10584 0.2116667,-0.18521 0.2910417,-0.29105 0.79375,-0.79375 1.5875,-1.5875 2.3812499,-2.35479 0.978958,-0.97896 1.984375,-1.98437 2.963333,-2.96333 0.15875,-0.15875 0.291042,-0.29104 0.423333,-0.44979 0.05292,-0.0529 0.105834,-0.10584 0.132292,-0.15875 0.07937,-0.13229 0.132292,-0.26459 0.132292,-0.39688 0,-0.0529 0,-0.0794 0,-0.13229 0,-0.10583 -0.07938,-0.18521 -0.132292,-0.26458 -0.02646,-0.0265 -0.02646,-0.0265 -0.05292,-0.0529 -0.05292,-0.0529 -0.132291,-0.0794 -0.211666,-0.0794 -0.07938,-0.0265 -0.185209,0 -0.264584,0.0265 -0.15875,0.0529 -0.264583,0.10584 -0.396875,0.18521 0,0 -0.15875,0.10584 -0.211666,0.15875 0.05292,-0.0529 0.132291,-0.10583 0.185208,-0.15875 0,0 0,0 0,-0.0265 0,0 0,0 0,0 0.132292,-0.15875 0.185208,-0.37041 0.05292,-0.47625 -0.105834,-0.13229 -0.343959,-0.10583 -0.529167,0.0265 -0.02646,0.0265 -0.07937,0.0794 -0.105833,0.10584 -0.264584,0.29104 -0.502709,0.55562 -0.767292,0.8202 -0.07937,0.0794 -0.132292,0.15875 -0.238125,0.23813 -0.238125,0.21167 -0.47625,0.42333 -0.714375,0.635 -0.15875,0.13229 -0.3175,0.29104 -0.47625,0.42333 -0.15875,0.13229 -0.3175,0.29104 -0.47625,0.42334 -0.2381246,0.21166 -0.4762496,0.42333 -0.7143746,0.635 -0.079375,0.0794 -0.15875,0.13229 -0.238125,0.21166 0.2116667,-0.15875 0.396875,-0.29104 0.6085417,-0.42333 -0.3439583,0.3175 -0.714375,0.60854 -1.0847917,0.92604 -0.3704166,0.3175 -0.7143749,0.635 -1.0847916,0.92604 -0.714375,0.60854 -1.4022917,1.24354 -2.0902083,1.85209 0,0 -0.026458,0.0264 -0.026458,0.0264 0,-0.47625 -0.026458,-1.37583 -0.026458,-1.42875 0,-0.0529 -0.1322916,-0.10583 -0.2910416,-0.10583 -0.052917,0 -0.079375,0 -0.1322917,0 0.026458,-0.68792 0.026458,-1.40229 0.052917,-2.09021 v 0 c 0,-0.15875 -0.1852084,-0.26458 -0.4233334,-0.26458 0,0 -0.026458,0 -0.026458,0 0,0 -0.026458,0 -0.026458,0 -0.026458,0 -0.052917,0 -0.052917,0 -0.026458,0 -0.026458,0 -0.052917,0.0265 -0.026458,0 -0.026458,0.0265 -0.052917,0.0265 -0.026458,0 -0.026458,0.0265 -0.052917,0.0265 -0.026458,0 -0.026458,0.0265 -0.052917,0.0265 0,0 -0.026458,0.0265 -0.026458,0.0265 0,0 -0.026458,0.0265 -0.026458,0.0529 0,0.0265 0,0.0265 -0.026458,0.0529 0,0.0265 0,0.0265 0,0.0529 0,0 0,0 0,0.0265 0,0 0,0 0,0.0265 v 0.0265 c 0,0 0,0 0,0.0265 0,0 0,0 0,0.0265 0,0 0,0 0,0.0265 0,0 0,0 0,0.0265 0,0 0,0 0,0.0265 0,0 0,0 0,0.0265 0,0 0,0.0265 0,0.0265 0,0 0,0.0265 0,0.0265 0,0 0,0.0265 0,0.0265 0,0 0,0.0265 0,0.0265 0,0 0,0.0265 0,0.0265 0,0 0,0.0265 0,0.0265 0,0 0,0.0265 0,0.0265 0,0 0,0.0265 0,0.0265 0,0 0,0.0265 0,0.0265 0,0 0,0.0265 0,0.0265 0,0 0,0.0265 0,0.0265 0,0 0,0.0265 0,0.0265 v 0.0265 c 0,0 0,0.0265 0,0.0265 0,0.0265 0,0.0265 0,0.0529 0,0.0265 0,0.0265 0,0.0529 0,0.0265 0,0.0265 0,0.0529 0,0.0265 0,0.0265 0,0.0529 0,0.0265 0,0.0265 0,0.0529 v 0.0529 c 0,0.0265 0,0.0265 0,0.0529 0,0.0265 0,0.0265 0,0.0529 0,0.0265 0,0.0265 0,0.0529 0,0.0265 0,0.0265 0,0.0529 0,0.0265 0,0.0265 0,0.0529 0,0.0265 0,0.0265 0,0.0529 0,0.0265 0,0.0265 0,0.0529 0,0.0265 0,0.0265 0,0.0529 0,0.0265 0,0.0265 0,0.0529 0,0.0265 0,0.0265 0,0.0529 v 0.0529 c 0,0.0265 0,0.0265 0,0.0529 v 0.0529 c 0,0.0265 0,0.0265 0,0.0529 v 0.0529 c 0,0.0265 0,0.0265 0,0.0529 0,0.0265 0,0.0265 0,0.0529 v 0.0529 c 0,0.0265 0,0.0265 0,0.0529 0,0.0265 0,0.0265 0,0.0529 0,0.0265 0,0.0265 0,0.0529 0,0.0265 0,0.0265 0,0.0529 0,0.0265 0,0.0265 0,0.0529 0,0.0265 0,0.0265 0,0.0529 0,0.0265 0,0.0265 0,0.0529 0,0.0265 0,0.0265 0,0.0529 0,0.0265 0,0.0265 0,0.0529 0,0.0265 0,0.0265 0,0.0529 0,0.0265 0,0.0265 0,0.0529 0,0.0265 0,0.0265 0,0.0529 0,0.0265 0,0.0265 0,0.0529 v 0.0529 c 0,0.0265 0,0.0265 0,0.0529 0,0.0265 0,0.0265 0,0.0529 0,0.0265 0,0.0265 0,0.0529 0,0.0265 0,0.0265 0,0.0529 0,0.0265 0,0.0265 0,0.0529 0,0.0265 0,0.0265 0,0.0529 0,0.0264 0,0.0264 0,0.0529 0,0.0265 0,0.0265 0,0.0529 0,0.0265 0,0.0265 0,0.0529 0,0.0264 0,0.0264 0,0.0529 0,0.0265 0,0.0265 0,0.0529 0,0.0265 0,0.0265 0,0.0529 0,0.0264 0,0.0264 0,0.0529 0,0.0265 0,0.0265 0,0.0529 0,0.0265 0,0.0265 0,0.0529 0,0.0264 0,0.0264 0,0.0529 0,0.0265 0,0.0265 0,0.0529 0,0.0265 0,0.0265 0,0.0529 0,0.0264 0,0.0264 0,0.0529 0,0.0265 0,0.0265 0,0.0529 0,0 0,0.0265 0,0.0265 0,0 0,0 0,0 0,0 0,0 0,0 0,0 0,0 0,0 -0.052917,-0.10584 -0.1058333,-0.18521 -0.1322916,-0.29104 -0.026458,-0.0265 -0.052917,-0.0794 -0.052917,-0.10584 -0.026458,-0.18521 -0.026458,-0.39687 -0.026458,-0.58208 0,-0.18521 -0.026458,-0.39688 -0.026458,-0.58208 -0.026458,-0.39688 -0.052917,-0.7673 -0.052917,-1.16417 -0.052917,-1.05833 -0.1322917,-2.11667 -0.15875,-3.20146 0,-0.0529 0,-0.10583 0,-0.13229 0,-0.0529 0,-0.10583 0.026458,-0.13229 0.1058333,-1.08479 0.3439583,-3.22792 0.3439583,-3.28084 0,-0.42333 -0.2116666,-0.76729 -0.5027083,-0.79375 -0.2910417,0 -0.5291667,0.3175 -0.555625,0.74084 0,0.0794 0.079375,1.5875 0.1322917,2.38125 0,0.0529 0.026458,0.13229 0,0.18521 0,0.10583 -0.026458,0.23812 -0.052917,0.34395 -0.079375,-0.58208 -0.1852083,-1.16416 -0.2910417,-1.74625 -0.1058333,-0.55562 -0.2116666,-1.11125 -0.3439583,-1.66687 -0.052917,-0.29104 -0.15875,-0.58208 -0.3175,-0.82021 0.079375,-0.39687 -0.15875,-0.66146 -0.4497916,-0.71437 -0.2645834,-0.0529 -0.47625,0.0265 -0.635,0.15875 -0.18520836,0.13229 -0.34395836,0.42333 -0.37041669,0.635 -0.0529167,0.29104 0,0.58208 0.0529167,0.87312 0.10583333,0.68792 0.15874999,1.37583 0.23812499,2.06375 0.052917,0.39688 0.1058333,0.76729 0.1322916,1.16417 -0.1058333,-0.18521 -0.18520826,-0.37042 -0.26458326,-0.58209 -0.60854166,-1.34937 -1.24354165,-2.7252 -1.87854165,-4.07458 -0.0264584,0 0,0 0,0 0,0 0,0 0,0 0.26458333,0.60854 0.555625,1.21708 0.82020833,1.85208 -0.3175,-0.58208 -0.58208333,-1.21708 -0.87312502,-1.82562 -0.1852083,0.0794 -0.3439583,0.15875 -0.5291667,0.23812 0.026458,0 0,0 0,0 0.76729173,1.77271 1.53458338,3.51896 2.30187504,5.29167 0.238125,0.55563 0.47624996,1.11125 0.71437496,1.66688 0.026458,0.0264 0.026458,0.0794 0.052917,0.10583 -0.60854166,-1.29646 -1.21708332,-2.61938 -1.82562498,-3.91583 0,0 0,0 0,0 0.44979166,0.97895 0.87312499,1.95791 1.29645832,2.93687 0,0.0265 0.0264583,0.0529 0.0264583,0.10583 -0.55562423,-1.19062 -1.13770756,-2.35479 -1.69333255,-3.54541 0,-0.0265 0,-0.0265 -0.0264583,-0.0265 -0.0529167,0.0265 -0.079375,0.0265 -0.10583333,0.0529 -0.37041732,-0.87313 -1.05833402,-2.54 -1.08479232,-2.59292 -0.1852083,-0.37042 -0.5291667,-0.58208 -0.8202083,-0.47625 -0.3175,0.0529 -0.3704167,0.44979 -0.3175,0.74083 0.052917,0.21167 0.1322917,0.42334 0.2116667,0.635 0.079375,0.21167 0.15875,0.44979 0.2645833,0.66146 0.026458,0.0529 0.052917,0.10583 0.052917,0.18521 0.026458,0.0529 0.026458,0.13229 0.079375,0.18521 -0.1587499,-0.21167 -0.3704166,-0.3175 -0.5291666,-0.26459 -0.2116667,0.0794 -0.2645833,0.42334 -0.1852083,0.7673 -0.15875,-0.21167 -0.3439584,-0.3175 -0.5027084,-0.23813 -0.2116666,0.0794 -0.2645833,0.44979 -0.1058333,0.84667 0,0 0,0.0265 0.026458,0.0265 0.026458,0.0265 0.026458,0.0529 0.052917,0.10583 0.15875,0.39687 0.3175,0.79375 0.47625,1.19062 -0.1322917,-0.21166 -0.238125,-0.42333 -0.3704167,-0.635 -0.026458,-0.0529 -0.052917,-0.0794 -0.079375,-0.10583 -0.079375,-0.0794 -0.1852083,-0.10583 -0.2910416,-0.0529 -0.079375,0.0529 -0.15875,0.1323 -0.15875,0.23813 0,0.0529 0.026458,0.10583 0.026458,0.15875 0.026458,0.0529 0.052917,0.10583 0.052917,0.13229 0.238125,0.58208 0.47625,1.11125 0.714375,1.69333 0.47625,1.13771 0.9524999,2.24896 1.4552083,3.38667 0.3175,0.68792 0.6085416,1.40229 0.92604229,2.09021 0.0264583,0.0529 0.0529167,0.0794 0.0529167,0.13229 -0.37041739,-0.76729 -0.71437569,-1.53458 -1.08479239,-2.30187 0.4497917,1.03187 0.8995834,2.0902 1.34937572,3.09562 0.0264583,0.0265 0.0264583,0.0529 0.0264583,0.10583 -0.079375,-0.0265 -0.13229167,-0.0265 -0.18520833,-0.0529 -0.0529167,-0.0265 -0.13229167,-0.0265 -0.18520833,-0.0529 -0.0529167,-0.0265 -1.34937566,-0.66146 -1.45520896,-0.71437 -0.3439583,-0.18521 -4.4714583,-1.93146 -4.6302083,-2.01084 -0.026458,0 -0.052917,-0.0265 -0.052917,-0.0265 -0.5027083,-0.21166 -0.635,0.26459 -0.5820833,0.39688 -0.15875,-0.0529 -0.3439583,-0.13229 -0.5291666,-0.18521 -0.1852084,-0.0529 -0.5291667,-0.18521 -0.5291667,-0.18521 -0.079375,-0.0265 -0.2116667,0.0794 -0.2645833,0.23813 -0.026458,0.0794 -0.052917,0.18521 -0.026458,0.23812 -0.2116666,-0.0529 -0.4233333,-0.10583 -0.6085416,-0.18521 -0.1058334,-0.0265 -0.2116667,-0.0794 -0.3439584,-0.10583 -0.1058326,-0.0265 -0.2381246,-0.0529 -0.3704166,-0.0794 -0.132291,-0.0265 -0.264583,-0.0529 -0.396875,-0.0265 -0.132291,0.0265 -0.291041,0.0529 -0.396875,0.15875 -0.105833,0.10583 -0.105833,0.26458 -0.07938,0.42333 0.02646,0.13229 0.105834,0.26458 0.185209,0.39688 0.02646,0.0264 0.05292,0.0794 0.07938,0.10583 0.02646,0.0265 0.05292,0.0529 0.07937,0.10583 0.02646,0.0265 0.07938,0.0794 0.105833,0.10584 0.05292,0.0264 0.07938,0.0794 0.132292,0.10583 0.05292,0.0265 0.105833,0.0529 0.15875,0.10583 0.05292,0.0265 0.105833,0.0794 0.185208,0.10584 0.05292,0.0265 0.132292,0.0794 0.211667,0.10583 0.079375,0.0265 0.1587493,0.0529 0.2381243,0.0794 0.079375,0.0265 0.15875,0.0529 0.2645833,0.0794 0.026458,0 0.052917,0.0265 0.052917,0.0265 -0.1058333,-0.0265 -0.1852083,-0.0265 -0.2910417,-0.0529 -0.052917,0.23813 -0.15875,0.55563 -0.15875,0.55563 0,0 0,0 0,0 0,0 3.9422917,1.69333 5.953125,2.51354 -1.1641667,-0.37042 -2.3547917,-0.74084 -3.5189583,-1.11125 -0.396875,-0.13229 -0.79375,-0.23813 -1.1641667,-0.37042 -0.7672916,-0.23812 -1.6139579,-0.44979 -2.5135419,-0.58208 -0.238125,-0.0265 -0.47625,-0.0529 -0.714375,-0.0529 -0.105833,0 -0.238125,-0.0265 -0.343958,-0.0529 -0.105833,-0.0265 -0.238125,-0.0265 -0.343958,-0.0529 -0.05292,0 -0.105834,0 -0.15875,-0.0265 -0.05292,-0.0265 -0.105834,-0.0265 -0.15875,-0.0529 -0.238125,-0.0794 -0.502709,-0.15875 -0.740834,-0.23812 -0.05292,0 -0.07937,-0.0265 -0.132291,-0.0265 0,0 -0.02646,0 -0.02646,0 -0.15875,-0.0265 -0.3175,0.13229 -0.370416,0.34396 -0.05292,0.21166 0.05292,0.42333 0.185208,0.44979 0,0 0.02646,0 0.02646,0 0,0 0.02646,0 0.02646,0 0.370416,0.0529 0.714375,0.0794 1.058333,0.13229 0.07937,0 0.15875,0.0529 0.238125,0.0794 0.238125,0.0794 0.502708,0.15875 0.740833,0.23812 -0.05292,0.10583 -0.07938,0.23813 -0.105833,0.34396 -0.02646,0.0794 -0.05292,0.18521 -0.07938,0.26458 0,0.0265 0,0.0265 -0.02646,0.0529 0.264583,0.0794 0.529166,0.15875 0.79375,0.23812 1.8785413,0.55563 3.7570829,1.11125 5.6091662,1.66688 -0.052917,0.15875 -0.1058333,0.3175 -0.15875,0.47625 -0.5820833,-0.18521 -1.1641666,-0.39688 -1.74625,-0.60854 -0.2910416,-0.10584 -0.5820833,-0.21167 -0.8731249,-0.29104 -0.5820834,-0.18521 -1.2170834,-0.42334 -1.7991663,-0.60855 0,0 -0.05292,-0.0264 -0.02646,0 0.02646,0.0265 0.07938,0.0265 0.105834,0.0529 0.5027079,0.18521 1.0054163,0.34396 1.5081246,0.52917 0.238125,0.0794 0.5027083,0.18521 0.7408333,0.26458 0.026458,0 0.079375,0.0265 0.1058334,0.0529 -0.238125,-0.0529 -0.47625,-0.13229 -0.714375,-0.21167 -0.47625,-0.13229 -0.9260417,-0.29104 -1.4022917,-0.42333 -0.2381246,-0.0794 -0.4762496,-0.15875 -0.6879166,-0.23813 -0.264583,-0.0794 -0.502708,-0.18521 -0.767292,-0.26458 -0.132291,-0.0529 -0.370416,-0.13229 -0.661458,-0.23813 -0.291042,-0.1852 -0.714375,-0.34395 -1.11125,-0.47625 -0.02646,0 -0.05292,-0.0265 -0.07937,-0.0265 -0.132292,-0.0265 -0.264583,0.0794 -0.3175,0.26458 -0.05292,0.18521 0,0.34396 0.132292,0.39687 0.02646,0 0.05292,0 0.05292,0 0.05292,0 0.05292,0.0265 0.105834,0.0265 0.978958,0.26459 1.931458,0.55563 2.883958,0.82021 0.105833,0.0265 0.211667,0.0529 0.291042,0.0794 0.4762496,0.15875 0.9789579,0.34395 1.4287496,0.5027 -0.238125,-0.0529 -0.47625,-0.13229 -0.714375,-0.1852 0,0 0,0 0,0 0.3175,0.0794 0.6085417,0.15875 0.9260417,0.26458 0.15875,0.0529 0.2910416,0.10583 0.4233333,0.15875 0.15875,0.0529 0.2910417,0.10583 0.4233333,0.15875 0.5820833,0.21167 1.1641667,0.39687 1.74625,0.60854 0.5820833,0.21167 1.1641666,0.39688 1.74625,0.60854 0.5820833,0.18521 1.1641666,0.39688 1.7462499,0.60854 -1.4287499,1.29646 -2.8839582,2.59292 -4.1804166,4.04813 -0.238125,0.26458 -0.47625,0.55562 -0.6879166,0.84667 -0.026458,0.0265 -0.052917,0.0794 -0.079375,0.10583 -0.052917,0.0529 -0.1322917,0.10583 -0.1852084,0.15875 0,0 -0.3174999,0.23812 -0.3704166,0.3175 -0.052917,0.0794 0.026458,0.26458 0.1852083,0.37042 0.15875,0.10583 0.3439583,0.13229 0.4233333,0.0529 0,0 0,0 0,0 0,0 0,0 0,0 0,0 0,0 0,0 0,0 0,0 0,0 0.079375,-0.15875 0.1852084,-0.29104 0.2645834,-0.44979 0.026458,-0.0265 0.052917,-0.0794 0.079375,-0.10583 0.026458,-0.0265 0.052917,-0.0529 0.1058333,-0.0794 0.079375,-0.0529 0.1322917,-0.10583 0.2116667,-0.15875 1.8785416,-1.50812 3.7306249,-2.98979 5.6091666,-4.52437 0.026458,-0.0265 0.079375,-0.0794 0.10583396,-0.0794 0,0 0.0529167,0.0265 0.0529167,0.0265 0.0529167,0.0265 0.13229167,0.0529 0.18520833,0.0529 -0.44979239,0.47625 -0.89958399,0.9525 -1.32291739,1.45521 -0.1058333,0.13229 -0.2116666,0.23812 -0.3439583,0.37041 -0.2116666,0.23813 -0.4497916,0.47625 -0.6614583,0.74084 -0.1058333,0.13229 -0.2116667,0.23812 -0.3175,0.37041 0.026458,0 0.052917,-0.0529 0.079375,-0.0529 -0.79375,0.84666 -2.4341666,2.48708 -2.4341666,2.48708 0.052917,0.0529 0.079375,0.0794 0.1322916,0.13229 -0.3704166,0.34396 -0.7672916,0.71438 -1.1641666,1.05833 0.026458,0.0265 0.079375,0.0794 0.1058333,0.10584 -0.15875,0.13229 -0.3175,0.26458 -0.47625,0.39687 -0.026458,0.0265 -0.079375,0.0529 -0.079375,0.0529 -0.079375,0.0794 -0.026458,0.29104 0.1322917,0.47625 0.1322916,0.15875 0.2910416,0.26458 0.396875,0.23812 0,0 0,0 0,0 -0.2645834,0.26459 -0.5820834,0.55563 -0.8466667,0.82021 -0.026458,0.0265 -0.1058333,0.10584 -0.1322917,0.13229 -0.079375,0.10584 -0.1322916,0.37042 -0.079375,0.52917 0,0.0265 0.026458,0.10583 0.079375,0.13229 -0.2116666,0.18521 -0.4233333,0.34396 -0.6349999,0.52917 -0.026458,0.0265 -0.052917,0.0529 -0.052917,0.0529 -0.052917,0.0794 -0.026458,0.21166 0.079375,0.34395 0.1058333,0.1323 0.2645833,0.21167 0.3439583,0.15875 0,0 0,0 0,0 0,0.0529 0,0.1323 0.052917,0.21167 0.079375,0.10583 0.15875,0.15875 0.238125,0.13229 0.026458,0 0.026458,0 0.026458,0 0.026458,0 0.026458,-0.0265 0.026458,-0.0265 0.7408334,-0.58208 1.4552084,-1.16416 2.1695834,-1.74625 0.238125,-0.1852 0.5027083,-0.39687 0.7408333,-0.58208 -0.238125,0.3175 -0.4497917,0.66146 -0.6879167,0.9525 -0.026458,0.0265 -0.052917,0.0529 -0.079375,0.0794 -0.1058333,0.10583 -0.2116666,0.1852 -0.2910416,0.29104 -0.2116667,0.21166 -0.396875,0.39687 -0.6085417,0.58208 -0.15875,0.15875 -0.3439583,0.34396 -0.5027083,0.50271 -0.026458,0.0265 -0.1058334,0.0794 -0.1058334,0.0794 -0.15875,0.18521 -0.15875,0.4498 0,0.60855 0,0 0,0 0,0 0,0 0,0 0.026458,0 0,0 0.026458,0 0.026458,0.0264 0,0 0.026458,0 0.026458,0.0265 0,0 0.026458,0 0.026458,0 0,0 0.026458,0 0.026458,0 0,0 0.026458,0 0.026458,0 0,0 0.026458,0 0.026458,0 0,0 0.026458,0 0.026458,0 0,0 0.026458,0 0.026458,0 0,0 0.026458,0 0.026458,0 0,0 0.026458,0 0.026458,0 0,0 0.026458,0 0.026458,0 0,0 0.026458,0 0.026458,0 0,0 0.026458,0 0.026458,0 0,0 0.026458,0 0.026458,-0.0265 0,0 0.026458,0 0.026458,-0.0264 0,0 0.026458,0 0.026458,-0.0265 0,0 0.026458,-0.0265 0.026458,-0.0265 0,0 0.026458,-0.0265 0.026458,-0.0265 0,0 0.026458,-0.0265 0.026458,-0.0265 0,0 0,0 0,0 0,0 0,0 0,-0.0265 0,0 0,0 0,-0.0264 0,0 0,0 0.026458,-0.0265 0,0 0,-0.0265 0.026458,-0.0265 0,0 0,-0.0265 0.026458,-0.0265 0,0 0,-0.0265 0.026458,-0.0265 0,0 0.026458,-0.0265 0.026458,-0.0265 0,0 0.026458,-0.0265 0.026458,-0.0265 0,0 0.026458,-0.0265 0.026458,-0.0265 0,0 0.026458,-0.0265 0.026458,-0.0265 0,0 0.026458,-0.0265 0.026458,-0.0265 0,0 0.026458,-0.0265 0.026458,-0.0265 0,-0.0265 0.026458,-0.0265 0.026458,-0.0529 0,-0.0265 0.026458,-0.0265 0.026458,-0.0529 0,-0.0265 0.026458,-0.0265 0.026458,-0.0529 0,-0.0265 0.026458,-0.0265 0.026458,-0.0529 0,-0.0265 0.026458,-0.0265 0.026458,-0.0529 0,-0.0265 0.026458,-0.0265 0.026458,-0.0529 0,-0.0265 0.026458,-0.0265 0.026458,-0.0529 0,-0.0265 0.026458,-0.0265 0.026458,-0.0529 0,-0.0265 0.026458,-0.0265 0.026458,-0.0529 0,-0.0265 0.026458,-0.0265 0.026458,-0.0529 0,-0.0265 0.026458,-0.0265 0.026458,-0.0529 0,-0.0265 0.026458,-0.0265 0.026458,-0.0529 0,-0.0265 0.026458,-0.0265 0.026458,-0.0529 0,-0.0265 0.026458,-0.0265 0.026458,-0.0529 0,-0.0265 0.026458,-0.0265 0.026458,-0.0529 0,-0.0265 0.026458,-0.0265 0.026458,-0.0529 0,-0.0265 0.026458,-0.0265 0.026458,-0.0529 0,-0.0265 0.026458,-0.0265 0.026458,-0.0529 0,-0.0265 0.026458,-0.0265 0.026458,-0.0529 0,-0.0265 0.026458,-0.0265 0.026458,-0.0529 0,-0.0265 0.026458,-0.0265 0.026458,-0.0529 0,-0.0265 0.026458,-0.0265 0.026458,-0.0529 0,-0.0265 0.026458,-0.0265 0.026458,-0.0529 0,-0.0265 0.026458,-0.0265 0.026458,-0.0529 0,-0.0265 0.026458,-0.0265 0.026458,-0.0529 0,-0.0265 0.026458,-0.0265 0.026458,-0.0529 0,-0.0265 0.026458,-0.0265 0.026458,-0.0529 0,-0.0265 0.026458,-0.0265 0.026458,-0.0529 0.079375,-0.10584 0.15875,-0.23813 0.2645833,-0.3175 0.1058333,-0.0794 0.1852083,-0.18521 0.2910416,-0.29105 0.2910417,-0.29104 0.5820834,-0.55562 0.873125,-0.84666 0.2910417,-0.29104 0.5820834,-0.55563 0.873125,-0.84667 0.1058334,-0.10583 0.1852084,-0.18521 0.2910417,-0.29104 0.1852083,-0.18521 0.396875,-0.37042 0.5820833,-0.55563 0.1058333,-0.10583 0.1852083,-0.1852 0.2910417,-0.29104 0.1852083,-0.18521 0.396875,-0.37041 0.5820833,-0.55562 0.2910417,-0.29104 0.58208403,-0.55563 0.87312569,-0.84667 0.0529167,-0.0529 0.10583333,-0.10583 0.13229167,-0.13229 0.13229166,-0.13229 0.29104166,-0.29104 0.44979166,-0.42333 0.10583333,-0.10584 0.18520833,-0.18521 0.29104166,-0.29105 0.0529167,-0.0529 0.10583333,-0.0794 0.15875,-0.13229 0.31749999,-0.26458 0.63499932,-0.52916 0.95249932,-0.76729 0.3704166,-0.29104 0.7408333,-0.60854 1.11125,-0.89958 -2.59291598,2.67229 -5.1858333,5.34458 -7.7522916,8.04333 0,0 -0.026458,0.0265 -0.026458,0.0265 0,0 0,0 -0.026458,0.0265 0,0 0,0 0.026458,-0.0265 0.7143749,-0.71438 1.4552083,-1.42875 2.1695833,-2.14313 0.4497916,-0.44979 0.8995833,-0.89958 1.3493749,-1.34937 0.2645834,-0.26458 0.5291667,-0.55563 0.79375073,-0.82021 0.37041666,-0.37042 0.71437499,-0.74083 1.05833332,-1.08479 0.71437499,-0.71438 1.42874925,-1.45521 2.14312425,-2.16958 0.3439584,-0.34396 0.6879167,-0.68792 1.031875,-1.03188 0,0 0.026458,-0.0265 0.052917,-0.0529 0.026458,0.0529 0.052917,0.10584 0.079375,0.15875 0.026458,0.0529 0.026458,0.10584 0.026458,0.15875 0.026458,0.1323 0.052917,0.26459 0.079375,0.39688 0.1322917,1.16417 0.3175,2.88396 0.3439583,3.01625 0.052917,0.44979 0.1322917,0.92604 0.2116667,1.37583 0.15875,1.05834 0.8995833,5.23875 1.031875,5.50334 0.052917,0.13229 0.1852083,0.29104 0.3439583,0.29104 0.15875,0.0265 0.3439583,-0.15875 0.3704167,-0.3175 0.026458,-0.21167 -0.052917,-0.42334 -0.052917,-0.635 0,-0.52917 0,-1.05834 0,-1.5875 0,-0.15875 0,-0.3175 0,-0.47625 0,-0.29104 -0.026458,-0.58209 -0.052917,-0.87313 -0.052917,-0.58208 -0.1322916,-1.16416 -0.2116666,-1.74625 -0.026458,-0.15875 -0.1058334,-1.08479 -0.1058334,-1.21708 0.9260417,1.79917 2.778125,5.42396 2.778125,5.42396 0.052917,0.0529 0.1852083,0.0529 0.3704167,0 0.15875,-0.0794 0.2910416,-0.18521 0.2645833,-0.26459 0,0 0,0 0,0 -0.7408333,-1.82562 -1.4816666,-3.6777 -2.2225,-5.47687 0.5027084,0.635 0.9789584,1.29646 1.4552083,1.95792 0.026458,0.0529 0.052917,0.0794 0.079375,0.13229 0.026458,0.0529 0.052917,0.10583 0.052917,0.15875 0.2910417,0.71437 0.6085417,1.40229 0.9260417,2.06375 -0.396875,-0.68792 -0.7408334,-1.40229 -1.0583334,-2.14313 0,0 0,0 0,0 0.2116667,0.50271 0.396875,1.00542 0.6085417,1.50813 0.2116667,0.47625 0.47625,0.9525 0.7408333,1.37583 0.1322917,0.21167 0.2645834,0.42333 0.4233334,0.635 0.1058336,0.13229 0.2645836,0.29104 0.3968746,0.39688 0.132292,0.10583 0.370417,0.21166 0.608542,0.15875 0.132292,-0.0265 0.238125,-0.10584 0.3175,-0.21167 0.07938,-0.10583 0.132292,-0.23813 0.105833,-0.39688 0,-0.15875 -0.05292,-0.29104 -0.105833,-0.42333 0.15875,-0.0529 0.291042,-0.13229 0.449792,-0.21167 0.02646,0 0.05292,0 0.05292,-0.0265 -0.291041,-0.60855 -0.608541,-1.24355 -0.873125,-1.85209 -0.291041,-0.60854 -0.608541,-1.24354 -0.873125,-1.85208 -0.2910413,-0.60854 -0.582083,-1.24354 -0.8731246,-1.85208 -0.2910417,-0.60855 -0.6085417,-1.21709 -0.8995834,-1.82563 0.1058334,0.0529 0.238125,0.0794 0.3439584,0.10583 1.2964583,2.69875 2.6193746,5.37105 3.9422916,8.04334 0,0 0,0 0,0 -1.243542,-2.67229 -2.487083,-5.31813 -3.730625,-7.96396 1.402292,0.44979 2.804583,0.92604 4.233333,1.37583 0,0 0,0 0,0 -0.714375,-0.26458 -1.42875,-0.50271 -2.143125,-0.76729 -0.714375,-0.26458 -1.4287496,-0.50271 -2.1431246,-0.74083 0,0 0,0 0,0 -0.079375,-0.15875 -0.15875,-0.34396 -0.238125,-0.50271 0.635,0.21167 1.27,0.39687 1.9049996,0.60854 0.07938,0.0265 0.185209,0.0529 0.264584,0.0794 0.926041,0.29104 1.852083,0.55562 2.778125,0.8202 0.185208,0.0529 0.370416,0.10584 0.555625,0.18521 0.370416,0.10584 0.714375,0.23813 1.084791,0.34396 0.370417,0.13229 0.714375,0.23813 1.058334,0.37042 0.264583,0.10583 0.529166,0.18521 0.79375,0.29104 0.07937,0.0529 0.185208,0.10583 0.185208,0.10583 0.02646,0 0.02646,0 0.05292,0 v 0 c 0,0 0,0 0,0 0.185208,0 0.449791,-0.34396 0.582083,-0.79375 0.15875,-0.50271 0.105833,-0.97896 -0.07937,-1.03187 0,0 -0.105833,-0.0265 -0.132292,-0.0265 0.05292,-0.21167 0.02646,-0.39688 -0.105833,-0.42333 0,0 -3.01625,-0.97896 -4.471458,-1.42875 -0.211667,-0.0529 -0.423334,-0.1323 -0.635,-0.18521 -0.820209,-0.26459 -1.666875,-0.52917 -2.4870836,-0.76729 0.079375,0 0.1852086,0 0.2645836,0 0.15875,0.0529 1.322916,0.42333 1.666875,0.52916 0.608541,0.18521 1.190625,0.37042 1.772708,0.55563 0.555625,0.18521 1.693333,0.55562 1.719792,0.55562 0,0 0.02646,0 0.05292,0 0.05292,-0.0265 0.105834,-0.0794 0.132292,-0.15875 0.02646,-0.10583 0.02646,-0.18521 0,-0.23812 0,0 0,-0.0265 -0.02646,-0.0265 -0.02646,0 -0.02646,0 -0.02646,0 -0.15875,-0.0529 -0.3175,-0.10583 -0.47625,-0.15875 -0.555625,-0.18521 -1.11125,-0.37042 -1.666875,-0.58208 -0.370416,-0.1323 -0.740833,-0.26459 -1.11125,-0.37042 -0.132291,-0.0529 -0.264583,-0.0794 -0.396875,-0.13229 3.942292,-0.10584 7.831667,-0.37042 6.35,-0.635 m -24.0506244,-2.09021 c -0.2116667,-0.0529 -0.4233334,-0.13229 -0.635,-0.18521 0.052917,0 0.1058333,0.0265 0.15875,0.0529 0.1058333,0.0265 0.2116666,0.0529 0.3439583,0.10583 0.052917,0.0265 0.1058333,0.0265 0.15875,0.0529 0,-0.0265 -0.026458,-0.0265 -0.026458,-0.0265 m 9.4191665,-7.77875 c 0,-0.0794 0.026458,-0.18521 0.026458,-0.26458 0.026458,-0.1323 0.026458,-0.23813 0.052917,-0.37042 0.052917,0.3175 0.079375,0.66146 0.15875,0.97896 0.026458,0.10583 0.026458,0.21166 0.026458,0.3175 -0.079375,-0.15875 -0.15875,-0.3175 -0.238125,-0.50271 0,-0.0265 -0.026458,-0.0529 -0.026458,-0.0794 0,-0.0265 0,-0.0529 0,-0.0794 m -0.1058333,0.82021 c 0,-0.0529 0.026458,-0.15875 0.026458,-0.21167 0.1058333,0.21167 0.2116667,0.44979 0.3175,0.66146 0.026458,0.0265 0.026458,0.0529 0.052917,0.0794 0,0.0265 0,0.0794 0,0.10584 0,0.10583 0,0.21166 0.026458,0.34396 -0.1322917,-0.26459 -0.2645833,-0.55563 -0.396875,-0.84667 -0.026458,-0.0529 -0.026458,-0.0794 -0.026458,-0.13229 m -0.1322917,-3.41313 c -0.026458,0.18521 -0.052917,0.39688 -0.052917,0.58209 -0.026458,0.29104 -0.052917,0.55562 -0.079375,0.8202 0.052917,-0.47625 0.1322917,-0.97895 0.1852084,-1.4552 0.026458,0.0794 0,0.21166 0,0.3175 -0.052917,0.52916 -0.1058334,1.08479 -0.15875,1.61395 -0.026458,-0.0529 -0.052917,-0.10583 -0.079375,-0.15875 0,-0.0265 -0.026458,-0.0529 -0.026458,-0.0529 0,-0.0265 0,-0.0794 0.026458,-0.13229 0.079375,-0.60855 0.15875,-1.24355 0.2116666,-1.82563 0,0.0794 -0.026458,0.18521 -0.026458,0.29104 m -1.0583333,0.89959 c -0.026458,-0.1323 -0.026458,-0.26459 -0.052917,-0.39688 0.2645834,0.52917 0.5027084,1.05833 0.7672917,1.56104 0,0.0794 -0.026458,0.18521 -0.026458,0.26459 -0.2381249,-0.4498 -0.4762499,-0.9525 -0.6879166,-1.42875 m 0.6085417,1.85208 c 0,0.0529 -0.026458,0.10583 -0.026458,0.13229 -0.15875,-0.34396 -0.3175,-0.68792 -0.4497916,-1.05833 0,-0.0265 -0.026458,-0.0529 -0.026458,-0.0794 -0.026458,-0.0529 0,-0.10583 -0.026458,-0.15875 0.1852083,0.39688 0.3439583,0.79375 0.5291667,1.16417 m -0.873125,-1.87854 c 0.079375,0.13229 0.1322916,0.29104 0.1852083,0.42333 0,0.0529 0,0.0794 0,0.10583 -0.079375,-0.15875 -0.1322917,-0.29104 -0.2116667,-0.44979 0.052917,-0.0265 0.026458,-0.0529 0.026458,-0.0794 m 0.1058333,-0.60854 c 0,0.13229 0.026458,0.23812 0.026458,0.34395 -0.079375,-0.13229 -0.1322916,-0.29104 -0.2116666,-0.44979 0,-0.10583 -0.026458,-0.23812 -0.026458,-0.34396 0.052917,0.15875 0.1322917,0.3175 0.2116667,0.4498 m -0.2910417,-1.03188 c 0,-0.10583 -0.026458,-0.21167 -0.026458,-0.34396 0.079375,0.15875 0.15875,0.3175 0.2116667,0.47625 0,0.0794 0.026458,0.18521 0.026458,0.26459 -0.079375,-0.10584 -0.1322917,-0.26459 -0.2116667,-0.39688 m 0.2645834,0.37042 c 0.15875,0.34396 0.3175,0.68791 0.47625,1.05833 0,0 0,0 -0.026458,0 -0.026458,-0.0529 -0.052917,-0.10583 -0.1058333,-0.18521 -0.079375,-0.15875 -0.1852083,-0.34396 -0.2645833,-0.52916 -0.026458,-0.0265 -0.052917,-0.0794 -0.052917,-0.10584 0,-0.0265 0,-0.0794 -0.026458,-0.13229 0.026458,-0.0265 0,-0.0794 0,-0.10583 m 0.8466666,3.28083 c 0.026458,0.0529 0.052917,0.13229 0.1058333,0.21167 0,0.0529 -0.026458,0.10583 -0.026458,0.15875 -0.026458,-0.0794 -0.052917,-0.13229 -0.1058333,-0.21167 0.026458,-0.0529 0.026458,-0.10583 0.026458,-0.15875 m 0.079375,-0.34396 c 0,-0.0265 -0.026458,-0.0265 -0.026458,-0.0529 0,-0.0265 0,-0.10584 0.026458,-0.1323 0,-0.0529 0,-0.10583 0.026458,-0.13229 0.026458,0.0529 0.052917,0.13229 0.1058334,0.21167 0,0.0794 -0.026458,0.18521 -0.026458,0.26458 -0.052917,-0.0529 -0.079375,-0.10583 -0.1058333,-0.15875 m -4.3391666,-8.70479 c -0.026458,0 -0.026458,-0.0529 -0.026458,-0.0529 0,-0.0265 -0.026458,-0.0265 0,-0.0529 0,0 0.026458,0.0265 0.026458,0.0265 0.026458,0.0794 0.052917,0.13229 0.079375,0.21166 0.238125,0.58209 0.4762507,1.16417 0.71437569,1.74625 -0.26458333,-0.60854 -0.52916739,-1.24354 -0.79375069,-1.87854 m 0.87312569,1.11125 c -0.10583333,-0.21167 -0.21166666,-0.44979 -0.31749999,-0.68792 -0.079375,-0.1852 -0.185209,-0.39687 -0.264584,-0.58208 0,0 0,-0.0265 -0.026458,-0.0529 0,-0.0265 0,-0.0265 0.026458,-0.0265 0.026458,0.0265 0.026458,0.0529 0.026458,0.0794 0.29104236,0.60854 0.58208403,1.21708 0.84666736,1.85208 0.39687499,0.84667 0.79374999,1.69334 1.19062498,2.56646 0.079375,0.18521 0.18520766,0.37042 0.26458266,0.55563 0,0.0265 0.026458,0.0529 0.052917,0.0794 0,0.0265 0,0.0529 0,0.0794 0,0.0794 0.026458,0.15875 0.026458,0.23812 -0.60854099,-1.37583 -1.21708265,-2.72521 -1.82562431,-4.10104 m 1.93145761,0.84667 c 0.026458,0.0265 0.026458,0.0794 0.026458,0.13229 0,-0.10583 -0.026458,-0.21167 -0.026458,-0.3175 -0.052917,-0.42333 -0.1058333,-0.82021 -0.1322917,-1.24354 -0.026458,-0.13229 0,-0.29104 0.079375,-0.42334 0.052917,-0.10583 0.1852084,-0.1852 0.3175,-0.1852 0.2116667,0 0.396875,0.29104 0.47625,0.44979 0.052917,0.10583 0.079375,0.21166 0.1322917,0.34396 0.026458,0.10583 0.052917,0.23812 0.1058333,0.34395 0.1322917,0.47625 0.2645834,0.9525 0.3704167,1.45521 0.1058333,0.50271 0.2116666,1.00542 0.2910416,1.53459 0.079375,0.44979 0.1322917,0.89958 0.2116667,1.37583 0,0.0529 0.026458,0.13229 0.026458,0.18521 0,0.0529 0,0.0794 -0.026458,0.13229 -0.079375,0.635 -0.15875,1.32292 -0.238125,1.95792 -0.2910416,-0.60855 -0.6085416,-1.27 -0.8995833,-1.905 -0.026458,-0.0529 -0.052917,-0.0794 -0.052917,-0.1323 -0.026458,-0.0529 -0.026458,-0.13229 -0.026458,-0.21166 -0.052917,-0.47625 -0.1322917,-0.97896 -0.1852083,-1.45521 -0.079375,-0.58208 -0.15875,-1.13771 -0.2116667,-1.71979 0,0.13229 0.026458,0.26458 0.052917,0.39687 0.1058333,0.92604 0.2116666,1.85209 0.3175,2.80459 -0.052917,-0.1323 -0.1322917,-0.26459 -0.1852084,-0.42334 0,-0.0265 -0.026458,-0.0529 -0.026458,-0.0529 0,-0.0265 0,-0.0529 0,-0.10584 -0.052917,-0.47625 -0.1058333,-0.9525 -0.15875,-1.42875 -0.15875,-0.47625 -0.2116667,-1.00541 -0.238125,-1.50812 m -1.34937428,3.75708 c 0.02645833,0.0529 0.079375,0.15875 0.079375,0.21167 0.50270832,1.21708 1.00541598,2.43416 1.53458258,3.65125 0.079375,0.15875 0.1322917,0.3175 0.2116667,0.50271 0,0.0265 0.026458,0.0529 0.026458,0.0794 0,0.0529 0,0.0794 0.026458,0.15875 -0.6085417,-1.53458 -1.24354099,-3.01625 -1.85208265,-4.52437 -0.02645833,-0.0529 -0.02645833,-0.0529 -0.02645833,-0.0794 -0.02645834,0 -0.02645834,-0.0265 0,0 m 0.82020832,12.11792 c 0.0529167,-0.0529 0.10583333,-0.13229 0.18520766,-0.18521 0.052917,0.0265 0.1058333,0.0265 0.1322916,0.0529 0,0 0,0.0265 -0.026458,0.0265 -0.052917,0.0794 -0.1322917,0.1323 -0.21166596,0.21167 -0.0264583,-0.0265 -0.079375,-0.0265 -0.13229166,-0.0529 0,-0.0265 0.0529167,-0.0529 0.0529167,-0.0529 m -0.13229166,0 c 0,0 -0.0264583,0.0265 -0.0264583,0.0265 0,-0.0265 0.0264583,-0.0265 0.0264583,-0.0265 0.0529167,-0.0794 0.13229166,-0.13229 0.18520833,-0.21167 -0.0264583,0.0529 -0.10583333,0.13229 -0.18520833,0.21167 M 0.00128849,343.32989 c 0,0 -0.02645834,-0.0265 -0.02645834,-0.0529 0,0 0,0 0,0 0.02645834,0.0265 0.02645834,0.0529 0.02645834,0.0529 m -0.02645834,-0.0529 c 0,0 0,0 0,0 0,0 0,0 0,0 m 0,-0.0265 c 0,0.0265 0,0 0,0 0,0 0,0 0,0 m -0.02645833,-0.0265 c 0,0 0,0 0,0 0,-0.0265 0,0 0,0 m 0,-0.0265 c 0,0 0,0 0,0 0,0 0,0 0,0 m 0,-0.0265 c 0,0.0265 0,0 0,0 0,0 0,0 0,0 m -0.02645833,-0.0265 c 0,0 0,0 0,0 0,-0.0265 0,0 0,0 m 0,0 c 0,0.0265 0,0 0,0 0,0 0,0 0,0 m 0.42333332,3.6248 c 0.21166667,0.42333 0.37041667,0.89958 0.555625,1.34937 -0.10583333,-0.21167 -0.21166667,-0.42333 -0.3175,-0.635 -0.10583333,-0.21167 -0.18520833,-0.44979 -0.29104166,-0.66146 -0.18520833,-0.44979 -0.37041666,-0.89958 -0.555625,-1.34937 0.21166667,0.42333 0.396875,0.84666 0.60854166,1.29646 m -0.52916666,0.39687 c 0.10583334,0.23813 0.21166667,0.47625 0.3175,0.68792 0.10583333,0.23812 0.21166666,0.47625 0.29104166,0.71437 -0.37041666,-0.60854 -0.74083332,-1.27 -1.08479165,-1.905 -0.0529167,-0.10583 -0.13229167,-0.21166 -0.18520833,-0.3175 -0.0529167,-0.10583 -0.10583333,-0.23812 -0.15875003,-0.34396 -0.396875,-0.9525 -0.79375,-1.87854 -1.1641666,-2.8575 0,-0.0265 0.026458,0.0265 0.026458,0.0265 0.2116667,0.42334 0.4233333,0.87313 0.635,1.29646 0.238125,0.44979 0.4497917,0.89958 0.66145833,1.34938 0.238125,0.42333 0.44979166,0.87312 0.66145832,1.34937 m -2.19604165,-9.26042 c 0.1322917,0.3175 0.2645833,0.66146 0.396875,1.00542 0.026458,0.0529 0.026458,0.10583 0.052917,0.13229 -0.1322917,-0.39687 -0.2645834,-0.76729 -0.4233334,-1.16416 h 0.026458 c 0.3704166,0.84666 0.7408333,1.66687 1.11125,2.54 -0.052917,0.0264 -0.1058334,0.0529 -0.15875,0.0794 -0.1322917,-0.3175 -0.2645834,-0.635 -0.396875,-0.9525 -0.052917,-0.10583 -0.079375,-0.21167 -0.1322917,-0.3175 -0.079375,-0.21167 -0.1852083,-0.42333 -0.2910417,-0.635 -0.1058333,-0.21167 -0.1852083,-0.42333 -0.1852083,-0.68792 z m -0.15875,0.0529 v 0 c 0.3439583,0.79375 0.6879167,1.5875 1.031875,2.40771 0,0.0265 0.026458,0.0794 0.052917,0.13229 0,0 0,0.0265 0,0.0265 0,0.0265 0,0 -0.026458,0.0265 -0.026458,0 -0.026458,0 -0.026458,-0.0265 -0.026458,-0.0265 -0.026458,-0.10583 -0.052917,-0.13229 -0.2910416,-0.84667 -0.635,-1.64042 -0.9789583,-2.43417 m -0.635,4.86833 c 0.026458,0.0265 0.026458,0.0529 0.026458,0.0529 0.079375,0.15875 0.1852083,0.3175 0.238125,0.47625 0.079375,0.18521 0.15875,0.39688 0.238125,0.58208 -0.15875,-0.37041 -0.3175,-0.74083 -0.5027084,-1.11125 m 0.3439584,0.58209 c 0,0 0,0 0,0 0.2116666,0.39687 0.4497916,0.82021 0.6614583,1.21708 0.026458,0.0794 0.079375,0.13229 0.1058333,0.21167 0.6879167,1.66687 1.40229166,3.38666 2.16958332,5.00062 0.0529167,0.13229 0.13229166,0.26459 0.18520833,0.39688 0,0 0.0264583,0.0265 0,0.0265 -0.0264583,0 -0.0264583,-0.0265 -0.0529167,-0.0265 -1.08479165,-2.2225 -2.09020825,-4.52438 -3.06916655,-6.82625 m 0.5556249,7.56708 c 0.1058334,0.0529 0.238125,0.10583 0.3439584,0.15875 0.6879166,0.3175 1.37583326,0.635 2.06374992,0.9525 l -0.58208333,0.37042 c -0.079375,-0.0265 -0.13229166,-0.0529 -0.21166666,-0.10584 -0.238125,-0.10583 -0.47624993,-0.21166 -0.74083333,-0.3175 -0.15875,-0.0794 -0.3175,-0.13229 -0.5027083,-0.21166 -0.47625,-0.21167 -0.9789583,-0.44979 -1.42875,-0.68792 -0.1058333,0.0265 -0.238125,0 -0.3439583,-0.0529 -0.2910417,-0.10583 -0.555625,-0.23812 -0.79375,-0.37041 -0.026458,0 -0.052917,-0.0265 -0.052917,-0.0265 -0.238125,-0.13229 -0.47625,-0.23813 -0.7143749,-0.37042 -0.079375,-0.0529 -0.1852084,-0.0794 -0.2645834,-0.13229 0,0 0,0 0,0 0.9789583,0.21167 1.9314583,0.42333 2.8575,0.68792 0.1058333,0.0265 0.238125,0.0794 0.3704166,0.10583 m 2.22249999,2.11667 c -0.079375,-0.0265 -0.15875,-0.0529 -0.26458333,-0.10584 -0.079375,-0.0265 -0.13229167,-0.0529 -0.21166666,-0.0794 0.0264583,0 0.0264583,0 0.0529167,-0.0265 0.15875,0.0529 0.29104166,0.13229 0.42333333,0.21167 m -4.60374993,-3.78354 c 0.026458,0 0.052917,0.0265 0.1058333,0.0265 0.026458,0.0265 0.079375,0.0265 0.1058333,0.0265 0.026458,0 0.052917,0.0265 0.052917,0.0529 0.052917,0.0529 0.1322917,0.10583 0.1852083,0.15875 -0.1852083,-0.0794 -0.396875,-0.18521 -0.5820833,-0.26458 0.052917,0.0265 0.1058333,0 0.1322917,0 m -1.7991667,-0.23813 c 0.15875,0.0794 0.3175,0.15875 0.5027084,0.23813 0.5027083,0.21166 0.9789583,0.44979 1.4816666,0.68791 -0.8202083,-0.15875 -1.6404166,-0.3175 -2.4870833,-0.47625 -0.052917,0 -0.1058333,-0.0265 -0.15875,-0.0265 -0.026458,0 -0.052917,-0.0265 -0.079375,-0.0529 l 1.7197917,0.13229 c 0,0 -0.9260417,-0.42333 -1.984375,-0.87313 0.079375,0.0265 0.15875,0.0529 0.238125,0.0794 0.1058333,0.0265 0.1852083,0.0529 0.2645833,0.0794 0.1852083,0.0529 0.3439583,0.1323 0.5027083,0.21167 m -1.8785416,-1.40229 c 0.4497917,0.15875 0.8995833,0.3175 1.3229166,0.47625 -0.052917,0 -0.1058333,-0.0265 -0.1852083,-0.0529 -0.1852083,-0.0529 -0.3704167,-0.10583 -0.555625,-0.15875 0.026458,0 0,0 0.026458,0 -0.079375,-0.0265 -0.1058333,-0.0265 -0.1587499,-0.0529 -0.079375,0 -0.15875,-0.0265 -0.2116667,-0.0265 -0.052917,-0.0265 -0.1058333,-0.0529 -0.1852083,-0.0794 -0.026458,-0.0265 -0.052917,-0.0265 -0.079375,-0.0265 -0.079375,-0.0265 -0.15875,-0.0794 -0.2645834,-0.10583 -0.052917,-0.0265 -0.1322916,-0.0529 -0.1852083,-0.0794 0.15875,-0.0265 0.3439583,0.0529 0.47625,0.10583 m 2.778125,3.22792 c 0.1322916,0.0794 0.3175,0.15875 0.4497916,0.26458 -0.2910416,-0.13229 -0.6085416,-0.26458 -0.8995833,-0.39688 -0.8995833,-0.39687 -1.825625,-0.76729 -2.7516666,-1.16416 0.052917,0 0.1058333,0.0265 0.1852083,0.0265 0,0 0,0 0,0 l 0.635,0.13229 c 0.1058333,0.0529 0.2116666,0.10583 0.3439583,0.13229 0.079375,0.0265 0.1852083,0.0265 0.2910417,0.0265 0.079375,0 0.1852083,0 0.2645833,0.0265 l 0.714375,0.47625 0.079375,0.0265 c 0,0 0,0 0,0 v 0 l 1.5345833,0.635 1.666875,0.7673 c -0.8466667,-0.34396 -1.6933333,-0.68792 -2.54,-1.03188 0,0.0529 0.026458,0.0794 0.026458,0.0794 m 1.0583333,2.77812 c 0.052917,0 0.1322916,0.0265 0.1852083,0.0529 0.1852083,0.0529 0.3704167,0.10583 0.555625,0.15875 0,0 0,0 -0.026458,0 -0.1322917,-0.0265 -0.238125,-0.0529 -0.3704167,-0.10584 -0.1322917,-0.0265 -0.238125,-0.0794 -0.3439583,-0.10583 m 0.3704166,0.13229 c 0.9260417,0.26459 1.8785417,0.52917 2.8045833,0.82021 0,0 0,0.0265 0,0.0265 -0.026458,0.0265 -0.1058333,0.0794 -0.1322916,0.10583 -0.8995834,-0.34396 -1.7727083,-0.635 -2.6722917,-0.9525 0,0 0,0 0,0 m 0.9525,1.34938 c 0.3175,0.0794 0.635,0.18521 0.9789583,0.26458 -0.026458,0.0265 -0.026458,0.0265 -0.052917,0.0529 -0.3175,-0.10584 -0.635,-0.21167 -0.9260417,-0.3175 m 1.5875,0.79375 c -1.11125,0.89958 -2.1960416,1.77271 -3.3072916,2.67229 0,0 0,0 0,0 0.3704166,-0.34396 0.714375,-0.71438 1.0847916,-1.05833 0.052917,-0.0529 0.1058334,-0.10584 0.1852084,-0.18521 0.052917,-0.0529 0.1322916,-0.10584 0.1852083,-0.18521 0.238125,-0.23813 0.47625,-0.47625 0.714375,-0.71438 0.1852083,-0.1852 0.3704166,-0.34395 0.555625,-0.52916 0.052917,-0.0529 0.1322916,-0.10584 0.1852083,-0.15875 0.1322917,0.0529 0.2645833,0.0794 0.396875,0.15875 0.026458,-0.0265 0,-0.0265 0,0 m 0.2116667,-0.18521 c -0.1322917,-0.0529 -0.2910417,-0.10583 -0.4233334,-0.13229 0,-0.0265 0.052917,-0.0529 0.052917,-0.0794 0.15875,0.0529 0.3175,0.0794 0.47625,0.13229 -0.026458,0.0265 -0.052917,0.0529 -0.1058333,0.0794 m -0.2910417,-2.27542 c -1.2435416,-0.39687 -2.4870833,-0.76729 -3.7306249,-1.19062 1.6668749,0.50271 3.3337499,1.00541 4.97416657,1.53458 -0.0264583,0.0265 -0.0264583,0.0265 -0.079375,0.0265 -0.079375,-0.0265 -0.15875,-0.0529 -0.238125,-0.0794 -0.31749997,-0.10583 -0.63499997,-0.21166 -0.92604167,-0.29104 m 0.6614583,1.40229 c 0,-0.0265 0.0264584,-0.0265 0.0264584,-0.0265 0.0264583,-0.0265 0.079375,-0.0794 0.10583334,-0.10584 0,0 0,0 0,0 0.18520833,0.0529 0.37041666,0.10584 0.55562499,0.15875 -0.079375,0.0529 -0.13229167,0.10584 -0.21166666,0.15875 -0.15875,-0.0794 -0.3175,-0.13229 -0.47624997,-0.18521 m 0.23812497,1.0848 c 0.0529167,-0.0529 0.079375,-0.0794 0.13229166,-0.10584 0.0529167,0.0265 0.13229167,0.0265 0.18520833,0.0529 -0.0264583,0.0529 -0.079375,0.0794 -0.10583333,0.13229 -0.079375,-0.0265 -0.15875,-0.0529 -0.21166666,-0.0794 m -6.48229157,10.0277 c 0.3439584,-0.29104 0.6879167,-0.58208 1.031875,-0.87312 1.1641667,-1.00542 2.301875,-2.01083 3.4660417,-3.01625 -0.079375,0.13229 -0.1852084,0.26458 -0.2910417,0.42333 -0.026458,0.0265 -0.026458,0.0529 -0.026458,0.0529 -0.026458,0.0265 -0.052917,0.0529 -0.079375,0.0794 -0.396875,0.34396 -0.8202084,0.68792 -1.2170834,1.03188 0.052917,-0.0529 0.1322917,-0.0794 0.1852084,-0.13229 -0.2645834,0.21166 -0.5027084,0.44979 -0.7672917,0.66146 -0.79375,0.635 -1.6139583,1.27 -2.4077083,1.905 0,-0.0529 0.052917,-0.10584 0.1058333,-0.1323 m 0.5027084,-0.29104 c -0.3439584,0.29104 -0.6879167,0.58209 -1.031875,0.87313 0,0 -0.026458,0.0265 -0.026458,0.0265 0,-0.0265 0,-0.0529 0,-0.0529 0,-0.0265 0.026458,-0.0265 0.026458,-0.0265 0.026458,-0.0265 0.052917,-0.0265 0.079375,-0.0529 0.026458,-0.0265 0.052917,-0.0265 0.079375,-0.0529 0.3439583,-0.26459 0.714375,-0.55563 1.0583333,-0.84667 -0.079375,0.0529 -0.1322917,0.0794 -0.1852083,0.13229 m 0.1852083,-0.15875 c -0.026458,0.0265 0,0 0,0 m 2.2754166,-1.69333 c -0.2910416,0.23812 -0.5820833,0.47625 -0.8731249,0.71437 -0.396875,0.3175 -0.7672917,0.635 -1.1641667,0.9525 0.052917,-0.0529 0.1058333,-0.0794 0.1322917,-0.10583 0.15875,-0.10583 0.2910416,-0.23812 0.4233333,-0.34396 0.1852083,-0.15875 0.3704167,-0.3175 0.555625,-0.47625 0.1852083,-0.15875 0.3704166,-0.34396 0.555625,-0.47625 0.1852083,-0.15875 0.396875,-0.3175 0.6085416,-0.44979 -0.052917,0.0265 -0.15875,0.10583 -0.238125,0.18521 m -0.026458,-0.0529 c 0,-0.0265 0.026458,-0.0265 0.052917,-0.0529 0.1322916,-0.10584 0.2645833,-0.23813 0.4233333,-0.34396 0.1322917,-0.10584 0.2910417,-0.23813 0.4233333,-0.34396 0,0.0265 -0.052917,0.0529 -0.079375,0.0794 -0.2645833,0.21167 -0.555625,0.4498 -0.8202083,0.66146 m 0.7672917,0.21167 c 0.052917,-0.0794 0.1058333,-0.15875 0.1852083,-0.23813 0.026458,-0.0264 0.026458,-0.0529 0.052917,-0.0794 0.026458,-0.0265 0.052917,-0.0265 0.079375,-0.0529 0.15875,-0.13229 0.3439583,-0.26458 0.5027083,-0.39687 -0.2645833,0.23812 -0.5291667,0.50271 -0.8202083,0.76729 m 0.6085416,-4.7625 c -0.026458,0.0265 -0.052917,0.0529 -0.079375,0.0794 0,0 0.026458,-0.0265 0.026458,-0.0529 0.1058333,-0.10584 0.2116666,-0.21167 0.3175,-0.3175 0.052917,-0.0529 0.1322916,-0.10584 0.1852083,-0.18521 0.238125,-0.23813 0.47625,-0.47625 0.714375,-0.74083 0.2910416,-0.3175 0.5820833,-0.60855 0.8731249,-0.92605 0.0529167,-0.0529 0.13229167,-0.13229 0.18520833,-0.1852 0.0529167,-0.0529 0.10583334,-0.1323 0.18520834,-0.18521 0.079375,-0.10584 0.18520833,-0.18521 0.26458333,-0.26459 0.0264583,-0.0264 0.0529167,-0.0794 0.079375,-0.0794 0,0 0.0264583,0 0.0529167,0.0265 -0.15875,0.18521 -0.34395833,0.37041 -0.50270833,0.55562 0.18520833,-0.18521 0.37041667,-0.37041 0.555625,-0.55562 0.05291666,0.0265 0.079375,0.0265 0.13229166,0.0529 -0.18520833,0.21167 -0.37041666,0.37042 -0.55562499,0.58209 0,0.0265 -0.0264583,0.0265 -0.0264583,0.0529 0,0.0265 -0.0264583,0.0265 -0.0264583,0.0529 -0.0264583,0.0265 -0.0529167,0.0529 -0.079375,0.0794 -0.79374994,0.635 -1.56104164,1.32291 -2.30187494,2.01083 m 3.25437493,-4.15396 c -0.0529167,0.0529 -0.13229166,0.13229 -0.18520833,0.18521 -0.0264583,0 -0.0264583,0 -0.05291667,-0.0265 0.079375,-0.0794 0.15875,-0.13229 0.238125,-0.18521 0,0 0,0 0,0 0.0264583,0 0,0.0265 0,0.0265 m 0.0264583,1.05833 c 0,0.0265 -0.0264583,0.0265 -0.0264583,0.0529 -0.0264583,0.0265 -0.079375,0.0794 -0.10583333,0.10583 -0.0529167,0 -0.079375,-0.0264 -0.13229167,-0.0529 -0.02645833,0 0,0 0,-0.0265 0.02645834,-0.0529 0.079375,-0.0794 0.13229167,-0.13229 0.0529167,0 0.079375,0.0265 0.13229166,0.0529 m -0.23812499,-0.0794 c 0,0 0.0264583,0 0.0264583,0 -0.05291667,0.0529 -0.079375,0.10583 -0.13229166,0.15875 -0.02645834,0 -0.02645834,0 -0.02645834,0 0,-0.0265 0.02645834,-0.0265 0.02645834,-0.0265 0.05291666,-0.0529 0.07937499,-0.10583 0.10583333,-0.13229 m -1.27000004,4.89479 c -0.026458,0.0529 -0.079375,0.0794 -0.1322916,0.10583 -0.1322917,0.10584 -0.2645834,0.21167 -0.3704167,0.3175 0.026458,-0.0529 0.052917,-0.0794 0.079375,-0.13229 0,-0.0265 0.026458,-0.0265 0.026458,-0.0529 0.026458,-0.0265 0.052917,-0.0529 0.1058334,-0.0794 0.079375,-0.0265 0.1852083,-0.0794 0.2910416,-0.15875 m 1.50812503,-0.97896 c -0.76729165,0.60854 -1.53458333,1.21709 -2.30187503,1.82563 0.052917,-0.0794 0.1058334,-0.15875 0.1852084,-0.21167 0.238125,-0.21167 0.5027083,-0.44979 0.7672916,-0.66146 0.079375,-0.0794 0.18520838,-0.15875 0.29104171,-0.23812 0.42333333,-0.26459 0.82020833,-0.55563 1.21708332,-0.82021 -0.079375,0.0265 -0.13229166,0.0529 -0.15875,0.10583 m 0.238125,-5.82083 c -0.21166666,-0.0529 -0.42333333,-0.13229 -0.60854166,-0.18521 -0.02645833,0 0.02645834,-0.0265 0.02645834,-0.0265 0.21166666,0.0529 0.42333332,0.13229 0.58208332,0.21167 0.0264583,-0.0265 0.0264583,0 0,0 m 0.0264583,-1.29646 c 0,0 -0.0529167,-0.0265 -0.079375,-0.0265 -0.18520834,-0.0529 -0.34395833,-0.10583 -0.52916666,-0.18521 0.18520833,-0.0794 0.39687499,-0.1852 0.55562499,-0.26458 0.0529167,0.10583 0.10583333,0.23813 0.15875,0.34396 0,0.0265 -0.0264583,0.0265 -0.0529167,0.0529 0,0.0265 -0.0264583,0.0529 -0.0529167,0.0794 m 0.0264583,6.37646 c 0,0 0,0 0,0 0.079375,-0.0794 0.13229166,-0.13229 0.21166666,-0.18521 0.18520838,-0.15875 0.39687498,-0.3175 0.60854168,-0.47625 -0.052917,0.0529 -0.079375,0.0794 -0.1322917,0.13229 0.5027084,-0.42333 1.031875,-0.87312 1.5345833,-1.29646 0.079375,0.0265 0.1322917,0.0529 0.2116667,0.0794 -0.79375,0.58208 -1.6139583,1.16417 -2.43416664,1.74625 m 2.83104164,-2.11667 c -0.079375,0.0794 -0.1322917,0.15875 -0.2116667,0.21167 -0.079375,-0.0265 -0.1322916,-0.0529 -0.2116666,-0.0794 0.079375,-0.0794 0.1852083,-0.15875 0.2645833,-0.23812 0.052917,0.0265 0.1322917,0.0265 0.1852083,0.0529 0,0.0265 -0.026458,0.0265 -0.026458,0.0529 m -0.1322917,-9.15458 c 0,-0.0265 -0.026458,-0.0529 -0.026458,-0.0794 0,-0.0264 0,-0.0529 0,-0.10583 0,-0.0265 0,-0.0794 0,-0.10583 0.1852083,0.37041 0.3439583,0.74083 0.5027083,1.08479 0,0.13229 0.026458,0.26458 0.026458,0.39687 -0.15875,-0.39687 -0.3439584,-0.79375 -0.5027084,-1.19062 m 1.905,11.43 c 0,0.13229 0,0.26458 0,0.39687 -0.2116666,-0.39687 -0.396875,-0.79375 -0.6085416,-1.19062 0.026458,0.0265 0.052917,0.0529 0.079375,0.10583 0.1852083,0.21167 0.3704166,0.44979 0.5291666,0.68792 m -0.5820833,-1.95792 c 0.026458,0.0529 0.052917,0.13229 0.079375,0.18521 -0.052917,-0.0794 -0.1058333,-0.13229 -0.15875,-0.21167 0.026458,0.0265 0.052917,0.0265 0.079375,0.0265 m -0.396875,-8.89 c 0.052917,0.10584 0.1058333,0.23813 0.1852083,0.37042 0,0.0265 0,0.0794 0,0.13229 -0.052917,-0.13229 -0.1058333,-0.26458 -0.1852083,-0.39687 0,-0.0529 0,-0.0794 0,-0.10584 m 0.079375,0.79375 c -0.026458,-0.0265 -0.052917,-0.0794 -0.052917,-0.10583 0,-0.0265 0,-0.0794 0,-0.13229 0,-0.10584 0,-0.23813 -0.026458,-0.34396 0.026458,0.0794 0.079375,0.18521 0.1322917,0.26458 0.026458,0.0265 0.052917,0.0794 0.052917,0.10584 0,0.0529 0,0.13229 0,0.1852 0,0.0265 0,0.0529 0,0.0529 0,0.0265 -0.052917,0.0529 -0.079375,0.0529 0,0 0,-0.0529 -0.026458,-0.0794 m 0.052917,8.91646 c 0.026458,0 0.026458,0.0265 0.052917,0.0529 0,0.0265 0.026458,0.0265 0.052917,0.0529 0,0.0265 0,0.0529 0.026458,0.0529 0.026458,0.0529 0.052917,0.13229 0.079375,0.18521 -0.1058333,-0.10583 -0.15875,-0.21167 -0.2116666,-0.34396 m 0.5027083,2.38125 c -0.052917,-0.10583 -0.15875,-0.37042 -0.2645833,-0.71437 -0.026458,-0.1323 -0.052917,-0.23813 -0.079375,-0.37042 0.2116666,0.37042 0.4233333,0.82021 0.635,1.21708 0.026458,0.0529 0.052917,0.10584 0.079375,0.18521 0,0 0,0 0,0 0,0.0529 0,0.13229 0,0.18521 0,0.0794 0,0.15875 0,0.23812 -0.1322917,-0.29104 -0.2910417,-0.60854 -0.3704167,-0.74083 m 5.1064583,5.13292 c 0.05292,0.0794 0.132292,0.18521 0.185209,0.26458 0.185208,0.23813 0.370416,0.47625 0.529166,0.71438 0.07938,0.13229 0.185209,0.23812 0.238125,0.39687 0,0.0265 -0.02646,-0.0265 -0.02646,-0.0265 -0.185208,-0.21166 -0.370417,-0.42333 -0.529167,-0.635 -0.185208,-0.23812 -0.3175,-0.52916 -0.47625,-0.79375 0.026458,0.0265 0.052917,0.0529 0.079375,0.0794 m -2.4341663,-9.60438 c 0.2910417,0.0794 0.6085417,0.15875 0.8995833,0.23813 l -0.026458,0.0265 c -0.2910417,-0.0794 -0.5820833,-0.18521 -0.873125,-0.26459 m 0.4497917,1.45521 c -0.1322917,-0.0265 -0.238125,-0.0794 -0.3704167,-0.10583 -0.052917,-0.10584 -0.1058333,-0.18521 -0.15875,-0.29104 0.1322917,0.0529 0.2645834,0.0794 0.396875,0.10583 0.052917,0.10583 0.1058334,0.18521 0.1322917,0.29104 m 0.052917,-1.93146 c 0,0 0.026458,0 0,0 -0.2910417,-0.0794 -0.5820834,-0.18521 -0.873125,-0.26458 -0.026458,-0.0529 -0.052917,-0.10583 -0.079375,-0.15875 0.052917,0 0.079375,0.0265 0.1058333,0.0529 0.2910417,0.13229 0.5820833,0.23812 0.8466667,0.37041 M 7.462539,354.2304 c -0.079375,0.0794 -0.15875,0.13229 -0.238125,0.21166 -0.2116667,-0.10583 -0.4233333,-0.21166 -0.6614583,-0.29104 -0.079375,-0.15875 -0.1322917,-0.3175 -0.2116667,-0.44979 0.026458,-0.0529 0.079375,-0.0794 0.1322917,-0.10583 0.396875,0.15875 0.8202083,0.3175 1.2170833,0.44979 -0.052917,0.0529 -0.1322917,0.10583 -0.238125,0.18521 m -0.5291667,1.1377 c -0.079375,-0.0265 -0.1852083,-0.0529 -0.2645833,-0.0794 0.052917,-0.0529 0.079375,-0.0794 0.1322917,-0.13229 0,0 0.026458,0 0.026458,0 0.026458,0.0529 0.079375,0.13229 0.1058333,0.21166 m -0.3439583,-0.34395 c -0.026458,0.0265 -0.052917,0.0529 -0.1058333,0.0794 0,0 -0.026458,0.0265 -0.026458,0.0265 -0.026458,-0.0794 -0.052917,-0.13229 -0.079375,-0.21167 0.052917,0.0529 0.1322917,0.0794 0.2116667,0.10584 m 1.508125,-1.34938 c -0.4233333,-0.13229 -0.8466667,-0.29104 -1.2435417,-0.42333 -0.026458,0 0,-0.0265 0.026458,-0.0265 0.026458,0 0.026458,-0.0265 0.052917,-0.0265 0.396875,0.15875 0.8202084,0.29104 1.2170833,0.44979 -0.026458,0 -0.052917,0.0265 -0.052917,0.0265 m 1.5345833,0.42333 c 0.873125,0.29105 2.513541,0.87313 3.413125,1.16417 0.02646,0 0.05292,0.0265 0.07938,0.0265 0.02646,0 0.05292,0 0.07937,0.0265 -0.02646,0.0265 -0.07937,0.0265 -0.105834,0 -0.02646,0 -0.05292,-0.0265 -0.05292,-0.0265 -0.899584,-0.29104 -2.54,-0.87313 -3.413125,-1.19063 0,0 0,0 0,0 m 3.122083,1.19063 c 0.02646,0 0.07937,0.0265 0.105833,0.0265 0.07938,0.0265 0.185209,0.0794 0.291042,0.10583 0.02646,0 0.05292,0 0.05292,0.0265 -0.343959,-0.13229 -1.481667,-0.50271 -1.799167,-0.635 -1.031875,-0.37042 -2.0372913,-0.71438 -3.0691663,-1.08479 0,-0.0265 0.026458,-0.0265 0.052917,-0.0265 1.1641667,0.44979 3.1485423,1.16417 4.3656253,1.5875 m 2.751667,-7.77875 c -0.05292,0.0529 -0.132292,0.10583 -0.211667,0.15875 -0.529167,0.39687 -1.031875,0.79375 -1.534583,1.19062 -1.164167,0.92605 -2.275417,1.87855 -3.386667,2.8575 -0.5291669,0.47625 -1.0847919,0.92605 -1.6139586,1.4023 -0.026458,0.0265 -0.026458,0.0265 -0.052917,0.0265 -0.4233333,-0.13229 -0.8202083,-0.29104 -1.2435416,-0.42333 0,0 0,-0.0265 0.026458,-0.0265 0.052917,-0.0529 0.1322917,-0.10583 0.1852084,-0.15875 0.2116666,-0.18521 0.4497916,-0.39687 0.6614583,-0.58208 0.15875,-0.13229 0.2910416,-0.26458 0.4497916,-0.39688 0.079375,-0.0529 0.1322917,-0.13229 0.2116667,-0.1852 0.3704167,-0.3175 0.7672917,-0.635 1.1377082,-0.92605 0.07938,-0.0529 0.15875,-0.10583 0.264583,-0.15875 1.640417,-0.9525 3.360209,-1.85208 5.106459,-2.77812 m 0.608541,-0.82021 c -0.582083,0.3175 -1.164166,0.60854 -1.74625,0.92604 -0.07937,0.0529 -0.15875,0.0794 -0.238125,0.13229 -0.502708,0.26459 -1.005416,0.52917 -1.481666,0.79375 0.02646,-0.0264 0.05292,-0.0529 0.105833,-0.0794 0.502708,-0.34396 1.031875,-0.635 1.561042,-0.92604 0.15875,-0.0794 0.291041,-0.15875 0.449791,-0.21167 0.15875,-0.0794 0.291042,-0.13229 0.449792,-0.21167 0.291042,-0.15875 0.582083,-0.29104 0.899583,-0.42333 0,-0.0265 0,0 0,0 m 1.137709,-1.905 c 0.05292,0 0.105833,-0.0265 0.15875,-0.0265 0.105833,-0.0265 0.211666,-0.0265 0.3175,0 0.02646,0 0.05292,0 0.05292,0.0265 0.02646,0 0.05292,0 0.07937,0 0.02646,0 0.07938,0.0529 0.105834,0.0794 0.07937,0.0529 0.132291,0.13229 0.185208,0.21166 0.02646,0.0529 0.05292,0.0794 0.05292,0.13229 0,0.0529 0,0.1323 0,0.18521 -0.05292,0.34396 -0.343959,0.50271 -0.608542,0.635 -0.02646,0 -0.05292,0.0265 -0.05292,0.0265 -0.02646,0 -0.05292,0.0265 -0.07937,0.0265 -0.02646,0.0265 -0.105833,0.0529 -0.105833,0.0529 -0.02646,0 -0.05292,-0.0265 -0.105833,-0.0265 0.05292,-0.0265 0.132291,-0.0529 0.15875,-0.0794 0.238125,-0.13229 0.423333,-0.26458 0.608541,-0.42333 0.07937,-0.0794 0.132292,-0.21167 0.132292,-0.34396 0,-0.15875 -0.105833,-0.29104 -0.185208,-0.37042 -0.02646,-0.0265 -0.05292,-0.0794 -0.105834,-0.0794 -0.05292,-0.0265 -0.105833,-0.0529 -0.15875,-0.0529 -0.15875,-0.0265 -0.343958,0 -0.47625,0.0265 -0.291041,0.0529 -0.582083,0.13229 -0.846666,0.21167 -0.370417,0.10583 -0.714375,0.23812 -1.058334,0.37041 0.582084,-0.21166 1.27,-0.44979 1.931459,-0.58208 m -2.910417,1.85208 c 0.02646,-0.0265 0.07938,-0.0794 0.07938,-0.0794 0,0 -0.02646,-0.0265 -0.05292,-0.0794 0.211667,-0.13229 0.449792,-0.29104 0.687917,-0.39687 0.238125,-0.10583 0.502708,-0.18521 0.767292,-0.29104 0.396875,-0.13229 0.79375,-0.26459 1.217083,-0.39688 0.105833,-0.0265 0.185208,-0.0529 0.291042,-0.0794 0.05292,0 0.105833,0 0.132291,-0.0265 0,0 0,0 0,0.0265 -0.07938,0.0794 -0.211666,0.13229 -0.3175,0.18521 -0.238125,0.13229 -0.47625,0.23812 -0.714375,0.34395 -0.132291,0.0529 -0.264583,0.10584 -0.396875,0.15875 -0.132291,0.0529 -0.264583,0.10584 -0.396875,0.15875 -0.370416,0.15875 -1.058333,0.47625 -1.11125,0.52917 -0.264583,0.13229 -0.555625,0.29104 -0.79375,0.42333 0.07938,-0.0794 0.211667,-0.1852 0.343959,-0.29104 0.105833,-0.0265 0.185208,-0.10583 0.264583,-0.18521 m -7.6729165,4.81542 c 0.1058333,-0.0794 0.2116667,-0.18521 0.2910417,-0.23812 0.396875,-0.34396 0.7672916,-0.66146 1.1641666,-0.97896 0.1058333,-0.0794 0.1852083,-0.15875 0.2910417,-0.23813 0.2910416,-0.23812 0.555625,-0.50271 0.8466666,-0.76729 0.7408329,-0.68792 1.4816669,-1.34937 2.2489579,-2.03729 0.370417,-0.34396 0.740834,-0.68792 1.137709,-1.00542 0.555625,-0.50271 1.137708,-1.00541 1.719791,-1.48166 0.211667,-0.15875 0.423334,-0.3175 0.635,-0.4498 -0.3175,0.55563 -0.79375,0.97896 -1.27,1.37584 -0.105833,0.0794 -0.185208,0.15875 -0.291041,0.23812 -0.343959,0.3175 -0.714375,0.60854 -1.084792,0.92604 0,0 -0.02646,0.0265 -0.02646,0.0265 -0.185209,0.15875 -0.396875,0.34396 -0.608542,0.52917 -0.370417,0.3175 -0.767292,0.635 -1.164167,0.97896 -0.370416,0.34396 -0.7672912,0.66146 -1.1377079,0.97896 -0.1852083,0.15875 -0.3704166,0.3175 -0.5820833,0.5027 -0.3704167,0.3175 -0.7672917,0.66146 -1.1377083,0.97896 -0.555625,0.50271 -1.1641667,0.9525 -1.74625,1.45521 -0.026458,0 -0.1058333,-0.0265 -0.1322917,-0.0529 0,0 0,0 0,-0.0264 0,-0.0265 0.052917,-0.0265 0.052917,-0.0529 0.2645833,-0.21167 0.5291667,-0.44979 0.79375,-0.66146 m -0.396875,2.54 c -0.052917,-0.0265 -0.1322917,-0.0529 -0.1852083,-0.0794 0.026458,-0.0265 0.079375,-0.0529 0.1058333,-0.0794 0,0 0,0 0,0 0.026458,0.0529 0.052917,0.10583 0.079375,0.15875 m 0.396875,-3.43958 c -0.2910417,0.29104 -0.555625,0.55562 -0.8202083,0.84666 0,0 -0.026458,0.0265 -0.026458,0.0265 0,0 0,0.0265 -0.026458,0.0265 0,0 -0.026458,-0.0265 0,-0.0265 0,0 0.026458,-0.0265 0.026458,-0.0265 0.5820834,-0.55562 1.1641667,-1.1377 1.74625,-1.71979 -0.2910416,0.26459 -0.6085416,0.58209 -0.8995833,0.87313 m -1.2170871,-1.3227 c 0,-0.0265 0,-0.0794 0,-0.10583 0,-0.0265 0.052917,-0.0529 0.079375,-0.0794 0.079375,-0.0794 0.15875,-0.15875 0.238125,-0.21166 0.3175,-0.29105 0.6614583,-0.58209 0.9789583,-0.87313 0.1058333,-0.10583 0.2116667,-0.18521 0.3175,-0.29104 0.052917,-0.0529 0.1058333,-0.10583 0.15875,-0.13229 0.2645833,-0.23813 0.555625,-0.47625 0.8202083,-0.71438 -0.4233333,0.44979 -0.873125,0.92604 -1.2964583,1.37584 -0.3175,0.34395 -0.6614583,0.68791 -0.9789583,1.03187 -0.1058334,0.10583 -0.2116667,0.23813 -0.3175,0.34396 0,-0.10583 0,-0.23813 0,-0.34396 m 0.026458,1.53458 c 0,-0.0265 0.079375,-0.10583 0.1322917,-0.13229 0.2910416,-0.29104 0.555625,-0.60854 0.8466666,-0.89958 0.1322917,-0.13229 0.238125,-0.26458 0.3704167,-0.39688 0.1852083,-0.21166 0.396875,-0.42333 0.6085417,-0.635 0.2910416,-0.3175 0.555625,-0.60854 0.8466666,-0.89958 0.052917,-0.0529 0.079375,-0.0794 0.1322917,-0.13229 0.3175,-0.34396 0.6614583,-0.66146 1.0054166,-1.00542 0.15875,-0.15875 0.3439584,-0.3175 0.5027084,-0.50271 0.5027089,-0.5027 1.0054169,-0.97895 1.5345839,-1.4552 0.07938,-0.0794 0.185208,-0.15875 0.264583,-0.23813 0.264583,-0.23812 0.529167,-0.47625 0.79375,-0.71437 0.185208,-0.15875 0.370417,-0.3175 0.555625,-0.4498 0.185208,-0.15875 0.370417,-0.29104 0.555625,-0.44979 0,0 0,0 0,0 -0.978958,1.03188 -1.984375,2.03729 -2.989792,3.06917 -0.238125,0.26458 -0.502708,0.50271 -0.7408333,0.76729 -0.052917,0.0529 -0.079375,0.0794 -0.1322916,0.13229 -0.026458,0.0265 -0.026458,0.0529 -0.052917,0.0794 -1.190625,1.19062 -2.38125,2.38125 -3.5983333,3.59833 -0.1322917,0.13229 -0.2645833,0.23813 -0.3704167,0.37042 -0.026458,0.0265 -0.052917,0.0529 -0.1058333,0.10583 0,0 -0.026458,0.0265 -0.026458,0.0265 -0.079375,-0.13229 -0.1322917,-0.15875 -0.1322917,-0.23813 0,0 0,0 0,0 m 0.2645833,7.1173 0.2910417,0.42333 c -0.1058333,-0.0265 -0.1852083,-0.0529 -0.2910417,-0.10583 0,-0.10584 0,-0.21167 0,-0.3175 m 1.5345834,5.9002 c 0,0.0265 -0.026458,-0.0264 -0.026458,-0.0264 -0.1058333,-0.21167 -0.238125,-0.4498 -0.3439583,-0.68792 -0.1322917,-0.23813 -0.238125,-0.47625 -0.3704167,-0.71438 -0.238125,-0.47625 -0.5027083,-0.9525 -0.7408333,-1.42875 0,-0.23812 -0.026458,-0.5027 -0.026458,-0.74083 0.5291666,1.16417 1.031875,2.38125 1.508125,3.59833 m 0.635,-1.79916 c -0.15875,-0.21167 -0.3175,-0.42334 -0.47625,-0.635 -0.4497917,-0.635 -0.9260417,-1.24354 -1.3758334,-1.87854 -0.026458,-0.0529 -0.079375,-0.1323 -0.1058333,-0.21167 -0.052917,-0.13229 -0.1058333,-0.26458 -0.15875,-0.42333 0,-0.0265 -0.026458,-0.0529 -0.026458,-0.0794 0,-0.0529 0,-0.13229 0,-0.18521 0,-0.0529 0,-0.13229 0,-0.18521 0.15875,0.0529 0.2910416,0.10584 0.4497916,0.1323 l 1.2964584,1.87854 c 0.1058333,0.52916 0.238125,1.05833 0.396875,1.5875 0,0 0,0 0,0 0,0 0,0 0,0 m -0.1322917,-4.20688 c 0,0 0,0 0,0 -0.026458,-0.0265 0,-0.0265 0,0 0.079375,0 0.1852083,0.0265 0.2910417,0.0529 0.026458,0 0.079375,0.0265 0.079375,0.0529 -0.1322916,-0.0265 -0.2381249,-0.0529 -0.3704166,-0.10584 m 1.9579166,6.56167 c -0.3439583,-0.42333 -0.6879166,-0.87313 -1.031875,-1.29646 -0.026458,-0.0265 -0.052917,-0.0529 -0.079375,-0.0794 -0.026458,-0.0265 -0.026458,-0.0794 -0.052917,-0.1323 -0.15875,-0.39687 -0.2910417,-0.79375 -0.4233334,-1.19062 z m -0.9260416,-5.08 c -0.1058334,-0.0265 -0.238125,-0.0794 -0.3439584,-0.10583 -0.079375,-0.15875 -0.15875,-0.3175 -0.238125,-0.47625 0.1322917,0.0265 0.238125,0.0794 0.3439584,0.10583 0.079375,0.15875 0.15875,0.3175 0.238125,0.47625 m 8.8370838,0.92604 c 0.02646,-0.0265 0.05292,-0.0265 0.07937,-0.0265 0.02646,0.0529 0.02646,0.13229 0,0.21167 0,0.0529 -0.02646,0.13229 -0.07937,0.15875 -0.02646,0 -0.105834,0 -0.15875,-0.0265 -0.740834,-0.18521 -1.455209,-0.39687 -2.196042,-0.58208 -0.582083,-0.15875 -1.164167,-0.3175 -1.74625,-0.47625 -1.534583,-0.42334 -3.095625,-0.87313 -4.6302085,-1.29646 -0.15875,-0.0529 -0.3175,-0.0794 -0.47625,-0.13229 0,0 0,0 -0.026458,0 -0.052917,-0.0265 -0.1058334,0 -0.1058334,-0.0529 0,0 0,0 0,0 0.1852084,0.0529 0.3704167,0.10583 0.5820834,0.15875 0.5820833,0.15875 1.1377085,0.3175 1.7197915,0.44979 0.767292,0.21167 1.534583,0.39688 2.301875,0.60854 0.767292,0.18521 1.534583,0.39688 2.301875,0.60855 0.185208,0.0529 0.370417,0.10583 0.555625,0.15875 0.291042,0.0794 0.582083,0.15875 0.873125,0.21166 0.105833,0.0265 0.185208,0.0529 0.291042,0.0794 0.185208,0.0529 0.370416,0.13229 0.555625,0.18521 0.02646,-0.0265 0.02646,-0.0529 0.02646,-0.0794 0,-0.0529 -0.05292,-0.0529 -0.105833,-0.0529 0.132291,-0.0264 0.185208,-0.0529 0.238125,-0.10583 m -0.211667,0.0529 c 0,0 0,0 0,0 0.02646,0 0.02646,0 0.02646,0.0265 0,-0.0265 -0.02646,-0.0265 -0.02646,-0.0265 0,0 0,0 0,0 m -1.190625,-0.37042 c 0.07938,0.0265 0.105833,0.0265 0.15875,0.0529 0.343958,0.10583 0.687917,0.21166 1.031875,0.3175 -0.05292,0 -0.105833,0 -0.185208,-0.0265 -0.02646,0 -0.07937,-0.0265 -0.105834,-0.0529 -0.264583,-0.10583 -0.555625,-0.18521 -0.846666,-0.26458 0.07937,0.0265 0.15875,0.0529 0.211666,0.0794 -0.07937,0 -0.132291,-0.0264 -0.211666,-0.0529 -0.502709,-0.15875 -1.005417,-0.3175 -1.481667,-0.44979 -0.555625,-0.18521 -1.137708,-0.34396 -1.693333,-0.52917 1.031875,0.29104 2.06375,0.60854 3.122083,0.92604 m -5.820833,-1.74625 c 0.07938,0.0265 0.15875,0.0529 0.211666,0.0794 0.370417,0.13229 0.740834,0.26458 1.11125,0.37041 1.190625,0.37042 2.407709,0.74084 3.598334,1.13771 -2.354792,-0.635 -4.709584,-1.29646 -7.0643752,-1.95792 -0.026458,-0.0265 -0.026458,-0.0529 -0.026458,-0.0794 -0.026458,-0.0794 -0.079375,-0.13229 -0.1058334,-0.21167 0.3175,0.0794 0.6085417,0.18521 0.9260417,0.26459 0.4233333,0.13229 0.873125,0.23812 1.3493749,0.39687 m 1.058333,-1.53458 c 0,-0.0529 -0.02646,-0.10584 -0.05292,-0.15875 1.693334,-0.0529 4.577292,-0.13229 5.159375,-0.0529 0.582084,0.0529 -3.095625,0.15875 -5.106458,0.21167"
         class="st2"
         inkscape:connector-curvature="0"
         style="fill:#5f259f;stroke-width:0.26458332" />
      <path
         id="path14"
         d="m 30.61358,350.36781 c 1.74625,0.52917 2.910416,1.34937 2.910416,3.175 0,2.16958 -2.010833,3.59833 -4.153958,3.59833 -1.852083,0 -3.571875,-0.76729 -4.60375,-2.09021 l 1.322917,-1.56104 c 1.005416,1.19063 2.090208,1.71979 3.33375,1.71979 1.005416,0 1.931458,-0.47625 1.931458,-1.42875 0,-0.74083 -0.396875,-1.1377 -1.349375,-1.40229 l -1.931458,-0.58208 c -1.613959,-0.47625 -2.725209,-1.29646 -2.725209,-3.04271 0,-1.85208 1.666875,-3.41312 3.96875,-3.41312 1.693334,0 3.095625,0.635 4.021667,1.61395 l -1.243542,1.64042 c -0.79375,-0.82021 -1.719791,-1.32292 -2.804583,-1.32292 -1.031875,0 -1.74625,0.55563 -1.74625,1.32292 0,0.66146 0.449792,1.00542 1.243542,1.24354 z"
         class="st2"
         inkscape:connector-curvature="0"
         style="fill:#5f259f;stroke-width:0.26458332" />
      <path
         id="path16"
         d="m 36.857746,350.44718 h 0.02646 c 0.370416,-0.635 1.217083,-1.19062 2.275416,-1.19062 2.010834,0 3.598334,1.61396 3.598334,3.94229 0,2.30188 -1.5875,3.94229 -3.598334,3.94229 -1.058333,0 -1.931458,-0.58208 -2.275416,-1.21708 h -0.02646 v 3.99521 h -2.090208 v -10.4775 h 2.090208 z m 1.905,4.81542 c 1.164167,0 1.957917,-0.97896 1.957917,-2.09021 0,-1.08479 -0.79375,-2.09021 -1.957917,-2.09021 -1.164166,0 -1.957916,0.97896 -1.957916,2.09021 0,1.11125 0.767291,2.09021 1.957916,2.09021"
         class="st2"
         inkscape:connector-curvature="0"
         style="fill:#5f259f;stroke-width:0.26458332" />
      <path
         id="path18"
         d="m 46.673788,352.43156 1.772708,-0.13229 c 0,-0.76729 -0.529166,-1.24354 -1.5875,-1.24354 -0.79375,0 -1.613958,0.37041 -2.169583,0.76729 l -0.714375,-1.53459 c 0.661458,-0.47625 1.931458,-1.03187 3.254375,-1.03187 2.090208,0 3.254375,1.24354 3.254375,3.14854 v 4.52438 h -2.010833 v -0.9525 h -0.02646 c -0.238125,0.47625 -1.11125,1.1377 -2.196041,1.1377 -1.481667,0 -2.619375,-0.8202 -2.619375,-2.30187 0,-1.48167 1.481666,-2.24896 3.042708,-2.38125 m 1.772708,1.24354 -1.402291,0.13229 c -0.899584,0.0794 -1.481667,0.3175 -1.481667,0.92604 0,0.52917 0.529167,0.82021 1.137708,0.82021 0.9525,0 1.74625,-0.60854 1.74625,-1.66687 z"
         class="st2"
         inkscape:connector-curvature="0"
         style="fill:#5f259f;stroke-width:0.26458332" />
      <path
         id="path20"
         d="m 54.161496,353.11948 v 3.81 h -2.090208 v -7.48771 h 2.090208 v 1.27 h 0.02646 c 0.291042,-0.79375 1.058334,-1.40229 1.931459,-1.40229 0.15875,0 0.370416,0.0265 0.502708,0.0529 v 2.16959 c -0.211667,-0.0794 -0.502708,-0.1323 -0.820208,-0.1323 -0.978959,-0.0265 -1.640417,0.66146 -1.640417,1.7198"
         class="st2"
         inkscape:connector-curvature="0"
         style="fill:#5f259f;stroke-width:0.26458332" />
      <polygon
         transform="matrix(0.26458333,0,0,0.26458333,-14.418503,336.87406)"
         id="polygon22"
         points="292.1,75.8 281.1,61.4 281.1,75.8 273.2,75.8 273.2,32.7 281.1,32.7 281.1,59.9 292.1,47.5 301.3,47.5 289.5,60.5 301.7,75.8 "
         class="st2"
         style="fill:#5f259f" />
      <path
         style="fill:#5f259f;stroke-width:0.26458332"
         inkscape:connector-curvature="0"
         class="st2"
         d="m 70.221704,352.88135 h 2.963334 v -0.68792 h -1.931459 l 1.852084,-1.98437 v -0.76729 h -2.778125 v 0.68791 h 1.772708 l -1.852083,1.98438 v 0.76729 z m -3.677708,0 h 0.846667 v -1.87854 c 0,-0.10583 0.02646,-0.23813 0.05292,-0.34396 0.02646,-0.10583 0.07937,-0.21167 0.15875,-0.29104 0.05292,-0.0794 0.15875,-0.15875 0.238125,-0.21167 0.105834,-0.0529 0.211667,-0.0794 0.370417,-0.0794 0.132292,0 0.238125,0.0265 0.343958,0.0794 0.07937,0.0529 0.15875,0.13229 0.185209,0.21167 0.05292,0.0794 0.07937,0.18521 0.105833,0.29104 0.02646,0.10583 0.02646,0.21167 0.02646,0.3175 v 1.905 h 0.846667 v -2.14312 c 0,-0.18521 -0.02646,-0.34396 -0.07937,-0.50271 -0.05292,-0.15875 -0.132292,-0.3175 -0.238125,-0.44979 -0.105833,-0.1323 -0.238125,-0.23813 -0.396875,-0.3175 -0.15875,-0.0794 -0.343958,-0.10584 -0.582083,-0.10584 -0.264584,0 -0.47625,0.0529 -0.661459,0.18521 -0.185208,0.13229 -0.3175,0.29104 -0.396875,0.44979 h -0.02646 v -0.55562 h -0.79375 z"
         id="path24" />
    </g>
  </g>
  <style
     id="style10"
     type="text/css">
	.st0{fill:#00AF55;}
	.st1{fill:#FFFFFF;}
	.st2{fill:#5F259F;}
	.st3{fill:#EC008C;}
	.st4{fill:#FF9B00;}
</style>
</svg>
