<svg xmlns="http://www.w3.org/2000/svg" fill-rule="evenodd" stroke-linejoin="round" stroke-miterlimit="2" clip-rule="evenodd" viewBox="0 0 64 64"><rect width="64" height="64" fill="none"/><path fill="#3fc1c9" d="M368.636,42.727C368.666,42.011 368.727,40.545 368.727,40.545L335.273,40.545C335.273,40.545 335.692,50.603 335.826,53.835C335.924,56.165 337.684,58 339.822,58C345.979,58 358.021,58 364.178,58C366.316,58 368.076,56.165 368.174,53.835C368.204,53.115 368.237,52.318 368.273,51.455" transform="matrix(1 0 0 .91667 -320 4.833)"/><path fill="#364f6b" d="M336.093,12.182L337.824,53.735C337.873,54.901 338.753,55.818 339.822,55.818C345.979,55.818 358.021,55.818 364.178,55.818C365.247,55.818 366.127,54.901 366.176,53.735C366.206,53.016 366.239,52.218 366.275,51.355C366.325,50.153 367.261,49.22 368.364,49.275C369.466,49.33 370.321,50.351 370.271,51.554C370.235,52.417 370.201,53.214 370.171,53.934C370.026,57.429 367.385,60.182 364.178,60.182C358.021,60.182 345.979,60.182 339.822,60.182C336.615,60.182 333.974,57.429 333.829,53.934C333.342,42.264 332.002,10.099 332.002,10.099C331.977,9.504 332.177,8.923 332.554,8.493C332.931,8.062 333.454,7.818 334,7.818L370,7.818C370.546,7.818 371.069,8.062 371.446,8.493C371.823,8.923 372.023,9.504 371.998,10.099C371.998,10.099 371.22,28.773 370.634,42.826C370.584,44.029 369.648,44.962 368.546,44.907C367.443,44.852 366.588,43.831 366.638,42.628L367.907,12.182L336.093,12.182Z" transform="matrix(1 0 0 .91667 -320 4.833)"/><path fill="#364f6b" d="M362,9C362,6.515 359.314,4.5 356,4.5C353.557,4.5 350.443,4.5 348,4.5C344.686,4.5 342,6.515 342,9C342,10.5 342,12 342,12C342,12.828 342.895,13.5 344,13.5L360,13.5C361.105,13.5 362,12.828 362,12L362,9ZM358,10.5L358,9C358,8.172 357.105,7.5 356,7.5C353.557,7.5 350.443,7.5 348,7.5C346.895,7.5 346,8.172 346,9L346,10.5L358,10.5Z" transform="matrix(1 0 0 1.33333 -320 -2)"/><path fill="#364f6b" d="M341.002,20.104L342.002,50.104C342.048,51.483 342.98,52.555 344.083,52.498C345.186,52.44 346.044,51.275 345.998,49.896L344.998,19.896C344.952,18.517 344.02,17.445 342.917,17.502C341.814,17.56 340.956,18.725 341.002,20.104Z" transform="matrix(1 0 0 .8 -320 8)"/><path fill="#364f6b" d="M343.002,19.896L342.002,49.896C341.956,51.275 342.814,52.44 343.917,52.498C345.02,52.555 345.952,51.483 345.998,50.104L346.998,20.104C347.044,18.725 346.186,17.56 345.083,17.502C343.98,17.445 343.048,18.517 343.002,19.896Z" transform="matrix(1 0 0 .8 -304 8)"/><path fill="#364f6b" d="M342,20L342,50C342,51.38 342.896,52.5 344,52.5C345.104,52.5 346,51.38 346,50L346,20C346,18.62 345.104,17.5 344,17.5C342.896,17.5 342,18.62 342,20Z" transform="matrix(1 0 0 .8 -312 8)"/><path fill="#364f6b" d="M330,20L374,20C375.104,20 376,19.104 376,18C376,16.896 375.104,16 374,16L330,16C328.896,16 328,16.896 328,18C328,19.104 328.896,20 330,20Z" transform="translate(-320 -4)"/></svg>