<?xml version="1.0"?>
<svg xmlns="http://www.w3.org/2000/svg" id="Layer_1" data-name="Layer 1" viewBox="0 0 128 128" width="512" height="512"><path d="M64,4.75A59.25,59.25,0,1,0,123.25,64,59.318,59.318,0,0,0,64,4.75ZM119.75,64a56.2,56.2,0,0,1-.379,6.405C106.149,57.323,92.4,47.852,78.256,42.1A21.5,21.5,0,0,1,79.4,38.2c2.95-7.61,9.65-14.283,18.456-18.447A55.68,55.68,0,0,1,119.75,64ZM94.628,17.45C85.871,22.034,79.209,29,76.156,36.876a23.326,23.326,0,0,0-1.2,3.962,88.762,88.762,0,0,0-20.033-4.81A112.742,112.742,0,0,1,68.949,8.482,55.374,55.374,0,0,1,94.628,17.45ZM64.874,8.272A116.982,116.982,0,0,0,51.343,35.684c-.252-.019-.505-.044-.758-.061a81.239,81.239,0,0,0-15.995.505,34.64,34.64,0,0,0-1.41-18.555A55.423,55.423,0,0,1,64,8.25C64.293,8.25,64.582,8.268,64.874,8.272Zm-34.625,11.4a31.6,31.6,0,0,1,.676,17.026,76.045,76.045,0,0,0-18.3,5.657A56.061,56.061,0,0,1,30.249,19.667ZM10.862,47.141a68.467,68.467,0,0,1,19.019-6.695c-.03.09-.052.177-.083.267A70.139,70.139,0,0,1,25.857,49.3c-4.81,9.45-11.2,22.059-10.512,41.87a55.624,55.624,0,0,1-4.483-44.029Zm8.411,50.1c-2.387-22.567,4.59-36.308,9.7-46.353a72.58,72.58,0,0,0,4.134-9.044c.238-.7.448-1.388.641-2.072a77.859,77.859,0,0,1,16.469-.664c-6.752,21.591-8.68,47.11-5.909,77.041A56.027,56.027,0,0,1,19.273,97.241ZM47.935,117.38C44.959,86.9,46.873,61.1,53.79,39.425a85.347,85.347,0,0,1,20.573,4.924,48.222,48.222,0,0,0,1.27,18.168,68.449,68.449,0,0,0,3.485,9.289c4.08,9.529,9.136,21.359,7.452,43.153a55.589,55.589,0,0,1-38.635,2.421ZM90.2,113.194c1.274-21.4-3.975-33.688-7.861-42.766a65.922,65.922,0,0,1-3.318-8.8,44.936,44.936,0,0,1-1.31-15.954c14.089,5.872,27.8,15.57,41,29.015A55.922,55.922,0,0,1,90.2,113.194Z"/><path d="M101.723,31.6a49.954,49.954,0,0,1,10.432,19.88,1.75,1.75,0,1,0,3.387-.88,53.479,53.479,0,0,0-11.166-21.283,1.75,1.75,0,0,0-2.653,2.283Z"/></svg>
