<?xml version="1.0"?>
<svg xmlns="http://www.w3.org/2000/svg" id="Layer_1" data-name="Layer 1" viewBox="0 0 128 128" width="512" height="512"><path d="M121.5,22.439H6.5a1.75,1.75,0,0,0-1.75,1.75v79.622a1.75,1.75,0,0,0,1.75,1.75h115a1.75,1.75,0,0,0,1.75-1.75V24.189A1.75,1.75,0,0,0,121.5,22.439ZM119.75,56.25h-7.94a7.75,7.75,0,0,0,0,15.5h7.94v13.5H116a21.25,21.25,0,0,1,0-42.5h3.75Zm0,3.5v8.5h-7.94a4.25,4.25,0,0,1,0-8.5ZM62.25,74.089a10.238,10.238,0,0,1,0-20.178Zm3.5-20.178a10.238,10.238,0,0,1,0,20.178ZM8.25,59.75h7.94a4.25,4.25,0,0,1,0,8.5H8.25Zm0,12h7.94a7.75,7.75,0,0,0,0-15.5H8.25V42.75H12A21.273,21.273,0,0,1,33.25,64,21.264,21.264,0,0,1,12,85.25H8.25Zm0,17H12a24.75,24.75,0,0,0,0-49.5H8.25V25.939h54V50.374a13.736,13.736,0,0,0,0,27.252v24.435h-54Zm57.5,13.311V77.626a13.736,13.736,0,0,0,0-27.252V25.939h54V39.25H116a24.75,24.75,0,0,0,0,49.5h3.75v13.311Z"/></svg>
