<?xml version="1.0"?>
<svg xmlns="http://www.w3.org/2000/svg" id="Layer_1" data-name="Layer 1" viewBox="0 0 128 128" width="512" height="512"><path d="M121.026,102.636a7.6,7.6,0,0,0-8.3-1.638l-6.554-7.307c-.033-.04-.061-.083-.1-.121-.011-.011-.025-.018-.036-.029L95.714,82.033c-.023-.025-.039-.054-.064-.078-.007-.007-.016-.012-.023-.019L80.341,64.893l37.935-34.019c.127-.112.256-.238.384-.364l.209-.2A14.972,14.972,0,1,0,97.137,9.722L64,46.67,30.873,9.723c-.112-.127-.236-.254-.362-.381l-.2-.21a15,15,0,0,0-21.173,0,14.973,14.973,0,0,0,.589,21.729l37.94,34.025-15.3,17.058-.013.011c-.013.013-.022.03-.035.043L21.961,93.544c-.01.01-.022.016-.032.026-.034.034-.058.072-.088.107L15.271,101a7.591,7.591,0,0,0-8.3,12.371l7.652,7.652A7.6,7.6,0,0,0,27,112.725l7.329-6.572c.032-.028.068-.05.1-.081.009-.009.015-.02.024-.029L46.018,95.672c.008-.008.019-.013.027-.022l.006-.008L64,79.544,81.941,95.633l.015.017c.018.018.039.031.058.048l11.533,10.344c.009.01.015.02.024.029.03.03.065.052.1.079L101,112.725a7.594,7.594,0,0,0,12.377,8.3l7.651-7.651A7.6,7.6,0,0,0,121.026,102.636Zm-17.971,7.232-5.7-5.11,7.4-7.4,5.11,5.7ZM91.55,99.549l8-8,2.87,3.2-7.669,7.668Zm-5.809-5.21,8.6-8.6,2.869,3.2-8.267,8.268Zm-5.808-5.21,9.2-9.2L92,83.133,83.132,92ZM99.741,12.06A11.473,11.473,0,1,1,116.43,27.8l-.23.223c-.078.078-.157.156-.248.237L50.678,86.791,41.21,77.323ZM44.869,92,36,83.132l2.87-3.2,9.2,9.2Zm-5.808,5.209-8.27-8.269,2.869-3.2,8.6,8.6Zm-5.81,5.21-7.669-7.67,2.869-3.2,8,8Zm-15.119.636,5.11-5.7,7.4,7.4-5.7,5.109Zm-6.072-74.8A11.472,11.472,0,1,1,27.8,11.57l.227.234c.078.078.156.155.234.244L61.65,49.29,50,62.282Zm10.83,90.294a4.1,4.1,0,0,1-5.789,0L9.449,110.9a4.093,4.093,0,0,1,5.789-5.789l7.652,7.653a4.1,4.1,0,0,1,0,5.789ZM77.735,67.23l9.054,10.094-9.466,9.465-10.7-9.6ZM118.551,110.9l-7.651,7.652a4.093,4.093,0,1,1-5.789-5.789l7.651-7.652h0a4.093,4.093,0,0,1,5.788,5.789Z"/><path d="M79.821,54.945a1.75,1.75,0,0,0,2.471.135l16.284-14.6a1.75,1.75,0,0,0-2.337-2.606l-16.283,14.6A1.748,1.748,0,0,0,79.821,54.945Z"/></svg>
