<?xml version="1.0"?>
<svg xmlns="http://www.w3.org/2000/svg" id="Layer_1" data-name="Layer 1" viewBox="0 0 128 128" width="512" height="512"><path d="M113.948,110.331a4.75,4.75,0,0,0-6.509-1.66l-6.075,3.6a11.045,11.045,0,0,1-5.639,1.548H18.136a4.75,4.75,0,0,0,0,9.5H95.724a20.558,20.558,0,0,0,10.489-2.878l6.075-3.605a4.751,4.751,0,0,0,1.66-6.51Zm-3.446,3.5-6.075,3.606a17.06,17.06,0,0,1-8.7,2.387H18.136a1.25,1.25,0,0,1,0-2.5H95.725a14.558,14.558,0,0,0,7.426-2.038l6.075-3.605a1.25,1.25,0,0,1,1.276,2.15Z"/><path d="M71.2,31.828A13.576,13.576,0,1,0,57.619,18.252,13.591,13.591,0,0,0,71.2,31.828Zm0-23.652A10.076,10.076,0,1,1,61.119,18.252,10.087,10.087,0,0,1,71.2,8.176Z"/><path d="M24.2,110.461a4.66,4.66,0,0,0,2.945,1.045c.169,0,.338-.01.508-.027a4.676,4.676,0,0,0,3.161-1.724l15.43-19.124a13.448,13.448,0,0,0,2.5-4.834l1.791-6.347,9.026,9.817a4.163,4.163,0,0,1,.73,4.551l-4.863,10.639a4.7,4.7,0,1,0,8.554,3.91l4.863-10.638A13.532,13.532,0,0,0,66.492,82.9l-9.055-9.85,13-25.08L85.123,57.1a7.833,7.833,0,0,0,9.294.008s5.878-4.513,9.3-7.148a4.72,4.72,0,0,0,.8-6.692h0a4.693,4.693,0,0,0-6.545-.8l-7.428,5.665c-.6.452-.875.452-1.456-.006L76.286,38.06A23.726,23.726,0,0,0,72.5,35.63l-5.156-2.658a7.66,7.66,0,0,0-10.32,3.282L42.835,63.612a11.123,11.123,0,0,0-.309,9.568L39.689,83.239a4.212,4.212,0,0,1-.772,1.486L23.486,103.843a4.7,4.7,0,0,0,.712,6.618Zm2.011-4.419L41.647,86.915a7.71,7.71,0,0,0,1.411-2.726L46.073,73.5a1.75,1.75,0,0,0-.13-1.28,7.607,7.607,0,0,1,0-6.992L60.136,37.863a4.162,4.162,0,0,1,5.606-1.781L70.9,38.741a20.144,20.144,0,0,1,3.224,2.071l12.8,10.058a4.378,4.378,0,0,0,5.734.048l7.438-5.673a1.217,1.217,0,0,1,1.693.207l1.365-1.094-1.365,1.1a1.22,1.22,0,0,1-.206,1.73c-3.4,2.617-9.228,7.09-9.227,7.092a4.311,4.311,0,0,1-5.109.038,2.174,2.174,0,0,0-.186-.133L70.684,43.993a1.751,1.751,0,0,0-2.478.681L53.765,72.521a1.753,1.753,0,0,0,.266,1.991l9.886,10.753a10.04,10.04,0,0,1,1.745,11.007L60.8,106.912a1.2,1.2,0,0,1-2.187-1l4.865-10.641a7.661,7.661,0,0,0-1.34-8.375L50.989,74.774a1.75,1.75,0,0,0-2.972.709l-2.641,9.363a9.978,9.978,0,0,1-1.856,3.585L28.088,107.558a1.207,1.207,0,0,1-1.879-1.516Z"/><path d="M25.769,62.065l7.09,3.436a1.75,1.75,0,0,0,2.317-.77l.457-.88h0L55.812,24.924a1.75,1.75,0,1,0-3.107-1.611L51.25,26.119l-1.611-.778a1.75,1.75,0,1,0-1.524,3.15l1.523.736L46.83,34.645l-6.439,2.477a1.759,1.759,0,0,0-.828.663L25.076,59.52a1.748,1.748,0,0,0,.693,2.545Zm16.4-21.876L44.4,39.33,33.733,59.909l-.881,1.7L29.1,59.791Z"/></svg>
