<?xml version="1.0"?>
<svg xmlns="http://www.w3.org/2000/svg" id="Layer_1" data-name="Layer 1" viewBox="0 0 128 128" width="512" height="512"><path d="M101.83,62.25c-.618,0-1.232.031-1.84.083L90.311,31.94H101.05a1.136,1.136,0,0,1,.878.419,1.178,1.178,0,0,1,.245.993,1.249,1.249,0,0,1-1.243.9H99.45A1.75,1.75,0,0,0,97.7,36v6a1.75,1.75,0,0,0,1.75,1.75h1.6a10.655,10.655,0,0,0,0-21.31H79.72a1.751,1.751,0,0,0-1.667,2.284L82.458,38.56H47.229l-1.355-2.934h6.511a1.75,1.75,0,0,0,1.75-1.75,8.76,8.76,0,0,0-8.75-8.75H29.093a1.75,1.75,0,0,0-1.75,1.75v7a1.75,1.75,0,0,0,1.75,1.75h6.315l3.571,7.728L30.4,62.671a21.358,21.358,0,0,0-4.232-.421,21.655,21.655,0,1,0,21.1,26.4H54.2A10.742,10.742,0,0,0,72.515,77.773L87.483,54.4l3.441,10.8A21.642,21.642,0,1,0,101.83,62.25ZM93.95,74.691l3.066,9.619a4.786,4.786,0,0,0,4.539,3.3,4.739,4.739,0,0,0,4.735-4.749,4.591,4.591,0,0,0-.223-1.441l-3.06-9.609a12.207,12.207,0,1,1-9.057,2.881ZM30.843,28.626H45.385a5.258,5.258,0,0,1,4.95,3.5H30.843ZM22.716,86.153a5.473,5.473,0,0,0,4.6,2.5H37.344A12.142,12.142,0,1,1,26.17,71.75c.066,0,.131.009.2.01L22.3,80.92A5.487,5.487,0,0,0,22.716,86.153ZM26.17,102.06a18.155,18.155,0,0,1,0-36.31,17.977,17.977,0,0,1,2.768.22L27.88,68.353a15.44,15.44,0,0,0-1.71-.1,15.655,15.655,0,1,0,14.907,20.4H43.67A18.274,18.274,0,0,1,26.17,102.06ZM47.285,79.15a21.6,21.6,0,0,0-8.208-12.618l5.2-11.71,9.657,20.9a10.715,10.715,0,0,0-1.646,3.424ZM35.049,75.613a12.184,12.184,0,0,1,2.3,3.537H33.48Zm6.032,3.537A15.684,15.684,0,0,0,36.563,72.2l1.053-2.374a18.1,18.1,0,0,1,6.066,9.323ZM62.636,89.263a7.254,7.254,0,1,1,2.8-13.942c.01,0,.019.009.029.012a7.254,7.254,0,0,1-2.833,13.93Zm0-18.007c-.1,0-.2.012-.3.015L51.616,48.06H80.261L65.2,71.578A10.681,10.681,0,0,0,62.636,71.256ZM88.248,48.585a1.75,1.75,0,0,0-1.7.792L70.4,74.589a10.819,10.819,0,0,0-1.942-1.608L84.934,47.253A1.75,1.75,0,0,0,83.46,44.56H48.88a1.749,1.749,0,0,0-1.589,2.483l11.516,24.93a10.721,10.721,0,0,0-2.222,1.155L45.829,49.846a1.8,1.8,0,0,0-1.6-1.016,1.749,1.749,0,0,0-1.586,1.04L35.272,66.48c-.006.015-.014.03-.019.045L32.846,71.95c-.009.018-.016.036-.024.055L29.19,80.191a1.75,1.75,0,0,0,1.6,2.459H51.919a10.684,10.684,0,0,0,.438,2.5H27.32a1.995,1.995,0,0,1-1.82-2.81l5.046-11.367.007-.016L42.5,44.051a1.753,1.753,0,0,0-.01-1.446l-3.224-6.979h2.754l2.5,5.417A1.75,1.75,0,0,0,46.11,42.06H84.85a1.75,1.75,0,0,0,1.668-2.281l-4.4-13.839H101.05a7.155,7.155,0,0,1,.15,14.308v-2.5a4.645,4.645,0,0,0,3.428-7.611,4.627,4.627,0,0,0-3.578-1.692H87.92a1.751,1.751,0,0,0-1.668,2.28l12.68,39.824c.007.027.016.052.024.078l3.784,11.883a1.134,1.134,0,0,1,.05.355,1.253,1.253,0,0,1-.868,1.192,1.266,1.266,0,0,1-1.574-.813L96.566,71.373c-.011-.037-.021-.072-.034-.108L89.688,49.789A1.755,1.755,0,0,0,88.248,48.585ZM101.83,102.06a18.15,18.15,0,0,1-9.809-33.421l.792,2.485a15.628,15.628,0,1,0,9.061-2.872l-.787-2.473c.248-.01.493-.029.743-.029a18.155,18.155,0,0,1,0,36.31Z"/></svg>
