<svg id="Layer_1" height="512" viewBox="0 0 128 128" width="512" xmlns="http://www.w3.org/2000/svg" data-name="Layer 1"><path d="m121.548 111.13-60.686-58.72a21.7 21.7 0 0 0 -18.18-17.582l-26.309-25.461-.017-.021c-.009-.009-.019-.014-.028-.023l-3.31-3.2a4.876 4.876 0 0 0 -6.895 6.894l3.228 3.333 20.09 20.764a21.648 21.648 0 1 0 28.909 29.874l52.788 54.561a5.567 5.567 0 0 0 3.983 1.7h.038a5.562 5.562 0 0 0 3.962-1.642l2.484-2.494a5.595 5.595 0 0 0 -.057-7.979zm-113.297-101.502a1.375 1.375 0 0 1 2.333-.993l2.037 1.971-2.011 2.012-1.971-2.037a1.349 1.349 0 0 1 -.388-.953zm4.793 5.5 2.092-2.092 22.38 21.664a21.5 21.5 0 0 0 -4.62.953zm26.512 59.279a18.154 18.154 0 1 1 18.154-18.153 18.173 18.173 0 0 1 -18.154 18.153zm21.61-16.832 36.544 35.36-4.771 4.77-33.01-34.118a21.492 21.492 0 0 0 1.237-6.012zm57.966 59.058-2.488 2.5a2.009 2.009 0 0 1 -1.5.614 2.089 2.089 0 0 1 -1.5-.634l-18.276-18.89 4.852-4.853 18.885 18.273a2.1 2.1 0 0 1 .639 1.5 2.067 2.067 0 0 1 -.612 1.49z"/><path d="m52.293 47.162a1.75 1.75 0 1 0 -2.846 2.038 12.138 12.138 0 0 1 1.227 11.965 1.748 1.748 0 0 0 .89 2.309 1.728 1.728 0 0 0 .708.151 1.751 1.751 0 0 0 1.6-1.041 15.636 15.636 0 0 0 -1.58-15.421z"/><path d="m35.223 46.431a10.865 10.865 0 1 0 10.865 10.869 10.876 10.876 0 0 0 -10.865-10.869zm0 18.229a7.365 7.365 0 1 1 7.365-7.36 7.373 7.373 0 0 1 -7.365 7.36z"/></svg>