<svg id="Layer_1" height="512" viewBox="0 0 128 128" width="512" xmlns="http://www.w3.org/2000/svg" data-name="Layer 1"><path d="m64 4.75a59.25 59.25 0 1 0 59.25 59.25 59.318 59.318 0 0 0 -59.25-59.25zm0 115a55.75 55.75 0 1 1 55.75-55.75 55.813 55.813 0 0 1 -55.75 55.75z"/><path d="m96.53 101.611a49.364 49.364 0 0 1 -18.622 10.161 1.75 1.75 0 1 0 .979 3.36 52.841 52.841 0 0 0 19.934-10.876 1.75 1.75 0 1 0 -2.291-2.645z"/><path d="m108.121 90.6a1.748 1.748 0 0 0 -2.422.509 50.077 50.077 0 0 1 -3.243 4.421 1.75 1.75 0 1 0 2.7 2.222 53.626 53.626 0 0 0 3.47-4.73 1.75 1.75 0 0 0 -.505-2.422z"/><path d="m82.416 38.182a7.742 7.742 0 1 0 -6.655 3.759 7.79 7.79 0 0 0 1.886-.232 7.7 7.7 0 0 0 4.769-3.527zm-8.831-.351a4.25 4.25 0 1 1 5.832-1.453 4.249 4.249 0 0 1 -5.832 1.453z"/><path d="m62.047 16.891a7.758 7.758 0 0 0 -10.635 2.648 7.755 7.755 0 0 0 6.628 11.747 7.792 7.792 0 0 0 1.886-.233 7.75 7.75 0 0 0 2.121-14.162zm-.347 8.832a4.25 4.25 0 1 1 -1.452-5.833 4.219 4.219 0 0 1 1.452 5.833z"/><path d="m57.533 44.462a7.75 7.75 0 1 0 -4.007 14.395 7.834 7.834 0 0 0 1.886-.232 7.75 7.75 0 0 0 2.121-14.163zm-.351 8.832a4.25 4.25 0 1 1 -4.669-6.314 4.287 4.287 0 0 1 1.034-.128 4.254 4.254 0 0 1 3.635 6.442z"/></svg>