<svg id="Layer_1" height="512" viewBox="0 0 128 128" width="512" xmlns="http://www.w3.org/2000/svg" data-name="Layer 1"><path d="m78.831 56.381c-2.6-4.978-5.052-9.68-5.319-16.054a61.782 61.782 0 0 1 1.163-12.893 82.527 82.527 0 0 0 1.128-8.96 1.724 1.724 0 0 0 0-.176c0-.057 0-.114 0-.168 0-7.378-5.3-13.38-11.806-13.38s-11.806 6-11.806 13.38v.165a1.783 1.783 0 0 0 0 .179 82.527 82.527 0 0 0 1.128 8.96 61.778 61.778 0 0 1 1.163 12.892c-.261 6.374-2.715 11.074-5.313 16.055-3.2 6.128-6.823 13.074-6.823 24.119a228.471 228.471 0 0 0 3.931 41.357 1.751 1.751 0 0 0 1.713 1.393h32.02a1.751 1.751 0 0 0 1.713-1.393 228.471 228.471 0 0 0 3.931-41.357c0-11.045-3.625-17.991-6.823-24.119zm-20.846-15.91c.034-.814.036-1.607.024-2.391h11.982c-.012.784-.01 1.577.024 2.392a29.662 29.662 0 0 0 .907 6.108h-13.844a29.672 29.672 0 0 0 .907-6.109zm6.015-32.221c4.58 0 8.306 4.432 8.307 9.939a1.677 1.677 0 0 0 -.008.265 80.094 80.094 0 0 1 -1.078 8.413c-.408 2.489-.819 5.031-1.051 7.713h-12.34c-.232-2.682-.643-5.224-1.051-7.713a79.718 79.718 0 0 1 -1.079-8.423 1.733 1.733 0 0 0 -.007-.314c.001-5.448 3.727-9.88 8.307-9.88zm14.565 111.5h-29.131a227.975 227.975 0 0 1 -3.588-39.25c0-10.187 3.267-16.446 6.426-22.5a70.905 70.905 0 0 0 3.728-7.92h16.01a70.905 70.905 0 0 0 3.718 7.92c3.159 6.054 6.426 12.313 6.426 22.5a228.17 228.17 0 0 1 -3.589 39.25z"/><path d="m77.9 78.75a1.751 1.751 0 0 0 -1.75 1.75 211.86 211.86 0 0 1 -1.127 21.338 1.751 1.751 0 0 0 1.564 1.918c.061.006.12.009.18.009a1.75 1.75 0 0 0 1.739-1.573 215.638 215.638 0 0 0 1.148-21.692 1.751 1.751 0 0 0 -1.754-1.75z"/></svg>