<?xml version="1.0"?>
<svg xmlns="http://www.w3.org/2000/svg" id="Layer_1" data-name="Layer 1" viewBox="0 0 128 128" width="512" height="512"><path d="M122.784,94.308l-7.8-37.516a13.667,13.667,0,0,0-4.817-7.853l-1.2-8.865A13.772,13.772,0,0,0,93.5,28.3l-9.8,1.326L65.4,5.443c-.013-.016-.029-.028-.041-.044a1.7,1.7,0,0,0-.124-.132c-.042-.042-.084-.084-.129-.121-.017-.013-.029-.029-.045-.042s-.061-.035-.09-.054a1.789,1.789,0,0,0-.155-.095c-.052-.027-.1-.049-.157-.071s-.1-.04-.154-.056a1.713,1.713,0,0,0-.172-.04c-.053-.011-.106-.019-.159-.025s-.113-.007-.17-.007-.113,0-.169.007-.107.014-.16.025a1.7,1.7,0,0,0-.171.04c-.053.016-.1.036-.156.057a1.641,1.641,0,0,0-.155.07,1.5,1.5,0,0,0-.157.1c-.029.019-.06.032-.088.053s-.028.029-.044.041a1.7,1.7,0,0,0-.132.123,1.661,1.661,0,0,0-.122.131c-.013.016-.029.028-.041.044L44.3,29.622,34.505,28.3a13.765,13.765,0,0,0-14.691,8.757c-.023.053-.047.105-.066.161a13.741,13.741,0,0,0-.712,2.861l-1.2,8.867a13.7,13.7,0,0,0-4.82,7.852L5.217,94.3A21.756,21.756,0,0,0,23.6,120.294l20.392,2.761a21.746,21.746,0,0,0,20.006-8.117,22.017,22.017,0,0,0,3.33,3.388,21.5,21.5,0,0,0,13.706,4.927,22.208,22.208,0,0,0,2.99-.2l20.388-2.761a21.748,21.748,0,0,0,18.377-25.982ZM93.966,31.765a10.26,10.26,0,0,1,11.53,8.779l.837,6.2a13.653,13.653,0,0,0-6.658-.773L91.93,47.015l-1.056-7.79a1.75,1.75,0,0,0-1.97-1.5l-11.889,1.61a1.751,1.751,0,0,0-1.5,1.969l1.054,7.789-7.749,1.05a13.613,13.613,0,0,0-6.22,2.515l-.837-6.191a10.274,10.274,0,0,1,8.791-11.533ZM80.039,48.625l-.82-6.056,8.422-1.14.82,6.055ZM58.711,92.213l-4.187,1.16A4.257,4.257,0,0,1,49.2,90.038l-1.29-7.131a10.184,10.184,0,0,1,1.512-7.449c1.922-2.938,4.523-6.763,7.52-10.792ZM64,9.4,79.719,30.161l-9.633,1.3a13.652,13.652,0,0,0-6.081,2.4,13.73,13.73,0,0,0-6.09-2.4l-9.634-1.3ZM22.5,40.545c.04-.292.1-.577.161-.859l17.291,2.338a1.712,1.712,0,0,0,.236.016,1.75,1.75,0,0,0,.232-3.484L24.075,36.344a10.229,10.229,0,0,1,9.96-4.579l23.411,3.17a10.211,10.211,0,0,1,3.915,1.4,13.721,13.721,0,0,0-3.066,10.6l.426,3.149-30.4-4.118a13.626,13.626,0,0,0-6.657.774Zm21.951,79.041-20.39-2.761A18.257,18.257,0,0,1,8.644,95.017l7.8-37.508a10.306,10.306,0,0,1,11.412-8.074l30.864,4.181c.162.021.327.055.49.085l.277,2.05A203.162,203.162,0,0,0,46.5,73.539a13.66,13.66,0,0,0-2.03,9.992l1.29,7.131a7.765,7.765,0,0,0,9.7,6.084l3.482-.965.456,7.109a21.66,21.66,0,0,0,2.545,8.928A18.239,18.239,0,0,1,44.455,119.586Zm71.935-10.311a18.061,18.061,0,0,1-12.452,7.546L83.55,119.582a18.249,18.249,0,0,1-20.661-16.917L62.3,93.417l0-.029L60.437,64.425a10.209,10.209,0,0,1,2.207-7.007c.082-.1.169-.2.256-.308a10.208,10.208,0,0,1,6.39-3.5l9.4-1.272c.029,0,.057,0,.085-.006s.038-.01.057-.014l21.313-2.885a10.058,10.058,0,0,1,1.368-.093,10.3,10.3,0,0,1,10.043,8.163l7.8,37.516A18.064,18.064,0,0,1,116.39,109.275Z"/><path d="M68.877,102.281,68.352,94.1a1.75,1.75,0,0,0-3.493.224l.526,8.184a15.587,15.587,0,0,0,5.739,11.179,1.75,1.75,0,0,0,2.217-2.709A12.125,12.125,0,0,1,68.877,102.281Z"/></svg>
