<?xml version="1.0"?>
<svg xmlns="http://www.w3.org/2000/svg" id="Layer_1" data-name="Layer 1" viewBox="0 0 128 128" width="512" height="512"><path d="M121.5,4.75H6.5A1.75,1.75,0,0,0,4.75,6.5v115a1.75,1.75,0,0,0,1.75,1.75h115a1.75,1.75,0,0,0,1.75-1.75V6.5A1.75,1.75,0,0,0,121.5,4.75Zm-1.75,115H8.25V8.25h111.5Z"/><path d="M15.5,114.25h97a1.75,1.75,0,0,0,1.75-1.75v-97a1.75,1.75,0,0,0-1.75-1.75h-97a1.75,1.75,0,0,0-1.75,1.75v97A1.75,1.75,0,0,0,15.5,114.25Zm1.75-48.5H38V86.5H17.25Zm24.25,0H62.25V86.5H41.5Zm24.25,0H86.5V86.5H65.75Zm24.25,0h20.75V86.5H90Zm20.75-3.5H90V41.5h20.75Zm-24.25,0H65.75V41.5H86.5Zm-24.25,0H41.5V41.5H62.25ZM38,62.25H17.25V41.5H38ZM17.25,90H38v20.75H17.25ZM41.5,90H62.25v20.75H41.5Zm24.25,0H86.5v20.75H65.75Zm45,20.75H90V90h20.75Zm0-72.75H90V17.25h20.75ZM86.5,38H65.75V17.25H86.5ZM62.25,38H41.5V17.25H62.25Zm-45-20.75H38V38H17.25Z"/></svg>
