<svg id="Layer_1" height="512" viewBox="0 0 128 128" width="512" xmlns="http://www.w3.org/2000/svg" data-name="Layer 1"><path d="m119.534 13.656-2.6-2.6-2.595-2.6a12.685 12.685 0 0 0 -18.281.353l-66.39 71.73a1.75 1.75 0 0 0 -.365 1.772l1.331 3.765-22.781 22.797-2.587 2.588a1.749 1.749 0 0 0 0 2.475l8.8 8.8a1.749 1.749 0 0 0 2.475 0l2.588-2.587 22.785-22.788 3.765 1.331a1.727 1.727 0 0 0 .583.1 1.751 1.751 0 0 0 1.189-.465l71.73-66.39a12.685 12.685 0 0 0 .353-18.281zm-99.048 100.184-6.326-6.326 17.819-17.814a12.586 12.586 0 0 0 6.321 6.321zm-11.511-1.14 2.711-2.711 6.325 6.325-2.711 2.711zm107.825-83.332-70.951 65.672-3.714-1.313c-.022-.009-.044-.015-.066-.023l-1.607-.569a9.142 9.142 0 0 1 -5.6-5.6l-.562-1.604c-.008-.022-.015-.044-.024-.066l-1.316-3.714 65.672-70.951a9.186 9.186 0 0 1 13.237-.255l5.191 5.19a9.188 9.188 0 0 1 -.256 13.237z"/><path d="m91.808 95.125a13.75 13.75 0 1 0 12.89 18.49 1.77 1.77 0 0 0 .148-.394v-.014a13.722 13.722 0 0 0 -13.038-18.082zm0 3.5a10.221 10.221 0 0 1 10.063 12.167 53.473 53.473 0 0 0 -20.127 0 10.226 10.226 0 0 1 10.064-12.167zm0 20.5a10.245 10.245 0 0 1 -8.8-5.017 50.615 50.615 0 0 1 17.6 0 10.245 10.245 0 0 1 -8.8 5.017z"/><path d="m90.31 45.715-10.253 9.485a1.75 1.75 0 1 0 2.377 2.568l10.253-9.489a1.75 1.75 0 0 0 -2.377-2.568z"/></svg>