<?xml version="1.0"?>
<svg xmlns="http://www.w3.org/2000/svg" id="Layer_1" data-name="Layer 1" viewBox="0 0 128 128" width="512" height="512"><path d="M122.256,64.211l0-.018,0-.016-.008-.021a31.559,31.559,0,0,0-22.376-22.68c-1.018-1.823-3.839-3.27-8.655-4.46l-3.584-12.7A16.453,16.453,0,0,0,71.85,12.368H47.55a1.749,1.749,0,0,0-1.75,1.75v6a1.75,1.75,0,0,0,1.75,1.75h15.3c4.812,0,7.858,2.852,9.586,8.973l1.072,3.814c-3.1-.175-6.282-.267-9.508-.267-1.38,0-31.65.09-35.821,7.083A31.52,31.52,0,0,0,5.761,64.155a.2.2,0,0,0-.009.022l0,.017,0,.007a31.257,31.257,0,0,0-1,7.882v11.8c0,1.021.048,2.041.148,3.131l.006.045v.011a31.627,31.627,0,0,0,31.6,28.563h55a31.63,31.63,0,0,0,31.6-28.567h0c0-.021.006-.041.008-.062.1-1.079.146-2.1.146-3.12v-11.8A31.256,31.256,0,0,0,122.256,64.211ZM8.3,85.472c-.03-.536-.048-1.065-.048-1.59v-11.8a28.043,28.043,0,0,1,.5-5.286A220.794,220.794,0,0,0,64,74.308,220.8,220.8,0,0,0,119.253,66.8a28.094,28.094,0,0,1,.5,5.286v11.8c0,.526-.018,1.055-.047,1.59A217.863,217.863,0,0,1,64,93.217,217.848,217.848,0,0,1,8.3,85.472ZM64,37.888c4.009,0,7.956.139,11.732.415h0c2.105.155,4.148.354,6.072.592a1.75,1.75,0,0,0,.429-3.474c-1.6-.2-3.288-.371-5.019-.513l-1.409-5.015c-2.159-7.648-6.517-11.525-12.955-11.525H49.3v-2.5H71.85a12.94,12.94,0,0,1,12.406,9.4l3.859,13.679a1.729,1.729,0,0,0,.979,1.106c.033.017.064.037.1.052s.07.025.106.036a1.735,1.735,0,0,0,.207.07c5.772,1.319,7.047,2.639,7.272,2.945-1.06,1.927-12.62,5.237-32.778,5.237-20.2,0-31.771-3.326-32.785-5.25C32.229,41.213,43.794,37.888,64,37.888ZM28.348,45.052C33.082,51.8,62.636,51.888,64,51.888s30.933-.09,35.655-6.841a28.062,28.062,0,0,1,18.723,18.361A217.25,217.25,0,0,1,64,70.808a217.25,217.25,0,0,1-54.378-7.4A28.022,28.022,0,0,1,28.348,45.052ZM91.5,112.132h-55A28.13,28.13,0,0,1,8.749,89.22,220.944,220.944,0,0,0,64,96.717a220.892,220.892,0,0,0,55.251-7.5A28.133,28.133,0,0,1,91.5,112.132Z"/><path d="M104.939,101.608A22.024,22.024,0,0,1,91.5,106.137H75.125a1.75,1.75,0,0,0,0,3.5H91.5a25.5,25.5,0,0,0,15.559-5.243,1.75,1.75,0,0,0-2.12-2.786Z"/></svg>
