<?xml version="1.0"?>
<svg xmlns="http://www.w3.org/2000/svg" id="Layer_1" data-name="Layer 1" viewBox="0 0 128 128" width="512" height="512"><path d="M93.76,52.727l6.172-25.818A17.971,17.971,0,0,0,82.45,4.75H45.55A17.961,17.961,0,0,0,28.067,26.907l6.173,25.82a41.558,41.558,0,1,0,59.52,0ZM31.07,22.72A14.489,14.489,0,0,1,45.55,8.25h36.9A14.476,14.476,0,0,1,96.528,26.093L90.817,49.981A41.867,41.867,0,0,0,86,46.461l5.181-21.648A8.979,8.979,0,0,0,82.45,13.75H45.55a8.978,8.978,0,0,0-8.733,11.067L42,46.461a41.867,41.867,0,0,0-4.814,3.52L31.472,26.092A14.433,14.433,0,0,1,31.07,22.72Zm14.1,21.946L40.223,24.007A5.476,5.476,0,0,1,45.55,17.25h36.9A5.477,5.477,0,0,1,87.778,24L82.833,44.666a41.4,41.4,0,0,0-37.666,0ZM64,119.75a38.058,38.058,0,1,1,38.058-38.058A38.1,38.1,0,0,1,64,119.75Z"/><path d="M92.6,99.781a1.75,1.75,0,0,0-2.44.414,32.3,32.3,0,0,1-16.835,12.171,1.75,1.75,0,1,0,1.02,3.348A35.827,35.827,0,0,0,93.02,102.221,1.751,1.751,0,0,0,92.6,99.781Z"/><path d="M85.654,81.692A21.654,21.654,0,1,0,64,103.346,21.678,21.678,0,0,0,85.654,81.692ZM64,99.846A18.154,18.154,0,1,1,82.154,81.692,18.173,18.173,0,0,1,64,99.846Z"/></svg>
