<?xml version="1.0"?>
<svg xmlns="http://www.w3.org/2000/svg" id="Layer_1" data-name="Layer 1" viewBox="0 0 128 128" width="512" height="512"><path d="M121.385,112.4,106.4,97.43l3.681-3.681a1.749,1.749,0,0,0,0-2.475A11.722,11.722,0,0,0,97.584,88.61L72.983,64l41.865-41.864A28.7,28.7,0,0,0,121.5,11.583l1.639-4.48A1.75,1.75,0,0,0,120.9,4.858L116.42,6.5a28.7,28.7,0,0,0-10.568,6.657L64,55.017,22.147,13.154A28.687,28.687,0,0,0,11.581,6.5L7.1,4.858A1.751,1.751,0,0,0,4.856,7.1L6.5,11.581a28.652,28.652,0,0,0,6.657,10.558L55.013,64,30.416,88.61a11.722,11.722,0,0,0-12.493,2.664,1.749,1.749,0,0,0,0,2.475L21.6,97.43,6.615,112.4a6.353,6.353,0,0,0,8.98,8.99l14.994-14.979L34.173,110a1.748,1.748,0,0,0,2.474,0,11.751,11.751,0,0,0,2.707-12.357L64,72.994,88.646,97.642A11.757,11.757,0,0,0,91.352,110a1.749,1.749,0,0,0,2.475,0l3.584-3.584,14.994,14.979a6.353,6.353,0,0,0,8.98-8.99ZM108.327,15.629a25.227,25.227,0,0,1,9.294-5.844l.939-.344-.344.941a25.222,25.222,0,0,1-5.843,9.282L70.509,61.528l-4.035-4.036Zm-95.2,103.289a2.854,2.854,0,0,1-4.033-4.038l14.99-14.975,4.035,4.035Zm22.156-12.763-3.446-3.446,0-.006-.006,0-6.5-6.5-.007-.008-.008-.007-3.544-3.545a8.255,8.255,0,0,1,10.3,1.107l2.111,2.11A8.265,8.265,0,0,1,35.278,106.155Zm2.31-11.7a11.714,11.714,0,0,0-.941-1.075l-2.11-2.11a11.815,11.815,0,0,0-.972-.864L57.488,66.479l4.039,4.04ZM58.755,62.8c-.01-.011-.017-.024-.028-.034s-.023-.018-.034-.028L15.627,19.664A25.206,25.206,0,0,1,9.784,10.38L9.44,9.441l.94.345a25.217,25.217,0,0,1,9.292,5.843L94.435,90.41a11.815,11.815,0,0,0-.972.864l-2.111,2.11a11.992,11.992,0,0,0-.94,1.075Zm33.967,43.357a8.265,8.265,0,0,1,1.105-10.3l2.11-2.11a8.256,8.256,0,0,1,10.3-1.107l-3.545,3.546-.007.006-.006.007-6.5,6.5-.006,0,0,.006Zm26.19,12.762a2.856,2.856,0,0,1-4.033,0L99.886,103.94l4.035-4.035,14.99,14.975a2.854,2.854,0,0,1,0,4.037Z"/></svg>
