<?xml version="1.0"?>
<svg xmlns="http://www.w3.org/2000/svg" id="Layer_1" data-name="Layer 1" viewBox="0 0 128 128" width="512" height="512"><path d="M120.062,9.7A13.712,13.712,0,0,0,109.5,4.75H73.27A13.745,13.745,0,0,0,59.748,20.964l14.14,77.564v7.226a17.5,17.5,0,1,0,34.991,0v-7.26l14.142-77.528A13.69,13.69,0,0,0,120.062,9.7Zm-14.683,96.056a14,14,0,1,1-27.991,0V87.079a14,14,0,1,1,27.991,0Zm14.2-85.418L108.243,82.473a17.471,17.471,0,0,0-33.722.01L63.191,20.334A10.244,10.244,0,0,1,73.27,8.25H109.5a10.242,10.242,0,0,1,10.078,12.086Z"/><path d="M91.384,85.588a8.505,8.505,0,0,0-8.5,8.5v11.671a8.5,8.5,0,0,0,16.992,0V94.083A8.506,8.506,0,0,0,91.384,85.588Zm5,20.166a5,5,0,0,1-9.992,0V94.083a5,5,0,0,1,9.992,0Z"/><path d="M91.384,15.583a1.75,1.75,0,0,0-1.75,1.75v29.5a1.75,1.75,0,0,0,3.5,0v-29.5A1.75,1.75,0,0,0,91.384,15.583Z"/><path d="M108.7,16.778a1.743,1.743,0,0,0-2.035,1.409L100,54.842a1.749,1.749,0,0,0,1.408,2.034,1.712,1.712,0,0,0,.316.029,1.749,1.749,0,0,0,1.719-1.437l6.667-36.655A1.75,1.75,0,0,0,108.7,16.778Z"/><path d="M76.105,18.187a1.75,1.75,0,1,0-3.443.626l6.666,36.655a1.75,1.75,0,0,0,1.72,1.437,1.7,1.7,0,0,0,.315-.029,1.749,1.749,0,0,0,1.408-2.034Z"/><path d="M54.112,29.472V22.246a17.5,17.5,0,1,0-34.991,0v7.26L4.979,107.034A13.742,13.742,0,0,0,18.5,123.25H54.73a13.745,13.745,0,0,0,13.522-16.214ZM22.621,22.246a14,14,0,1,1,27.991,0V40.921a14,14,0,1,1-27.991,0ZM62.6,116.062a10.222,10.222,0,0,1-7.873,3.688H18.5A10.242,10.242,0,0,1,8.422,107.664L19.757,45.527a17.471,17.471,0,0,0,33.722-.01l11.33,62.149A10.206,10.206,0,0,1,62.6,116.062Z"/><path d="M36.616,42.412a8.505,8.505,0,0,0,8.5-8.495V22.246a8.5,8.5,0,0,0-16.992,0V33.917A8.506,8.506,0,0,0,36.616,42.412Zm-5-20.166a5,5,0,0,1,9.992,0V33.917a5,5,0,0,1-9.992,0Z"/><path d="M36.616,79.417a1.749,1.749,0,0,0-1.75,1.75v29.5a1.75,1.75,0,0,0,3.5,0v-29.5A1.749,1.749,0,0,0,36.616,79.417Z"/><path d="M26.6,71.124a1.742,1.742,0,0,0-2.035,1.408L17.9,109.187a1.75,1.75,0,0,0,1.408,2.035,1.79,1.79,0,0,0,.315.028,1.751,1.751,0,0,0,1.72-1.437l6.667-36.655A1.749,1.749,0,0,0,26.6,71.124Z"/><path d="M48.672,72.532a1.75,1.75,0,0,0-3.443.626L51.9,109.813a1.749,1.749,0,0,0,1.719,1.437,1.8,1.8,0,0,0,.316-.028,1.75,1.75,0,0,0,1.408-2.035Z"/></svg>
