<?xml version="1.0"?>
<svg xmlns="http://www.w3.org/2000/svg" id="Layer_1" data-name="Layer 1" viewBox="0 0 128 128" width="512" height="512"><path d="M121.5,22.439H6.5a1.751,1.751,0,0,0-1.75,1.75v79.622a1.751,1.751,0,0,0,1.75,1.75h115a1.751,1.751,0,0,0,1.75-1.75V24.189A1.751,1.751,0,0,0,121.5,22.439Zm-1.75,30.613H110.4a1.75,1.75,0,0,0-1.75,1.75V73.2a1.75,1.75,0,0,0,1.75,1.75h9.346v7.5h-18.6v-36.9h18.6Zm0,3.5v14.9h-7.6v-14.9ZM62.25,74.089a10.238,10.238,0,0,1,0-20.178Zm3.5-20.178a10.238,10.238,0,0,1,0,20.178ZM8.25,56.552h7.6v14.9H8.25Zm0,18.4H17.6a1.75,1.75,0,0,0,1.75-1.75V54.8a1.75,1.75,0,0,0-1.75-1.75H8.25v-7.5h18.6v36.9H8.25Zm0,11H28.6a1.75,1.75,0,0,0,1.75-1.75V73.989a10.138,10.138,0,0,0,0-19.978V43.8a1.75,1.75,0,0,0-1.75-1.75H8.25V25.939h54V50.374a13.736,13.736,0,0,0,0,27.252v24.435h-54Zm22.1-28.358a6.641,6.641,0,0,1,0,12.82Zm35.4,44.471V77.626a13.736,13.736,0,0,0,0-27.252V25.939h54V42.052H99.4a1.75,1.75,0,0,0-1.75,1.75V54.011a10.138,10.138,0,0,0,0,19.978V84.2a1.75,1.75,0,0,0,1.75,1.75H119.75v16.113Zm31.9-31.651a6.641,6.641,0,0,1,0-12.82Z"/></svg>
