<svg id="Layer_1" height="512" viewBox="0 0 128 128" width="512" xmlns="http://www.w3.org/2000/svg" data-name="Layer 1"><path d="m87.855 63.335a41.207 41.207 0 0 0 -7.528-23.21 41.545 41.545 0 0 0 -68.038 0 41.146 41.146 0 0 0 -7.527 23.154c-.012.237-.012.485-.012.721a41.1 41.1 0 0 0 8.255 24.847l.03.042.009.013c.015.023.03.047.047.069a41.522 41.522 0 0 0 66.433 0c.03-.039.058-.08.084-.121a41.1 41.1 0 0 0 8.257-24.85c0-.236 0-.484-.01-.665zm-10.535 22.703-14.263-1.867-6.149-7.271 4.8-14.757 10.172-4.528 12.477 6.785a37.6 37.6 0 0 1 -7.037 21.638zm-47.762-1.867-14.258 1.867a37.6 37.6 0 0 1 -7.042-21.638l12.482-6.783 10.173 4.528 4.794 14.755zm-16.058-39.466 4.864 10.22-9.932 5.4a37.631 37.631 0 0 1 5.068-15.62zm25.444 30.832-4.55-14.005 11.914-8.656 11.914 8.655-4.551 14.006zm35.3-20.612 4.864-10.22a37.67 37.67 0 0 1 5.065 15.616zm2.605-13.617-6.2 13.021-10.158 4.525-12.433-9.033v-12.037l10.4-9.856a38.37 38.37 0 0 1 18.396 13.38zm-22.331-14.47-8.21 7.782-8.208-7.782a38.753 38.753 0 0 1 16.418 0zm-20.36 1.089 10.4 9.857v12.037l-12.433 9.033-10.166-4.525-6.2-13.021a38.368 38.368 0 0 1 18.399-13.381zm-16.333 61.31 11.216-1.468 2.067 11.131a37.877 37.877 0 0 1 -13.283-9.663zm17.108 11.091-2.6-14.016 6.154-7.275h15.644l6.154 7.275-2.6 14.016a38.637 38.637 0 0 1 -22.752 0zm26.574-1.428 2.067-11.133 11.217 1.468a37.9 37.9 0 0 1 -13.284 9.665z"/><path d="m106.072 22.528-17.266-17.265a1.75 1.75 0 0 0 -2.475 2.474l17.269 17.263a55.213 55.213 0 0 1 0 77.994l-17.269 17.269a1.75 1.75 0 1 0 2.475 2.474l17.266-17.265a58.718 58.718 0 0 0 0-82.944z"/><path d="m93.414 99.038a1.75 1.75 0 0 0 2.474 2.475l3.112-3.113a48.639 48.639 0 0 0 9.619-13.628 1.75 1.75 0 0 0 -3.164-1.5 45.154 45.154 0 0 1 -8.93 12.65z"/><path d="m99 29.6-8.714-8.715a1.75 1.75 0 1 0 -2.475 2.474l8.715 8.715a45.837 45.837 0 0 1 4.492 5.222 1.75 1.75 0 0 0 2.818-2.076 49.457 49.457 0 0 0 -4.836-5.62z"/><path d="m68.271 19.688a1.75 1.75 0 0 0 2.23-2.7l-9.501-7.849a1.75 1.75 0 1 0 -2.231 2.7z"/><path d="m68.271 108.312-9.5 7.852a1.75 1.75 0 1 0 2.231 2.7l9.5-7.852a1.75 1.75 0 0 0 -2.23-2.7z"/></svg>