<svg id="Layer_1" height="512" viewBox="0 0 128 128" width="512" xmlns="http://www.w3.org/2000/svg" data-name="Layer 1"><path d="m123.1 8.611a1.742 1.742 0 0 0 -.976-.918l-7.48-2.83a1.752 1.752 0 0 0 -2.256 1.017l-22.566 59.575-.244-.092a1.752 1.752 0 0 0 -2.255 1.017l-3.21 8.48a9.709 9.709 0 0 1 -9.033 6.24c-.3 0-.605-.008-.9-.033l-26.37-2.439a21.654 21.654 0 1 0 -33.261 21.383l3.94 9.677a21.663 21.663 0 0 0 20.151 13.562h27.32a23.851 23.851 0 0 0 22.206-15.34l13.651-36.05a1.75 1.75 0 0 0 -1.017-2.26l-.236-.089 22.572-59.561a1.746 1.746 0 0 0 -.036-1.339zm-114.85 73.289a18.154 18.154 0 1 1 18.15 18.158 18.175 18.175 0 0 1 -18.15-18.158zm76.643 24.768a20.335 20.335 0 0 1 -18.933 13.082h-27.32a18.177 18.177 0 0 1 -16.909-11.38l-2.451-6.022a21.638 21.638 0 0 0 28.771-20.183l25.825 2.389c.409.034.806.046 1.2.046a13.228 13.228 0 0 0 12.307-8.5l2.591-6.845.241.091 7.7 2.908zm12.4-38.394-4.2-1.586 21.94-57.936 4.206 1.591z"/><path d="m83.788 97.594a1.748 1.748 0 0 0 -2.256 1.016l-2.25 5.935a14.133 14.133 0 0 1 -5.574 6.895 1.75 1.75 0 1 0 1.906 2.935 17.611 17.611 0 0 0 6.942-8.591l2.244-5.934a1.748 1.748 0 0 0 -1.012-2.256z"/><path d="m27.654 81.9a1.75 1.75 0 0 0 3.5 0 4.756 4.756 0 0 0 -4.75-4.75 1.75 1.75 0 1 0 0 3.5 1.251 1.251 0 0 1 1.25 1.25z"/><path d="m34.618 82.385a1.75 1.75 0 0 0 1.75 1.75 1.251 1.251 0 0 1 1.25 1.25 1.75 1.75 0 0 0 3.5 0 4.756 4.756 0 0 0 -4.75-4.75 1.749 1.749 0 0 0 -1.75 1.75z"/><path d="m26.4 69.729a1.252 1.252 0 0 1 1.25 1.25 1.75 1.75 0 0 0 3.5 0 4.756 4.756 0 0 0 -4.75-4.75 1.75 1.75 0 1 0 0 3.5z"/><path d="m34.868 74.654a1.251 1.251 0 0 1 1.25 1.25 1.75 1.75 0 0 0 3.5 0 4.756 4.756 0 0 0 -4.75-4.75 1.75 1.75 0 1 0 0 3.5z"/></svg>