<svg id="Layer_1" height="512" viewBox="0 0 128 128" width="512" xmlns="http://www.w3.org/2000/svg" data-name="Layer 1"><path d="m105.4 110.124-4.4-25.875 2.212-.376a1.751 1.751 0 0 0 1.433-2.018l-1.272-7.51a1.752 1.752 0 0 0 -2.019-1.434l-9.14 1.556-8.414-46.413a20.08 20.08 0 1 0 -39.59 0l-8.422 46.413-9.14-1.556a1.752 1.752 0 0 0 -2.019 1.434l-1.272 7.51a1.751 1.751 0 0 0 1.433 2.018l2.21.376-4.4 25.881a11.583 11.583 0 0 0 -.164 1.9 11.219 11.219 0 0 0 9.371 11.07 11.247 11.247 0 0 0 12.978-9.2l4.4-25.884 2.22.378a1.853 1.853 0 0 0 .3.024 1.75 1.75 0 0 0 1.723-1.455l1.281-7.5a1.751 1.751 0 0 0 -1.431-2.021l-8.113-1.38 6.435-35.477a19.961 19.961 0 0 0 24.808 0l6.439 35.477-8.113 1.38a1.751 1.751 0 0 0 -1.434 2.021l1.281 7.5a1.75 1.75 0 0 0 1.719 1.455 1.853 1.853 0 0 0 .3-.024l2.22-.378 4.4 25.885a11.253 11.253 0 0 0 22.345-1.874 11.6 11.6 0 0 0 -.165-1.903zm-64.06 3.189a7.753 7.753 0 0 1 -15.395-1.286 8.121 8.121 0 0 1 .115-1.317l4.4-25.875 15.28 2.6zm8.93-28.664-2.217-.376h-.005-.006l-20.942-3.558.688-4.059 9.066 1.544c.012 0 .022.008.034.01s.032 0 .048 0l14.021 2.39zm-11.032-9.595 7.314-40.331a20.306 20.306 0 0 0 2.019 2.932l-6.864 37.819zm24.762-33.647a16.585 16.585 0 1 1 16.58-16.59 16.6 16.6 0 0 1 -16.58 16.59zm15.429-3.752a20.306 20.306 0 0 0 2.019-2.932l7.314 40.331-2.469.42zm-2.386 42.945 14.021-2.387h.048s.022-.007.034-.01l9.066-1.543.688 4.059-20.938 3.552h-.005l-2.217.376zm18.564 39.051a7.763 7.763 0 0 1 -8.942-6.337l-4.4-25.884 15.28-2.6 4.4 25.869a8.142 8.142 0 0 1 .116 1.323 7.724 7.724 0 0 1 -6.454 7.629z"/><path d="m96.155 91.57a1.75 1.75 0 1 0 -3.45.586l2.187 12.865a1.75 1.75 0 1 0 3.45-.585z"/><path d="m64 10.737a14.085 14.085 0 1 0 14.08 14.08 14.1 14.1 0 0 0 -14.08-14.08zm0 24.67a10.585 10.585 0 1 1 10.58-10.59 10.6 10.6 0 0 1 -10.58 10.59z"/></svg>