<?xml version="1.0"?>
<svg xmlns="http://www.w3.org/2000/svg" id="Layer_1" data-name="Layer 1" viewBox="0 0 128 128" width="512" height="512"><path d="M122.37,48.113a1.736,1.736,0,0,0-.108-.5A43.3,43.3,0,0,0,109.55,25.2,42.8,42.8,0,0,0,77.083,13.7a41.06,41.06,0,0,0-6.263.92,16.549,16.549,0,0,0-2.415-.7c-10.353-2.2-30.789,6.621-60.741,26.208a6.405,6.405,0,0,0,5.2,11.532c.306-.084.606-.163.9-.239l.263-.069c17.753-4.8,33.048-4.549,45.456.742a13.458,13.458,0,0,0,1.927.637l2.255,13.171a10.207,10.207,0,0,1-5.4,10.847L45.331,83.42,22.1,80.77a1.75,1.75,0,0,0-1.911,1.378l-1.87,8.869A13.781,13.781,0,0,0,22.5,104.01l3.991,3.651a25.473,25.473,0,0,0,6.344,4.224,1.725,1.725,0,0,0,.578.252,26.155,26.155,0,0,0,10.55,2.252,25.5,25.5,0,0,0,9.357-1.766c4.685-1.709,45.908-16.8,50.752-20.029.026-.016.051-.035.076-.054a43.114,43.114,0,0,0,19.1-35.811A42.9,42.9,0,0,0,122.37,48.113ZM37.638,44.434a94.314,94.314,0,0,0-24.511,3.54l-.246.064c-.309.081-.623.163-.94.25A2.8,2.8,0,0,1,8.53,46.67a2.756,2.756,0,0,1,1.05-3.609C37.9,24.538,58.543,15.405,67.676,17.348c2.3.491,3.714,1.253,4.2,2.262.824,1.7-.695,4.794-2.036,7.526-1.776,3.616-3.611,7.356-1.7,10.344a39,39,0,0,0,7.032,7.66l-5,3.049a10.237,10.237,0,0,1-9.324.689A58.7,58.7,0,0,0,37.638,44.434ZM24.859,101.425a10.27,10.27,0,0,1-3.117-9.685l1.542-7.312,22.178,2.53a1.747,1.747,0,0,0,1-.184l13.411-6.91a13.692,13.692,0,0,0,7.242-14.551L65.038,53.182A13.759,13.759,0,0,0,72,51.177l7.059-4.306a1.751,1.751,0,0,0,.207-2.841A41.508,41.508,0,0,1,71.1,35.592c-.852-1.328.6-4.3,1.889-6.914,1.777-3.619,3.614-7.361,2.043-10.6a5.734,5.734,0,0,0-.352-.607c.88-.123,1.762-.221,2.644-.28a39.288,39.288,0,0,1,29.841,10.559,39.787,39.787,0,0,1,11.7,20.66c-1.906,24.007-23.784,33.732-24.722,34.137l-2.949,1.286c-9.279,4.048-37.275,16.262-57.3,24.684a22.03,22.03,0,0,1-5.034-3.444ZM114.925,75.68a39.9,39.9,0,0,1-12.787,13.994c-.022.014-.043.03-.065.046-4.065,2.619-37.392,15.031-49.994,19.631a22.361,22.361,0,0,1-13.335.919c19.678-8.32,45.088-19.406,53.841-23.225l2.941-1.282c.836-.361,17.14-7.614,23.981-24.79A39.434,39.434,0,0,1,114.925,75.68Z"/><path d="M88.943,24.269a33.666,33.666,0,0,1,15.25,9A1.75,1.75,0,1,0,106.7,30.82a37.173,37.173,0,0,0-16.838-9.928,1.75,1.75,0,0,0-.918,3.377Z"/><path d="M46.3,25.067a206.064,206.064,0,0,0-18.479,9.645,1.75,1.75,0,1,0,1.756,3.028,202.541,202.541,0,0,1,18.158-9.481A1.75,1.75,0,1,0,46.3,25.067Z"/><path d="M80.606,61.387a5.6,5.6,0,1,0-5.595-5.595A5.6,5.6,0,0,0,80.606,61.387Zm0-7.691a2.1,2.1,0,1,1-2.095,2.1A2.1,2.1,0,0,1,80.606,53.7Z"/></svg>
