<svg id="Layer_1" height="512" viewBox="0 0 128 128" width="512" xmlns="http://www.w3.org/2000/svg" data-name="Layer 1"><path d="m118.337 101.463a16.629 16.629 0 0 0 -11.837-4.9h-20.42a8.28 8.28 0 0 1 -7.212-4.232l-6.3-11.3 25.2-53.8.01-.014c.008-.015.011-.031.019-.047l7.3-15.573a4.732 4.732 0 0 0 .46-2.043 4.8 4.8 0 0 0 -9.057-2.226l-32.5 58.319-32.469-58.258a4.8 4.8 0 0 0 -9.091 2.161 4.7 4.7 0 0 0 .455 2.032l7.31 15.607c0 .008.006.016.01.024v.007l25.211 53.813-6.293 11.291a8.279 8.279 0 0 1 -7.213 4.236h-20.42a16.757 16.757 0 0 0 -16.75 16.75 9.951 9.951 0 0 0 9.94 9.94h30.42a12.128 12.128 0 0 0 10.934-6.95l7.956-16.978 7.956 16.978a12.128 12.128 0 0 0 10.934 6.95h30.42a9.951 9.951 0 0 0 9.94-9.94 16.644 16.644 0 0 0 -4.913-11.847zm-15.557-1.4v19.69h-8.5v-19.693zm-12.339-74.672 3.486 1.8-2.1 4.475-3.8-1.955zm9.151-16.42a1.3 1.3 0 0 1 2.468.579 1.25 1.25 0 0 1 -.125.548l-6.522 13.921-3.267-1.687zm-65.521 18.22 3.488-1.8 2.407 4.319-3.8 1.956zm-8.131-17.641a1.307 1.307 0 0 1 .768-1.185 1.327 1.327 0 0 1 1.733.666l7.413 13.3-3.268 1.689-6.526-13.933a1.233 1.233 0 0 1 -.12-.537zm11.713 25.287 4.018-2.068 20.329 36.473-4.471 8.022zm-3.933 65.223v19.69h-8.5v-19.69zm-25.47 13.25a13.256 13.256 0 0 1 13.25-13.25h.22v19.69h-7.03a6.447 6.447 0 0 1 -6.44-6.44zm44.626 1.5a8.614 8.614 0 0 1 -7.766 4.935h-7.89v-19.685h4.7a11.786 11.786 0 0 0 10.269-6.029l34.141-61.262 4.015 2.067zm22.249 0-9.193-19.61 4.81-10.268 5.071 9.1a11.787 11.787 0 0 0 10.267 6.028h4.7v19.69h-7.89a8.614 8.614 0 0 1 -7.765-4.933zm38.185 4.933h-7.03v-19.683h.22a13.257 13.257 0 0 1 13.25 13.25 6.448 6.448 0 0 1 -6.44 6.44z"/><path d="m58.881 91.979a1.75 1.75 0 0 0 -2.327.843l-7.324 15.633a1.75 1.75 0 0 0 .842 2.327 1.75 1.75 0 0 0 2.327-.843l7.324-15.632a1.751 1.751 0 0 0 -.842-2.328z"/></svg>