<svg id="Layer_1" height="512" viewBox="0 0 128 128" width="512" xmlns="http://www.w3.org/2000/svg" data-name="Layer 1"><path d="m121.5 22.1h-115a1.751 1.751 0 0 0 -1.75 1.75v24a1.75 1.75 0 0 0 1.75 1.75h4.1v54.56a1.751 1.751 0 0 0 1.75 1.75h9a1.751 1.751 0 0 0 1.75-1.75v-7.26h81.8v7.252a1.751 1.751 0 0 0 1.75 1.75h9a1.75 1.75 0 0 0 1.75-1.75v-54.552h4.1a1.749 1.749 0 0 0 1.75-1.75v-24a1.75 1.75 0 0 0 -1.75-1.75zm-107.4 71.3v-2.5h7.231.019.019 85.262.019.02 7.23v2.5zm99.8-6h-5.5v-49.8h5.5zm-9 0h-81.8v-37.8h81.8zm-85.3 0h-5.5v-49.8h5.5zm0 15h-5.5v-5.5h5.5zm88.8 0v-5.5h5.5v5.5zm11.35-56.3h-2.35v-10.255a1.75 1.75 0 0 0 -1.75-1.75h-9a1.751 1.751 0 0 0 -1.75 1.75v10.255h-81.8v-10.255a1.751 1.751 0 0 0 -1.75-1.75h-9a1.751 1.751 0 0 0 -1.75 1.75v10.255h-2.35v-20.5h111.5z"/><path d="m71.5 31.6h23a1.75 1.75 0 0 0 0-3.5h-23a1.75 1.75 0 0 0 0 3.5z"/></svg>