<?xml version="1.0"?>
<svg xmlns="http://www.w3.org/2000/svg" id="Layer_1" data-name="Layer 1" viewBox="0 0 128 128" width="512" height="512"><path d="M105.31,62.87H79.14a31.8,31.8,0,0,1-3.286-.176l.134-.2a1.75,1.75,0,1,0-2.9-1.961l-1.023,1.512a31.348,31.348,0,0,1-6.233-2.095l.367-.334a1.75,1.75,0,0,0-2.354-2.59l-1.282,1.166A31.515,31.515,0,0,1,59.291,55.9l.175-.1a1.75,1.75,0,0,0-1.75-3.031l-1.165.672c-.414-.42-.828-.858-1.249-1.336a5.7,5.7,0,0,1-1.276-2.524l1.168-.052a1.75,1.75,0,1,0-.153-3.5l-1.171.052V42.247h1.25a1.75,1.75,0,0,0,0-3.5H53.87V34.833h1.25a1.75,1.75,0,1,0,0-3.5H53.87V27.42h1.706a1.75,1.75,0,0,0,1.75-1.75V6.5a1.75,1.75,0,0,0-1.75-1.75H11.833a1.75,1.75,0,0,0-1.75,1.75V25.67a1.75,1.75,0,0,0,1.75,1.75H13.54V57.759c-2.222,4.589-2.41,9.508-2.41,14.561v29.26a1.75,1.75,0,0,0,1.75,1.75H27.95v3.17a4.255,4.255,0,0,1-4.25,4.25H15.5A10.762,10.762,0,0,0,4.75,121.5a1.75,1.75,0,0,0,1.75,1.75H116.33a6.923,6.923,0,0,0,6.92-6.91,6.426,6.426,0,0,0-.094-1.132L121.2,103.33h.3a1.749,1.749,0,0,0,1.75-1.75V80.81A17.961,17.961,0,0,0,105.31,62.87ZM50.37,31.333H49.12a1.75,1.75,0,0,0,0,3.5h1.25v3.914H49.12a1.75,1.75,0,1,0,0,3.5h1.25v3.989l-1.324.058a1.75,1.75,0,0,0,.076,3.5l.078,0,1.286-.057a9.2,9.2,0,0,0,2.19,4.682c.255.29.506.553.758.823l-.914.528A1.75,1.75,0,0,0,54.27,58.8l1.795-1.037a34.866,34.866,0,0,0,3.809,2.879l-.467.424a1.75,1.75,0,0,0,2.355,2.59l1.3-1.186a35,35,0,0,0,6.9,2.683l-.24.355a1.75,1.75,0,0,0,2.9,1.961l1.038-1.534a35.031,35.031,0,0,0,5.476.438h5.627l-2.015,2.5a7.392,7.392,0,0,1-6.644,2.717c-7.185-.86-20.417-3.673-28.29-12.843A16.048,16.048,0,0,1,43.87,48.33V27.42h6.5ZM13.583,8.25H53.826V23.92H13.583ZM40.37,27.42V48.33a19.551,19.551,0,0,0,4.793,12.69C53.808,71.089,68,74.138,75.689,75.058a11.063,11.063,0,0,0,1.319.08,10.878,10.878,0,0,0,8.464-4.069l3.794-4.7H105.31a14.457,14.457,0,0,1,14.44,14.44V93.83H37.68A25.942,25.942,0,0,0,14.63,75.654V72.32c0-4.752.169-9.348,2.218-13.353a1.754,1.754,0,0,0,.192-.8V27.42ZM14.63,79.154A22.462,22.462,0,0,1,34,93.83H14.63Zm0,18.176H119.75v2.5H14.63Zm97.353,8.484a4.25,4.25,0,0,1-4.193,4.936H99.33a4.254,4.254,0,0,1-4.25-4.25v-3.17h16.494ZM37.45,103.33H85.58v3.17a4.254,4.254,0,0,1-4.25,4.25H41.7a4.255,4.255,0,0,1-4.25-4.25Zm82.256,12.462a3.12,3.12,0,0,1,.044.548,3.419,3.419,0,0,1-3.42,3.41H8.463a7.264,7.264,0,0,1,7.037-5.5h8.2a7.759,7.759,0,0,0,7.75-7.75v-3.17h2.5v3.17a7.759,7.759,0,0,0,7.75,7.75H81.33a7.759,7.759,0,0,0,7.75-7.75v-3.17h2.5v3.17a7.759,7.759,0,0,0,7.75,7.75h8.46a7.75,7.75,0,0,0,7.647-9l-.316-1.916h2.533Z"/><path d="M105.31,72.37a8.45,8.45,0,0,1,8.44,8.441v4.814a1.75,1.75,0,0,0,3.5,0V80.811A11.954,11.954,0,0,0,105.31,68.87a1.75,1.75,0,0,0,0,3.5Z"/></svg>
