<?xml version="1.0"?>
<svg xmlns="http://www.w3.org/2000/svg" id="Layer_1" data-name="Layer 1" viewBox="0 0 128 128" width="512" height="512"><path d="M103.56,84.182V82.42a4.751,4.751,0,0,0-3-4.407V41.308a36.558,36.558,0,0,0-73.116,0V78.013a4.749,4.749,0,0,0-3,4.407v1.762a1.746,1.746,0,0,0-1.5,1.725V121.5a1.751,1.751,0,0,0,1.75,1.75h9a1.75,1.75,0,0,0,1.75-1.75V85.907a1.744,1.744,0,0,0-1.5-1.725V82.42a4.671,4.671,0,0,0-1.393-3.357,4.728,4.728,0,0,0-1.6-1.053V64.159a36.544,36.544,0,0,0,66.116,0v13.85a4.744,4.744,0,0,0-3,4.411v1.762a1.743,1.743,0,0,0-1.5,1.725V121.5a1.75,1.75,0,0,0,1.75,1.75h9a1.751,1.751,0,0,0,1.75-1.75V85.907A1.746,1.746,0,0,0,103.56,84.182Zm-73.12-.025h-2.5V82.42a1.249,1.249,0,0,1,2.144-.872,1.212,1.212,0,0,1,.356.872Zm1.5,35.593h-5.5V87.657h5.5ZM64,8.25A33.1,33.1,0,0,1,94.338,28.193a36.529,36.529,0,0,0-60.677,0A33.1,33.1,0,0,1,64,8.25Zm0,73.376A33.058,33.058,0,1,1,97.058,48.568,33.1,33.1,0,0,1,64,81.626Zm33.56,2.531V82.42a1.214,1.214,0,0,1,.368-.883,1.248,1.248,0,0,1,2.132.883v1.737Zm4,35.593h-5.5V87.657h5.5Z"/></svg>
