<?xml version="1.0"?>
<svg xmlns="http://www.w3.org/2000/svg" id="Layer_1" data-name="Layer 1" viewBox="0 0 128 128" width="512" height="512"><path d="M123.214,6.852a1.75,1.75,0,0,0-2.067-2.066c-.426.087-42.475,9.012-74.106,39.781l-6.8-6.8a7.746,7.746,0,0,0-.032-10.925L29.678,16.31a7.76,7.76,0,0,0-10.96,0l-2.407,2.408a7.747,7.747,0,0,0,0,10.96L26.845,40.212a7.745,7.745,0,0,0,10.924.032l6.8,6.8C13.8,78.671,4.874,120.721,4.786,121.148a1.751,1.751,0,0,0,1.714,2.1,1.77,1.77,0,0,0,.353-.036c.426-.087,42.475-9.013,74.106-39.781l6.8,6.8a7.746,7.746,0,0,0,.032,10.925L98.322,111.69a7.759,7.759,0,0,0,10.96,0l2.407-2.408a7.747,7.747,0,0,0,0-10.96L101.155,87.788a7.746,7.746,0,0,0-10.925-.032l-6.8-6.8C114.2,49.329,123.126,7.279,123.214,6.852ZM105.787,43.369A31.765,31.765,0,0,0,98.2,29.8a31.648,31.648,0,0,0-13.571-7.58,172.279,172.279,0,0,1,34.5-13.351A171.883,171.883,0,0,1,105.787,43.369ZM80.027,24.681c4.789.963,11.166,3.052,15.7,7.589s6.626,10.915,7.6,15.7a143.975,143.975,0,0,1-22.376,30.51l-7.394-7.394L80.7,63.938A11.767,11.767,0,0,0,64.062,47.3l-7.145,7.146-7.394-7.394A143.931,143.931,0,0,1,80.027,24.681ZM59.391,56.917l7.146-7.146A8.267,8.267,0,1,1,78.229,61.463l-7.146,7.146Zm9.218,14.166L64.7,74.991A8.267,8.267,0,0,1,53.009,63.3l3.908-3.908Zm-36.285-32.1a4.222,4.222,0,0,1-3-1.245L18.785,27.2a4.249,4.249,0,0,1,0-6.01l2.407-2.408a4.255,4.255,0,0,1,6.011,0L37.737,29.319a4.242,4.242,0,0,1,.03,5.974l-5.886-5.887a1.75,1.75,0,0,0-2.475,2.475l5.887,5.886A4.217,4.217,0,0,1,32.324,38.982ZM22.214,84.628A31.839,31.839,0,0,0,29.8,98.2a31.786,31.786,0,0,0,13.562,7.585A172.208,172.208,0,0,1,8.868,119.131,171.87,171.87,0,0,1,22.214,84.628Zm25.745,18.7c-4.781-.973-11.163-3.071-15.689-7.6s-6.629-10.921-7.591-15.711a143.968,143.968,0,0,1,22.369-30.5l7.394,7.394-3.908,3.907A11.768,11.768,0,1,0,67.176,77.466l3.907-3.908,7.394,7.394A143.98,143.98,0,0,1,47.959,103.327ZM95.676,89.018a4.222,4.222,0,0,1,3,1.245L109.215,100.8a4.249,4.249,0,0,1,0,6.01l-2.407,2.408a4.255,4.255,0,0,1-6.011,0L90.263,98.681a4.242,4.242,0,0,1-.03-5.974l5.886,5.887a1.75,1.75,0,0,0,2.475-2.475l-5.887-5.886A4.217,4.217,0,0,1,95.676,89.018Z"/><path d="M81.82,71.329a1.749,1.749,0,0,0,2.468-.185A142.439,142.439,0,0,0,98.116,51.978a1.75,1.75,0,0,0-2.994-1.812,139.168,139.168,0,0,1-13.486,18.7A1.75,1.75,0,0,0,81.82,71.329Z"/></svg>
