<svg id="Layer_1" height="512" viewBox="0 0 128 128" width="512" xmlns="http://www.w3.org/2000/svg" data-name="Layer 1"><path d="m70.715 64.008 9.353-9.345.7.7a1.749 1.749 0 0 0 2.474 0l1.012-1.012a19.269 19.269 0 0 1 13.207-5.771 23.677 23.677 0 0 0 12.048-3.78c.021-.013.041-.026.062-.041a26.558 26.558 0 0 0 4.517-3.623c3.2-3.2 6.068-6.559 7.714-10.152a1.773 1.773 0 0 0 .151-.34c2.471-5.687 1.839-11.973-5.39-19.2s-13.522-7.864-19.21-5.389a1.731 1.731 0 0 0 -.318.141c-3.6 1.645-6.959 4.514-10.167 7.722a26.581 26.581 0 0 0 -3.624 4.518l-.039.06a23.675 23.675 0 0 0 -3.783 12.046 19.268 19.268 0 0 1 -5.77 13.208l-1.012 1.01a1.749 1.749 0 0 0 0 2.475l.713.713-9.353 9.344-9.348-9.348.708-.709a1.749 1.749 0 0 0 0-2.475l-1.011-1.011a19.269 19.269 0 0 1 -5.771-13.208 23.683 23.683 0 0 0 -3.778-12.041c-.013-.02-.026-.04-.04-.06a26.581 26.581 0 0 0 -3.624-4.518c-3.21-3.211-6.568-6.078-10.165-7.722a1.7 1.7 0 0 0 -.327-.146c-5.687-2.474-11.974-1.843-19.206 5.389s-7.863 13.518-5.389 19.206a1.707 1.707 0 0 0 .145.328c1.646 3.6 4.512 6.954 7.718 10.16a26.558 26.558 0 0 0 4.517 3.623c.021.015.041.028.062.041a23.679 23.679 0 0 0 12.045 3.782 19.267 19.267 0 0 1 13.207 5.771l1.012 1.012a1.75 1.75 0 0 0 2.475 0l.707-.707 9.348 9.348-52.022 52.022a1.749 1.749 0 0 0 0 2.475l4.24 4.24a1.752 1.752 0 0 0 2.475 0l52.022-52.023 52.023 52.023a1.75 1.75 0 0 0 2.474 0l4.24-4.24a1.749 1.749 0 0 0 0-2.475zm11.3-12.353-.684-.684c-.006-.007-.011-.015-.017-.021s-.015-.011-.022-.018l-.869-.869 3.757-3.758 2.081 2.082a23.681 23.681 0 0 0 -4.251 3.268zm.782-19.189 5.132 5.134-3.754 3.754-2.894-2.893a22.231 22.231 0 0 0 1.511-5.995zm2.3-10.164 9.07 9.071-3.767 3.755-7.194-7.194a20.321 20.321 0 0 1 1.881-5.634zm4.256-5.91c.393-.393.78-.77 1.166-1.139l9.884 9.885-3.771 3.762-9.679-9.68a23.242 23.242 0 0 1 2.39-2.828zm8.208-6.554 9.071 9.071-3.754 3.754-9.754-9.754a26.133 26.133 0 0 1 4.427-3.071zm17.539 25.054-9.754-9.754 3.753-3.754 9.071 9.07a26.187 26.187 0 0 1 -3.07 4.438zm-15.025 9.9-7.197-7.192 3.754-3.754 9.071 9.071a20.323 20.323 0 0 1 -5.631 1.883zm-9.675-4.715 5.137 5.137a22.183 22.183 0 0 0 -6 1.51l-2.894-2.893zm18.383.976-9.679-9.68 3.761-3.761 9.884 9.885c-.369.385-.746.773-1.139 1.166a23.18 23.18 0 0 1 -2.824 2.39zm10.725-14.2-7.94-7.94 3.719-3.719c3.813 4.237 4.987 7.978 4.224 11.655zm-6.7-14.134-3.708 3.715-7.939-7.939c3.672-.764 7.414.405 11.654 4.22zm-33.2 29.034 2.092 2.078-3.757 3.757-.857-.857c-.007-.007-.011-.015-.018-.021a.173.173 0 0 0 -.021-.017l-.7-.7a23.717 23.717 0 0 0 3.271-4.244zm-3.79 8.674.876.876.886.887-9.34 9.342-1.765-1.764zm-25.761-2.839-3.757-3.757 2.082-2.082a23.677 23.677 0 0 0 3.268 4.251zm-17.6-2.374 5.143-5.137 3.754 3.754-2.893 2.893a22.19 22.19 0 0 0 -6.001-1.51zm-10.157-2.295 9.071-9.071 3.751 3.752-7.194 7.2a20.323 20.323 0 0 1 -5.628-1.881zm-12.467-12.464 9.067-9.071 3.754 3.754-9.754 9.754a26.182 26.182 0 0 1 -3.067-4.437zm11.545-11.546 9.071-9.071a26.187 26.187 0 0 1 4.438 3.07l-9.755 9.755zm16.113-3.656c.386.369.774.746 1.166 1.139a23.242 23.242 0 0 1 2.39 2.827l-9.679 9.681-3.761-3.761zm5.423 7.047a20.351 20.351 0 0 1 1.877 5.632l-7.191 7.196-3.754-3.755zm-2.842 15.3 5.136-5.136a22.231 22.231 0 0 0 1.511 6l-2.893 2.893zm-13.228-29.106-7.94 7.94-3.719-3.719c4.24-3.815 7.982-4.984 11.659-4.221zm-14.134 6.696 3.719 3.719-7.94 7.94c-.763-3.676.411-7.418 4.221-11.659zm2.538 22.31 9.884-9.885 3.762 3.761-9.68 9.68a23.256 23.256 0 0 1 -2.827-2.39c-.393-.396-.77-.784-1.139-1.166zm30.742 14.155a23.681 23.681 0 0 0 -4.246-3.268l2.082-2.082 3.757 3.758zm-35.25 67.377-1.765-1.765 50.785-50.786 1.766 1.765zm106.52 0-66.848-66.849.882-.882.881-.881 10.586 10.58 56.264 56.263z"/></svg>