<svg id="Layer_1" height="512" viewBox="0 0 128 128" width="512" xmlns="http://www.w3.org/2000/svg" data-name="Layer 1"><path d="m121.5 4.75h-115a1.749 1.749 0 0 0 -1.75 1.75v115a1.749 1.749 0 0 0 1.75 1.75h6a1.749 1.749 0 0 0 1.75-1.75v-6.5h99.5v6.5a1.749 1.749 0 0 0 1.75 1.75h6a1.749 1.749 0 0 0 1.75-1.75v-115a1.749 1.749 0 0 0 -1.75-1.75zm-1.75 3.5v49.88h-34.83v-49.88zm-38.335 0v49.88h-34.83v-49.88zm-38.335 0v49.88h-34.83v-49.88zm-32.33 111.5h-2.5v-4.75h2.5zm-2.5-8.25v-49.87h34.83v49.87zm38.335 0v-49.87h34.83v49.87zm38.335-49.87h34.83v49.87h-34.83zm32.33 58.12v-4.75h2.5v4.75z"/><path d="m90.335 69h24a1.75 1.75 0 0 0 0-3.5h-24a1.75 1.75 0 0 0 0 3.5z"/><path d="m90.335 75h24a1.75 1.75 0 0 0 0-3.5h-24a1.75 1.75 0 0 0 0 3.5z"/><path d="m116.085 105.878a1.749 1.749 0 0 0 -1.75-1.75h-24a1.75 1.75 0 0 0 0 3.5h24a1.749 1.749 0 0 0 1.75-1.75z"/><path d="m90.335 96.625a1.749 1.749 0 0 0 1.75-1.75v-6a1.75 1.75 0 0 0 -3.5 0v6a1.749 1.749 0 0 0 1.75 1.75z"/><path d="m76 65.5h-24a1.75 1.75 0 0 0 0 3.5h24a1.75 1.75 0 0 0 0-3.5z"/><path d="m76 71.5h-24a1.75 1.75 0 0 0 0 3.5h24a1.75 1.75 0 0 0 0-3.5z"/><path d="m76 104.128h-24a1.75 1.75 0 1 0 0 3.5h24a1.75 1.75 0 0 0 0-3.5z"/><path d="m52 96.625a1.749 1.749 0 0 0 1.75-1.75v-6a1.75 1.75 0 0 0 -3.5 0v6a1.749 1.749 0 0 0 1.75 1.75z"/><path d="m37.665 65.5h-24a1.75 1.75 0 0 0 0 3.5h24a1.75 1.75 0 1 0 0-3.5z"/><path d="m37.665 71.5h-24a1.75 1.75 0 0 0 0 3.5h24a1.75 1.75 0 1 0 0-3.5z"/><path d="m37.665 104.128h-24a1.75 1.75 0 0 0 0 3.5h24a1.75 1.75 0 1 0 0-3.5z"/><path d="m13.665 96.625a1.749 1.749 0 0 0 1.75-1.75v-6a1.75 1.75 0 0 0 -3.5 0v6a1.749 1.749 0 0 0 1.75 1.75z"/><path d="m90.335 15.622h24a1.75 1.75 0 0 0 0-3.5h-24a1.75 1.75 0 0 0 0 3.5z"/><path d="m90.335 21.622h24a1.75 1.75 0 0 0 0-3.5h-24a1.75 1.75 0 0 0 0 3.5z"/><path d="m90.335 54.247h24a1.75 1.75 0 0 0 0-3.5h-24a1.75 1.75 0 0 0 0 3.5z"/><path d="m90.335 43.245a1.749 1.749 0 0 0 1.75-1.75v-6a1.75 1.75 0 1 0 -3.5 0v6a1.749 1.749 0 0 0 1.75 1.75z"/><path d="m52 15.622h24a1.75 1.75 0 0 0 0-3.5h-24a1.75 1.75 0 0 0 0 3.5z"/><path d="m52 21.622h24a1.75 1.75 0 0 0 0-3.5h-24a1.75 1.75 0 0 0 0 3.5z"/><path d="m52 54.247h24a1.75 1.75 0 0 0 0-3.5h-24a1.75 1.75 0 0 0 0 3.5z"/><path d="m52 43.245a1.749 1.749 0 0 0 1.75-1.75v-6a1.75 1.75 0 0 0 -3.5 0v6a1.749 1.749 0 0 0 1.75 1.75z"/><path d="m13.665 15.622h24a1.75 1.75 0 0 0 0-3.5h-24a1.75 1.75 0 0 0 0 3.5z"/><path d="m13.665 21.622h24a1.75 1.75 0 0 0 0-3.5h-24a1.75 1.75 0 0 0 0 3.5z"/><path d="m13.665 54.247h24a1.75 1.75 0 1 0 0-3.5h-24a1.75 1.75 0 0 0 0 3.5z"/><path d="m13.665 43.245a1.749 1.749 0 0 0 1.75-1.75v-6a1.75 1.75 0 0 0 -3.5 0v6a1.749 1.749 0 0 0 1.75 1.75z"/></svg>