<svg id="Layer_1" height="512" viewBox="0 0 128 128" width="512" xmlns="http://www.w3.org/2000/svg" data-name="Layer 1"><path d="m102.624 61.783a20.6 20.6 0 0 0 -6.176.945l-6.02-14.883a25 25 0 0 1 17.915.78 1.75 1.75 0 0 0 1.4-3.209 28.5 28.5 0 0 0 -20.629-.816l-.159-.392-7.361-18.208a1.751 1.751 0 0 0 -1.622-1.094h-8.95a1.75 1.75 0 0 0 0 3.5h7.77l1.474 3.645-9.318 5.449-.028.013-.026.019-9.784 5.715-.271.161a5.358 5.358 0 0 1 -2.864 1.064h-.015c-.01 0-.019 0-.029 0-3.591 0-19.269.056-20.356.06-.022 0-.044 0-.066 0l-9.427-.049-18.032-1.735a1.75 1.75 0 0 0 -.336 3.484l17.421 1.677 4.112 4.375a28.7 28.7 0 0 0 -5.335-.5 28.326 28.326 0 0 0 -20.712 8.88 1.75 1.75 0 1 0 2.535 2.412 25.054 25.054 0 0 1 28.365-5.625l10.826 11.519-3.8 2.074a20.736 20.736 0 1 0 1.678 3.071l4.595-2.51 1.926 2.05a7.7 7.7 0 0 0 5.5 2.3h10.05a7.755 7.755 0 0 0 6.534-3.576l14.2-22.17 5.608 13.864a20.617 20.617 0 1 0 9.407-2.29zm-59.551 20.654a17.184 17.184 0 1 1 -3.026-9.709l-3.456 1.889a13.29 13.29 0 1 0 1.682 3.069l3.461-1.886a17.07 17.07 0 0 1 1.339 6.637zm-18.687.842a1.751 1.751 0 0 0 2.375.7l8.41-4.595a9.766 9.766 0 1 1 -1.679-3.072l-8.409 4.588a1.751 1.751 0 0 0 -.697 2.379zm31.824-35.3v2.181h-12.663l-2.012-2.141c4.334-.014 11.08-.037 14.675-.044zm-17.776 6.843-.013-.014-6.393-6.808 4.714.025.412.438 4.361 4.64a1.75 1.75 0 0 0 1.275.552h15.17a1.75 1.75 0 0 0 1.75-1.75v-4.154a10.765 10.765 0 0 0 2.923-1.337l8.542-4.993 2.655 4.552-11.1 11.727a1.76 1.76 0 0 0 -.314.463l-6.6 14.153a4.154 4.154 0 0 1 -1.964-1.091zm32.039 15.662a4.266 4.266 0 0 1 -3.591 1.969h-7.272l5.858-12.553 11.8-12.474a1.75 1.75 0 0 0 .241-2.085l-3.309-5.686 7.392-4.321 4.408 10.897zm32.151 29.107a17.15 17.15 0 0 1 -8.094-32.271l1.478 3.654a13.469 13.469 0 1 0 3.236-1.333l-1.475-3.647a17.15 17.15 0 1 1 4.855 33.6zm1.62-17.591-3.678-9.093a9.781 9.781 0 1 1 -3.23 1.347l3.664 9.061a1.75 1.75 0 1 0 3.244-1.315z"/></svg>