<svg id="Layer_1" height="512" viewBox="0 0 128 128" width="512" xmlns="http://www.w3.org/2000/svg" data-name="Layer 1"><path d="m110.728 17.272c-8.842-8.846-21.053-13.262-34.356-12.423a55.982 55.982 0 0 0 -35.9 16.673 56.766 56.766 0 0 0 -16.347 32.534 1.309 1.309 0 0 0 0 .14 46.251 46.251 0 0 0 5.6 29.173l-22.433 20.681a7.892 7.892 0 0 0 -.23 11.382l5.506 5.506a7.821 7.821 0 0 0 5.575 2.312h.165a7.82 7.82 0 0 0 5.643-2.54l20.68-22.424a46.22 46.22 0 0 0 29.081 5.6h.006a1.739 1.739 0 0 0 .226-.015 56.76 56.76 0 0 0 32.534-16.348 55.982 55.982 0 0 0 16.673-35.9c.836-13.307-3.576-25.509-12.423-34.351zm-65.475 77.293a1.751 1.751 0 0 0 -2.223.292l-21.652 23.478a4.393 4.393 0 0 1 -6.335.129l-5.506-5.507a4.392 4.392 0 0 1 .128-6.335l23.478-21.652a1.751 1.751 0 0 0 .292-2.223 41.9 41.9 0 0 1 -6.16-24.57l42.548 42.548a41.875 41.875 0 0 1 -24.57-6.16zm74.405-43.156a52.487 52.487 0 0 1 -15.658 33.644 53.361 53.361 0 0 1 -29.677 15.225l-46.6-46.6a53.368 53.368 0 0 1 15.224-29.678 52.489 52.489 0 0 1 33.644-15.658c12.3-.776 23.539 3.278 31.662 11.405s12.178 19.367 11.405 31.662z"/><path d="m96.306 83.958a1.75 1.75 0 1 0 2.232 2.7c1.281-1.061 2.526-2.194 3.7-3.369a52.343 52.343 0 0 0 12.079-18.676 1.75 1.75 0 1 0 -3.283-1.212 48.833 48.833 0 0 1 -11.27 17.409c-1.098 1.097-2.264 2.156-3.458 3.148z"/></svg>