<?xml version="1.0"?>
<svg xmlns="http://www.w3.org/2000/svg" id="Layer_1" data-name="Layer 1" viewBox="0 0 128 128" width="512" height="512"><path d="M76.75,74.5A1.75,1.75,0,0,0,75,76.251V94.5a1.75,1.75,0,0,0,3.5,0V76.251A1.75,1.75,0,0,0,76.75,74.5Z"/><path d="M103.808,4.75H24.192a1.75,1.75,0,0,0,0,3.5H61.3L50.341,32.683A7.758,7.758,0,0,0,43.5,40.375V115.5a7.759,7.759,0,0,0,7.75,7.75h25.5a7.759,7.759,0,0,0,7.75-7.75V40.375a7.758,7.758,0,0,0-6.841-7.692L66.7,8.25h37.106a1.75,1.75,0,0,0,0-3.5ZM47,53.13H81v49.62H47Zm7.2-20.505L62.25,14.679V32.625ZM47,40.38a4.255,4.255,0,0,1,4.25-4.25h25.5A4.255,4.255,0,0,1,81,40.38v9.25H47Zm18.75-7.755V14.679L73.8,32.625ZM81,115.5a4.255,4.255,0,0,1-4.25,4.25H51.25A4.255,4.255,0,0,1,47,115.5v-9.25H81Z"/></svg>
