<?xml version="1.0"?>
<svg xmlns="http://www.w3.org/2000/svg" id="Layer_1" data-name="Layer 1" viewBox="0 0 128 128" width="512" height="512"><path d="M109.969,62.747l-4.836-.664a13.415,13.415,0,0,0-6.91-.945L86.239,59.486a1.765,1.765,0,0,0-1.092.205L76.8,64.35H64a4.255,4.255,0,0,1-4.25-4.25V46.22A1.749,1.749,0,0,0,58,44.47H56.35a45.481,45.481,0,0,0-5.892.378l-.064.006A43.121,43.121,0,0,0,33.95,50.5l-9.473,5.678-4.711-7.319a1.745,1.745,0,0,0,1.151-1.638v-6a1.749,1.749,0,0,0-1.75-1.75H6.5a1.749,1.749,0,0,0-1.75,1.75v6A1.749,1.749,0,0,0,6.5,48.97H8.161l2.892,8.617-4.679.338A1.749,1.749,0,0,0,4.75,59.67V72.92c0,3.749,3.477,6.8,7.75,6.8h2.818a13.728,13.728,0,0,0,25.634,0h46.1a13.728,13.728,0,0,0,25.634,0H121.5a1.749,1.749,0,0,0,1.75-1.75A15.433,15.433,0,0,0,109.969,62.747ZM8.25,42.97h9.167v2.5H8.25Zm3.6,6h3.822l5.1,7.916-6.114.441ZM28.135,85.03a10.25,10.25,0,1,1,10.25-10.25A10.26,10.26,0,0,1,28.135,85.03Zm13.673-8.81a13.749,13.749,0,1,0-27.423-1.44,13.978,13.978,0,0,0,.076,1.44H12.5c-2.3,0-4.25-1.511-4.25-3.3V61.3l15.74-1.135.351-.03a1.764,1.764,0,0,0,.749-.242L35.749,53.5a39.6,39.6,0,0,1,15.043-5.169l.067-.007a42.02,42.02,0,0,1,5.391-.355V60.1A7.759,7.759,0,0,0,64,67.85H77.25a1.756,1.756,0,0,0,.853-.222l8.238-4.595,5.326.734A13.68,13.68,0,0,0,86.192,76.22Zm58.057,8.81a10.25,10.25,0,1,1,10.25-10.25A10.261,10.261,0,0,1,99.865,85.03Zm13.674-8.81a13.978,13.978,0,0,0,.076-1.44,13.665,13.665,0,0,0-2.813-8.3,11.939,11.939,0,0,1,8.817,9.74Z"/><path d="M50.916,50.841a37.049,37.049,0,0,0-13.881,4.807,1.75,1.75,0,1,0,1.8,3A33.564,33.564,0,0,1,51.4,54.308a1.75,1.75,0,0,0-.479-3.467Z"/><path d="M99.865,70.03a4.75,4.75,0,1,0,4.75,4.75A4.756,4.756,0,0,0,99.865,70.03Zm0,6a1.25,1.25,0,1,1,1.25-1.25A1.251,1.251,0,0,1,99.865,76.03Z"/><path d="M28.135,70.03a4.75,4.75,0,1,0,4.75,4.75A4.756,4.756,0,0,0,28.135,70.03Zm0,6a1.25,1.25,0,1,1,1.25-1.25A1.25,1.25,0,0,1,28.135,76.03Z"/></svg>
