<?xml version="1.0"?>
<svg xmlns="http://www.w3.org/2000/svg" id="Layer_1" data-name="Layer 1" viewBox="0 0 128 128" width="512" height="512"><path d="M62.633,40.488A99.528,99.528,0,0,0,47.454,11.079a14.931,14.931,0,0,0-24.407,0A99.556,99.556,0,0,0,7.867,40.486a71.976,71.976,0,0,0-2.644,12.3A63.141,63.141,0,0,0,4.75,60.46c0,7.151.185,13.256.564,18.664.325,4.564.772,8.541,1.369,12.159,3.528,21.511,12.872,31.967,28.567,31.967s25.039-10.456,28.566-31.965c.6-3.62,1.045-7.6,1.37-12.162.379-5.407.564-11.512.564-18.663a63.141,63.141,0,0,0-.473-7.674A71.981,71.981,0,0,0,62.633,40.488Zm-.939,38.388c-.316,4.455-.752,8.327-1.331,11.841C57.114,110.524,49.135,119.75,35.25,119.75s-21.864-9.226-25.113-29.035C9.558,87.2,9.122,83.331,8.806,78.877,8.432,73.553,8.25,67.528,8.25,60.46A59.517,59.517,0,0,1,8.7,53.214a68.422,68.422,0,0,1,2.516-11.7,96.058,96.058,0,0,1,14.661-28.37,11.431,11.431,0,0,1,18.753,0,96.029,96.029,0,0,1,14.66,28.37,68.448,68.448,0,0,1,2.516,11.7,59.517,59.517,0,0,1,.447,7.246C62.25,67.528,62.068,73.553,61.694,78.876Z"/><path d="M56.32,40.446A95.349,95.349,0,0,0,42.614,14.617a8.944,8.944,0,0,0-14.727,0A95.335,95.335,0,0,0,14.18,40.445a66.6,66.6,0,0,0-2.893,12.314,56.023,56.023,0,0,0-.537,7.7c0,7.135.2,13.242.605,18.67.334,4.5.819,8.6,1.441,12.17l.009.046,0,.012C15.889,109.021,23.02,117.25,35.25,117.25s19.361-8.229,22.443-25.892l0-.012L57.7,91.3c.622-3.572,1.107-7.667,1.441-12.169.407-5.429.6-11.536.6-18.671a56.03,56.03,0,0,0-.535-7.689A66.638,66.638,0,0,0,56.32,40.446ZM16.014,89.25c-.407-2.587-.746-5.431-1.01-8.5H55.5c-.264,3.069-.6,5.913-1.01,8.5Zm1.116-46.5H53.37a63.6,63.6,0,0,1,2.061,8.5H15.069A63.551,63.551,0,0,1,17.13,42.75Zm38.8,12a52.2,52.2,0,0,1,.32,5.71c0,6.346-.16,11.855-.483,16.79H14.733c-.323-4.935-.483-10.444-.483-16.79a52.286,52.286,0,0,1,.32-5.71ZM30.713,16.682a5.448,5.448,0,0,1,9.074,0A93.727,93.727,0,0,1,52.174,39.25H18.326A93.746,93.746,0,0,1,30.713,16.682ZM35.25,113.75c-10.054,0-15.684-6.325-18.613-21H53.863C50.934,107.425,45.3,113.75,35.25,113.75Z"/><path d="M42.889,33.018A1.75,1.75,0,0,0,46,31.422a96.947,96.947,0,0,0-5.95-10.015,1.75,1.75,0,1,0-2.9,1.961A93.343,93.343,0,0,1,42.889,33.018Z"/><path d="M92.1,49.993a3.432,3.432,0,0,1-1.681-2.944V14.25h.541a1.749,1.749,0,0,0,1.75-1.75v-6a1.749,1.749,0,0,0-1.75-1.75H80.375a1.75,1.75,0,0,0-1.75,1.75v6a1.75,1.75,0,0,0,1.75,1.75h.542v32.8a3.433,3.433,0,0,1-1.682,2.944,6.948,6.948,0,0,0-3.4,5.958V81.917a6.841,6.841,0,0,0,6.834,6.833h6A6.84,6.84,0,0,0,95.5,81.917V55.951A6.948,6.948,0,0,0,92.1,49.993ZM82.125,8.25h7.083v2.5H82.125ZM92,81.917a3.337,3.337,0,0,1-3.333,3.333h-1.25V64a1.75,1.75,0,0,0-3.5,0V85.25h-1.25a3.337,3.337,0,0,1-3.334-3.333V55.951a3.433,3.433,0,0,1,1.682-2.944,6.948,6.948,0,0,0,3.4-5.958V14.25h2.5v32.8a6.945,6.945,0,0,0,3.4,5.958A3.432,3.432,0,0,1,92,55.951Z"/><path d="M116.417,39.25h-6a6.841,6.841,0,0,0-6.834,6.833V72.049a6.948,6.948,0,0,0,3.4,5.958,3.433,3.433,0,0,1,1.682,2.944v32.8h-.542a1.75,1.75,0,0,0-1.75,1.75v6a1.75,1.75,0,0,0,1.75,1.75h10.583a1.749,1.749,0,0,0,1.75-1.75v-6a1.749,1.749,0,0,0-1.75-1.75h-.541v-32.8a3.432,3.432,0,0,1,1.681-2.944,6.948,6.948,0,0,0,3.4-5.958V46.083A6.84,6.84,0,0,0,116.417,39.25Zm.541,80.5h-7.083v-2.5h7.083Zm2.792-47.7a3.432,3.432,0,0,1-1.681,2.944,6.945,6.945,0,0,0-3.4,5.958v32.8h-2.5v-32.8a6.948,6.948,0,0,0-3.4-5.958,3.433,3.433,0,0,1-1.682-2.944V46.083a3.337,3.337,0,0,1,3.334-3.333h1.25V64a1.75,1.75,0,0,0,3.5,0V42.75h1.25a3.337,3.337,0,0,1,3.333,3.333Z"/></svg>
