<?xml version="1.0"?>
<svg xmlns="http://www.w3.org/2000/svg" id="Layer_1" data-name="Layer 1" viewBox="0 0 128 128" width="512" height="512"><path d="M121.5,4.75H6.5A1.751,1.751,0,0,0,4.75,6.5v12A1.751,1.751,0,0,0,6.5,20.25h24V62.425A1.745,1.745,0,0,0,29.5,64v8.4a25.3,25.3,0,0,0-7.545,3.043,25.75,25.75,0,1,0,26.59,0A25.3,25.3,0,0,0,41,72.4V64a1.745,1.745,0,0,0-1-1.575V20.25H88V62.425A1.745,1.745,0,0,0,87,64v8.4a25.3,25.3,0,0,0-7.545,3.043,25.75,25.75,0,1,0,26.59,0A25.3,25.3,0,0,0,98.5,72.4V64a1.745,1.745,0,0,0-1-1.575V20.25h24a1.751,1.751,0,0,0,1.75-1.75V6.5A1.751,1.751,0,0,0,121.5,4.75ZM57.5,97.5A22.25,22.25,0,1,1,22.246,79.45l2.692,4.878a16.75,16.75,0,1,0,20.624,0l2.692-4.878A22.078,22.078,0,0,1,57.5,97.5Zm-9,0A13.25,13.25,0,1,1,35.25,84.25,13.265,13.265,0,0,1,48.5,97.5ZM45.264,77.623,42.6,82.45l.024.033a16.555,16.555,0,0,0-14.744,0l.02-.031-2.664-4.827a21.787,21.787,0,0,1,6.3-2.057A1.749,1.749,0,0,0,33,73.84V65.75h4.5v8.09a1.749,1.749,0,0,0,1.465,1.726A21.787,21.787,0,0,1,45.264,77.623ZM36.5,62.25H34v-42h2.5ZM115,97.5A22.25,22.25,0,1,1,79.746,79.45l2.692,4.878a16.75,16.75,0,1,0,20.624,0l2.692-4.878A22.078,22.078,0,0,1,115,97.5Zm-9,0A13.25,13.25,0,1,1,92.75,84.25,13.265,13.265,0,0,1,106,97.5Zm-3.236-19.877L100.1,82.45l.018.031a16.549,16.549,0,0,0-14.741,0l.023-.033-2.664-4.827a21.787,21.787,0,0,1,6.3-2.057A1.749,1.749,0,0,0,90.5,73.84V65.75H95v8.09a1.749,1.749,0,0,0,1.465,1.726A21.787,21.787,0,0,1,102.764,77.623ZM94,62.25H91.5v-42H94Zm25.75-45.5H8.25V8.25h111.5Z"/><path d="M80.36,14.25h27.39a1.75,1.75,0,0,0,0-3.5H80.36a1.75,1.75,0,0,0,0,3.5Z"/></svg>
