<?xml version="1.0"?>
<svg xmlns="http://www.w3.org/2000/svg" id="Layer_1" data-name="Layer 1" viewBox="0 0 128 128" width="512" height="512"><path d="M96.536,102.906a6.594,6.594,0,1,0,6.595,6.595A6.6,6.6,0,0,0,96.536,102.906Zm0,9.688a3.094,3.094,0,1,1,3.095-3.093A3.1,3.1,0,0,1,96.536,112.594Z"/><path d="M95.29,49.746H72.25a18.111,18.111,0,0,1-9.56-2.733l.346-.2a1.75,1.75,0,0,0-1.75-3.032l-1.6.922a18.324,18.324,0,0,1-3.649-4.857l.844-.194a1.75,1.75,0,0,0-.785-3.411l-1.371.316A18.156,18.156,0,0,1,54,31.5v-.871h2a1.75,1.75,0,0,0,0-3.5H54V20.25h2a1.75,1.75,0,0,0,0-3.5H54V12.5a7.751,7.751,0,0,0-9.535-7.542L21.489,10.4A21.673,21.673,0,0,0,4.75,31.565V90.637a1.749,1.749,0,0,0,1.75,1.75H19.167l3.793,6.329A13.749,13.749,0,1,0,43.625,103.1L58.906,92.387H69.094L84.375,103.1a13.75,13.75,0,1,0,20.665-4.387l3.793-6.329H121.5a1.749,1.749,0,0,0,1.75-1.75V77.706A27.992,27.992,0,0,0,95.29,49.746ZM68.23,52.868l-.013,0a9.56,9.56,0,0,1-12.794,1.3c-.737-.548-1.435-1.137-2.109-1.749l5.994-3.461A21.658,21.658,0,0,0,68.23,52.868ZM56.544,46.519,50.8,49.837a28.528,28.528,0,0,1-4.687-7.705l6.418-1.478A21.819,21.819,0,0,0,56.544,46.519Zm-5.239-9.174L44.985,38.8A27.961,27.961,0,0,1,44,31.5v-.875h6.5V31.5A21.71,21.71,0,0,0,51.305,37.345Zm-.8-10.22H44V20.25h6.5ZM45.271,8.367A4.25,4.25,0,0,1,50.5,12.5V16.75H44V8.668ZM22.3,13.806,40.5,9.5V16.75H39.167a1.75,1.75,0,0,0,0,3.5H40.5v6.875H39.167a1.75,1.75,0,0,0,0,3.5H40.5V31.5a31.433,31.433,0,0,0,1.074,8.086l-1.879.433a1.75,1.75,0,1,0,.785,3.41l2.183-.5a32.011,32.011,0,0,0,5.061,8.686l-1.016.586a1.75,1.75,0,0,0,1.75,3.032l1.69-.976a31.7,31.7,0,0,0,3.187,2.73,12.855,12.855,0,0,0,7.711,2.569,13.139,13.139,0,0,0,11.047-6.017l.186-.29H95.29a24.488,24.488,0,0,1,24.46,24.46v4.828H32.672A27.344,27.344,0,0,0,8.25,63.284V31.565A18.184,18.184,0,0,1,22.3,13.806ZM8.25,66.784A23.863,23.863,0,0,1,29,82.534H8.25ZM31.464,119.75a10.25,10.25,0,1,1,10.25-10.25A10.261,10.261,0,0,1,31.464,119.75Zm10.14-19.5a13.676,13.676,0,0,0-15.647-3.337l-2.71-4.522H52.811Zm65.182,9.254a10.25,10.25,0,1,1-10.25-10.25A10.261,10.261,0,0,1,106.786,109.5Zm-4.743-12.591A13.676,13.676,0,0,0,86.4,100.246L75.189,92.387h29.564Zm17.707-8.022H8.25V86.034h111.5Z"/><path d="M87.438,59.246H95.29A18.353,18.353,0,0,1,105.6,62.4a1.751,1.751,0,0,0,2.429-.471,1.751,1.751,0,0,0-.47-2.43A21.837,21.837,0,0,0,95.29,55.746H87.438a1.75,1.75,0,0,0,0,3.5Z"/><path d="M31.464,102.906a6.594,6.594,0,1,0,6.595,6.595A6.6,6.6,0,0,0,31.464,102.906Zm0,9.688a3.094,3.094,0,1,1,3.095-3.093A3.1,3.1,0,0,1,31.464,112.594Z"/></svg>
