<?xml version="1.0"?>
<svg xmlns="http://www.w3.org/2000/svg" id="Layer_1" data-name="Layer 1" viewBox="0 0 128 128" width="512" height="512"><path d="M119.228,44.692a1.72,1.72,0,0,0,.093-.387,157.932,157.932,0,0,0,3.887-24.65A13.828,13.828,0,0,0,108.345,4.793,157.893,157.893,0,0,0,83.7,8.68a1.723,1.723,0,0,0-.395.094c-3.661.9-7.436,1.98-11.251,3.273a1.753,1.753,0,0,0-.506.173C58.614,16.666,45.269,23.6,34.437,34.437S16.667,58.613,12.22,71.543a1.752,1.752,0,0,0-.174.512c-1.294,3.816-2.377,7.592-3.274,11.254a1.776,1.776,0,0,0-.093.387,157.921,157.921,0,0,0-3.887,24.649A13.826,13.826,0,0,0,18.577,123.25q.538,0,1.078-.042a157.879,157.879,0,0,0,24.7-3.9,1.946,1.946,0,0,0,.269-.064c3.691-.9,7.5-1.993,11.348-3.3a1.763,1.763,0,0,0,.473-.161c12.936-4.447,26.286-11.385,37.123-22.222s17.769-24.176,22.216-37.107a1.748,1.748,0,0,0,.175-.511C117.249,52.13,118.331,48.354,119.228,44.692ZM76.569,14.255c2.368-.729,4.71-1.374,7.011-1.948a127.6,127.6,0,0,1,17.451,14.662A127.613,127.613,0,0,1,115.693,44.42c-.573,2.3-1.219,4.644-1.948,7.012a120.19,120.19,0,0,0-16.6-20.574A120.194,120.194,0,0,0,76.569,14.255Zm32.047-5.973c.27-.021.538-.031.806-.031a10.326,10.326,0,0,1,10.3,11.134,156.068,156.068,0,0,1-2.971,20.488,133.088,133.088,0,0,0-13.241-15.379A133.121,133.121,0,0,0,88.128,11.253,156.045,156.045,0,0,1,108.616,8.282Zm-71.7,28.629C47.178,26.645,59.841,20,72.185,15.693a103.854,103.854,0,0,1,12.344,8.563q-3.439,2.488-6.782,5.054l-1.785-1.784A1.75,1.75,0,0,0,73.487,30l1.481,1.48q-2.907,2.3-5.724,4.649l-1.895-1.9a1.75,1.75,0,0,0-2.475,2.475l1.682,1.682c-1.872,1.6-3.7,3.228-5.507,4.864l-2.314-2.313a1.749,1.749,0,0,0-2.474,2.474l2.2,2.2c-.97.9-1.937,1.807-2.886,2.719-.807.769-1.606,1.568-2.407,2.36l-3.049-3.049a1.749,1.749,0,1,0-2.474,2.474l3.043,3.043c-1.792,1.815-3.49,3.59-5.072,5.3l-2.2-2.2a1.749,1.749,0,1,0-2.474,2.474l2.316,2.316Q40.806,63.76,38.4,66.568l-1.694-1.694a1.75,1.75,0,0,0-2.474,2.475l1.9,1.9q-2.35,2.819-4.646,5.725L30,73.488a1.75,1.75,0,1,0-2.475,2.474l1.792,1.792q-2.571,3.337-5.062,6.774a103.836,103.836,0,0,1-8.563-12.342C20,59.842,26.644,47.179,36.911,36.911Zm7.51,78.782a127.466,127.466,0,0,1-17.452-14.661A127.68,127.68,0,0,1,12.307,83.58c.573-2.3,1.219-4.643,1.948-7.012a120.159,120.159,0,0,0,16.6,20.574,120.115,120.115,0,0,0,20.573,16.6C49.064,114.475,46.721,115.12,44.421,115.693Zm-25.037,4.026a10.328,10.328,0,0,1-11.1-11.1,156.068,156.068,0,0,1,2.971-20.488,133.261,133.261,0,0,0,13.241,15.378,132.926,132.926,0,0,0,15.378,13.241A155.9,155.9,0,0,1,19.384,119.719Zm71.705-28.63C80.822,101.356,68.16,108,55.816,112.308a113.973,113.973,0,0,1-22.483-17.64c-2.384-2.385-4.641-4.849-6.775-7.353q2.581-3.586,5.254-7.066L33.067,81.5a1.749,1.749,0,0,0,2.474-2.474l-1.566-1.566q2.293-2.91,4.642-5.73l2.159,2.16a1.75,1.75,0,0,0,2.475-2.475L40.883,69.05q2.4-2.809,4.851-5.521l2.753,2.754a1.75,1.75,0,1,0,2.475-2.475L48.1,60.942c1.58-1.71,3.278-3.485,5.07-5.3L56.2,58.672A1.75,1.75,0,1,0,58.672,56.2l-3.025-3.025c.782-.774,1.562-1.553,2.352-2.307.968-.929,1.952-1.851,2.942-2.771l2.867,2.867a1.75,1.75,0,1,0,2.474-2.475l-2.756-2.756q2.712-2.451,5.514-4.858l2.378,2.379a1.75,1.75,0,0,0,2.475-2.475l-2.165-2.164q2.822-2.347,5.733-4.639l1.567,1.567A1.75,1.75,0,1,0,81.5,33.067L80.24,31.8q3.479-2.668,7.075-5.245c2.5,2.134,4.968,4.39,7.352,6.774a114,114,0,0,1,17.641,22.482C108.005,68.159,101.356,80.821,91.089,91.089Z"/><path d="M82.567,90.774A84.662,84.662,0,0,1,62.284,103.3a1.75,1.75,0,1,0,1.426,3.2A88.123,88.123,0,0,0,84.828,93.444a1.749,1.749,0,1,0-2.261-2.67Z"/></svg>
