<svg id="Layer_1" height="512" viewBox="0 0 128 128" width="512" xmlns="http://www.w3.org/2000/svg" data-name="Layer 1"><path d="m121.5 4.75h-115a1.749 1.749 0 0 0 -1.75 1.75v79.615a1.749 1.749 0 0 0 1.75 1.75h35.92v6.465a1.749 1.749 0 0 0 1.75 1.75h12.08v25.42a1.749 1.749 0 0 0 1.75 1.75h12a1.749 1.749 0 0 0 1.75-1.75v-25.42h12.08a1.749 1.749 0 0 0 1.75-1.75v-6.465h35.92a1.749 1.749 0 0 0 1.75-1.75v-79.615a1.749 1.749 0 0 0 -1.75-1.75zm-1.75 22h-54v-18.5h54zm-57.5-18.5v18.5h-54v-18.5zm-54 22h54v54.115h-54zm60 89.5h-8.5v-23.67h8.5zm13.83-27.17h-36.16v-4.715h18.031c.017 0 .032.005.049.005s.032 0 .049-.005h18.031zm-16.33-8.215v-54.115h54v54.115z"/><path d="m19.004 17.337h4.113v3.514h1.5v-8.24h-1.5v3.359h-4.113v-3.359h-1.5v8.24h1.5z"/><path d="m30.342 20.994a4.264 4.264 0 1 0 0-8.527 4.344 4.344 0 0 0 -4.33 4.258 4.354 4.354 0 0 0 4.33 4.269zm0-7.16a2.9 2.9 0 1 1 -2.807 2.891 2.869 2.869 0 0 1 2.807-2.891z"/><path d="m37.65 15.346 2.711 5.025 2.723-5.025v5.505h1.486v-8.24h-1.486l-2.723 5.026-2.711-5.026h-1.498v8.24h1.498z"/><path d="m52.6 19.483h-4.702v-2.146h4.258v-1.367h-4.258v-1.991h4.702v-1.368h-6.202v8.24h6.202z"/><path d="m75.393 20.851.624-1.488h3.983l.624 1.488h1.655l-3.442-8.24h-1.669l-3.442 8.24zm2.615-6.251 1.451 3.466h-2.9z"/><path d="m86.444 20.851 2.076-6.117 2.062 6.117h1.499l2.603-8.24h-1.643l-1.763 5.901-1.943-5.901h-1.631l-1.955 5.901-1.763-5.901h-1.643l2.614 8.24z"/><path d="m97.029 19.363h3.982l.624 1.488h1.655l-3.442-8.24h-1.667l-3.443 8.24h1.667zm1.992-4.763 1.451 3.466h-2.9z"/><path d="m106.474 20.851h1.522v-3.095l3.251-5.145h-1.703l-2.303 3.73-2.266-3.73h-1.764l3.263 5.145z"/></svg>