<svg id="Layer_1" height="512" viewBox="0 0 128 128" width="512" xmlns="http://www.w3.org/2000/svg" data-name="Layer 1"><path d="m123.242 31.6a26.855 26.855 0 0 0 -45.849-18.986l-2.671 2.678a7.76 7.76 0 0 0 -10.371.531l-5.657 5.657a7.748 7.748 0 0 0 -.534 10.367l-26.32 26.321a7.762 7.762 0 0 0 -10.368.534l-5.657 5.657a7.749 7.749 0 0 0 -.531 10.371l-2.684 2.67a26.859 26.859 0 0 0 37.984 37.986l2.681-2.675a7.764 7.764 0 0 0 10.364-.537l5.657-5.658a7.747 7.747 0 0 0 .534-10.366l26.32-26.321a7.764 7.764 0 0 0 10.368-.534l5.657-5.658a7.747 7.747 0 0 0 .537-10.362l2.673-2.681a26.689 26.689 0 0 0 7.867-18.994zm-32.022 10.033-4.862-4.861 1.922-2.309 5.248 5.249zm6.691 11.64-1.765 1.766-23.193-23.193 1.765-1.765zm-30.561 40.404a7.737 7.737 0 0 0 -10.269.437l-6.688-6.687 3.53-2.944a1.75 1.75 0 0 0 .116-2.581l-7.95-7.949a1.75 1.75 0 0 0 -2.581.116l-2.943 3.531-6.687-6.687a7.74 7.74 0 0 0 .437-10.269l26.319-26.32a7.747 7.747 0 0 0 9.818-.028l7.323 7.323-2.358 2.834a1.748 1.748 0 0 0 .108 2.356l5.66 5.661a1.751 1.751 0 0 0 2.357.107l2.832-2.359 7.326 7.321a7.748 7.748 0 0 0 -.028 9.819zm-14.525 4.682-23.192-23.193 1.775-1.775 23.192 23.193zm-15.885-10.936 3.629 3.628-1.349 1.122-3.4-3.4zm10.969-2.481-4.859-4.859 1.919-2.3 5.241 5.24zm32.351-40.842 3.629 3.629-1.359 1.134-3.4-3.4zm-19.091-20.145 5.656-5.655a4.255 4.255 0 0 1 6.011 0l.671.671.009.01.01.009.663.662a4.253 4.253 0 0 1 0 6.011l-5.658 5.656a4.249 4.249 0 0 1 -6.01 0l-1.352-1.352a4.249 4.249 0 0 1 0-6.01zm-42.879 42.879 5.656-5.657a4.255 4.255 0 0 1 6.011 0l1.353 1.352a4.253 4.253 0 0 1 0 6.011l-5.658 5.66a4.248 4.248 0 0 1 -6.01 0l-.666-.666-.676-.675a4.25 4.25 0 0 1 0-6.011zm29.825 46.078a23.359 23.359 0 1 1 -33.037-33.033l2.681-2.679a7.738 7.738 0 0 0 9.31.347l7.386 7.387-2.348 2.823a1.748 1.748 0 0 0 .108 2.356l5.66 5.66a1.749 1.749 0 0 0 2.357.108l2.822-2.349 7.386 7.387a7.737 7.737 0 0 0 .353 9.317zm18.7-8.867-5.657 5.655a4.256 4.256 0 0 1 -6.01 0l-.659-.658-.008-.011-.011-.009-.675-.675a4.249 4.249 0 0 1 0-6.01l5.657-5.657a4.25 4.25 0 0 1 6.011 0l1.352 1.353a4.249 4.249 0 0 1 0 6.01zm42.879-42.879-5.657 5.657a4.256 4.256 0 0 1 -6.01 0l-1.353-1.352a4.25 4.25 0 0 1 0-6.011l5.657-5.656a4.247 4.247 0 0 1 6.011 0l.68.679h.005l.663.662a4.25 4.25 0 0 1 0 6.011zm.538-10.365a7.746 7.746 0 0 0 -9.82.024l-6.707-6.707 3.536-2.943a1.749 1.749 0 0 0 .118-2.582l-7.96-7.96a1.749 1.749 0 0 0 -2.582.118l-2.944 3.536-6.706-6.706a7.75 7.75 0 0 0 .029-9.814l2.673-2.679a23.359 23.359 0 0 1 33.031 33.036z"/><path d="m115.621 23.518a1.75 1.75 0 0 0 -3.226 1.358 17.441 17.441 0 0 1 -1.18 15.763 1.75 1.75 0 1 0 2.985 1.827 20.94 20.94 0 0 0 1.421-18.948z"/></svg>