<svg id="Layer_1" height="512" viewBox="0 0 128 128" width="512" xmlns="http://www.w3.org/2000/svg" data-name="Layer 1"><path d="m92.919 90.5a15.658 15.658 0 0 0 15.654-15.653 1.75 1.75 0 0 0 -3.5 0 12.158 12.158 0 0 1 -12.154 12.153 1.75 1.75 0 0 0 0 3.5z"/><path d="m35.031 90.5a6.594 6.594 0 1 0 -6.594-6.6 6.6 6.6 0 0 0 6.594 6.6zm0-9.688a3.094 3.094 0 1 1 -3.094 3.088 3.1 3.1 0 0 1 3.094-3.09z"/><path d="m121.5 110.75h-16.838l-3.972-15.7a21.644 21.644 0 0 0 1.259-39.879 181.3 181.3 0 0 0 -.781-29.034c4.26-.775 7.364-2.227 9.652-4.453 4.43-4.316 4.43-10.6 4.43-15.184a1.749 1.749 0 0 0 -1.75-1.75h-6a1.749 1.749 0 0 0 -1.75 1.75c0 3.884-.115 6.968-1.559 8.374-1.15 1.116-4.154 2.446-11.931 2.446-.494 0-1.012-.008-1.539-.017h-.183a1.75 1.75 0 0 0 -1.778 1.75v6a1.75 1.75 0 0 0 1.72 1.75h.153c.357.006.7.008 1.052.012a182.643 182.643 0 0 1 .865 26.394 21.52 21.52 0 0 0 -7.435 1.45l-.077.023-48.076 15.38-7.475-35.409 13.079-3.4a4.476 4.476 0 0 0 -1.127-8.807h-28.118a8.073 8.073 0 1 0 2.033 15.884l4.933-1.284 2.825 13.374h-6.532a1.75 1.75 0 1 0 0 3.5h7.271l4.129 19.546a12.573 12.573 0 0 0 -.415 20.556l-4.227 16.728h-16.838a1.749 1.749 0 0 0 -1.75 1.75v9a1.749 1.749 0 0 0 1.75 1.75h115a1.749 1.749 0 0 0 1.75-1.75v-9a1.749 1.749 0 0 0 -1.75-1.75zm-20.448 0h-2.58l-3.628-14.342a21.633 21.633 0 0 0 2.488-.363zm-64.31-14.25h54.516l3.605 14.252h-61.726zm61.782-42.57a21.367 21.367 0 0 0 -2.48-.511 181.668 181.668 0 0 0 -.844-26.662c.868-.037 1.7-.093 2.5-.164a179.725 179.725 0 0 1 .824 27.337zm-6.264-33.11c7.387 0 11.954-1.091 14.372-3.436 2.13-2.076 2.537-5.127 2.6-9.134h2.505c-.05 3.927-.432 8.07-3.363 10.926-1.98 1.926-4.992 3.149-9.268 3.735-.018 0-.036 0-.054 0-.035 0-.067.016-.1.022a51.547 51.547 0 0 1 -6.7.387zm-77.786 14.123a4.573 4.573 0 1 1 -1.153-9h28.118a.976.976 0 0 1 .247 1.92zm12.51 16.878v-.009l-3.3-15.648 2.418-.629 7.516 35.6-2.294.734c-.031.01-.061.023-.093.033zm-1.047 32.079a9.057 9.057 0 0 1 6.43-8.7l53.551-17.126a1.724 1.724 0 0 0 .3-.09 18.149 18.149 0 1 1 6.701 35.016h-57.888a9.105 9.105 0 0 1 -9.094-9.1zm4.805 11.83a12.469 12.469 0 0 0 2.43.615l-3.644 14.405h-2.581zm89.008 24.02h-111.5v-5.5h111.5z"/></svg>