<svg id="Layer_1" height="512" viewBox="0 0 128 128" width="512" xmlns="http://www.w3.org/2000/svg" data-name="Layer 1"><path d="m122.737 5.263a1.728 1.728 0 0 0 -1.335-.51c-1.361.075-33.9 2.4-81.375 49.878a326.368 326.368 0 0 0 -34.955 40.729 1.751 1.751 0 0 0 1.194 2.746l20.818 2.81 2.81 20.818a1.75 1.75 0 0 0 2.746 1.194 326.368 326.368 0 0 0 40.729-34.955c47.466-47.466 49.802-80.013 49.878-81.373a1.746 1.746 0 0 0 -.51-1.337zm-51.837 80.237a329.189 329.189 0 0 1 -37.922 32.881l-2.488-18.396 20.132-20.132.633-.633a1.75 1.75 0 0 0 -2.475-2.475l-.633.633-20.132 20.132-18.394-2.483a329.189 329.189 0 0 1 32.879-37.922c35.543-35.541 62.85-45.284 73.829-47.905l-17.444 17.441a1.749 1.749 0 1 0 2.474 2.474l17.463-17.462c-2.593 10.947-12.282 38.198-47.922 73.847z"/><path d="m96.95 47.81a1.747 1.747 0 0 0 -2.433.449 216.291 216.291 0 0 1 -15.236 19.51 1.75 1.75 0 0 0 2.637 2.3 219.5 219.5 0 0 0 15.482-19.826 1.749 1.749 0 0 0 -.45-2.433z"/></svg>