<svg id="Layer_1" height="512" viewBox="0 0 128 128" width="512" xmlns="http://www.w3.org/2000/svg" data-name="Layer 1"><path d="m22.941 91.153c9.859-2.453 23.21-3.333 32.144-3.644.022 0 .043.007.065.007.047 0 .091-.011.137-.014 4.165-.142 7.345-.161 8.713-.161s4.548.019 8.713.161c.046 0 .09.014.137.014.022 0 .043-.006.065-.007 8.934.311 22.283 1.188 32.144 3.644a1.748 1.748 0 0 0 2.009-.96c10.176-21.882 9.655-45.289-1.394-62.614a48.564 48.564 0 0 0 -41.674-22.829 48.564 48.564 0 0 0 -41.674 22.829c-11.049 17.321-11.57 40.732-1.394 62.614a1.75 1.75 0 0 0 2.009.96zm79.782-61.691c10.186 15.972 10.818 37.545 1.761 57.957-9.381-2.137-21.281-3-29.884-3.348v-74.621a45 45 0 0 1 28.123 20.012zm-31.623-20.67v75.159c-3.369-.1-5.909-.11-7.1-.11s-3.731.014-7.1.11v-75.159a46.775 46.775 0 0 1 14.2 0zm-45.823 20.67a45 45 0 0 1 28.123-20.012v74.621c-8.6.347-20.5 1.211-29.884 3.348-9.057-20.412-8.425-41.985 1.761-57.957z"/><path d="m121.5 105.95h-13.5c-2.77-7.785-12.558-7.792-17.654-7.792-6.488 0-12.142 2.667-15.037 6.585a40.359 40.359 0 0 0 -22.614 0c-2.895-3.918-8.549-6.585-15.037-6.585-5.1 0-14.884.007-17.654 7.792h-13.504a1.749 1.749 0 0 0 -1.75 1.75v6a1.749 1.749 0 0 0 1.75 1.75h13.5c2.766 7.793 12.558 7.8 17.656 7.8 7.734 0 14.276-3.792 16.378-8.973l.376-.127a30.82 30.82 0 0 1 19.18 0l.375.125c2.1 5.183 8.644 8.975 16.379 8.975 5.1 0 14.89-.007 17.656-7.8h13.5a1.749 1.749 0 0 0 1.75-1.75v-6a1.749 1.749 0 0 0 -1.75-1.75zm-113.25 6v-2.5h11.05c-.029.405-.047.82-.047 1.254s.018.844.046 1.246zm29.406 7.8c-9.44 0-14.906-1.48-14.906-9.046s5.466-9.046 14.906-9.046c7.5 0 13.594 4.058 13.594 9.046s-6.098 9.046-13.594 9.046zm17.074-9.328a9.35 9.35 0 0 0 -.419-2.5 36.784 36.784 0 0 1 19.378 0 9.35 9.35 0 0 0 -.419 2.5 34.317 34.317 0 0 0 -18.54 0zm35.614 9.328c-7.5 0-13.594-4.058-13.594-9.046s6.1-9.046 13.594-9.046c9.44 0 14.906 1.481 14.906 9.046s-5.466 9.046-14.906 9.046zm29.406-7.8h-11.05c.028-.4.046-.815.046-1.246s-.018-.849-.047-1.254h11.051z"/><path d="m104.132 49.311a1.75 1.75 0 0 0 1.72 1.436 1.79 1.79 0 0 0 .315-.028 1.75 1.75 0 0 0 1.408-2.035 49.571 49.571 0 0 0 -6.96-17.878 1.75 1.75 0 1 0 -2.951 1.882 46.091 46.091 0 0 1 6.468 16.623z"/></svg>