<?xml version="1.0"?>
<svg xmlns="http://www.w3.org/2000/svg" id="Layer_1" data-name="Layer 1" viewBox="0 0 128 128" width="512" height="512"><path d="M121.5,71.373c-5.253,0-7.84-1.6-10.579-3.3A20.891,20.891,0,0,0,98.5,64.25a23.1,23.1,0,0,0-4.748.462V6.5A1.75,1.75,0,0,0,92,4.75H83A1.75,1.75,0,0,0,81.25,6.5V22.44H46.75V6.5A1.751,1.751,0,0,0,45,4.75H36A1.751,1.751,0,0,0,34.25,6.5V70.821a18.8,18.8,0,0,1-4.751.552c-5.252,0-7.839-1.6-10.579-3.3A20.875,20.875,0,0,0,6.5,64.25,1.751,1.751,0,0,0,4.75,66v48.377a1.751,1.751,0,0,0,1.75,1.75c5.251,0,7.838,1.6,10.578,3.3A20.883,20.883,0,0,0,29.5,123.25a20.874,20.874,0,0,0,12.419-3.824c2.74-1.7,5.327-3.3,10.578-3.3s7.839,1.6,10.579,3.3a22.088,22.088,0,0,0,24.844,0c2.739-1.7,5.327-3.3,10.579-3.3s7.84,1.6,10.579,3.3A20.891,20.891,0,0,0,121.5,123.25a1.75,1.75,0,0,0,1.75-1.75V73.123A1.75,1.75,0,0,0,121.5,71.373ZM8.25,83.942a17.568,17.568,0,0,1,8.828,3.233A20.883,20.883,0,0,0,29.5,91a20.881,20.881,0,0,0,12.419-3.824c2.74-1.7,5.327-3.3,10.578-3.3s7.839,1.6,10.579,3.3a22.088,22.088,0,0,0,24.844,0c2.739-1.7,5.327-3.3,10.579-3.3s7.84,1.6,10.579,3.3a20.956,20.956,0,0,0,10.673,3.762v12.621a17.568,17.568,0,0,1-8.829-3.233,22.09,22.09,0,0,0-24.845,0c-2.74,1.7-5.328,3.3-10.581,3.3s-7.839-1.6-10.578-3.3A20.886,20.886,0,0,0,52.5,96.5a20.885,20.885,0,0,0-12.42,3.824c-2.74,1.7-5.326,3.3-10.577,3.3s-7.839-1.6-10.579-3.3A20.943,20.943,0,0,0,8.25,96.563ZM84.75,8.25h5.5V65.8a30.063,30.063,0,0,0-4.174,2.272c-.442.273-.88.543-1.326.806ZM75.5,71.373c-5.251,0-7.839-1.6-10.578-3.3A20.886,20.886,0,0,0,52.5,64.25a22.2,22.2,0,0,0-5.746.7V54.85h34.5V70.525A17.754,17.754,0,0,1,75.5,71.373ZM46.75,48.85h34.5v2.5H46.75Zm34.5-3.5H46.75V31.94h34.5Zm0-19.41v2.5H46.75v-2.5ZM37.75,8.25h5.5V66.261a36.377,36.377,0,0,0-3.174,1.813c-.766.474-1.522.94-2.326,1.367Zm-20.672,62.8A20.883,20.883,0,0,0,29.5,74.873a20.874,20.874,0,0,0,12.419-3.824c2.74-1.7,5.327-3.3,10.578-3.3s7.839,1.6,10.579,3.3A20.878,20.878,0,0,0,75.5,74.873a20.508,20.508,0,0,0,8.144-1.507c.027-.011.053-.021.078-.033a29.812,29.812,0,0,0,4.2-2.284c2.739-1.7,5.327-3.3,10.579-3.3s7.84,1.6,10.579,3.3a20.912,20.912,0,0,0,10.673,3.768V87.432a17.568,17.568,0,0,1-8.829-3.233,22.09,22.09,0,0,0-24.845,0c-2.74,1.7-5.328,3.3-10.581,3.3s-7.839-1.6-10.578-3.3A20.886,20.886,0,0,0,52.5,80.375,20.885,20.885,0,0,0,40.076,84.2c-2.74,1.7-5.326,3.3-10.577,3.3S21.66,85.9,18.92,84.2A20.943,20.943,0,0,0,8.25,80.437V67.814A17.578,17.578,0,0,1,17.078,71.049Zm93.843,45.4a22.09,22.09,0,0,0-24.845,0c-2.74,1.7-5.328,3.3-10.581,3.3s-7.839-1.6-10.578-3.3A20.886,20.886,0,0,0,52.5,112.627a20.885,20.885,0,0,0-12.42,3.824c-2.74,1.7-5.326,3.3-10.577,3.3s-7.839-1.6-10.579-3.3a20.9,20.9,0,0,0-10.67-3.768V100.068a17.568,17.568,0,0,1,8.828,3.233A20.883,20.883,0,0,0,29.5,107.125,20.881,20.881,0,0,0,41.918,103.3c2.74-1.7,5.327-3.3,10.578-3.3s7.839,1.6,10.579,3.3a22.088,22.088,0,0,0,24.844,0c2.739-1.7,5.327-3.3,10.579-3.3s7.84,1.6,10.579,3.3a20.956,20.956,0,0,0,10.673,3.762v12.623A17.565,17.565,0,0,1,110.921,116.451Z"/></svg>
