<svg id="Layer_1" height="512" viewBox="0 0 128 128" width="512" xmlns="http://www.w3.org/2000/svg" data-name="Layer 1"><path d="m103.452 101.594c0-.009 0-.019-.01-.028a1.713 1.713 0 0 0 -.2-.325 13.733 13.733 0 0 0 -22.865.018 1.731 1.731 0 0 0 -.189.307v.008a13.635 13.635 0 0 0 0 14.6v.008a1.662 1.662 0 0 0 .19.309 13.725 13.725 0 0 0 22.994-.2c.023-.039.055-.07.074-.111a.231.231 0 0 0 .01-.028 13.626 13.626 0 0 0 0-14.564zm-20.926 11.6a10.128 10.128 0 0 1 0-8.627 24.389 24.389 0 0 0 18.572 0 10.121 10.121 0 0 1 0 8.624 24.587 24.587 0 0 0 -18.572-.001zm16.5-11.582a21.016 21.016 0 0 1 -14.436 0 10.228 10.228 0 0 1 14.436 0zm-14.432 14.534a21.014 21.014 0 0 1 14.435 0 10.228 10.228 0 0 1 -14.435 0z"/><path d="m108.442 74.992c.074-.073.154-.14.228-.214.01-.01.017-.023.028-.033 17.6-17.631 19.5-44.388 4.225-59.665-7.423-7.427-17.752-11.053-29.097-10.212a48.659 48.659 0 0 0 -30.56 14.432c-.013.012-.028.02-.04.033-.088.087-.168.183-.255.271q-.9.91-1.741 1.857l-.023.027a49.609 49.609 0 0 0 -10.807 19.375l-.008.021c-3.5 10.045-4.967 20.447-6.257 29.623-.988 7.032-1.866 13.241-3.443 16.917a1.743 1.743 0 0 0 -1.8.413l-23.626 23.627a1.749 1.749 0 0 0 0 2.475l8.8 8.8a1.749 1.749 0 0 0 2.475 0l18.438-18.439 5.186-5.186a1.72 1.72 0 0 0 .22-.27 1.646 1.646 0 0 0 .1-.194c.018-.036.041-.07.056-.107a1.723 1.723 0 0 0 .07-.229c.009-.033.022-.065.029-.1a1.7 1.7 0 0 0 .033-.334v-.005a1.766 1.766 0 0 0 -.034-.34c-.006-.032-.02-.062-.028-.094s-.023-.085-.038-.127c3.677-1.577 9.886-2.455 16.917-3.443 9.177-1.29 19.577-2.753 29.62-6.256l.023-.008a49.632 49.632 0 0 0 19.387-10.819c.658-.583 1.297-1.178 1.922-1.796zm-24.356-66.633q1.479-.111 2.931-.11a32.568 32.568 0 0 1 23.431 9.306c13.92 13.921 12.012 38.479-4.254 54.745-.071.071-.145.137-.217.208-5.093 5.021-11.62 8.879-19.952 11.779a41.633 41.633 0 0 1 -8.213 1.464c-10.3.766-19.666-2.5-26.363-9.2s-9.963-16.058-9.2-26.362a41.7 41.7 0 0 1 1.463-8.211c2.893-8.311 6.74-14.826 11.742-19.914.084-.085.162-.173.246-.257a45.167 45.167 0 0 1 28.386-13.448zm-53.956 83.19 6.325 6.325-2.711 2.711-6.325-6.325zm-14.83 27.477-6.322-6.326 15.966-15.965 6.325 6.325zm41.71-28.626c-8.183 1.151-14.81 2.088-18.877 4.2l-4.733-4.729c2.11-4.067 3.047-10.693 4.2-18.877.489-3.478 1.006-7.136 1.648-10.875a34.81 34.81 0 0 0 28.652 28.635c-3.746.646-7.409 1.16-10.89 1.646z"/><path d="m49.523 34.261a41.293 41.293 0 0 0 -4.475 13.369 1.764 1.764 0 0 0 -.084.543q-.234 1.748-.3 3.483a1.744 1.744 0 0 0 -.012.525 32.641 32.641 0 0 0 2.264 13.028 1.827 1.827 0 0 0 .078.183 28.537 28.537 0 0 0 6.206 9.376c.006.006.011.015.018.022s.015.011.022.018a30.1 30.1 0 0 0 21.65 8.592c.366 0 .737-.013 1.107-.025h.024.04c.673-.022 1.349-.056 2.032-.115s1.374-.144 2.058-.242l.065-.01a43.237 43.237 0 0 0 24.206-12.471 43.246 43.246 0 0 0 12.478-24.215c0-.021.006-.042.01-.063.1-.685.181-1.372.241-2.06s.1-1.381.118-2.065v-.009c.278-8.9-2.726-16.933-8.581-22.792l-.006-.009-.007-.005c-6.311-6.309-15.142-9.319-24.869-8.468a42.861 42.861 0 0 0 -26.334 12.727 45.49 45.49 0 0 0 -7.76 10.341 1.685 1.685 0 0 0 -.189.342zm9.212-6.945 4.92 4.92-6.355 6.357-3.976-3.973a41.988 41.988 0 0 1 5.411-7.304zm9.771-7.892 3.981 3.98-6.358 6.357-4.92-4.92a42.244 42.244 0 0 1 7.297-5.417zm18.494-5.213a29.365 29.365 0 0 1 8.331 1.175l-4.131 4.122-4.936-4.936.353-.353c.128-.001.255-.008.383-.008zm17.926 6.4-6.308 6.309-4.936-4.936 5.249-5.248a25.2 25.2 0 0 1 5.991 3.874zm6.35 8.472-5.247 5.247-4.936-4.936 6.308-6.308a25.193 25.193 0 0 1 3.871 5.996zm-.988 27.171-3.206-3.207 6.195-6.2a37.262 37.262 0 0 1 -2.993 9.406zm-7.125 10.546-4.917-4.917 6.357-6.357 3.977 3.974a42.206 42.206 0 0 1 -5.417 7.3zm-9.772 7.891-3.977-3.977 6.357-6.356 4.917 4.917a42.2 42.2 0 0 1 -7.297 5.411zm-26.81 4.036 4.119-4.121 4.936 4.936-.345.344a29.5 29.5 0 0 1 -8.71-1.164zm-9.6-5.219 6.308-6.308 4.935 4.936-5.245 5.246a25.2 25.2 0 0 1 -6-3.882zm-6.344-8.477 5.241-5.241 4.936 4.936-6.314 6.303a25.089 25.089 0 0 1 -3.865-6.003zm32.79-17.969 6.355-6.362 4.936 4.936-6.357 6.357zm2.461 7.411-6.357 6.357-4.936-4.936 6.357-6.357zm-4.938-9.891-4.936-4.935 6.358-6.358 4.935 4.936zm-2.474 2.475-6.357 6.357-4.936-4.936 6.357-6.357zm-8.832 8.832-6.357 6.357-4.936-4.936 6.357-6.357zm2.475 2.474 4.936 4.937-6.355 6.356-4.938-4.936zm7.41 7.411 4.936 4.935-6.357 6.358-4.936-4.936zm2.471-2.474 6.357-6.357 4.943 4.935-6.36 6.357zm8.831-8.831 6.358-6.358 4.935 4.936-6.353 6.353zm8.832-8.832 6.357-6.357 4.936 4.935-6.356 6.356zm-2.474-2.475-4.936-4.936 6.356-6.357 4.941 4.931zm-7.407-7.412-4.936-4.935 6.354-6.357 4.936 4.936zm-7.41-7.41-4.936-4.94 6.356-6.357 4.937 4.936zm-2.472 2.475-6.36 6.357-4.94-4.936 6.357-6.357zm-8.832 8.832-6.36 6.353-4.936-4.936 6.357-6.357zm-8.832 8.831-6.357 6.357-4.939-4.935 6.36-6.357zm-14.111 4.237.34-.34 4.935 4.935-4.1 4.107a29.675 29.675 0 0 1 -1.175-8.702zm32.62 26.664 6.195-6.2 3.206 3.206a37.235 37.235 0 0 1 -9.401 2.994zm33.036-37.986-.346.346-4.935-4.939 4.119-4.119a29.544 29.544 0 0 1 1.162 8.712zm-32.62-26.663-6.2 6.2-3.209-3.21a37.254 37.254 0 0 1 9.409-2.99zm-26.338 26.338-6.186 6.186a37.55 37.55 0 0 1 2.987-9.385z"/></svg>