<svg id="Layer_1" height="512" viewBox="0 0 128 128" width="512" xmlns="http://www.w3.org/2000/svg" data-name="Layer 1"><path d="m98.937 70.716-3.344-18.916a1.75 1.75 0 1 0 -3.446.609l3.344 18.916a1.749 1.749 0 0 0 1.721 1.445 1.784 1.784 0 0 0 .307-.026 1.751 1.751 0 0 0 1.418-2.028z"/><path d="m112.654 95.338h-3.276l-10.924-61.826 1.111-.071a1.749 1.749 0 0 0 1.261-.658l14.831-18.695a5.319 5.319 0 0 0 -.86-7.464 5.313 5.313 0 0 0 -7.465.86l-12.375 15.6-27.51 1.733a5.314 5.314 0 0 0 .331 10.618c.112 0 .225 0 .339-.01l13.33-.842-2.347 60.755h-63.754a10.6 10.6 0 1 0 0 21.19h7.154v4.252a1.75 1.75 0 0 0 1.75 1.75h12a1.75 1.75 0 0 0 1.75-1.75v-4.252h52v4.252a1.75 1.75 0 0 0 1.75 1.75h12a1.75 1.75 0 0 0 1.75-1.75v-4.252h7.154a10.6 10.6 0 1 0 0-21.19zm-44.754-63.403a1.827 1.827 0 0 1 -1.924-1.7 1.813 1.813 0 0 1 1.7-1.925l28.287-1.783a1.745 1.745 0 0 0 1.261-.658l12.85-16.211a1.8 1.8 0 0 1 1.213-.675c.07-.007.141-.011.211-.011a1.8 1.8 0 0 1 1.124.393 1.816 1.816 0 0 1 .293 2.548l-14.347 18.087zm17.062 2.429 9.981-.631 10.885 61.605h-23.228zm-50.462 84.666h-8.5v-2.5h8.5zm67.5 0h-8.5v-2.5h8.5zm10.654-6h-97.308a7.1 7.1 0 1 1 0-14.19h65.435.02 27.1.011.023 4.723a7.1 7.1 0 1 1 0 14.19z"/><path d="m15.346 100.338a5.6 5.6 0 1 0 5.6 5.6 5.6 5.6 0 0 0 -5.6-5.6zm0 7.69a2.1 2.1 0 1 1 2.1-2.094 2.1 2.1 0 0 1 -2.1 2.094z"/><path d="m112.654 100.338a5.6 5.6 0 1 0 5.6 5.6 5.6 5.6 0 0 0 -5.6-5.6zm0 7.69a2.1 2.1 0 1 1 2.1-2.094 2.1 2.1 0 0 1 -2.1 2.094z"/><path d="m91.75 104.183h-55.5a1.75 1.75 0 1 0 0 3.5h55.5a1.75 1.75 0 0 0 0-3.5z"/></svg>