<?xml version="1.0"?>
<svg xmlns="http://www.w3.org/2000/svg" id="Layer_1" data-name="Layer 1" viewBox="0 0 128 128" width="512" height="512"><path d="M121.5,4.75h-6a1.751,1.751,0,0,0-1.75,1.75V17.917H14.25V6.5A1.751,1.751,0,0,0,12.5,4.75h-6A1.751,1.751,0,0,0,4.75,6.5v115a1.751,1.751,0,0,0,1.75,1.75h6a1.751,1.751,0,0,0,1.75-1.75V70.275h99.5V121.5a1.751,1.751,0,0,0,1.75,1.75h6a1.751,1.751,0,0,0,1.75-1.75V6.5A1.751,1.751,0,0,0,121.5,4.75Zm-20.625,37.6H91.5V33.631h9.375Zm3.5-8.715h9.375v8.715h-9.375ZM88,42.346H78.625V33.631H88Zm-12.875,0H65.75V33.631h9.375Zm-12.875,0H52.875V33.631H62.25Zm-12.875,0H40V33.631h9.375Zm-12.875,0H27.125V33.631H36.5Zm-12.875,0H14.25V33.631h9.375Zm-9.375,3.5h9.375v8.715H14.25Zm12.875,0H36.5v8.715H27.125Zm12.875,0h9.375v8.715H40Zm12.875,0H62.25v8.715H52.875Zm12.875,0h9.375v8.715H65.75Zm12.875,0H88v8.715H78.625Zm12.875,0h9.375v8.715H91.5Zm12.875,0h9.375v8.715h-9.375Zm9.375-15.715h-9.375V21.417h9.375Zm-12.875,0H91.5V21.417h9.375ZM88,30.131H78.625V21.417H88Zm-12.875,0H65.75V21.417h9.375Zm-12.875,0H52.875V21.417H62.25Zm-12.875,0H40V21.417h9.375Zm-12.875,0H27.125V21.417H36.5Zm-12.875,0H14.25V21.417h9.375ZM14.25,58.061h9.375v8.714H14.25Zm12.875,0H36.5v8.714H27.125Zm12.875,0h9.375v8.714H40Zm12.875,0H62.25v8.714H52.875Zm12.875,0h9.375v8.714H65.75Zm12.875,0H88v8.714H78.625Zm12.875,0h9.375v8.714H91.5Zm12.875,0h9.375v8.714h-9.375ZM10.75,119.75H8.25V8.25h2.5v111.5Zm109,0h-2.5V8.25h2.5Z"/></svg>
