<svg id="Layer_1" height="512" viewBox="0 0 128 128" width="512" xmlns="http://www.w3.org/2000/svg" data-name="Layer 1"><path d="m47.08 61.9a13.331 13.331 0 1 0 13.33 13.328 13.346 13.346 0 0 0 -13.33-13.328zm0 23.161a9.831 9.831 0 1 1 9.83-9.83 9.841 9.841 0 0 1 -9.83 9.827z"/><path d="m87.824 34.031a1.749 1.749 0 0 0 1.75-1.75v-8.089a1.75 1.75 0 1 0 -3.5 0v8.089a1.75 1.75 0 0 0 1.75 1.75z"/><path d="m94.905 37.25a1.745 1.745 0 0 0 1.238-.513l5.92-5.925a1.75 1.75 0 0 0 -2.476-2.474l-5.92 5.925a1.75 1.75 0 0 0 1.238 2.987z"/><path d="m79.51 36.737a1.75 1.75 0 0 0 2.476-2.474l-5.921-5.925a1.75 1.75 0 1 0 -2.476 2.474z"/><path d="m121.5 44.9h-26.773-.024c-.009 0-.016 0-.025 0h-13.7-.024-.024-34.35a1.678 1.678 0 0 0 -.225.015 30.509 30.509 0 0 0 -28.994 24.285 7.751 7.751 0 1 0 -.007 12.06 30.327 30.327 0 0 0 59.094 1.522l45.9-25.249a1.749 1.749 0 0 0 .902-1.533v-9.35a1.751 1.751 0 0 0 -1.75-1.75zm-38.8 3.5h10.253v4.837h-10.253zm-70.2 31.078a4.25 4.25 0 1 1 4.25-4.25 4.255 4.255 0 0 1 -4.25 4.25zm107.25-24.513-45.664 25.121a1.752 1.752 0 0 0 -.861 1.142 26.827 26.827 0 1 1 -26.607-32.818c.057 0 .113 0 .169-.011h.272.115 32.026v6.587a1.751 1.751 0 0 0 1.75 1.75h13.75a1.751 1.751 0 0 0 1.75-1.75v-6.586h23.3z"/><path d="m37.648 54.665a1.752 1.752 0 0 0 -2.383-.665 24.464 24.464 0 0 0 -11.313 13.713 1.749 1.749 0 0 0 1.116 2.209 1.748 1.748 0 0 0 2.209-1.116 20.965 20.965 0 0 1 9.7-11.758 1.75 1.75 0 0 0 .671-2.383z"/></svg>