<?xml version="1.0"?>
<svg xmlns="http://www.w3.org/2000/svg" id="Layer_1" data-name="Layer 1" viewBox="0 0 128 128" width="512" height="512"><path d="M36.646,22.131a1.74,1.74,0,0,0,.93-.269A49.224,49.224,0,0,1,55.949,14.9a1.75,1.75,0,1,0-.564-3.455A52.726,52.726,0,0,0,35.713,18.9a1.75,1.75,0,0,0,.933,3.232Z"/><path d="M123.075,68.332c.1-1.433.175-2.874.175-4.332a58.863,58.863,0,0,0-6.468-26.866,1.754,1.754,0,0,0-.312-.609,59.63,59.63,0,0,0-16.158-19.293,1.724,1.724,0,0,0-.494-.389A59.21,59.21,0,0,0,4.75,64c0,.616.028,1.226.047,1.838a1.7,1.7,0,0,0,.007.3,58.822,58.822,0,0,0,6.463,24.828,1.747,1.747,0,0,0,.32.626A59.664,59.664,0,0,0,33.769,114.93a1.755,1.755,0,0,0,.484.279A59.189,59.189,0,0,0,123.04,68.784,1.766,1.766,0,0,0,123.075,68.332Zm-9.994-30.748A104.718,104.718,0,0,1,78.7,72.922a102.873,102.873,0,0,1-55,16.418,94.228,94.228,0,0,1-9.586-.493A55.337,55.337,0,0,1,8.425,68.211,70.639,70.639,0,0,0,23.7,69.84,83.375,83.375,0,0,0,68.257,56.448a84.013,84.013,0,0,0,31.406-35.26A56.158,56.158,0,0,1,113.081,37.584ZM64,8.25A55.435,55.435,0,0,1,96.819,18.973c-6.1,13.689-16.848,25.91-30.436,34.519A79.883,79.883,0,0,1,23.7,66.34,66.709,66.709,0,0,1,8.265,64.578c0-.193-.015-.384-.015-.578A55.814,55.814,0,0,1,64,8.25ZM16.136,92.544c2.491.192,5.021.3,7.564.3A106.368,106.368,0,0,0,80.577,75.878,108.586,108.586,0,0,0,114.92,41.344,55.4,55.4,0,0,1,119.75,64c0,1.262-.057,2.509-.14,3.75a129.925,129.925,0,0,1-28.6,24.593,127.728,127.728,0,0,1-55.729,19.422A56.148,56.148,0,0,1,16.136,92.544ZM64,119.75a55.405,55.405,0,0,1-23.278-5.112A131.93,131.93,0,0,0,92.888,95.3a133.714,133.714,0,0,0,25.983-21.5A55.829,55.829,0,0,1,64,119.75Z"/></svg>
