<svg id="Layer_1" height="512" viewBox="0 0 128 128" width="512" xmlns="http://www.w3.org/2000/svg" data-name="Layer 1"><path d="m122.339 62.464-11.583-6.333a1.75 1.75 0 0 0 -2.449 2.223l1.665 3.9h-8.195c-.671-12.754-8.589-19.023-16.277-25.071-1.012-.8-2.021-1.591-3.009-2.4-7.27-5.942-13.548-11.074-13.548-17.935a2.118 2.118 0 0 1 .919-1.907 5.131 5.131 0 0 1 3.592-.625 4.753 4.753 0 0 0 4.605-7.216 4.673 4.673 0 0 0 -3.382-2.2 14.229 14.229 0 0 0 -11.3 3.068 11.622 11.622 0 0 0 -3.939 8.884 23.27 23.27 0 0 0 .4 4.286l-30.715 41.112h-5.946l-3.465-5.515a1.751 1.751 0 0 0 -1.482-.818h-11.73a1.75 1.75 0 0 0 -1.482 2.683l3.4 5.4-3.4 5.4a1.75 1.75 0 0 0 1.482 2.683h11.73a1.751 1.751 0 0 0 1.482-.818l3.465-5.515h5.946l30.719 41.114a23.27 23.27 0 0 0 -.4 4.286 11.622 11.622 0 0 0 3.939 8.884 13.73 13.73 0 0 0 9.11 3.212 16.723 16.723 0 0 0 2.185-.144 4.673 4.673 0 0 0 3.382-2.2 4.753 4.753 0 0 0 -4.6-7.218 5.119 5.119 0 0 1 -3.6-.63 2.114 2.114 0 0 1 -.912-1.9c0-6.861 6.278-11.993 13.547-17.935.989-.807 2-1.6 3.01-2.4 7.688-6.048 15.606-12.312 16.277-25.067h8.195l-1.665 3.9a1.751 1.751 0 0 0 2.449 2.223l11.583-6.333a1.75 1.75 0 0 0 0-3.072zm-61.271-37.122c2.661 6.718 8.208 11.8 13.638 16.759 6.618 6.04 12.894 11.768 14.066 20.149h-55.28zm-43.8 43.241h-7.6l2.3-3.652a1.752 1.752 0 0 0 0-1.862l-2.301-3.652h7.6l2.876 4.583zm16.224-2.833h55.28c-1.172 8.381-7.448 14.109-14.066 20.15-5.43 4.955-10.977 10.041-13.638 16.759zm49.844 22.317c-1.029.809-2.055 1.617-3.06 2.438-7.959 6.505-14.833 12.124-14.833 20.645a5.584 5.584 0 0 0 2.382 4.753 8.514 8.514 0 0 0 6.092 1.248 1.207 1.207 0 0 1 1.278.828 1.264 1.264 0 0 1 -.118 1.089 1.18 1.18 0 0 1 -.857.564 10.76 10.76 0 0 1 -8.53-2.229 8.064 8.064 0 0 1 -2.747-6.253c0-9.777 6.86-16.038 14.122-22.666 7.3-6.664 14.854-13.556 15.376-24.4a1.569 1.569 0 0 0 0-.168c-.522-10.844-8.073-17.736-15.376-24.4-7.265-6.628-14.122-12.889-14.122-22.666a8.064 8.064 0 0 1 2.747-6.25 10.232 10.232 0 0 1 6.8-2.344 13.352 13.352 0 0 1 1.736.115 1.18 1.18 0 0 1 .856.564 1.264 1.264 0 0 1 .118 1.089 1.212 1.212 0 0 1 -1.28.828 8.53 8.53 0 0 0 -6.084 1.243 5.589 5.589 0 0 0 -2.388 4.758c0 8.521 6.874 14.14 14.833 20.645 1.005.82 2.031 1.628 3.06 2.437 7.712 6.068 15 11.8 15.006 24.042v.025s0 .016 0 .025c-.015 12.239-7.299 17.973-15.011 24.04zm30.176-21.694.72-1.685a1.747 1.747 0 0 0 0-1.375l-.72-1.686 4.34 2.373z"/></svg>