<svg id="Layer_1" height="512" viewBox="0 0 128 128" width="512" xmlns="http://www.w3.org/2000/svg" data-name="Layer 1"><path d="m116.353 11.647c-5.737-5.737-14.193-8.008-23.815-6.4-9.403 1.575-18.838 6.695-26.558 14.419s-12.844 17.155-14.418 26.559c-1.292 7.711-.082 14.672 3.4 20.086l-23.675 23.689a7.96 7.96 0 0 0 -6.8 2.237l-19.224 19.226a1.749 1.749 0 0 0 0 2.475l8.8 8.8a1.748 1.748 0 0 0 2.474 0l19.228-19.228a7.92 7.92 0 0 0 2.335-5.638 8.027 8.027 0 0 0 -.094-1.164l23.678-23.668a25.95 25.95 0 0 0 14.2 3.9 35.642 35.642 0 0 0 5.886-.5c9.4-1.574 18.835-6.694 26.558-14.417s12.845-17.156 14.419-26.559c1.616-9.622-.657-18.08-6.394-23.817zm-88.891 82.658a4.451 4.451 0 0 1 6.233 6.234zm-12.162 24.72-6.325-6.325 15.966-15.967 6.325 6.326zm21.273-25.832a8.13 8.13 0 0 0 -.808-.958 7.982 7.982 0 0 0 -.959-.806l22.294-22.307c.279.312.561.62.857.917s.623.561.935.84zm82.727-58.309c-1.455 8.69-6.229 17.449-13.441 24.662s-15.971 11.985-24.659 13.44c-7.326 1.228-13.828-.051-18.632-3.6a1.882 1.882 0 0 0 -.18-.127 18.75 18.75 0 0 1 -3.647-3.647 1.665 1.665 0 0 0 -.127-.179c-3.546-4.8-4.825-11.305-3.6-18.633 1.455-8.691 6.229-17.449 13.442-24.662s15.97-11.983 24.66-13.438a32.1 32.1 0 0 1 5.284-.455c6.236 0 11.614 2.017 15.474 5.877 4.919 4.915 6.845 12.288 5.426 20.762z"/><path d="m98.37 10.75a32.685 32.685 0 0 0 -10.97 2.033 1.515 1.515 0 0 0 -.146.056 45.323 45.323 0 0 0 -11.9 6.591c-.024.015-.045.034-.069.051a50.8 50.8 0 0 0 -5.06 4.427c-6.848 6.849-11.374 15.126-12.744 23.308-1.281 7.654.394 14.253 4.719 18.584 4.248 4.248 9.817 5.14 13.74 5.14a32.729 32.729 0 0 0 10.988-2.04c.041-.014.081-.029.121-.046a45.319 45.319 0 0 0 11.921-6.6c.015-.01.029-.022.045-.033a50.845 50.845 0 0 0 5.076-4.439 46.935 46.935 0 0 0 11.093-17.059c.01-.022.017-.045.026-.068a36.032 36.032 0 0 0 1.624-6.179c1.282-7.656-.4-14.254-4.724-18.582-4.248-4.252-9.817-5.144-13.74-5.144zm14.53 13.185-6.478 6.478-8.839-8.839 6.5-6.5a12.91 12.91 0 0 1 8.82 8.859zm.478 9.959q-.239 1.425-.619 2.855l-3.859-3.862 4.773-4.772a24.538 24.538 0 0 1 -.291 5.779zm-6.478 15.139-7.073-7.074 6.6-6.6 5.11 5.11a40.74 40.74 0 0 1 -4.637 8.564zm-20.118 16.182-5.1-5.1 6.6-6.6 7.064 7.063a41.343 41.343 0 0 1 -8.564 4.637zm-7.582-7.579-8.836-8.836 6.6-6.6 8.84 8.839zm-18.269-9.842c.159-.952.368-1.906.62-2.86l3.863 3.866-4.774 4.772a24.524 24.524 0 0 1 .291-5.778zm1.847-6.582a40.791 40.791 0 0 1 4.635-8.561l7.074 7.074-6.6 6.6zm16.658-1.487 6.6-6.605 8.839 8.839-6.6 6.6zm9.079-9.079 6.6-6.6 8.839 8.839-6.6 6.6zm-.981-14.176 5.1 5.1-6.6 6.6-7.063-7.063a41.353 41.353 0 0 1 8.563-4.637zm12.371-2.164-4.792 4.794-3.858-3.858a27.733 27.733 0 0 1 7.115-.991c.484-.001 1 .017 1.535.055zm-27.205 12.077c1.116-1.116 2.279-2.157 3.471-3.135l7.4 7.4-6.605 6.6-7.405-7.4q1.463-1.784 3.139-3.465zm-11.291 31.369 6.48-6.48 8.839 8.839-6.5 6.5a12.911 12.911 0 0 1 -8.82-8.858zm13 9.628 4.8-4.794 3.859 3.859a27.721 27.721 0 0 1 -7.119.992c-.49 0-1.006-.019-1.541-.057zm27.207-12.08c-1.115 1.114-2.277 2.155-3.468 3.133l-7.4-7.4 6.6-6.605 7.405 7.405c-.973 1.194-2.019 2.353-3.137 3.467z"/><path d="m101.769 95.172a1.747 1.747 0 0 0 -2.106 1.3l-1.074 4.528h-5.031v-4.125a1.75 1.75 0 0 0 -3.5 0v4.125h-5.032l-1.073-4.528a1.75 1.75 0 1 0 -3.406.806l1.313 5.535a1.742 1.742 0 0 0 .158.669l2.04 8.6v2.794a7.75 7.75 0 0 0 15.5 0v-2.794l2.039-8.6a1.724 1.724 0 0 0 .158-.669l1.313-5.535a1.751 1.751 0 0 0 -1.299-2.106zm-4.01 9.328-1.335 5.627h-2.866v-5.627zm-7.7 0v5.627h-2.868l-1.334-5.627zm6 10.375a4.25 4.25 0 0 1 -8.5 0v-1.248h8.5z"/></svg>