<svg id="Layer_1" height="512" viewBox="0 0 128 128" width="512" xmlns="http://www.w3.org/2000/svg" data-name="Layer 1"><path d="m121.5 56.25h-6.942v-8.4a7.759 7.759 0 0 0 -7.75-7.75h-4.346a7.755 7.755 0 0 0 -7.654-6.6h-6a1.749 1.749 0 0 0 -1.75 1.75v21h-46.116v-21a1.749 1.749 0 0 0 -1.75-1.75h-6a7.755 7.755 0 0 0 -7.654 6.6h-4.346a7.759 7.759 0 0 0 -7.75 7.75v8.4h-6.942a1.749 1.749 0 0 0 -1.75 1.75v12a1.749 1.749 0 0 0 1.75 1.75h6.942v8.4a7.759 7.759 0 0 0 7.75 7.75h4.346a7.755 7.755 0 0 0 7.654 6.6h6a1.749 1.749 0 0 0 1.75-1.75v-21h46.116v21a1.749 1.749 0 0 0 1.75 1.75h6a7.755 7.755 0 0 0 7.654-6.6h4.346a7.759 7.759 0 0 0 7.75-7.75v-8.4h6.942a1.749 1.749 0 0 0 1.75-1.75v-12a1.749 1.749 0 0 0 -1.75-1.75zm-113.25 12v-8.5h5.192v8.5zm8.692 11.9v-32.3a4.255 4.255 0 0 1 4.25-4.25h4.25v40.8h-4.25a4.255 4.255 0 0 1 -4.25-4.249zm16.25 10.85a4.255 4.255 0 0 1 -4.25-4.25v-45.5a4.255 4.255 0 0 1 4.25-4.25h4.25v20.981.019.019 11.962.019.019 20.981zm7.75-22.75v-8.5h46.116v8.5zm58.116 18.5a4.255 4.255 0 0 1 -4.25 4.25h-4.25v-20.981-.019-.019-11.962-.019-.019-20.981h4.25a4.255 4.255 0 0 1 4.25 4.25zm12-6.6a4.255 4.255 0 0 1 -4.25 4.25h-4.25v-40.8h4.25a4.255 4.255 0 0 1 4.25 4.25zm8.692-11.9h-5.192v-8.5h5.192z"/></svg>