<svg id="Layer_1" height="512" viewBox="0 0 128 128" width="512" xmlns="http://www.w3.org/2000/svg" data-name="Layer 1"><path d="m118.876 9.123a14.935 14.935 0 0 0 -21.667.587l-5.662 6.39-.01.008c-.012.013-.02.027-.032.04l-37.481 42.325-24.194 29.601-16.23 16.231-.758-.757a4.74 4.74 0 0 0 -6.7 6.7l11.61 11.609a4.74 4.74 0 1 0 6.7-6.7l-.758-.757 16.285-16.275 29.6-24.194 48.759-43.175c.194-.183.4-.376.537-.527a14.923 14.923 0 0 0 0-21.106zm-96.9 110.264a1.269 1.269 0 0 1 -1.754 0l-11.608-11.61a1.241 1.241 0 0 1 .876-2.118 1.228 1.228 0 0 1 .877.364l1.993 1.992 7.615 7.616 1.992 1.993a1.241 1.241 0 0 1 .01 1.763zm-5.9-12.607 15.776-15.78 5.148 5.152-15.78 15.774zm51.236-35.515-27.649 22.6-5.527-5.528 22.553-27.6 36.167-40.837 15.244 15.248zm49.05-43.471c-.132.141-.283.281-.392.386l-5.245 4.644-15.545-15.544 4.64-5.239a11.426 11.426 0 1 1 16.542 15.753z"/><path d="m98.884 37.633a1.75 1.75 0 0 0 -2.471-.151l-18.758 16.609a1.75 1.75 0 0 0 2.32 2.621l18.759-16.612a1.751 1.751 0 0 0 .15-2.467z"/></svg>