<?xml version="1.0" encoding="UTF-8"?>
<svg xmlns="http://www.w3.org/2000/svg" id="Outline" viewBox="0 0 512 512" width="512" height="512"><path d="M56,472a24.028,24.028,0,0,0,24,24H432a24.028,24.028,0,0,0,24-24V416a39.855,39.855,0,0,0-11.2-27.715A24,24,0,0,0,456,368V208a40.045,40.045,0,0,0-40-40H392V88a72.081,72.081,0,0,0-72-72H192a72.081,72.081,0,0,0-72,72v80H96a40.045,40.045,0,0,0-40,40V368a24,24,0,0,0,11.2,20.285A39.855,39.855,0,0,0,56,416Zm64,8H80a8.009,8.009,0,0,1-8-8V416a24.039,24.039,0,0,1,16-22.624V424a8,8,0,0,0,16,0V392h16ZM80,376a8.009,8.009,0,0,1-8-8V248h48V376H80Zm56-235.056,32,16V184a8,8,0,0,0,8,8h32a8,8,0,0,0,8-8V155.576c5.447-4.345,13.409-7.665,23.274-9.672a95.694,95.694,0,0,1,16.715-1.9,95.638,95.638,0,0,1,16.737,1.9c9.865,2.007,17.827,5.327,23.274,9.672V184a8,8,0,0,0,8,8h32a8,8,0,0,0,8-8V156.944l32-16V208H136V140.944ZM184,160h16v16H184Zm128,0h16v16H312ZM432,376H392V248h48V368A8.009,8.009,0,0,1,432,376ZM136,224H376v16H136Zm0,32H320v24a8,8,0,0,0,16,0V256h40v48H136Zm184,80H304V320h16Zm-112,0H192V320h16Zm-72,48V320h40v54.879A166.7,166.7,0,0,0,136,397.8Zm56-32h16v16H192Zm32-32h64v42.166a237.463,237.463,0,0,0-64,0Zm80,32h16v16H304Zm32-32h40v77.8a166.7,166.7,0,0,0-40-22.918ZM136,480V419.143c4.607-4.681,17.783-16.718,40-26.842V480Zm56,0V384h16v96Zm32,0V378.337a220.253,220.253,0,0,1,64,0V480Zm80,0V384h16v96Zm32-87.7c22.233,10.131,35.409,22.176,40,26.84V480H336ZM440,472a8.009,8.009,0,0,1-8,8H392V392h16v32a8,8,0,0,0,16,0V393.376A24.039,24.039,0,0,1,440,416Zm0-264v24H392V184h24A24.028,24.028,0,0,1,440,208ZM136,88a56.064,56.064,0,0,1,56-56H320a56.064,56.064,0,0,1,56,56v35.056L334.111,144h-27c-18.6-15.81-49.737-16-51.114-16s-32.518.19-51.114,16h-27L136,123.056ZM96,184h24v48H72V208A24.028,24.028,0,0,1,96,184Z"/></svg>
