<?xml version="1.0" encoding="UTF-8"?>
<svg xmlns="http://www.w3.org/2000/svg" id="Outline" viewBox="0 0 512 512" width="512" height="512"><path d="M495.249,252.617l-44.933-96.284-.125.059A40.177,40.177,0,0,0,410.37,120H343.11c-3.007-4.293-5.823-8.445-8.43-12.4A8,8,0,0,0,328,104H264a8,8,0,0,0-7.311,11.249c.133.3.882,1.962,2.261,4.751H101.63a40.175,40.175,0,0,0-39.875,36.93l-.5,6.53L22.118,240.13c-.082.159-.157.321-.227.485a24,24,0,0,0,8.746,29.424l21.678,14.452-1.794,24.6A39.9,39.9,0,0,0,72,347.481V368a40.045,40.045,0,0,0,40,40H400a40.045,40.045,0,0,0,40-40V347.481a39.835,39.835,0,0,0,21.255-30.463q11.516,5.481,23.774,10.41A8,8,0,0,0,496,320V256a7.925,7.925,0,0,0-.772-3.373ZM435.05,168l1.231,16h-39.71c-5.322-5.284-10.419-10.637-15.282-16Zm2.432,32,1.466,20.1C430.12,213.77,421.7,207.016,413.7,200Zm18.327,31.332-2.2-30.1,18.258,39.123C467.23,238,461.829,235.022,455.809,231.332ZM410.37,136a24.128,24.128,0,0,1,22.605,16H367.45c-4.472-5.412-8.7-10.766-12.67-16Zm-308.74,0h165.9c2.692,4.709,5.9,10.077,9.655,16H79.024A24.128,24.128,0,0,1,101.63,136ZM75.719,184l1.231-16H287.837c3.56,5.108,7.441,10.458,11.661,16ZM39.512,256.726a8,8,0,0,1-3-9.6l21.617-42.351-4.476,61.379ZM424,368a24.028,24.028,0,0,1-24,24H112a24.028,24.028,0,0,1-24-24V351.918c.8.05,1.61.082,2.42.082H120a24.027,24.027,0,0,0,24,24h16a24.027,24.027,0,0,0,24-24H328a24.027,24.027,0,0,0,24,24h16a24.027,24.027,0,0,0,24-24h29.58c.81,0,1.616-.032,2.42-.082ZM136,352V328h32v24a8.009,8.009,0,0,1-8,8H144A8.009,8.009,0,0,1,136,352Zm208,0V328h32v24a8.009,8.009,0,0,1-8,8H352A8.009,8.009,0,0,1,344,352Zm101.521-41.75A24.009,24.009,0,0,1,421.58,336H392V320a8,8,0,0,0-8-8H336a8,8,0,0,0-8,8v16H184V320a8,8,0,0,0-8-8H128a8,8,0,0,0-8,8v16H90.42a24.008,24.008,0,0,1-23.941-25.748L74.518,200H128v24a8,8,0,0,0,16,0V200H312.236c28.047,33.7,71.989,76.626,133.2,109.057ZM480,307.989c-74.918-32.649-126.732-83.165-157.463-120.634A427.314,427.314,0,0,1,276.986,120h46.725c40.766,60.847,81.851,96.376,109.365,115.562,21.755,15.17,38.592,22.8,46.924,26.066Z"/></svg>
