<svg id="Outline" height="512" viewBox="0 0 512 512" width="512" xmlns="http://www.w3.org/2000/svg"><path d="m440 128h-88v-40a72.083 72.083 0 0 0 -72-72h-48a72.083 72.083 0 0 0 -72 72v40h-88a8 8 0 0 0 -8 8v320a40.04 40.04 0 0 0 40 40h304a40.04 40.04 0 0 0 40-40v-320a8 8 0 0 0 -8-8zm-120 112v-32h16v32zm16 16v176h-16v-176zm-24-64v-16h32v16zm-136-104a56.062 56.062 0 0 1 56-56h48a56.062 56.062 0 0 1 56 56v72h-16v-72a40.04 40.04 0 0 0 -40-40h-48a40.04 40.04 0 0 0 -40 40v72h-16zm128 120v224h-96v-224a8 8 0 0 0 8-8v-32a8 8 0 0 0 -8-8v-16h96v16a8 8 0 0 0 -8 8v32a8 8 0 0 0 8 8zm-96-80v-40a24.032 24.032 0 0 1 24-24h48a24.032 24.032 0 0 1 24 24v40zm-40 48h32v16h-32zm8 64v-32h16v32zm16 16v176h-16v-176zm-112-112h80v16a8 8 0 0 0 -8 8v32a8 8 0 0 0 8 8v224h-80zm352 312a24.032 24.032 0 0 1 -24 24h-304a24.032 24.032 0 0 1 -24-24v-8h352zm0-24h-80v-224a8 8 0 0 0 8-8v-32a8 8 0 0 0 -8-8v-16h80z"/></svg>