<?xml version="1.0" encoding="UTF-8"?>
<svg xmlns="http://www.w3.org/2000/svg" id="Outline" viewBox="0 0 512 512" width="512" height="512"><path d="M40,480H472a24.028,24.028,0,0,0,24-24V136a40.045,40.045,0,0,0-40-40H384V88a56.063,56.063,0,0,0-56-56H184a56.063,56.063,0,0,0-56,56v8H56a40.045,40.045,0,0,0-40,40V456A24.028,24.028,0,0,0,40,480Zm432-16H40a8.009,8.009,0,0,1-8-8V327.978A39.841,39.841,0,0,0,48,335.2V440a8,8,0,0,0,8,8H456a8,8,0,0,0,8-8V335.2a39.841,39.841,0,0,0,16-7.217V456A8.009,8.009,0,0,1,472,464ZM216,352h8v24a24.027,24.027,0,0,0,24,24h16a24.027,24.027,0,0,0,24-24V352h8a8,8,0,0,0,8-8v-8H448v96H64V336H208v8A8,8,0,0,0,216,352Zm16.685-77.371L256,251.313l23.315,23.316L273.441,304H238.559ZM240,352h32v24a8.009,8.009,0,0,1-8,8H248a8.009,8.009,0,0,1-8-8Zm-16-16V320h64v16ZM144,88a40.045,40.045,0,0,1,40-40H328a40.045,40.045,0,0,1,40,40v8H352V88a24.028,24.028,0,0,0-24-24H184a24.028,24.028,0,0,0-24,24v8H144Zm192,8H176V88a8.009,8.009,0,0,1,8-8H328a8.009,8.009,0,0,1,8,8ZM32,136a24.028,24.028,0,0,1,24-24H456a24.028,24.028,0,0,1,24,24V296a24.028,24.028,0,0,1-24,24H304v-8a8,8,0,0,0-8-8h-6.241l6.086-30.431a8,8,0,0,0-2.188-7.226l-32-32a8,8,0,0,0-11.314,0l-32,32a8,8,0,0,0-2.188,7.226L222.242,304H216a8,8,0,0,0-8,8v8H56a24.028,24.028,0,0,1-24-24Z"/></svg>
