<?xml version="1.0" encoding="UTF-8"?>
<svg xmlns="http://www.w3.org/2000/svg" id="Outline" viewBox="0 0 512 512" width="512" height="512"><path d="M152,496H360a8,8,0,0,0,8-8V360h56a8,8,0,0,0,8-8V160c0-44.295-21.037-72.292-38.685-87.979A127.209,127.209,0,0,0,356.925,49.3c-8.793-10.97-22.221-21.537-40.955-32.244A7.989,7.989,0,0,0,312,16H200a7.989,7.989,0,0,0-3.97,1.055C177.3,27.762,163.868,38.329,155.075,49.3a127.209,127.209,0,0,0-36.39,22.722C101.037,87.708,80,115.705,80,160V352a8,8,0,0,0,8,8h56V488A8,8,0,0,0,152,496Zm8-208H272v16H160Zm80.639,32h17.222L241.7,406.18l-16.45-4.114ZM160,320h64.361l-16.224,86.525a8,8,0,0,0,5.923,9.236l32,8a8,8,0,0,0,9.8-6.286L272,331.409V392a8,8,0,0,0,8,8h8v80H160Zm136-48a8.009,8.009,0,0,1,8,8V384H288V280A8.009,8.009,0,0,1,296,272Zm56,208H304V400h8a8,8,0,0,0,8-8V320h32ZM320,288h32v16H320Zm48,56V328h48v16Zm48-184V312H368V184a8,8,0,0,0-16,0v88H318.624A24.119,24.119,0,0,0,304,257.376V185.263a39.946,39.946,0,0,0-6.184-21.365l-7.2-11.4,64.115-86.74a114.038,114.038,0,0,1,28.4,18.622C404.943,103.986,416,129.428,416,160ZM341.84,56.287l-60.389,81.7-15.989-25.317,49.145-77.816C326.317,42.067,335.437,49.246,341.84,56.287ZM214.514,32h82.972L256,97.688Zm-17.121,2.853,86.9,137.59A23.966,23.966,0,0,1,288,185.263v30.455L170.16,56.286C176.563,49.246,185.683,42.067,197.393,34.853Zm-68.53,49.53a114.065,114.065,0,0,1,28.4-18.622L288,242.636v14.74A24.119,24.119,0,0,0,273.376,272H160V184a8,8,0,0,0-16,0V312H96V160C96,129.428,107.057,103.986,128.863,84.383ZM96,344V328h48v16Z"/></svg>
