<?xml version="1.0" encoding="UTF-8"?>
<svg xmlns="http://www.w3.org/2000/svg" id="Outline" viewBox="0 0 512 512" width="512" height="512"><path d="M440,256a24,24,0,1,0,24,24A24.027,24.027,0,0,0,440,256Zm0,32a8,8,0,1,1,8-8A8.009,8.009,0,0,1,440,288Z"/><path d="M448,96H64c-26.467,0-48,25.122-48,56V312a68,68,0,0,0,6.845,27.578C29.328,352.544,43.118,368,72,368H88v-.08A119.891,119.891,0,0,0,184,416h96a56.078,56.078,0,0,0,55.419-48H352v8a8,8,0,0,0,8,8h32a8,8,0,0,0,8-8v-8h40c28.882,0,42.672-15.456,49.155-28.422A68,68,0,0,0,496,312V152C496,121.122,474.467,96,448,96ZM72,352c-16.437,0-28.085-6.439-34.622-19.139A52.242,52.242,0,0,1,32,312V193.7C40.5,202.582,51.716,208,64,208H77.9A119.248,119.248,0,0,0,64,264v32a119.248,119.248,0,0,0,13.9,56Zm208,48H184A104.118,104.118,0,0,1,80,296V264A104.118,104.118,0,0,1,184,160h96A40.067,40.067,0,0,1,319.2,192H184a72.091,72.091,0,0,0-71.675,65.266,23.992,23.992,0,0,0,0,45.468A72.091,72.091,0,0,0,184,368H319.2A40.071,40.071,0,0,1,280,400ZM120,288a8,8,0,0,1,0-16h32a8,8,0,0,1,0,16Zm208,64H184a56.078,56.078,0,0,1-55.419-48H152a24,24,0,0,0,0-48H128.581A56.078,56.078,0,0,1,184,208H352V352Zm56,16H368V192h16Zm96-56.029a52.227,52.227,0,0,1-5.378,20.89C468.085,345.561,456.437,352,440,352H400V208h48c12.284,0,23.5-5.418,32-14.305ZM448,192H400v-8a8,8,0,0,0-8-8H360a8,8,0,0,0-8,8v8H335.419A56.078,56.078,0,0,0,280,144H184a119.891,119.891,0,0,0-96,48.08V192H64c-17.645,0-32-17.944-32-40s14.355-40,32-40H448c17.645,0,32,17.944,32,40S465.645,192,448,192Z"/><circle cx="232" cy="280" r="8"/><circle cx="296" cy="280" r="8"/></svg>
