<?xml version="1.0" encoding="UTF-8"?>
<svg xmlns="http://www.w3.org/2000/svg" id="Outline" viewBox="0 0 512 512" width="512" height="512"><path d="M442.53,280.41c-18.383-6.127-34.3-3.9-49.687-1.75-24.558,3.435-49.951,6.986-92.405-21.316C232.863,212.294,232,73.4,232,72a8,8,0,0,0-8-8H48a8,8,0,0,0-8,8V230.111L20.223,269.665A40.2,40.2,0,0,0,16,287.554V440a8,8,0,0,0,8,8H168a8,8,0,0,0,8-8V416.6a285.371,285.371,0,0,1,38.059,7.164c15.817,3.956,29,7.565,40.621,10.749C284.338,442.634,303.932,448,328,448c39.641,0,119.312-25.643,151.727-36.667A24,24,0,0,0,496,388.61V368a127.455,127.455,0,0,0-6.411-36.53C480.912,305.437,464.639,287.78,442.53,280.41Zm-167.2-23.049-16.982,16.982a8,8,0,0,0,11.314,11.314L287.515,267.8c1.334.983,2.679,1.944,4.047,2.856,47.518,31.678,77.257,27.518,103.5,23.851,14.8-2.072,27.587-3.86,42.411,1.083,34.216,11.405,40.91,52.144,42.216,66.976C457.732,370.643,374.714,400,328,400c-24.486,0-49.889-6.612-76.783-13.613-30.9-8.043-65.65-17.086-106.39-18.257l3.305-33.055A71.85,71.85,0,0,0,116.428,268L56,227.719V144H223.617q.734,3.8,1.561,7.676c.6,2.821,1.24,5.587,1.891,8.324H208a8,8,0,0,0,0,16h23.288a260.731,260.731,0,0,0,11.64,32.359l-21.737,8.15a8,8,0,1,0,5.618,14.982l23.176-8.689A145.062,145.062,0,0,0,275.325,257.361ZM216.19,80c.156,4.052.44,9.5.955,16H192a8,8,0,0,0,0,16h26.705c.581,5.028,1.288,10.389,2.146,16H56V80ZM32,287.554a24.117,24.117,0,0,1,2.534-10.733L51.1,243.683l56.45,37.633a55.885,55.885,0,0,1,24.658,52.167L128.76,368H32ZM474.574,396.185C449.872,404.587,366.3,432,328,432c-21.917,0-39.674-4.863-69.094-12.922-11.706-3.206-24.975-6.84-40.966-10.839C185.359,400.094,168.693,400,168,400a8,8,0,0,0-8,8v24H128V408a8,8,0,0,0-16,0v24H80V408a8,8,0,0,0-16,0v24H32V384H136c42.533,0,79.007,9.494,111.187,17.871C275.1,409.137,301.466,416,328,416c46.66,0,123.575-26.2,152-36.5v9.109A8,8,0,0,1,474.574,396.185Z"/></svg>
