<?xml version="1.0" encoding="UTF-8"?>
<svg xmlns="http://www.w3.org/2000/svg" id="Outline" viewBox="0 0 512 512" width="512" height="512"><path d="M488,232H423.057c-3.42-43.943-15.052-73.529-15.629-74.971A8,8,0,0,0,400,152c-52.329,0-84.165,20.852-101.657,38.343A117.725,117.725,0,0,0,274.643,224H237.357a117.725,117.725,0,0,0-23.7-33.657C196.165,172.852,164.329,152,112,152a8,8,0,0,0-7.428,5.029C104,158.471,92.363,188.057,88.943,232H24a8,8,0,0,0-8,8v32a8,8,0,0,0,8,8H88.943c3.42,43.943,15.052,73.529,15.629,74.971A8,8,0,0,0,112,360c52.329,0,84.165-20.852,101.657-38.343A117.725,117.725,0,0,0,237.357,288h37.286a117.725,117.725,0,0,0,23.7,33.657C315.835,339.148,347.671,360,400,360a8,8,0,0,0,7.428-5.029c.577-1.442,12.209-31.028,15.629-74.971H488a8,8,0,0,0,8-8V240A8,8,0,0,0,488,232ZM32,264V248H88.115c-.068,2.632-.115,5.291-.115,8s.047,5.368.115,8Zm169.8,46.887c-21.162,20.857-49.462,31.955-84.178,33.027C113.539,331.637,104,298.383,104,256s9.541-75.642,13.617-87.914c34.717,1.072,63.017,12.17,84.179,33.027A99.6,99.6,0,0,1,224,233.451v10.294c-6.94-3.029-16.319-7.086-25.9-11.118C158.615,216,154.475,216,152,216a24,24,0,0,0,0,48h58.131c-2.332,1.738-4.864,3.541-7.569,5.344C189.8,277.854,170.661,288,152,288a8,8,0,0,0,0,16c28.433,0,56.1-17.9,72-30.443v4.99A99.6,99.6,0,0,1,201.8,310.887ZM193.409,248H152a8,8,0,0,1-.241-16C155.876,232.658,172.952,239.378,193.409,248ZM240,272V240h32v32Zm154.383,71.914c-34.717-1.072-63.017-12.17-84.179-33.027a99.6,99.6,0,0,1-22.2-32.34v-4.99C303.9,286.1,331.567,304,360,304a8,8,0,0,0,0-16c-21.533,0-43.651-13.223-58.1-24H360a24,24,0,0,0,0-48c-2.475,0-6.615,0-46.1,16.627-9.577,4.032-18.956,8.089-25.9,11.118V233.453a99.6,99.6,0,0,1,22.2-32.34c21.162-20.857,49.462-31.955,84.178-33.027C398.461,180.363,408,213.617,408,256S398.459,331.642,394.383,343.914ZM318.591,248c20.457-8.622,37.533-15.342,41.65-16A8,8,0,0,1,360,248ZM480,264H423.885c.068-2.632.115-5.291.115-8s-.047-5.368-.115-8H480Z"/></svg>
