<svg id="Outline" height="512" viewBox="0 0 512 512" width="512" xmlns="http://www.w3.org/2000/svg"><path d="m437.961 167.835c-34.106-11.461-81.516-19.435-133.5-22.451a853.293 853.293 0 0 0 -96.927 0c-51.982 3.017-99.392 10.991-133.5 22.452-38.507 12.942-58.034 29.146-58.034 48.164v80c0 17.186 16.1 32.151 47.837 44.479 28.009 10.877 66.515 19.031 111.363 23.581a807.8 807.8 0 0 0 80.8 3.94 807.648 807.648 0 0 0 80.808-3.941c44.84-4.549 83.346-12.7 111.354-23.58 31.743-12.328 47.838-27.293 47.838-44.479v-80c0-19.018-19.527-35.222-58.039-48.165zm-102.761 100.306a791.18 791.18 0 0 1 -79.2 3.859 791.125 791.125 0 0 1 -79.193-3.859c-27.107-2.748-51.957-6.878-73.307-12.141 29.6-7.283 65.834-12.379 104.964-14.648a837.608 837.608 0 0 1 95.073 0c39.128 2.273 75.363 7.369 104.963 14.648-21.351 5.263-46.195 9.393-73.3 12.141zm-71.2-44.141v-63.937c10.767.1 21.477.406 32 .914v63.98c-26.277-1.244-53.724-1.244-80 0v-63.98c10.523-.507 21.233-.812 32-.913v63.936zm-184.864-41c30.957-10.4 73.618-17.832 120.864-21.1v63.964c-48.617 3.294-92.655 10.919-125.075 21.68-26.936-9.644-42.925-21.356-42.925-31.544 0-10.744 17.621-23.079 47.136-33zm-47.136 113v-52.5q14.034 11.022 40.266 20.067c25.473 8.77 58.45 15.557 95.734 19.727v63.9c-39.635-4.534-73.507-11.969-98.37-21.625-23.563-9.156-37.63-20.208-37.63-29.569zm152 52.819v-63.929c23.206 2.061 47.378 3.11 72 3.11s48.794-1.049 72-3.111v63.93c-23.177 2.1-47.353 3.181-72 3.181s-48.825-1.077-72-3.181zm296-52.819c0 9.361-14.067 20.413-37.63 29.564-24.864 9.656-58.737 17.091-98.37 21.625v-63.9c37.282-4.17 70.26-10.957 95.734-19.727q26.2-9.023 40.266-20.067zm-42.926-48.46c-32.42-10.76-76.458-18.385-125.074-21.679v-63.961c47.246 3.27 89.907 10.7 120.864 21.1 29.515 9.921 47.136 22.256 47.136 33 0 10.188-15.989 21.9-42.926 31.54z"/></svg>