<?xml version="1.0" encoding="UTF-8"?>
<svg xmlns="http://www.w3.org/2000/svg" id="Outline" viewBox="0 0 512 512" width="512" height="512"><path d="M430.656,107.562a8,8,0,0,0-1.744-1.877c-.765-.594-19.062-14.717-49.529-28.935A311.612,311.612,0,0,0,296,51.118V40a24.028,24.028,0,0,0-24-24H240a24.028,24.028,0,0,0-24,24V51.118A311.612,311.612,0,0,0,132.617,76.75c-30.467,14.218-48.764,28.341-49.529,28.935a8,8,0,0,0-1.744,1.877C47.6,158.181,31.638,208.753,24.19,242.265,16.093,278.7,16,302.984,16,304a8,8,0,0,0,5.191,7.491l58.088,21.783L64.062,455.008a8.057,8.057,0,0,0-.056.992H64v16a24.027,24.027,0,0,0,24,24h14.874a39.918,39.918,0,0,0,20.463-5.631C187.387,452.128,237.449,448,256,448s68.613,4.128,132.662,42.369A39.924,39.924,0,0,0,409.126,496H424a24.027,24.027,0,0,0,24-24V456h-.006a8.057,8.057,0,0,0-.056-.992L432.721,333.274l58.088-21.783A8,8,0,0,0,496,304c0-1.016-.093-25.3-8.19-61.735C480.362,208.753,464.4,158.181,430.656,107.562ZM256,296c87.469,0,146.532,29.253,160.557,36.953L430.938,448H417.8a23.937,23.937,0,0,1-12.915-3.772C384.092,430.93,327.958,400,256,400s-128.092,30.93-148.886,44.228A23.938,23.938,0,0,1,94.2,448H81.062L95.443,332.953C109.468,325.253,168.531,296,256,296Zm0-16c-74.584,0-128.694,19.911-154.791,32.074l47.514-156.117a23.893,23.893,0,0,1,8.132-11.884L256,66.174l99.145,77.9a23.893,23.893,0,0,1,8.132,11.884l47.514,156.117C384.694,299.911,330.584,280,256,280ZM232,40a8.009,8.009,0,0,1,8-8h32a8.009,8.009,0,0,1,8,8v9.136C272.2,48.406,264.19,48,256,48s-16.2.406-24,1.136ZM93.9,117.578c8.011-5.877,63.434-44.718,137.335-52.293l-84.263,66.207A39.8,39.8,0,0,0,133.417,151.3L82.828,317.517l-50.62-18.983C33.4,277.221,41.326,197.085,93.9,117.578ZM424,480H409.126a23.915,23.915,0,0,1-12.261-3.369C374.389,463.212,315.669,432,256,432s-118.389,31.212-140.865,44.631A23.915,23.915,0,0,1,102.874,480H88a8.009,8.009,0,0,1-8-8v-8H94.2a39.9,39.9,0,0,0,21.536-6.293C135.343,445.167,188.265,416,256,416s120.657,29.167,140.266,41.707A39.9,39.9,0,0,0,417.8,464H432v8A8.009,8.009,0,0,1,424,480Zm5.172-162.483L378.583,151.3a39.8,39.8,0,0,0-13.554-19.806L280.766,65.285c73.917,7.576,129.346,46.432,137.335,52.293,52.577,79.512,60.5,159.654,61.691,180.956Z"/></svg>
