<?xml version="1.0" encoding="UTF-8"?>
<svg xmlns="http://www.w3.org/2000/svg" id="Outline" viewBox="0 0 512 512" width="512" height="512"><path d="M72,147.156V408a8,8,0,0,0,8,8h58.667l-2.661,71.7A8,8,0,0,0,144,496H368a8,8,0,0,0,7.994-8.3L373.333,416H432a8,8,0,0,0,8-8V147.156a56.288,56.288,0,0,0-26.843-47.811L300.706,17.531A8,8,0,0,0,296,16H216a8,8,0,0,0-4.706,1.531L98.843,99.345A56.288,56.288,0,0,0,72,147.156ZM156.454,368H184v16H155.863Zm-1.49,40.3h0l.307-8.3H192a8,8,0,0,0,8-8V360a8,8,0,0,0-8-8H157.046l2.793-75.513a39.948,39.948,0,0,0-.967-10.348L121.68,102.516l33.414-24.31,4.986,34.925A8,8,0,0,0,168,120h12.687l-10.344,10.343a8,8,0,0,0-.59,10.655L232,218.807V480H152.3l2.661-71.7ZM306.343,117.657l18.937,18.937L248,233.193V217.51L314.559,47.4l27.7,20.157L337.062,104H312a8,8,0,0,0-5.657,13.657ZM256,153.152,221.119,64h69.762Zm-8.59,21.956-9.813,25.08L186.72,136.594l18.937-18.937A8,8,0,0,0,200,104H174.938l-5.2-36.447L197.441,47.4ZM248,480V258.807L342.247,141a8,8,0,0,0-.59-10.655L331.313,120H344a8,8,0,0,0,7.92-6.869l4.986-34.925,33.414,24.31L353.127,266.141a39.96,39.96,0,0,0-.966,10.344L354.954,352H320a8,8,0,0,0-8,8v32a8,8,0,0,0,8,8h36.729l.307,8.3h0L359.7,480Zm108.138-96H328V368h27.546ZM424,147.156V400H372.74l-4.591-124.108a24.082,24.082,0,0,1,.58-6.206L404.4,112.738c.066.043.131.091.2.132A40.207,40.207,0,0,1,424,147.156ZM218.6,32H293.4l7.788,5.666L297.141,48H214.859l-4.044-10.334ZM107.4,112.87c.068-.041.132-.089.2-.132L143.27,269.684a24.069,24.069,0,0,1,.581,6.21L139.26,400H88V147.156A40.207,40.207,0,0,1,107.4,112.87Z"/><path d="M272.02,264h-.01a8.005,8.005,0,1,0,.01,0Z"/><path d="M272.02,328h-.01a8.005,8.005,0,1,0,.01,0Z"/><path d="M272.02,392h-.01a8.005,8.005,0,1,0,.01,0Z"/></svg>
