<svg id="Outline" height="512" viewBox="0 0 512 512" width="512" xmlns="http://www.w3.org/2000/svg"><path d="m476.76 235.771c-9.9-9.64-23.075-17.349-38.3-22.46-2.156-38.665-6.084-68.1-11.68-87.493-1.641-5.687-7.874-25.089-19.166-35.993-23.148-22.352-53.028-21.055-96.59 4.327-47.411-14.94-84-11.854-106.549-6.525-26.708 6.313-48.814 19.325-59.136 34.807-11.339 17.024-20.273 52.425-26.557 105.228a274.042 274.042 0 0 0 -47.93 32.073c-35.885 30.165-54.852 64.45-54.852 99.136 0 18.874 7.465 34.706 22.187 47.057 20.73 17.393 55.471 27.381 103.257 29.687q10.491.507 21.73.506c37.308 0 80.45-4.166 126.216-12.243 65-11.47 118.375-31.526 154.351-58 34.188-25.155 52.259-55.242 52.259-87.007 0-15.939-6.653-30.843-19.24-43.1zm-52.76 28.218c0 .109-.509 11.113-43.2 28.662-6.53 2.684-13.522 5.287-20.8 7.771v-36.382a413.784 413.784 0 0 0 63.4-29.49c.59 17.044.6 29.285.6 29.439zm-294.329 20.143a346.72 346.72 0 0 0 76.933 8.225 405.743 405.743 0 0 0 66.712-5.6c7.628-1.273 15.219-2.731 22.684-4.331v34.874c-3.129.595-6.242 1.163-9.315 1.675a556.643 556.643 0 0 1 -87.544 7.326c-31.862-.095-56.259-3.9-71.057-11.035.185-6.517.681-17.552 1.587-31.134zm182.329-5.393c10.814-2.687 21.52-5.759 32-9.168v35.965c-10.457 3.136-21.252 5.984-32 8.428zm-153.344-147.43c6.278-9.417 22.579-21.747 49.5-28.111 18.217-4.307 46.6-6.96 83.359 2.093-65.962 35.239-105.587 29.781-106.241 29.683a8 8 0 0 0 -2.593 15.788 66.4 66.4 0 0 0 10.148.619c18.643 0 61.981-4.87 123.279-41.648 54.944-32.968 72.129-16.371 80.388-8.4 6.713 6.483 12.226 19.631 14.907 28.92 5.276 18.281 9.142 47.945 11.181 85.786l.021.4a396.162 396.162 0 0 1 -73.276 34.433 451.8 451.8 0 0 1 -47.178 13.778c-10.234 2.42-20.825 4.548-31.474 6.325-65.412 10.9-115.56 2.84-139.822-3 3.845-47.604 12.083-113.082 27.801-136.666zm275.6 221.683c-34 25.021-85.061 44.085-147.649 55.13-114.287 20.17-203.307 14.767-238.136-14.451-11.083-9.298-16.471-20.682-16.471-34.8 0-55.4 57.009-95.5 84.661-111.693-3.472 35.183-4.661 65.34-4.661 72.822a8 8 0 0 0 3.884 6.86c19.21 11.526 51.528 15.392 84.806 15.392a569.875 569.875 0 0 0 88.625-7.49c32.788-5.465 69.264-15.675 97.573-27.313 35.719-14.684 53.092-28.893 53.112-43.449 0-.176-.011-14.291-.731-33.387 29.816 11.846 40.731 32.174 40.731 48.258 0 26.471-15.817 52.102-45.741 74.121z"/></svg>