<?xml version="1.0" encoding="UTF-8"?>
<svg xmlns="http://www.w3.org/2000/svg" id="Outline" viewBox="0 0 512 512" width="512" height="512"><path d="M24,152V488a8,8,0,0,0,8,8H480a8,8,0,0,0,8-8V272h-.475a8,8,0,0,0-1.628-8.1L456,231.283V88a31.989,31.989,0,0,0-48-27.7V48a32,32,0,0,0-64,0V60.3A32,32,0,0,0,296,88v36.3A32,32,0,0,0,248,152v96.738l-16-17.455V88a31.989,31.989,0,0,0-48-27.7V48a32,32,0,0,0-64,0V60.3A32,32,0,0,0,72,88v36.3A32,32,0,0,0,24,152ZM190.951,325.35A7.939,7.939,0,0,0,192,326.84V432H88V320c0-17.346,25.645-32,56-32a86.042,86.042,0,0,1,29.719,5.037ZM248,480H168V448h80Zm-96-32v32H120V448Zm112,0h64v32H264ZM414.951,325.35A7.939,7.939,0,0,0,416,326.84V432H312V320c0-17.346,25.645-32,56-32a86.042,86.042,0,0,1,29.719,5.037ZM472,432H432V326.809a91.261,91.261,0,0,0,40-27.586Zm-96,16v32H344V448Zm96,32H392V448h80ZM425.959,311.989l-16.388-30.73.235-.5c-.217-.1-.441-.2-.66-.3l-33.72-63.231a15.912,15.912,0,0,1,2.805-18.842l1.7-1.7a15.849,15.849,0,0,1,11.3-4.687c.12,0,.24,0,.359,0a15.864,15.864,0,0,1,11.448,5.184l67.646,73.8C461.94,290.938,446.929,304.7,425.959,311.989ZM424,72a16.019,16.019,0,0,1,16,16V213.829l-25.165-27.453A32.191,32.191,0,0,0,408,180.724V88A16.019,16.019,0,0,1,424,72ZM360,48a16,16,0,0,1,32,0V176.01c-.02,0-.039,0-.059,0a31.835,31.835,0,0,0-23.323,9.366l-1.7,1.7A32.158,32.158,0,0,0,360,197.359V48ZM264,152a16,16,0,0,1,32,0v64a8,8,0,0,0,16,0V88a16,16,0,0,1,32,0V216a8,8,0,0,0,15.124,3.628,32.5,32.5,0,0,0,2.184,5.132l26.112,48.965A108.423,108.423,0,0,0,368,272c-40.374,0-72,21.084-72,48V432H264ZM248,432H208V326.809a91.261,91.261,0,0,0,40-27.586ZM201.959,311.989l-16.388-30.73.235-.5c-.217-.1-.441-.2-.66-.3l-33.72-63.231a15.912,15.912,0,0,1,2.805-18.842l1.7-1.7a15.849,15.849,0,0,1,11.3-4.687c.12,0,.24,0,.359,0a15.864,15.864,0,0,1,11.448,5.184l67.646,73.8C237.94,290.938,222.929,304.7,201.959,311.989ZM200,72a16.019,16.019,0,0,1,16,16V213.829l-25.165-27.453A32.191,32.191,0,0,0,184,180.724V88A16.019,16.019,0,0,1,200,72ZM136,48a16,16,0,0,1,32,0V176.01c-.02,0-.039,0-.059,0a31.832,31.832,0,0,0-23.323,9.366l-1.7,1.7A32.158,32.158,0,0,0,136,197.359V48ZM40,152a16,16,0,0,1,32,0v64a8,8,0,0,0,16,0V88a16,16,0,0,1,32,0V216a8,8,0,0,0,15.124,3.628,32.5,32.5,0,0,0,2.184,5.132l26.112,48.965A108.423,108.423,0,0,0,144,272c-40.374,0-72,21.084-72,48V432H40Zm0,296h64v32H40Z"/></svg>
