<svg id="Outline" height="512" viewBox="0 0 512 512" width="512" xmlns="http://www.w3.org/2000/svg"><path d="m24 176.937v127.063a8 8 0 0 0 8 8h56v176a8 8 0 0 0 8 8h320a8 8 0 0 0 8-8v-176h56a8 8 0 0 0 8-8v-127.063a72.139 72.139 0 0 0 -30.152-58.59l-141.198-100.857a8 8 0 0 0 -4.65-1.49h-112a8 8 0 0 0 -4.65 1.49l-141.198 100.857a72.139 72.139 0 0 0 -30.152 58.59zm84.685 130.751a15.942 15.942 0 0 1 3.809-2.823 31.9 31.9 0 0 0 7.458.889c.2 0 .4-.012.594-.016a23.847 23.847 0 0 0 15.44 13.683 16 16 0 1 1 -27.3-11.733zm39.6-5.659a8 8 0 1 1 0-11.313 8.012 8.012 0 0 1 0 11.313zm3.705 16.426a23.85 23.85 0 0 0 13.685-15.434 15.992 15.992 0 1 1 -14.574 23.44 32 32 0 0 0 .889-8.006zm24.579-33.4a15.933 15.933 0 0 1 -3.858 2.828 31.93 31.93 0 0 0 -7.456-.886c-.181 0-.36.016-.541.019a23.863 23.863 0 0 0 -5.114-7.616 23.843 23.843 0 0 0 -10.332-6.077 16 16 0 1 1 27.3 11.734zm-43.313-10.755a23.84 23.84 0 0 0 -13.68 15.446 15.992 15.992 0 1 1 14.573-23.479 31.984 31.984 0 0 0 -.893 8.033zm58.744-154.3h-32v-57.6l32-22.857v56.457a7.994 7.994 0 0 0 1.686 4.911l54.314 69.834v14.821l-48-30v-27.566a8 8 0 0 0 -8-8zm16-40h96v13.255l-48 61.715-48-61.715zm56 90.744 54.314-69.833a7.994 7.994 0 0 0 1.686-4.911v-56.453l32 22.86v57.593h-32a8 8 0 0 0 -8 8v27.566l-48 30zm40-106.744h-96v-32h96zm99.314 318.058a15.947 15.947 0 0 1 -3.857 2.828 31.945 31.945 0 0 0 -7.457-.886c-.181 0-.36.016-.541.019a23.863 23.863 0 0 0 -5.115-7.617 23.843 23.843 0 0 0 -10.332-6.077 16 16 0 1 1 27.3 11.734zm-39.6 5.658a8 8 0 1 1 0 11.314 7.972 7.972 0 0 1 .001-11.314zm-3.714-16.416a23.84 23.84 0 0 0 -13.68 15.446 15.993 15.993 0 1 1 14.58-23.483 32.023 32.023 0 0 0 -.9 8.037zm-24.57 33.388a15.942 15.942 0 0 1 3.809-2.823 31.9 31.9 0 0 0 7.458.889c.2 0 .4-.012.595-.016a23.842 23.842 0 0 0 15.439 13.683 16 16 0 1 1 -27.3-11.733zm43.305 10.767a23.85 23.85 0 0 0 13.685-15.434 15.992 15.992 0 1 1 -14.573 23.44 32.051 32.051 0 0 0 .888-8.006zm93.265-238.518v119.063h-48v-88a8 8 0 0 0 -16 0v135.036a32.054 32.054 0 0 0 -38.627 5.082 32 32 0 0 0 -45.255 45.256 32 32 0 0 0 45.256 45.255l.015-.016a31.91 31.91 0 0 0 38.611 5.087v36.3h-144v-275.566l60.24-37.65a8 8 0 0 0 3.76-6.784v-24h32a8 8 0 0 0 8-8v-54.165l80.549 57.531a56.114 56.114 0 0 1 23.451 45.571zm-408.549-45.571 80.549-57.534v54.168a8 8 0 0 0 8 8h32v24a8 8 0 0 0 3.76 6.784l60.24 37.65v275.566h-144v-133.291a32.056 32.056 0 0 0 38.628-5.081l.014-.016a31.982 31.982 0 1 0 45.229-45.229l.012-.011a32 32 0 0 0 -45.256-45.255 32.057 32.057 0 0 0 -38.627-5.082v-38.035a8 8 0 0 0 -16 0v88h-48v-119.063a56.114 56.114 0 0 1 23.451-45.571z"/><path d=""/></svg>