<?xml version="1.0" encoding="UTF-8"?>
<svg xmlns="http://www.w3.org/2000/svg" id="Outline" viewBox="0 0 512 512" width="512" height="512"><path d="M32,176V440a8,8,0,0,0,2.343,5.657L48,459.313V488a8,8,0,0,0,8,8h64a8,8,0,0,0,8-8V459.313l8-8,8,8V488a8,8,0,0,0,8,8H360a8,8,0,0,0,8-8V459.313l8-8,8,8V488a8,8,0,0,0,8,8h64a8,8,0,0,0,8-8V459.313l13.657-13.656A8,8,0,0,0,480,440V176c0-25.573-13.6-48.909-39.316-67.485a160.429,160.429,0,0,0-27.877-15.977c3.341-7.752,4.2-20.418-5.652-40.116A64.551,64.551,0,0,0,352,16H160a64.551,64.551,0,0,0-55.155,36.422C95,72.12,95.852,84.786,99.193,92.538a160.429,160.429,0,0,0-27.877,15.977C45.6,127.091,32,150.427,32,176ZM64,480V464h48v16Zm96,0V464H352v16Zm240,0V464h48v16ZM325.578,32,256,78.385,186.422,32ZM112.56,104.311c7.321,1.488,31.062,5.525,79.064,7.073a254.837,254.837,0,0,0-7.249,49.865A24.037,24.037,0,0,0,168,184v16a8,8,0,0,0,8,8h32a8,8,0,0,0,8-8V184a23.976,23.976,0,0,0-15.616-22.493,235.676,235.676,0,0,1,7.719-49.714q11.2.2,23.9.207a8,8,0,0,0,0-16q-9.8,0-18.675-.128c1.091-2.765,1.8-4.235,1.838-4.31a8,8,0,0,0-14.318-7.14,102.357,102.357,0,0,0-4.48,11.09c-51.059-1.464-75.3-5.8-81.058-6.977-2.765-2.675-4.938-11.384,3.848-28.957,11.378-22.754,31.877-26.735,38.644-27.431l93.763,62.509a8,8,0,0,0,8.876,0L354.2,32.15c6.815.7,27.282,4.7,38.648,27.428,8.793,17.587,6.61,26.3,3.842,28.963-5.7,1.184-29.716,5.519-81.05,6.977a102.369,102.369,0,0,0-4.482-11.1,8,8,0,0,0-14.31,7.156c.031.062.746,1.526,1.847,4.3Q289.8,96,280,96a8,8,0,0,0,0,16q12.731,0,23.93-.207a235.245,235.245,0,0,1,7.687,49.711A23.981,23.981,0,0,0,296,184v16a8,8,0,0,0,8,8h32a8,8,0,0,0,8-8V184a24.037,24.037,0,0,0-16.375-22.751,254.837,254.837,0,0,0-7.249-49.865c48-1.548,71.742-5.585,79.064-7.073a145.782,145.782,0,0,1,32.193,17.4C453.11,137.331,464,155.6,464,176V436.687L452.686,448H395.314L384,436.686V232a8,8,0,0,0-16,0V436.686L356.686,448H155.314L144,436.686V232a8,8,0,0,0-16,0V436.686L116.686,448H59.314L48,436.687V176c0-20.4,10.89-38.669,32.367-54.285A145.717,145.717,0,0,1,112.56,104.311ZM192,176h.055A7.977,7.977,0,0,1,200,184v8H184v-8A8.009,8.009,0,0,1,192,176Zm120,8a7.98,7.98,0,0,1,7.89-8H320a8.009,8.009,0,0,1,8,8v8H312Z"/><path d="M168,416H344a8,8,0,0,0,6.657-12.438C330.314,373.045,320,342.238,320,312a8,8,0,0,0-8-8H200a8,8,0,0,0-8,8c0,30.238-10.314,61.045-30.657,91.562A8,8,0,0,0,168,416Zm39.787-96h96.426c1.421,26.657,9.929,53.48,25.367,80H182.42C197.858,373.48,206.366,346.657,207.787,320Z"/></svg>
