<?xml version="1.0" encoding="UTF-8"?>
<svg xmlns="http://www.w3.org/2000/svg" id="Outline" viewBox="0 0 512 512" width="512" height="512"><path d="M62.445,107.286C25.978,148.266,31.306,209.822,32,216.437V440a8,8,0,0,0,2.343,5.657L48,459.313V488a8,8,0,0,0,8,8h64a8,8,0,0,0,8-8V459.328l8.065-8.015L144,459.3V488a8,8,0,0,0,8,8H360a8,8,0,0,0,8-8V459.3l7.936-7.986L384,459.328V488a8,8,0,0,0,8,8h64a8,8,0,0,0,8-8V459.313l13.657-13.656A8,8,0,0,0,480,440V216.437c.693-6.615,6.022-68.171-30.445-109.151-19.406-21.807-46.905-33.6-81.815-35.118-.892-21.167-5.512-36.745-13.765-46.374C345.815,16.275,336.892,16,335.9,16H176.1c-.991,0-9.915.275-18.074,9.794C149.772,35.423,145.153,51,144.26,72.168,109.35,73.685,81.851,85.479,62.445,107.286ZM64,480V464h48v16Zm96-16h64v16H160ZM287.9,119.5V94.216a8.066,8.066,0,0,1,6.329-7.82c17.5-4.093,31.65-16.117,40.934-34.768a98.153,98.153,0,0,0,6.2-15.907c4.555,4.882,10.166,16.094,10.516,41.73C346.008,85.323,321.652,115.235,287.9,119.5Zm2.682-48.677a24,24,0,0,0-18.682,23.4V128a8.05,8.05,0,0,0,.1,1.2V480H240V129.2a7.948,7.948,0,0,0,.1-1.2V94.216a24,24,0,0,0-18.682-23.4C199.664,65.727,190.067,44.44,186.247,32H325.754C321.934,44.44,312.336,65.727,290.582,70.818ZM176.837,51.628C186.122,70.279,200.276,82.3,217.771,86.4a8.065,8.065,0,0,1,6.329,7.82V119.5c-33.759-4.26-58.118-34.184-63.981-42.043.35-25.637,5.962-36.849,10.516-41.731A98.21,98.21,0,0,0,176.837,51.628ZM288,480V464h64v16Zm112,0V464h48v16Zm37.543-362.144c32.99,36.993,26.579,96.625,26.511,97.215A8.227,8.227,0,0,0,464,216V436.687L452.686,448H395.3l-11.4-11.328V208a8,8,0,0,0-16,0V436.7L356.672,448H288V135.586c39.854-4,67.581-36.461,75.952-47.531C395.84,88.832,420.587,98.844,437.543,117.856Zm-289.494-29.8c8.37,11.07,36.1,43.527,75.951,47.531V448H155.328L144.1,436.7V208a8,8,0,0,0-16,0V436.673L116.7,448H59.314L48,436.687V216a8.336,8.336,0,0,0-.053-.921c-.069-.6-6.48-60.23,26.511-97.223C91.413,98.844,116.16,88.832,148.049,88.055Z"/></svg>
