<?xml version="1.0" encoding="UTF-8"?>
<svg xmlns="http://www.w3.org/2000/svg" id="Outline" viewBox="0 0 512 512" width="512" height="512"><path d="M449.91,99.376A116.178,116.178,0,0,0,415.059,81.6c-10.391-56.19-51.685-65.088-53.49-65.449A8.026,8.026,0,0,0,360,16H152a8.026,8.026,0,0,0-1.569.155c-1.805.361-43.1,9.259-53.49,65.449a116.168,116.168,0,0,0-34.849,17.77C41.065,115.031,16,145.2,16,200V488a8,8,0,0,0,8,8H488a8,8,0,0,0,8-8V200C496,145.2,470.935,115.031,449.91,99.376ZM479.8,192H400c0-10.7,3.327-46.913,44.776-76.3C466.411,133.788,478.165,159.4,479.8,192ZM112,208v64H32V208ZM248,368H128V288H248Zm16-80H384v80H264ZM128,384H248v64H128Zm136,0H384v64H264ZM384,272H264V192H384Zm-136,0H128V192H248ZM112,288v80H32V288Zm0,96v64H32V384Zm16,80H248v16H128Zm136,0H384v16H264Zm136-80h80v64H400Zm0-16V288h80v80Zm0-96V208h80v64Zm31.052-165.938c-15.528,12.161-39.614,35.96-45.644,69.938H264V111.96c54.218-.484,103.805-5.893,144.007-15.727A96.577,96.577,0,0,1,431.052,106.062ZM315.679,48H196.321l-20.8-16H336.479Zm-20.8,16L256,93.907,217.121,64ZM398.8,81.974c-33.97,7.8-74.541,12.467-118.855,13.7l81.7-62.843C369.919,35.832,391.381,46.876,398.8,81.974ZM150.352,32.825l81.7,62.847c-44.314-1.231-84.885-5.9-118.855-13.7C120.627,46.836,142.128,35.807,150.352,32.825Zm-46.36,63.408c40.2,9.834,89.79,15.243,144.008,15.727V176H126.592c-6.03-33.978-30.116-57.777-45.644-69.939A96.57,96.57,0,0,1,103.992,96.233ZM67.224,115.7C108.673,145.087,112,181.3,112,192H32.2C33.835,159.4,45.589,133.79,67.224,115.7ZM32,464h80v16H32Zm368,16V464h80v16Z"/></svg>
