<svg id="Outline" height="512" viewBox="0 0 512 512" width="512" xmlns="http://www.w3.org/2000/svg"><path d="m495.49 261.19c-7.425-19.8-17.593-46.914-57.43-36.951l-.164.043c-83.493 22.771-192.481-46.312-193.57-47.011a8 8 0 0 0 -8.764.073c-18.652 12.434-21.294 32.328-20.808 44.927l-173.383-30.153a8.007 8.007 0 0 0 -8.526 4.3c-.688 1.382-16.845 34.082-16.845 67.582 0 27.665 5.781 44.305 8 49.676v54.324a8 8 0 0 0 8 8h112a8 8 0 0 0 8-8v-17.961a197.412 197.412 0 0 1 48-6.039c18.809 0 35.133 6.141 52.414 12.642 10.552 3.969 21.464 8.074 33.646 11.119 32.581 8.145 64.593 8.239 65.94 8.239 59.734 0 106.328-29.6 128.786-47.241a39.67 39.67 0 0 0 15.214-31.397v-33.362a7.951 7.951 0 0 0 -.525-2.8zm-16.417 1.84c-21.543 32.025-52.945 52.526-93.4 60.954-30.895 6.437-66.541 5.077-95.355-3.641-2.571-.779-6.515-2.444-11.083-4.372-24.327-10.27-74.947-31.639-137.67-11.591-50.522 16.153-92.207 4.973-103.508 1.279-2.021-5.599-6.057-19.559-6.057-41.659a111.342 111.342 0 0 1 2.161-20.95l276.51 44.839a317.841 317.841 0 0 0 50.089 3.958c7.02 0 14.409-.25 21.9-.874 45.531-3.8 74.976-20.019 85.989-47.125 4.202 4.285 7.193 10.82 10.424 19.182zm-37.056-23.288a49.736 49.736 0 0 1 11.7-1.67c-19.031 45.7-105.316 38.616-132.259 35.206a307.906 307.906 0 0 0 11.066-39.153c41.538 12.207 78.276 14.111 109.493 5.617zm-124.817-10.517a292.662 292.662 0 0 1 -11.851 41.592l-27.239-4.417a323.946 323.946 0 0 0 14.09-46.739q5.763 2.424 11.927 4.806 6.609 2.541 13.073 4.758zm-86.193-14.875c.95-8.649 4.156-15.563 9.549-20.621 6.625 3.956 19.588 11.33 36.681 19.3-1.131 5.7-2.732 12.548-4.993 20.468l-41.232-8.249a51.9 51.9 0 0 1 -.005-10.898zm-186.27-5.406 177.794 30.921 44.9 8.983q-2.406 7.07-5.451 14.937l-223.941-36.314a184.253 184.253 0 0 1 6.698-18.527zm435.263 88.418a23.763 23.763 0 0 1 -9.1 18.815c-20.831 16.367-63.98 43.823-118.9 43.823-.312 0-31.454-.109-62.063-7.761-11.29-2.823-21.763-6.762-31.892-10.573-18.68-7.028-36.326-13.666-58.045-13.666-32.92 0-57.5 8.067-58.53 8.41a8 8 0 0 0 -5.47 7.59v16h-96v-37.032c18.551 5.032 58.578 11.951 106.436-3.348 57.086-18.247 102.29.838 126.574 11.091 5.191 2.192 9.292 3.923 12.674 4.946 44.2 13.375 136.757 18.429 194.316-47.579z"/></svg>