<?xml version="1.0" encoding="UTF-8"?>
<svg xmlns="http://www.w3.org/2000/svg" id="Outline" viewBox="0 0 512 512" width="512" height="512"><path d="M224,496a8,8,0,0,0,7.962-7.224L235.08,456.8,256,248.179l20.918,208.6,3.12,32A8,8,0,0,0,288,496h80a8,8,0,0,0,8-8V72c0-.149-.014-.294-.022-.441-.006-.1-.006-.193-.015-.29a7.982,7.982,0,0,0-.36-1.751c0-.016-.008-.032-.013-.048l-16-48A8,8,0,0,0,352,16H160a8,8,0,0,0-7.589,5.47l-16,48c0,.014-.007.029-.012.043a7.962,7.962,0,0,0-.362,1.755c-.009.1-.01.2-.015.3-.008.146-.022.29-.022.437V488a8,8,0,0,0,8,8ZM152,80h32c0,51.076-20.27,65.918-32,70.232Zm208,70.232c-11.729-4.313-32-19.155-32-70.232h32ZM240,64V32h80V64Zm24,16h16v56a24.042,24.042,0,0,1-16,22.629ZM224,64H192V32h32ZM152,480V464h66.3l-1.56,16Zm67.882-32H152V166.9a51.888,51.888,0,0,0,21.122-10.757C190.957,141.283,200,115.664,200,80h48v87.6Zm44.863-272.975A40.061,40.061,0,0,0,296,136V80h16c0,35.664,9.043,61.283,26.879,76.146A51.879,51.879,0,0,0,360,166.9V448H292.118ZM295.258,480l-1.56-16H360v16ZM356.9,64H336V32h10.234ZM165.766,32H176V64H155.1Z"/></svg>
