<svg id="Outline" height="512" viewBox="0 0 512 512" width="512" xmlns="http://www.w3.org/2000/svg"><path d="m360 16h-208a8 8 0 0 0 -8 8v45.784l-22.86 38.1a8 8 0 0 0 -1.14 4.286l8 376a8 8 0 0 0 8 7.83h96a8 8 0 0 0 7.978-7.4l16.022-213.634 16.022 213.634a8 8 0 0 0 7.978 7.4h96a8 8 0 0 0 8-7.83l8-376a8 8 0 0 0 -1.138-4.286l-22.862-38.1v-45.784a8 8 0 0 0 -8-8zm-96 64h16v72a8.009 8.009 0 0 1 -8 8h-8zm-24-16v-32h80v32zm-48 0v-32h32v32zm144-32h16v32h-16zm-176 0h16v32h-16zm64.578 448h-32.353l7.775-279.778a8 8 0 1 0 -16-.444l-7.781 280.222h-32.387l-7.785-365.863 20.483-34.137h91.47v87.7zm143.59 0h-32.387l-7.781-280.222a8 8 0 1 0 -15.994.444l7.769 279.778h-32.353l-22.8-304h7.378a24.027 24.027 0 0 0 24-24v-72h59.47l20.483 34.137z"/></svg>