<?xml version="1.0" encoding="UTF-8"?>
<svg xmlns="http://www.w3.org/2000/svg" id="Outline" viewBox="0 0 512 512" width="512" height="512"><path d="M491.062,16.609a8,8,0,0,0-8.719,1.734L268.686,232H243.314L29.657,18.343A8,8,0,0,0,16,24V88a8,8,0,0,0,2.343,5.657L228.824,304.138A40.045,40.045,0,0,0,192,344V456a40.045,40.045,0,0,0,40,40h48a40.045,40.045,0,0,0,40-40V344a40.045,40.045,0,0,0-36.824-39.862L493.657,93.657A8,8,0,0,0,496,88V24A8,8,0,0,0,491.062,16.609ZM480,80H443.313L480,43.313ZM280,243.314,299.314,224h41.372L280,284.686ZM315.314,208,352,171.314V208ZM368,160h36.686L368,196.686Zm11.314-16L416,107.314V144ZM432,96h36.687L432,132.686ZM264,248v56H248V248ZM160,171.314,196.686,208H160Zm-64-64L132.686,144H96ZM80,132.686,43.313,96H80ZM144,160v36.686L107.314,160Zm68.686,64L232,243.314v41.372L171.314,224Zm-144-144H32V43.313ZM304,344V456a24.028,24.028,0,0,1-24,24H232a24.028,24.028,0,0,1-24-24V344a24.028,24.028,0,0,1,24-24h48A24.028,24.028,0,0,1,304,344Z"/><path d="M232,336a8,8,0,0,0-8,8V456a8,8,0,0,0,8,8h48a8,8,0,0,0,8-8V344a8,8,0,0,0-8-8Zm40,112H240V352h32Z"/></svg>
