<?xml version="1.0" encoding="UTF-8"?>
<svg xmlns="http://www.w3.org/2000/svg" id="Outline" viewBox="0 0 512 512" width="512" height="512"><path d="M336.41,146.53a8,8,0,0,0,6.351,5.373,7.886,7.886,0,0,0,1.24.1,8,8,0,0,0,6.45-3.27l88-120A8,8,0,0,0,432,16H304a8,8,0,0,0-5.657,2.343L256,60.686,213.657,18.343A8,8,0,0,0,208,16H80a8,8,0,0,0-6.451,12.73l88,120A8,8,0,0,0,168,152a7.877,7.877,0,0,0,1.24-.1,8,8,0,0,0,6.351-5.373c4.819-14.457,11.619-26.689,20.295-36.665L214.958,144.2l-22.113,44.226A7.994,7.994,0,0,0,192,192V456a8,8,0,0,0,4.031,6.946l56,32a8,8,0,0,0,7.938,0l56-32A8,8,0,0,0,320,456V192a7.994,7.994,0,0,0-.845-3.578L297.042,144.2l19.073-34.331C324.791,119.841,331.591,132.073,336.41,146.53ZM228.707,136,207.845,98.448a87.657,87.657,0,0,1,15.947-9.916c17.109-8.269,31.85-8.527,32.195-8.532.371,0,15.112.263,32.221,8.532a87.657,87.657,0,0,1,15.947,9.916L283.293,136ZM307.313,32h108.9l-70.085,95.57c-13.969-30.517-35.287-46.024-51.7-53.8A105.953,105.953,0,0,0,273,66.317ZM165.872,127.57,95.787,32h108.9L239,66.317a105.953,105.953,0,0,0-21.428,7.454C201.159,81.546,179.841,97.053,165.872,127.57ZM228.944,152h54.112l17.586,35.174A356.187,356.187,0,0,1,208,235.906V193.889ZM304,350.524c-28.27,20.067-61.192,36.561-96,48.124V367.474a381.025,381.025,0,0,0,96-45.515Zm0-48c-28.27,20.067-61.192,36.561-96,48.124v-49.8a376.115,376.115,0,0,0,96-48.356Zm0-69.876c-28.287,21.442-60.519,38.65-96,51.257V252.846a375.96,375.96,0,0,0,96-48.37ZM256,478.786l-48-27.429V415.474a381.025,381.025,0,0,0,96-45.515v81.4Z"/></svg>
