<svg id="Outline" height="512" viewBox="0 0 512 512" width="512" xmlns="http://www.w3.org/2000/svg"><path d="m363.4 132.3 2.068-12.414a24.126 24.126 0 0 0 -17.854-27.226l-35.3-8.825a24.107 24.107 0 0 0 -28.588 15.692l-4.141 12.419c-61.167-9.21-110.459-3.709-146.574 16.383-28.843 16.046-48.124 41.691-52.9 70.359-6.829 40.976 3.009 65.9 7.363 74.446l-6.624 26.5-62.115 54.35a8 8 0 0 0 -1.887 9.6c.638 1.276 16.08 31.388 54.742 41.552a102.9 102.9 0 0 0 26.267 3.3c31.816 0 68.112-13.363 108.309-39.913 55.17 15.565 117.655 23.477 185.834 23.477a8 8 0 0 0 5.657-2.343l29.713-29.713c20.5-.64 46.31-7.414 59.785-34.366 8.845-17.689 8.845-37.233 8.845-45.578a124.738 124.738 0 0 0 -17.816-64.291c-21.435-36.229-60.04-64.268-114.784-83.409zm-64.5-27.715a8.043 8.043 0 0 1 9.531-5.231l35.3 8.825a8.042 8.042 0 0 1 5.952 9.075l-1.668 10.016c-8.366-2.54-17.129-4.9-26.163-7.053-8.918-2.12-17.727-3.991-26.3-5.586zm57.62 237.337c-46.574-3.659-109.434-12.866-171.228-35.24 7.165-32.526 18.321-61.507 33.211-86.229a207.293 207.293 0 0 1 45.827-53.662c23.551-19.327 45.066-27.3 53.537-29.911 13.28 13.02 66.895 75.12 38.655 205.042zm-260.628-140.607c1.879-11.277 10.014-39.6 44.9-59.006 33.715-18.756 83.138-23.428 142.927-13.518h.005q3.931.653 7.951 1.4a192.4 192.4 0 0 0 -36.716 23.6 222.732 222.732 0 0 0 -49.8 57.813c-15.611 25.759-27.344 55.779-34.961 89.332q-4.731-1.89-9.442-3.887c-.109-.053-.221-.1-.332-.151a398.325 398.325 0 0 1 -58.482-30.609 64.471 64.471 0 0 1 -5.18-14.229c-2.554-10.213-4.778-27.306-.87-50.745zm-19.908 188.427a73.474 73.474 0 0 1 -41.606-28.193l53.815-47.089c11.893 9.082 43.108 30.029 97.763 47.932-42.744 25.965-79.69 35.168-109.972 27.35zm312.708-13.748c-66.863-.256-127.969-8.276-181.685-23.848-40.851-11.837-69.576-25.913-86.481-35.637a209.123 209.123 0 0 1 -23.535-15.488l4.1-16.4a422.091 422.091 0 0 0 52.781 26.88c.11.052.222.1.334.151 91.962 39.148 191.048 47.095 241.927 48.348 3.019.074 5.825.123 8.4.154zm84.153-57.572c-8.606 17.211-24.583 25.578-48.845 25.578v.019c-.112 0-.221-.017-.334-.012s-10.234.413-27.14 0c-7.063-.173-15.079-.479-23.885-.984 16.678-78.975 4.006-133.855-9.937-166.371a178.555 178.555 0 0 0 -19.027-33.971q4.176 1.271 8.2 2.6h.007c54.421 17.921 92.28 44.359 112.526 78.577 15.59 26.342 15.59 48.771 15.59 56.142 0 7.826 0 24.111-7.155 38.422z"/></svg>