<svg id="Outline" height="512" viewBox="0 0 512 512" width="512" xmlns="http://www.w3.org/2000/svg"><path d="m479.315 260.834c-11.913-8.986-28.57-10.509-49.513-4.526-29.853 8.531-57.824 6.161-90.7-7.681-39.047-16.441-85.38-49.961-141.645-102.476a8.012 8.012 0 0 0 -11.43.525c-.153.171-15.679 17.333-42.151 30.439-35.034 17.348-71.826 19.8-109.348 7.295a8 8 0 0 0 -10.12 5.06c-.341 1.03-8.408 25.61-8.408 58.53 0 29.546 12.56 58.454 16 65.816v46.184a8 8 0 0 0 8 8h128a8 8 0 0 0 8-8v-8h39.019c10.711 2.662 97.317 24 120.981 24 25.953 0 107.575-16.844 155.578-40.845a8 8 0 0 0 4.422-7.155v-32c0-.922-.189-22.724-16.685-35.166zm-45.115 10.858c15.8-4.513 27.7-3.89 35.4 1.851 6.507 4.856 8.944 12.683 9.858 17.7-24.971 11.645-58.422 21.508-87.453 28.077v-42.159a138.23 138.23 0 0 0 42.195-5.469zm-98.885-7.324a173.264 173.264 0 0 0 40.685 11.413v46.919c-17.363 3.4-31.858 5.3-40 5.3-17.1 0-78.375-14.069-109.424-21.632a36.88 36.88 0 0 1 5.813-8.5c8.667-9.407 21.552-12.764 38.3-9.971 35.005 5.821 55.143-11.473 64.624-23.529zm-297.794-62.306c48.562 13.638 88.552 1.845 114.057-10.907a175.479 175.479 0 0 0 40.629-28.055q8.934 8.233 17.548 15.826l-15.412 15.413a8 8 0 0 0 11.314 11.314l16.211-16.211q9.312 7.94 18.255 15.117l-13.78 13.78a8 8 0 0 0 11.314 11.314l15.15-15.15q9.846 7.53 19.255 14.117l-13.719 13.719a8 8 0 0 0 11.314 11.314l15.916-15.916a335.622 335.622 0 0 0 34.6 19.817c-8.379 9.2-23.048 18.518-46.859 14.55-28.4-4.73-44.656 5.859-53.294 15.578a53.95 53.95 0 0 0 -9.9 16.318h-164.983c-4.124-9.507-13.137-32.924-13.137-56a198.156 198.156 0 0 1 5.521-45.938zm442.479 120.924c-45.806 21.514-120.765 37.014-144 37.014-18.877 0-91.622-17.152-118.06-23.761a7.977 7.977 0 0 0 -1.94-.239h-48a8 8 0 0 0 -8 8v8h-112v-32h167.019c10.711 2.662 97.317 24 120.981 24 23.966 0 95.4-14.364 144-35.462z"/></svg>