<svg id="Outline" enable-background="new 0 0 512 512" height="512" viewBox="0 0 512 512" width="512" xmlns="http://www.w3.org/2000/svg"><path d="m488 191.017v-47.017c0-4.418-3.582-8-8-8h-96v-.446c.093-27.298-15.343-52.274-39.8-64.4l-58.237-29.117-6.808-13.615c-1.044-2.089-2.949-3.617-5.215-4.183l-32-8c-.635-.157-1.286-.235-1.94-.233v-.006h-80c-.654-.002-1.305.077-1.94.234l-32 8c-2.266.566-4.171 2.094-5.215 4.183l-6.808 13.615-58.237 29.123c-24.457 12.126-39.893 37.102-39.8 64.4v112.445c0 4.418 3.582 8 8 8h56v152c0 4.418 3.582 8 8 8h184v72c0 4.418 3.582 8 8 8h80c4.05 0 7.461-3.026 7.943-7.047l16.057-133.808 16.057 133.808c.482 4.021 3.893 7.047 7.943 7.047h80c4.418 0 8-3.582 8-8v-264c0-.654-.08-1.306-.239-1.94zm-192-7.017v-32h16v32zm32-32h16v32h-16zm32 0h16v32h-16zm32 0h16v32h-16zm32 0h16v32h-16zm32 0h16v32h-16zm-209.854-82.879c1.198-1.438 1.854-3.25 1.854-5.121v-29.754l18.49 4.623 16.566 33.131h-19.056c-4.418 0-8 3.582-8 8v27.056l-48 24v-16.156zm-14.146-21.121h-64v-16h64zm-2.414 16-29.586 35.5-29.586-35.5zm-96.076-25.131 18.49-4.623v29.754c0 1.871.656 3.683 1.854 5.121l38.146 45.779v16.16l-48-24v-27.06c0-4.418-3.582-8-8-8h-19.056zm-101.51 201.131v-16h48v16zm64-40h48v16h-48zm0 48v-16h48v32h-48zm0 32h56c4.418 0 8-3.582 8-8v-80c0-4.418-3.582-8-8-8h-56v-24c0-4.418-3.582-8-8-8s-8 3.582-8 8v48h-48v-72.446c-.071-21.231 11.935-40.656 30.956-50.088l39.156-19.578-5.267 10.534c-1.976 3.952-.374 8.757 3.577 10.733 1.111.556 2.336.845 3.578.845h24v24c0 3.03 1.712 5.8 4.422 7.155l59.578 29.789v251.056h-96zm112 120v-251.056l59.578-29.789c2.71-1.355 4.422-4.125 4.422-7.155v-24h24c4.418 0 8-3.582 8-8 0-1.242-.289-2.467-.845-3.578l-5.266-10.534 39.155 19.578c19.021 9.432 31.027 28.857 30.956 50.088v.446h-80c-4.418 0-8 3.582-8 8v47.017l-7.761 31.043c-.159.634-.239 1.286-.239 1.94v176zm80 80v-16h66.822l-1.92 16zm103.943-192.953c-.527-4.387-4.51-7.516-8.896-6.99-3.663.44-6.55 3.327-6.99 6.99l-19.315 160.953h-68.742v-223.015l6.246-24.985h179.508l6.246 24.985v223.015h-68.742zm23.157 192.953-1.92-16h66.82v16z"/></svg>