<svg id="Outline" height="512" viewBox="0 0 512 512" width="512" xmlns="http://www.w3.org/2000/svg"><path d="m360 16h-208a8 8 0 0 0 -8 8v47.948l-8 415.9a8 8 0 0 0 8 8.152h80a8 8 0 0 0 7.96-7.2l24.04-240.4 24.04 240.4a8 8 0 0 0 7.96 7.2h80a8 8 0 0 0 8-8.154l-8-415.9v-47.946a8 8 0 0 0 -8-8zm-96 64h16v72a8.009 8.009 0 0 1 -8 8h-8zm24-16h-48v-32h80v32zm-128.153 16h30.574c-4.412 18.074-14.891 30.193-31.27 36.18zm32.153-16v-32h32v32zm160.153 16 .7 36.18c-16.379-5.987-26.858-18.106-31.27-36.18zm-.153-16h-16v-32h16zm-192-32h16v32h-16zm56.76 448h-64.6l6.672-346.943c17.333-4.932 40.988-18.088 47.964-53.057h41.204v87.6zm78.48 0-30.4-304h7.16a24.027 24.027 0 0 0 24-24v-72h9.209c6.976 34.969 30.631 48.125 47.964 53.057l6.672 346.943z"/></svg>