<svg id="Outline" height="512" viewBox="0 0 512 512" width="512" xmlns="http://www.w3.org/2000/svg"><path d="m348.932 255.956a39.864 39.864 0 0 0 37.91-35.976l2.723-27.23a40.186 40.186 0 0 0 -24.946-41.118l-5.743-2.3c10.415-10.644 25.124-29.841 25.124-53.332 0-13.536-8.2-34.147-31.2-51.4-31.518-23.638-74.387-28.6-104.8-28.6-1.273 0-31.528.106-62.3 9.337-42.981 12.895-65.7 37.33-65.7 70.663 0 27.652 15.7 57.058 46.657 87.4q5.285 5.18 11.17 10.4c-11.727 16.8-18.9 40.442-22.994 58.466-9.731 42.847-13.375 100.723-10.828 172.019a8 8 0 0 0 7.995 7.715h40v56a8 8 0 0 0 8 8h128a8 8 0 0 0 7.993-7.652c5-115.1.8-180.958-3.7-216.171a39.6 39.6 0 0 0 16.639-16.221zm-212.932-159.956c0-25.837 18.171-44.426 54.01-55.25 28.516-8.613 57.648-8.75 57.99-8.75 50.691 0 79.748 13.813 95.2 25.4 18.305 13.729 24.8 29.373 24.8 38.6 0 22.027-18.258 40.42-25.7 47a769.322 769.322 0 0 1 -77.093-31.522c13.971-8.885 23.411-18.678 28.1-29.228 4.847-10.907 2.828-18.977 2.345-20.565-.013-.044-.026-.087-.04-.13-.008-.025-.02-.066-.027-.084a8 8 0 0 0 -15.246 4.829l-.007-.024c.044.174 1.046 4.334-2.309 10.868-3.239 6.305-11.088 15.765-30.023 25.856-36.272-19.318-32.375-36.547-32.33-36.724l-.007.024a8 8 0 0 0 -15.246-4.827c-.007.018-.019.059-.027.084-.014.043-.027.086-.04.13-.483 1.588-2.5 9.658 2.345 20.565 6.082 13.685 20.123 26.1 41.733 36.906a756.763 756.763 0 0 0 96.868 40.377l17.387 6.955a24.112 24.112 0 0 1 14.967 24.671l-2.723 27.231a23.924 23.924 0 0 1 -23.886 21.608h-.741l-62.06-38.784a8 8 0 0 0 -8.48 13.568l57.54 35.962a23.947 23.947 0 0 1 -30.74 7.07c-54.481-29.261-96.437-58.143-124.7-85.844-27.777-27.219-41.86-52.78-41.86-75.972zm144.415-29.471s-.017-.048-.039-.117c.009.04.024.078.039.117zm-64.83 0c.013-.039.03-.076.043-.115-.022.069-.039.116-.039.116zm106.597 333.471h-33.937c.476-29.43 1.876-81.228 5.989-128.495l.753.407a39.716 39.716 0 0 0 18.839 4.777c.962 0 1.925-.038 2.888-.108 4.436 36.259 5.65 81.538 5.468 123.419zm-43.253-136.9c-2.248 23.982-3.767 49.461-4.793 72.9h-113.593c2.656-49.949 10.3-103.789 29.5-131.834 23.788 19.36 53.531 39.084 88.886 58.934zm-119.079 88.9h113.65c-1.032 28.421-1.353 52.2-1.453 64h-112.3c-.487-17.1-.724-39.666.103-64zm48.15 128v-48h72a8 8 0 0 0 8-8c0-.159 0-3.012.045-8h34c-.3 23.889-.993 46.062-1.716 64z"/></svg>