<?xml version="1.0" encoding="UTF-8"?>
<svg xmlns="http://www.w3.org/2000/svg" id="Outline" viewBox="0 0 512 512" width="512" height="512"><path d="M419.692,80.205l-55.5-23.125L317.122,17.854A8,8,0,0,0,312,16H200a8,8,0,0,0-5.122,1.854L147.807,57.08l-55.5,23.125A71.811,71.811,0,0,0,48,146.667V288a8,8,0,0,0,8,8h56V464a8,8,0,0,0,4.422,7.155C118.451,472.17,167.133,496,256,496s137.549-23.83,139.578-24.845A8,8,0,0,0,400,464V296h56a8,8,0,0,0,8-8V146.667A71.811,71.811,0,0,0,419.692,80.205ZM256,68.686,219.314,32h73.372Zm-10.823,11.8-29.715,35.657L163.851,64.537l35.658-29.714Zm67.314-45.668,35.658,29.714-51.611,51.611L266.823,80.491ZM64,280V264h48v16Zm64-96a8,8,0,0,0-16,0v64H64V146.667A55.851,55.851,0,0,1,98.462,94.975l51.67-21.529,60.211,60.211A8,8,0,0,0,216,136c.12,0,.241,0,.362-.008a8,8,0,0,0,5.784-2.871L248,102.1V479.923c-65.4-1.127-106.953-15.794-120-21.145Zm272,96V264h48v16Zm48-32H400V184a8,8,0,0,0-16,0V458.777c-13.06,5.357-54.614,20.019-120,21.146V102.1l25.854,31.025a8,8,0,0,0,5.784,2.871c.121.005.241.008.362.008a8,8,0,0,0,5.657-2.343l60.211-60.211,51.67,21.529A55.851,55.851,0,0,1,448,146.667Z"/><circle cx="288" cy="176" r="8"/><circle cx="288" cy="256" r="8"/><circle cx="288" cy="336" r="8"/><circle cx="288" cy="416" r="8"/></svg>
