<?xml version="1.0" encoding="UTF-8"?>
<svg xmlns="http://www.w3.org/2000/svg" id="Outline" viewBox="0 0 512 512" width="512" height="512"><path d="M456,86.112V24a8,8,0,0,0-8-8H64a8,8,0,0,0-8,8V86.112l-39.155,78.31A7.994,7.994,0,0,0,16,168V488a8,8,0,0,0,8,8H224a8,8,0,0,0,7.859-6.5L256,362.755,280.141,489.5A8,8,0,0,0,288,496H488a8,8,0,0,0,8-8V168a7.994,7.994,0,0,0-.845-3.578ZM264,319.244V272h8a40.045,40.045,0,0,0,40-40V96h72.381c2.694,29.105,20.06,57.053,50.653,81.272A240.972,240.972,0,0,0,480,205.164V432H285.477ZM32,205.164a240.972,240.972,0,0,0,44.966-27.892c30.593-24.219,47.959-52.167,50.653-81.272H248V319.244L226.523,432H32ZM360,80V32h16V80Zm-16,0H224V32H344ZM264,96h32V232a24.028,24.028,0,0,1-24,24h-8ZM208,80H168V32h40Zm-56,0H136V32h16ZM480,187.264c-23-12.019-74.231-43.87-79.539-91.264h42.595L480,169.889ZM440,80H392V32h48ZM72,32h48V80H72ZM68.944,96h42.594C106.219,143.294,55,175.2,32,187.248V169.889ZM32,480V448H223.475l-6.095,32Zm262.62,0-6.1-32H480v32Z"/></svg>
