<?xml version="1.0" encoding="UTF-8"?>
<svg xmlns="http://www.w3.org/2000/svg" id="Outline" viewBox="0 0 512 512" width="512" height="512"><path d="M490.649,271.235a23.989,23.989,0,0,0-28.293-19.606c-12.273,2.418-31.155,5.688-54.27,8.259l5.984-44.882a24.053,24.053,0,0,0-17.605-26.361l-90.1-24.027A24,24,0,0,0,276.7,182.862l-16.066,76.31c-12.9-1.6-24.572-3.387-35.887-5.118C203.513,250.806,185.178,248,168,248c-40.4,0-64.792,0-145.569,16.155A8,8,0,0,0,16,272v32a24.028,24.028,0,0,0,24,24H384c2.006,0,49.77-.186,106.2-16.308a8,8,0,0,0,5.694-9.007Zm-198.3-85.077a8,8,0,0,1,9.889-6.081l11.121,2.966L286.5,312H265.86ZM32,304V278.569C106.116,264,129.671,264,168,264c15.961,0,33.739,2.72,54.323,5.87,10.536,1.612,22.3,3.411,35,5.015L249.509,312H40A8.009,8.009,0,0,1,32,304Zm270.839,8,26.008-124.828,63.5,16.932a8.019,8.019,0,0,1,5.869,8.787L385,311.988c-.617.01-.961.012-1,.012Zm98.408-.819,4.661-34.959c25.465-2.69,46.264-6.279,59.54-8.894a7.99,7.99,0,0,1,9.418,6.537l4.058,24.338A434.037,434.037,0,0,1,401.247,311.181Z"/></svg>
