<?xml version="1.0" encoding="UTF-8"?>
<svg xmlns="http://www.w3.org/2000/svg" id="Outline" viewBox="0 0 512 512" width="512" height="512"><path d="M465.536,252.433c-17.128-7.786-39.574-12.162-63.405-12.409L215.507,135.515a24.005,24.005,0,0,0-30.163,5.577l-31.21,37.451c-3.708,3.491-42.733,37.741-96.282-12.148A23.834,23.834,0,0,0,41.546,160H40a24.027,24.027,0,0,0-24,24V360a24.028,24.028,0,0,0,24,24H400a96.108,96.108,0,0,0,96-96C496,273.993,485.181,261.362,465.536,252.433ZM480,288c0,7.149-7.882,15-21.085,21-13.728,6.239-31.576,10.01-50.915,10.827V256.171c19.339.817,37.187,4.588,50.915,10.827C472.118,273,480,280.851,480,288ZM197.636,151.334a8,8,0,0,1,10.054-1.858l22.243,12.456L217.49,179.35a8,8,0,1,0,13.02,9.3L243.978,169.8l26.771,14.991L257.49,203.35a8,8,0,1,0,13.02,9.3l14.284-20,26.769,14.991L297.49,227.351a8,8,0,1,0,13.02,9.3l15.1-21.14L352.382,230.5,337.49,251.35a8,8,0,1,0,13.02,9.3l15.917-22.282L392,252.688V320H364.53l-21.67-36.116a8.006,8.006,0,0,0-2.79-2.772L172.166,181.9ZM32,273.759l31.845,6.369A40.106,40.106,0,0,1,96,319.351V320H32Zm34.982-9.321-34.982-7V212.254c1.765,1.4,3.706,2.859,5.878,4.376a129.315,129.315,0,0,0,64.139,23.016q4.754.356,9.515.355c27.483,0,55.258-8.879,82.75-26.451l135.9,80.305L345.87,320H112v-.649A56.15,56.15,0,0,0,66.982,264.438ZM40,176h1.546a7.88,7.88,0,0,1,5.4,2.1c19.022,17.721,49.066,37.215,84.159,29.419A77.744,77.744,0,0,0,160.8,193.765l17.877,10.564C147.712,222.3,117,228.02,87.215,221.3,55.923,214.233,36.449,195.727,32,190.4V184A8.009,8.009,0,0,1,40,176ZM400,368H40a8.009,8.009,0,0,1-8-8V336H400c24.623,0,47.9-4.415,65.536-12.433a88.244,88.244,0,0,0,8.024-4.14A80.116,80.116,0,0,1,400,368Z"/></svg>
