<svg id="Outline" height="512" viewBox="0 0 512 512" width="512" xmlns="http://www.w3.org/2000/svg"><path d="m272 24a8 8 0 0 0 -8-8h-96a8 8 0 0 0 -8 8v40h-56a8 8 0 0 0 -8 8v191.994c0 .377-.218 37.911-14.656 59.568-10.913 16.369-17.923 44.331-7.528 67.043 5.91 12.912 19.935 29.176 53.192 33.333 61.549 7.694 140.091 54.451 140.943 54.961 1.443.847 29.114 16.855 56.98 16.855a57.961 57.961 0 0 0 20.428-3.451c14.391-5.4 24.562-16.766 30.231-33.773a61.787 61.787 0 0 0 2.765-12 81.22 81.22 0 0 0 11.212.814c24.539 0 41.954-12.609 50.023-36.817 7.11-21.327 2.21-39.927-14.576-55.28-13.922-12.732-34.119-22.083-55.5-31.982-7.251-3.357-14.749-6.828-21.935-10.42-48.269-24.134-75.579-39.416-75.579-72.845zm-128 104v-48h16v48zm32-48h16v48h-16zm32-48h16v48h-16zm32 0h16v48h-16zm-64 0h16v32h-16zm-64 48h16v48h-16zm-23.635 303.946c-7.495-16.377-2.509-38.308 6.291-51.508a71.627 71.627 0 0 0 4.33-7.475c10.04 3.856 21.857 10.557 30.6 22.106 11.751 15.534 15.517 36.654 11.236 62.859-3.979-.749-7.928-1.379-11.826-1.866-20.83-2.604-34.496-10.717-40.631-24.116zm272.045 69.524c-4.121 12.364-10.874 20.163-20.644 23.842a42.437 42.437 0 0 1 -14.979 2.493c-23.242 0-48.423-14.521-48.671-14.665-2.866-1.72-61.85-36.844-119.659-51.71 11.479-67.791-27.1-93.789-51.534-103.309 6.968-22.142 7.077-44.841 7.077-46.121v-120h80v144c0 20.928 8.215 37.646 25.853 52.614 15.08 12.8 35.233 22.873 58.569 34.541 7.4 3.7 15.009 7.223 22.367 10.629 45.217 20.934 72.383 35.403 61.621 67.686zm-78.556-160.856c15.079 12.8 35.232 22.873 58.568 34.541 7.4 3.7 15.009 7.223 22.367 10.629 45.217 20.934 72.383 35.4 61.621 67.687-2.66 7.981-10.419 31.258-46.763 24.761-2.214-9.853-7.763-18.873-16.633-26.985-13.922-12.732-34.119-22.083-55.5-31.982-7.251-3.357-14.749-6.828-21.934-10.42-48.271-24.134-75.58-39.416-75.58-72.845v-192h48v144c0 20.928 8.215 37.646 25.854 52.614z"/></svg>