<?xml version="1.0" encoding="UTF-8"?>
<svg xmlns="http://www.w3.org/2000/svg" id="Outline" viewBox="0 0 512 512" width="512" height="512"><path d="M480,278.111V232a8,8,0,0,0-8-8H431.767C428.151,98.614,382.422,66.667,380.438,65.344c-.2-.131-.4-.254-.607-.367l-88-48A8,8,0,0,0,288,16H160a8,8,0,0,0-3.831.977l-88,48c-.208.113-.41.236-.607.367C65.457,66.747,16,101.313,16,240a8,8,0,0,0,8,8H88V440a8,8,0,0,0,8,8h96v40a8,8,0,0,0,8,8H328a8,8,0,0,0,7.761-6.06L344,456.985l8.239,32.955A8,8,0,0,0,360,496H488a8,8,0,0,0,8-8V312a7.994,7.994,0,0,0-.845-3.578ZM224,272V240h16v32Zm32,0V240h16v32Zm32-32h16v32H288Zm32,0h16v32H320ZM83.173,75.019l42.18-23.008c8.863,12.257,23.03,25.832,45.2,34.627l-73.683,39.3C92.583,98.586,87.193,83.286,83.173,75.019Zm109.878,1.8c-27.474-6.09-43.9-19.952-53.511-32.546L157.4,34.529C165.567,45.118,185.508,64,224,64s58.433-18.882,66.6-29.471l17.864,9.744c-9.614,12.594-26.037,26.456-53.513,32.546A143.373,143.373,0,0,1,224,80,143.406,143.406,0,0,1,193.051,76.819ZM176.823,32h94.348C262.617,39.558,247.749,48,224,48S185.372,39.551,176.823,32ZM322.647,52.011l42.172,23c-2.431,4.98-5.361,12.51-8.228,23.659q-3.138,12.2-5.5,27.247L277.443,86.638C299.618,77.842,313.785,64.268,322.647,52.011ZM352,240h16v32H352Zm32,0h16v32H384Zm32,0h16v32H416Zm32,0h16v32H448ZM392.9,108.7c16.791,35.137,21.81,80.683,22.861,115.3H360.108c1.164-87.631,11.858-124.971,17.815-139.071A107.02,107.02,0,0,1,392.9,108.7ZM54.419,110.141C60.156,97.8,65.917,89.758,70.106,84.89a137.77,137.77,0,0,1,7.067,22.946c4.749,20.617,10.371,58.711,10.8,124.164H32.058C32.976,169.306,44.6,131.253,54.419,110.141ZM104,432V240c0-41.25-1.965-72.9-4.824-97.158l93.36-49.794A161.89,161.89,0,0,0,224,96a161.8,161.8,0,0,0,31.464-2.953l93.321,49.775c-2.716,23.089-4.281,50.221-4.68,81.178H216a8,8,0,0,0-8,8v46.111l-15.155,30.311A7.994,7.994,0,0,0,192,312V432ZM208,313.889,220.944,288H241.87l-16.73,27.884A8,8,0,0,0,224,320V480H208ZM351.761,422.06a8,8,0,0,0-15.522,0L321.754,480H240V322.216L260.53,288H427.47L448,322.216V480H366.246ZM480,480H464V320a8,8,0,0,0-1.14-4.116L446.13,288h20.926L480,313.889Z"/></svg>
