<?xml version="1.0" encoding="UTF-8"?>
<svg xmlns="http://www.w3.org/2000/svg" id="Outline" viewBox="0 0 512 512" width="512" height="512"><path d="M413.314,234.021c-27.675-24.6-38.587-61.135-32.433-108.587a253.068,253.068,0,0,1,18.368-66.051,8,8,0,0,0-3.671-10.538l-64-32A7.994,7.994,0,0,0,328,16H184a7.994,7.994,0,0,0-3.578.845l-64,32a8,8,0,0,0-3.671,10.538c.534,1.146,52.706,115.285-14.065,174.638A8,8,0,0,0,96,240V416a8,8,0,0,0,2.934,6.191l88,72a8,8,0,0,0,10.723-.534L256,435.313l58.343,58.344a8,8,0,0,0,10.723.534l88-72A8,8,0,0,0,416,416V240A8,8,0,0,0,413.314,234.021ZM256.006,174.545C225.913,153.878,208.609,101.4,199.743,64h112.53c-1.919,8.088-4.231,16.871-6.991,25.882C292.378,132.023,275.407,161.135,256.006,174.545ZM315.779,48H196.237c-1.281-6.363-2.248-11.819-2.938-16H318.708C318.022,36.182,317.058,41.638,315.779,48ZM112,336h48v16H112Zm79.463,141.224L112,412.209V368h56a8,8,0,0,0,8-8V328a8,8,0,0,0-8-8H112V243.515c29.564-28.014,41.637-69.6,34.932-120.559A271.05,271.05,0,0,0,130.3,59.793l47.414-23.707c5.009,30.271,22.2,113.393,64.081,147.768l-14.236,9.49A8,8,0,0,0,224,200V400a8,8,0,0,0,2.343,5.657L244.686,424Zm129.074,0-58.88-58.881L240,396.687V204.281l20.32-13.546c49.109-28.459,68.577-122.109,73.962-154.65L381.7,59.793a271.05,271.05,0,0,0-16.629,63.163c-6.7,50.956,5.368,92.545,34.932,120.559V320H344a8,8,0,0,0-8,8v32a8,8,0,0,0,8,8h56v44.209ZM400,336v16H352V336Z"/><circle cx="264" cy="232" r="8"/><circle cx="264" cy="296" r="8"/><circle cx="264" cy="360" r="8"/></svg>
