<?xml version="1.0" encoding="UTF-8"?>
<svg xmlns="http://www.w3.org/2000/svg" id="Outline" viewBox="0 0 512 512" width="512" height="512"><circle cx="271.821" cy="312" r="8"/><circle cx="272" cy="376" r="8"/><path d="M423.646,69.647a8,8,0,0,0-5.448-5.339L328.246,38.6l-9.091-18.181a7.984,7.984,0,0,0-7.155-4.4V16H200v.021a7.96,7.96,0,0,0-7.155,4.4L183.754,38.6,93.8,64.308a8,8,0,0,0-5.448,5.339c-.334,1.087-8.286,27.306-16.282,86.278C58.788,253.9,56,364.481,56,440a8,8,0,0,0,8,8h48.9l-.845,7.047a8,8,0,0,0,2.822,7.1c50.042,41.7,122.929,34.149,126,33.805a8,8,0,0,0,6.706-5.421L256,465.3l8.41,25.232a8,8,0,0,0,6.706,5.421,162.293,162.293,0,0,0,16.689.744c25.056,0,73.153-4.413,109.316-34.549a8,8,0,0,0,2.822-7.1L399.1,448H448a8,8,0,0,0,8-8c0-75.519-2.788-186.1-16.072-284.075C431.932,96.953,423.98,70.734,423.646,69.647ZM314.1,46.086l26.286,52.571-22.325,5.582a8,8,0,0,0-4.716,12.2L326.385,136l-64.994,97.491ZM296.94,48H215.06l-4.5-16h90.88Zm-4.5,16L256,193.562,219.561,64ZM197.9,46.086,247.69,223.11l-1.188,4.225L185.615,136l13.041-19.562a8,8,0,0,0-4.716-12.2l-22.325-5.582ZM72.01,432c.441-175.532,15.3-279,24.5-326.359l39.368,150.912L114.822,432Zm66.608-64H184v16H136.7ZM234.1,480.4c-16.2.81-68.131.857-105.627-27.867l1.389-11.579L134.778,400H192a8,8,0,0,0,8-8V360a8,8,0,0,0-8-8H140.538l11.405-95.047a8.009,8.009,0,0,0-.2-2.973L105.714,77.544l68.333-19.526-21.2,42.4a8,8,0,0,0,5.215,11.339l20.987,5.247-9.7,14.554a8,8,0,0,0,0,8.876L240.8,247.621l-8.5,30.213A7.973,7.973,0,0,0,232,280h0V400a8,8,0,0,0,.572,2.971l14.912,37.278Zm43.8,0L263.59,437.47c-.05-.151-.125-.286-.183-.432l.021-.009L248,398.459V282.422L297.615,208H352a8,8,0,0,0,0-16H308.281l34.375-51.562a8,8,0,0,0,0-8.876l-9.7-14.554,20.987-5.247a8,8,0,0,0,5.215-11.339l-21.2-42.4,68.333,19.526L360.259,253.98a8.009,8.009,0,0,0-.2,2.973L371.462,352H320a8,8,0,0,0-8,8v32a8,8,0,0,0,8,8h57.222l4.915,40.953,1.389,11.579C346.025,481.258,294.083,481.208,277.9,480.4ZM375.3,384H328V368h45.382Zm21.876,48L376.124,256.553l39.381-150.961C424.7,152.847,439.552,256.151,439.99,432Z"/></svg>
