<?xml version="1.0" encoding="UTF-8"?>
<svg xmlns="http://www.w3.org/2000/svg" id="Outline" viewBox="0 0 512 512" width="512" height="512"><path d="M20.422,343.155l12.63,6.315L53.343,437.4A23.891,23.891,0,0,0,76.729,456H210.123a24.121,24.121,0,0,0,23.76-20.606L246.938,344h18.124L278.117,435.4A24.121,24.121,0,0,0,301.877,456H435.271a23.891,23.891,0,0,0,23.386-18.6l20.291-87.926,12.63-6.315A8,8,0,0,0,496,336V304a7.969,7.969,0,0,0-.661-3.18h0l-.009-.021-.014-.032L397,73.869a24.005,24.005,0,0,0-28.917-13.445L316.33,75.949a23.967,23.967,0,0,0-16.387,28.811l.284,1.132A24,24,0,0,0,330.1,123.148l26.673-7.622A8.031,8.031,0,0,1,366.3,120l66.572,151.3c-4.58-1.269-9.332-2.429-14.248-3.433-22.389-4.572-44.2-5.111-64.827-1.6a157.57,157.57,0,0,0-66.09,27.977C282.066,291.313,272.123,288,256,288s-26.066,3.313-31.706,6.243a157.57,157.57,0,0,0-66.09-27.977c-20.628-3.513-42.438-2.975-64.827,1.6-4.916,1-9.668,2.164-14.248,3.433L145.7,120a8.032,8.032,0,0,1,9.521-4.471l26.675,7.622A24,24,0,0,0,211.772,105.9l.285-1.138A23.965,23.965,0,0,0,195.67,75.949L143.922,60.424A24.007,24.007,0,0,0,115,73.87l-98.322,226.9-.013.03-.01.022h0A7.969,7.969,0,0,0,16,304v32A8,8,0,0,0,20.422,343.155Zm360.521-229.6a24.093,24.093,0,0,0-28.561-13.411l-26.674,7.621a8,8,0,0,1-9.959-5.755l-.284-1.132a7.988,7.988,0,0,1,5.463-9.6L372.676,75.75a8,8,0,0,1,9.638,4.481l89.092,205.6c-5.39-2.6-11.451-5.262-18.1-7.8ZM96.578,283.54c46.043-9.4,87.271-.386,122.538,26.8,3.321,2.559,7.664,2.523,10.446-.571.944-.723,8.192-5.765,26.438-5.765s25.494,5.042,26.438,5.765c2.783,3.094,7.126,3.13,10.446.571,35.268-27.183,76.5-36.2,122.538-26.8a203.143,203.143,0,0,1,25.991,7.17l.225.512.548-.241A216.96,216.96,0,0,1,480,308.525v22.531l-11.578,5.789a8,8,0,0,0-4.217,5.356l-21.138,91.6a7.963,7.963,0,0,1-7.8,6.2H301.877a8.041,8.041,0,0,1-7.92-6.869L279.92,334.869A8,8,0,0,0,272,328H240a8,8,0,0,0-7.92,6.869L218.043,433.13a8.041,8.041,0,0,1-7.92,6.87H76.729a7.963,7.963,0,0,1-7.8-6.2L47.8,342.2a8,8,0,0,0-4.217-5.356L32,331.056V308.525A214.248,214.248,0,0,1,96.578,283.54ZM129.685,80.231a8,8,0,0,1,9.639-4.481l51.748,15.524a7.987,7.987,0,0,1,5.463,9.6l-.285,1.138a8,8,0,0,1-9.957,5.751l-26.676-7.621a24.089,24.089,0,0,0-28.56,13.411L58.689,278.026c-6.644,2.54-12.7,5.206-18.095,7.8Z"/><path d="M80.239,417.94A8,8,0,0,0,88,424H200a8,8,0,0,0,7.96-7.2l8-80a8,8,0,0,0-1.451-5.448C213.478,329.905,188.641,296,136,296c-49.849,0-75.375,16.635-76.438,17.344a8,8,0,0,0-3.323,8.6ZM136,312c37.364,0,57.824,19.741,63.713,26.471L192.76,408H94.246L73.261,324.058C82.047,319.847,102.867,312,136,312Z"/><path d="M304.04,416.8A8,8,0,0,0,312,424H424a8,8,0,0,0,7.761-6.06l24-96a8,8,0,0,0-3.323-8.6C451.375,312.635,425.849,296,376,296c-52.641,0-77.478,33.9-78.509,35.348a8,8,0,0,0-1.451,5.448ZM376,312c23.311,0,40.452,3.994,50.728,7.345a99.748,99.748,0,0,1,12.006,4.735L417.754,408H319.24l-6.951-69.511C318.181,331.813,338.81,312,376,312Z"/></svg>
