<?xml version="1.0" encoding="UTF-8"?>
<svg xmlns="http://www.w3.org/2000/svg" id="Outline" viewBox="0 0 512 512" width="512" height="512"><path d="M384,496h72a8,8,0,0,0,8-8V440.985l7.761-31.045A7.977,7.977,0,0,0,472,408V119.627a39.748,39.748,0,0,0-15.4-31.544,7.687,7.687,0,0,0-.725-.5L370.384,34.947l-.138-.083L340.056,17.1A8,8,0,0,0,336,16H176a8,8,0,0,0-4.056,1.1l-30.19,17.76-.138.083L56.129,87.579a7.687,7.687,0,0,0-.725.5A39.748,39.748,0,0,0,40,119.627V408a7.977,7.977,0,0,0,.239,1.94L48,440.985V488a8,8,0,0,0,8,8h72a8,8,0,0,0,8-8V446.948l8.805,5.87,7.35,36.751A8,8,0,0,0,160,496H352a8,8,0,0,0,7.845-6.431l7.35-36.751,8.805-5.87V488A8,8,0,0,0,384,496ZM130.034,156.63,84.767,88.737l56.38-34.712c6.023,17.1,19.56,42.742,49.012,58.882Zm78.7-52.67c-34.143-13.356-48-40.342-53.576-58.417l15.582-9.167a90.683,90.683,0,0,0,11.668,24.156C193.532,76.713,215.329,96,256,96s62.468-19.287,73.592-35.468A90.683,90.683,0,0,0,341.26,36.376l15.582,9.167c-5.575,18.075-19.433,45.061-53.574,58.416C289.616,109.3,273.713,112,256,112S222.384,109.3,208.734,103.96ZM186.069,32h139.86C320.88,48.114,304.732,80,256,80S191.112,48.1,186.069,32ZM370.852,54.025l56.381,34.712L381.966,156.63,321.84,112.907C351.292,96.768,364.83,71.124,370.852,54.025ZM392,480V448h56v32Zm64-360.373V407.015L449.754,432H392V170.423l48.866-73.292,6.214,3.825A23.845,23.845,0,0,1,456,119.627Zm-400,0a23.845,23.845,0,0,1,8.92-18.671l6.214-3.825L120,170.423V432H62.246L56,407.015ZM64,480V448h56v32Zm102.559,0-4.8-24H350.241l-4.8,24Zm191.019-40H154.422L136,427.719V172.074l71.076-51.686C221.6,125.435,238.025,128,256,128s34.4-2.565,48.924-7.612L376,172.074V427.719Z"/></svg>
