<?xml version="1.0" encoding="UTF-8"?>
<svg xmlns="http://www.w3.org/2000/svg" id="Outline" viewBox="0 0 512 512" width="512" height="512"><path d="M48,488H192a8,8,0,0,0,7.428-5.029c1.912-4.78,45.28-113.984,48.4-186.971h16.352c3.116,72.987,46.484,182.191,48.4,186.971A8,8,0,0,0,320,488H464a8,8,0,0,0,7.718-5.895C471.961,481.215,496,391.687,496,272c0-71.88-14.112-140.837-25.95-186.027-7.779-29.7-14.244-47.9-14.516-48.663A8,8,0,0,0,448,32H64a8,8,0,0,0-7.534,5.31c-.272.76-6.737,18.959-14.516,48.663C30.112,131.163,16,200.12,16,272c0,119.687,24.039,209.215,24.282,210.105A8,8,0,0,0,48,488Zm255.646-79.353C288.177,358.372,280,316.652,280,288a8,8,0,0,0-8-8H240a8,8,0,0,0-8,8c0,28.627-8.163,70.3-23.608,120.523C199.445,437.615,190.4,461.9,186.528,472H96.015c.386-111.9,9.218-152.145,46.978-220.115,33.955-61.118,39.8-132.229,40.8-155.885H328.208c1,23.656,6.844,94.767,40.8,155.885C406.767,319.855,415.6,360.1,415.985,472H325.471C321.605,461.921,312.589,437.711,303.646,408.647ZM480,272c0,100.047-17.048,178.452-22.238,200H431.984c-.415-114.06-10.043-157.779-48.991-227.885C351.369,187.191,345.39,118.981,344.262,96H456.11C467.359,140.25,480,204.9,480,272ZM69.733,48H442.267c2.013,6.1,5.53,17.2,9.609,32H60.124C64.2,65.2,67.72,54.1,69.733,48ZM55.89,96H167.738c-1.128,22.981-7.107,91.191-38.731,148.115C90.059,314.221,80.431,357.939,80.016,472H54.238C49.048,450.452,32,372.047,32,272,32,204.9,44.641,140.25,55.89,96Z"/></svg>
