<?xml version="1.0" encoding="UTF-8"?>
<svg xmlns="http://www.w3.org/2000/svg" id="Outline" viewBox="0 0 512 512" width="512" height="512"><path d="M459.578,80.845l-128-64A7.994,7.994,0,0,0,328,16H184a7.994,7.994,0,0,0-3.578.845l-128,64C48.694,82.709,16,101.889,16,200v88a8,8,0,0,0,8,8H96V488a8,8,0,0,0,8,8H408a8,8,0,0,0,8-8V296h72a8,8,0,0,0,8-8V200C496,101.889,463.306,82.709,459.578,80.845Zm-268.145-8.5C205.291,88.04,227.015,96,256,96s50.709-7.96,64.567-23.659c10.458-11.846,14.064-25.555,15.191-35.518l15.032,7.516a79.111,79.111,0,0,1-18.228,38.592C315.535,102.22,289.775,112,256,112s-59.535-9.78-76.562-29.07A79.1,79.1,0,0,1,161.21,44.34l15.032-7.517C177.369,46.786,180.975,60.5,191.433,72.341ZM191.9,32H320.143c-.433,7.487-2.645,19.642-11.57,29.752C297.884,73.86,280.2,80,256,80c-24.106,0-41.755-6.095-52.456-18.116C194.609,51.846,192.359,39.555,191.9,32ZM32,200c0-71.113,17.962-95.723,25-102.633C66.146,103.931,94.941,136.028,95.971,280H32ZM400,480H112V288c0-80.792-8.322-139.789-24.736-175.353C82.012,101.268,76.6,93.863,71.815,89.037L146.389,51.75a94.138,94.138,0,0,0,21.054,41.769C187.64,116.4,217.435,128,256,128s68.36-11.6,88.557-34.48a94.141,94.141,0,0,0,21.054-41.77l74.574,37.287c-4.781,4.826-10.2,12.231-15.449,23.61C408.322,148.211,400,207.208,400,288Zm80-200H416.029c1.031-144.111,29.88-176.131,39-182.651,2.365,2.311,6.044,6.683,9.817,14.229C471.758,125.405,480,151.971,480,200Z"/></svg>
