<svg id="Outline" height="512" viewBox="0 0 512 512" width="512" xmlns="http://www.w3.org/2000/svg"><path d="m96 496h320a8 8 0 0 0 8-8v-248a8 8 0 0 0 -1.344-4.438l-27.533-41.3a24.087 24.087 0 0 1 -3.924-11.038l-15.235-159.982a8 8 0 0 0 -7.964-7.242h-48a8 8 0 0 0 -8 8c0 .269-.088 27.188-7.692 53.8-9.517 33.311-25.77 50.2-48.308 50.2-55.258 0-56-102.964-56-104a8 8 0 0 0 -8-8h-48a8 8 0 0 0 -7.964 7.242l-15.236 159.983a24.084 24.084 0 0 1 -3.922 11.038l-27.533 41.3a8 8 0 0 0 -1.345 4.437v248a8 8 0 0 0 8 8zm8-253.578 26.189-39.284a40.132 40.132 0 0 0 6.538-18.4l14.547-152.738h32.986c.565 10.612 2.36 30.289 8.048 50.2 14.592 51.078 42.692 61.8 63.692 61.8s49.1-10.722 63.692-61.8c5.688-19.909 7.483-39.586 8.048-50.2h32.986l14.546 152.742a40.137 40.137 0 0 0 6.539 18.4l26.189 39.28v237.578h-304z"/></svg>