<?xml version="1.0" encoding="UTF-8"?>
<svg xmlns="http://www.w3.org/2000/svg" id="Outline" viewBox="0 0 512 512" width="512" height="512"><path d="M24,472H216a8,8,0,0,0,7.385-4.923L256,388.8l32.615,78.277A8,8,0,0,0,296,472H488a8,8,0,0,0,8-8V192.292a40.094,40.094,0,0,0-5.034-19.426L456,109.927V48a8,8,0,0,0-8-8H64a8,8,0,0,0-8,8v61.927L21.034,172.866A40.094,40.094,0,0,0,16,192.292V464A8,8,0,0,0,24,472Zm186.667-16H32V440H217.334ZM104,104V56h16v48Zm32-48h16v48H136Zm32,0h16v48H168Zm32,0h16v48H200Zm32,0h16v48H232Zm160,48V56h16v48Zm-16,0H360V56h16Zm-32,0H328V56h16Zm-32,0H296V56h16Zm-32,0H264V56h16Zm16,16V304a24.027,24.027,0,0,1-24,24h-8V120Zm5.333,336-6.666-16H480v16ZM480,192.292V424H288l-24-57.6V344h8a40.045,40.045,0,0,0,40-40V120H443.293l33.686,60.637A24.041,24.041,0,0,1,480,192.292ZM440,104H424V56h16ZM72,56H88v48H72ZM35.021,180.637,68.707,120H248V366.4L224,424H32V192.292A24.041,24.041,0,0,1,35.021,180.637Z"/></svg>
