<svg id="Outline" height="512" viewBox="0 0 512 512" width="512" xmlns="http://www.w3.org/2000/svg"><path d="m488 88h-464a8 8 0 0 0 -8 8v144a8 8 0 0 0 3.493 6.61c.438.3 44.309 30.266 90.559 66.676 76.367 60.119 100.118 90.753 106.595 105.865a8 8 0 0 0 7.353 4.849h64a8 8 0 0 0 7.353-4.849c6.474-15.106 30.211-45.725 106.528-105.812 46.252-36.416 90.187-66.43 90.626-66.729a8 8 0 0 0 3.493-6.61v-144a8 8 0 0 0 -8-8zm-456 16h448v48h-448zm312.835 64a548.146 548.146 0 0 0 35.341 142.146q-5.955 4.8-11.882 9.7c-22.13-57.452-35.123-107.322-39.557-151.846zm-161.015 187.055c-8.522-8.044-17.69-16.216-27.173-24.327q12.864-32.865 21.918-62.709c9.827 17.921 21.755 49.468 5.255 87.036zm-15.6-108.865h-.01c-.011.047-.017.093-.027.14a774.53 774.53 0 0 1 -24.475 73.52q-5.916-4.9-11.882-9.7a548.146 548.146 0 0 0 35.339-142.15h16.1c-2.426 24.343-7.412 50.286-15.047 78.19zm-136.22-10.4v-67.79h119.069a532.464 532.464 0 0 1 -32.331 131.728c-38.832-30.538-75.251-56.008-86.738-63.938zm163.949 131.084c11.928-23.967 15.065-48.783 9.309-73.853-4.944-21.535-15.1-37.26-19.986-44.817-.231-.359-.48-.744-.72-1.118 7.529-28.127 12.423-54.367 14.783-79.086h48.665v240h-18.991c-6.417-12-18.24-26.156-33.06-41.126zm87.042 41.126h-18.991v-240h48.665c4.555 47.7 18.557 101.08 42.688 162.728-32.217 27.557-60.904 55.842-72.362 77.272zm110.271-108.272a532.464 532.464 0 0 1 -32.331-131.728h119.069v67.79c-11.487 7.93-47.906 33.4-86.738 63.938z"/></svg>