<?xml version="1.0" encoding="UTF-8"?>
<svg xmlns="http://www.w3.org/2000/svg" id="Outline" viewBox="0 0 512 512" width="512" height="512"><path d="M488,64H24a8,8,0,0,0-8,8V440a8,8,0,0,0,8,8H232a8,8,0,0,0,8-8V384h32v56a8,8,0,0,0,8,8H488a8,8,0,0,0,8-8V72A8,8,0,0,0,488,64ZM32,80H480v48H32ZM368,232c0,78.116-33.063,146.538-80,168.625V383.068c18.119-10.463,33.663-29.478,45.162-55.356C345.486,299.977,352,266.88,352,232c0-31.82-5.377-61.966-15.616-88H352.9C362.788,170.7,368,200.991,368,232ZM202.29,338.309C186,311.636,176.035,273.47,176,232.211c22.448,17.827,29.946,36.139,32.108,49.1C211.272,300.291,207.114,321.8,202.29,338.309ZM160,232c0,34.88,6.514,67.977,18.838,95.712,11.5,25.878,27.043,44.893,45.162,55.356v17.557C177.064,378.539,144,310.116,144,232c0-31.009,5.213-61.305,15.1-88h16.512C165.378,170.034,160,200.179,160,232ZM32,432V144H142.122C132.864,171.066,128,201.236,128,232c0,44,10.092,86.948,28.418,120.944C173.679,384.965,197.509,407.84,224,418v14Zm200-64a8,8,0,0,0-1.714.189,75.481,75.481,0,0,1-16.294-13.959c6.439-18.578,14.366-48.754,9.9-75.546-2.927-17.551-13.549-42.954-47.166-65.776,1.894-24.973,7.474-48.8,16.209-68.908H248V368Zm32,0V144h55.066C330.006,169.188,336,200.206,336,232c0,61.5-22.063,116.17-54.286,136.189A8,8,0,0,0,280,368Zm24,64V418c26.491-10.161,50.321-33.036,67.582-65.057C373.907,318.948,384,276,384,232c0-30.764-4.864-60.934-14.122-88H480V432Z"/></svg>
