<?xml version="1.0" encoding="UTF-8"?>
<svg xmlns="http://www.w3.org/2000/svg" id="Outline" viewBox="0 0 512 512" width="512" height="512"><path d="M456,144H432V96a40.045,40.045,0,0,0-40-40H56A40.045,40.045,0,0,0,16,96V329.3a40.045,40.045,0,0,0,26.786,37.755h0l256,89.6a40.336,40.336,0,0,0,13.344,2.294A40.1,40.1,0,0,0,352,418.9V328h40a40.045,40.045,0,0,0,40-40V224h24a40,40,0,0,0,0-80ZM291.841,168l-53.334-16H416v16ZM416,136H185.174l-53.333-16H416ZM56,72H392a24.027,24.027,0,0,1,24,24v8H78.507L32.7,90.258A24.04,24.04,0,0,1,56,72ZM336,418.9a24,24,0,0,1-31.928,22.653l-256-89.6A24.026,24.026,0,0,1,32,329.3V106.752l286.9,86.069A23.853,23.853,0,0,1,336,215.809Zm.318-234.9H412.2c-6.727,13.247-23.329,36-60.2,44.565V215.809A39.745,39.745,0,0,0,336.318,184ZM392,312H352V244.953c32.992-6.719,52.555-23.387,63.33-36.623.228-.281.448-.56.67-.84V288A24.027,24.027,0,0,1,392,312Zm64-104H432V160h24a24,24,0,0,1,0,48Z"/><path d="M264,280a24,24,0,1,0,24,24A24.027,24.027,0,0,0,264,280Zm0,32a8,8,0,1,1,8-8A8.009,8.009,0,0,1,264,312Z"/><circle cx="456" cy="184" r="8"/></svg>
