<?xml version="1.0" encoding="UTF-8"?>
<svg xmlns="http://www.w3.org/2000/svg" id="Outline" viewBox="0 0 512 512" width="512" height="512"><path d="M394.62,210.211a8,8,0,0,0,3.356-10.805l-14.895-28.321a8,8,0,0,0-10.805-3.356l-14.951,7.863-5.353-64.256a8,8,0,0,0-4.394-6.491L319.471,90.791l-5.938-53.442A23.976,23.976,0,0,0,289.679,16H222.321a23.976,23.976,0,0,0-23.854,21.35l-5.938,53.441-28.107,14.054a8,8,0,0,0-4.394,6.491l-6.9,82.863a120.077,120.077,0,0,0,0,123.6l6.9,82.863a8,8,0,0,0,4.394,6.491l28.107,14.054,5.938,53.442A23.976,23.976,0,0,0,222.321,496h67.358a23.976,23.976,0,0,0,23.854-21.35l5.938-53.441,28.107-14.054a8,8,0,0,0,4.394-6.491l5.353-64.256,14.951,7.863a8,8,0,0,0,10.805-3.356l14.895-28.321a8,8,0,0,0-3.356-10.805l-23.384-12.3c.908-3.129,1.7-6.293,2.349-9.491H400a8,8,0,0,0,8-8V240a8,8,0,0,0-8-8H373.585c-.65-3.2-1.441-6.362-2.349-9.491Zm-21.976-24.6,7.447,14.161L365.7,207.343a119.345,119.345,0,0,0-6.825-13.144l-.108-1.287ZM207.966,96.75l6.4-57.633A7.992,7.992,0,0,1,222.321,32h67.358a7.992,7.992,0,0,1,7.951,7.116l6.4,57.634,3.931,51.057a120.258,120.258,0,0,0-103.93,0Zm96.068,318.5-6.4,57.633A7.992,7.992,0,0,1,289.679,480H222.321a7.992,7.992,0,0,1-7.951-7.116l-6.4-57.634-3.931-51.057a120.258,120.258,0,0,0,103.93,0ZM344.276,311a8,8,0,0,0-1.188,3.577L336.4,394.855l-15.34,7.67,4-52.021a8,8,0,0,0-12.344-7.316,104.093,104.093,0,0,1-113.444,0,8,8,0,0,0-12.344,7.316l4,52.021-15.34-7.67-6.687-80.279A8,8,0,0,0,167.724,311a104.051,104.051,0,0,1,0-110,7.99,7.99,0,0,0,1.188-3.576l6.687-80.279,15.34-7.67-4,52.021a8,8,0,0,0,12.344,7.316,104.093,104.093,0,0,1,113.444,0,8,8,0,0,0,12.344-7.316l-4-52.021,15.34,7.67,6.687,80.279A7.99,7.99,0,0,0,344.276,201a104.051,104.051,0,0,1,0,110Zm35.815,1.227-7.447,14.161-13.877-7.3.108-1.287a119.524,119.524,0,0,0,6.825-13.144ZM392,248v16H375.733q.264-3.984.267-8t-.267-8Z"/><path d="M256,168a88,88,0,1,0,88,88A88.1,88.1,0,0,0,256,168Zm8,159.545V320a8,8,0,0,0-16,0v7.545A72.123,72.123,0,0,1,184.455,264H192a8,8,0,0,0,0-16h-7.545A72.123,72.123,0,0,1,248,184.455V192a8,8,0,0,0,16,0v-7.545A72.123,72.123,0,0,1,327.545,248H320a8,8,0,0,0,0,16h7.545A72.123,72.123,0,0,1,264,327.545Z"/><path d="M291.884,225.14l-35.659,21.4-19.787-13.191a8,8,0,1,0-8.876,13.312l24,16a8,8,0,0,0,8.554.2l40-24a8,8,0,1,0-8.232-13.72Z"/></svg>
