<?xml version="1.0" encoding="UTF-8"?>
<svg xmlns="http://www.w3.org/2000/svg" id="Outline" viewBox="0 0 512 512" width="512" height="512"><path d="M488,312h-8V240c0-53.6-23.422-103.94-65.95-141.744C371.787,60.689,315.657,40,256,40S140.213,60.689,97.95,98.256C55.421,136.06,32,186.4,32,240v72H24a8,8,0,0,0-8,8V448a24.028,24.028,0,0,0,24,24H472a24.028,24.028,0,0,0,24-24V320A8,8,0,0,0,488,312Zm-25.769-96H49.769a168.389,168.389,0,0,1,23.6-64H438.627A168.389,168.389,0,0,1,462.231,216ZM256,56c71.094,0,133.961,31.723,171.491,80H84.509C122.039,87.723,184.906,56,256,56ZM48,240c0-2.681.079-5.346.208-8H463.792c.129,2.654.208,5.319.208,8v72H48Zm48,88V456H64V328Zm16,0h16V456H112Zm32,0h32V456H144Zm48,0h16V456H192Zm32,0h32V456H224Zm48,0h16V456H272Zm32,0h32V456H304Zm48,0h16V456H352Zm32,0h32V456H384Zm48,0h16V456H432ZM32,448V328H48V456H40A8.009,8.009,0,0,1,32,448Zm448,0a8.009,8.009,0,0,1-8,8h-8V328h16Z"/></svg>
