<?xml version="1.0" encoding="UTF-8"?>
<svg xmlns="http://www.w3.org/2000/svg" id="Outline" viewBox="0 0 512 512" width="512" height="512"><path d="M368,75.773V24a8,8,0,0,0-8-8H152a8,8,0,0,0-8,8V75.773c-9.737,7.565-32,31.5-32,92.227,0,17.831,7.676,307.874,8,320.212A8,8,0,0,0,128,496h96a8,8,0,0,0,7.958-7.184L256,254.41l24.042,234.406A8,8,0,0,0,288,496h96a8,8,0,0,0,8-7.788c.327-12.338,8-302.381,8-320.212C400,107.273,377.737,83.338,368,75.773ZM352,32V72H294.354a128.5,128.5,0,0,0-7.2-19.578,8,8,0,0,0-14.31,7.156A102.465,102.465,0,0,1,277.6,72H234.423a105.382,105.382,0,0,1,4.74-12.438,8,8,0,0,0-14.318-7.14A128.5,128.5,0,0,0,217.646,72H160V32ZM130.81,288H168v40a8.009,8.009,0,0,1-8,8H132.036C131.622,319.9,131.207,303.68,130.81,288ZM168,272H130.405c-.137-5.44-.271-10.784-.4-16h38ZM295.222,480,263.958,175.184a8,8,0,0,0-15.916,0L216.778,480H135.791c-.508-19.253-1.885-71.551-3.342-128H160a24.028,24.028,0,0,0,24-24V248a8,8,0,0,0-8-8H129.607c-.944-38.237-1.607-66.9-1.607-72,0-56.749,20.8-75.9,26.346-80h59.279a257.558,257.558,0,0,0-4.722,33.072A24.042,24.042,0,0,0,192,144v16a8,8,0,0,0,8,8h32a8,8,0,0,0,8-8V144a23.968,23.968,0,0,0-15.1-22.292A237.6,237.6,0,0,1,230.037,88h51.951a238.169,238.169,0,0,1,5.11,33.706A23.974,23.974,0,0,0,272,144v16a8,8,0,0,0,8,8h32a8,8,0,0,0,8-8V144a24.042,24.042,0,0,0-16.9-22.928A257.558,257.558,0,0,0,298.375,88H357.7C363.12,91.961,384,110.955,384,168c0,5.1-.663,33.763-1.607,72H336a8,8,0,0,0-8,8v80a24.028,24.028,0,0,0,24,24h27.552c-1.458,56.449-2.835,108.747-3.343,128ZM216,136h.056A7.979,7.979,0,0,1,224,144v8H208v-8A8.009,8.009,0,0,1,216,136Zm72,8a7.98,7.98,0,0,1,7.89-8H296a8.009,8.009,0,0,1,8,8v8H288Zm56,144h37.19c-.4,15.68-.812,31.9-1.226,48H352a8.009,8.009,0,0,1-8-8Zm0-16V256h38c-.13,5.216-.264,10.56-.4,16Z"/></svg>
