<?xml version="1.0" encoding="UTF-8"?>
<svg xmlns="http://www.w3.org/2000/svg" id="Outline" viewBox="0 0 512 512" width="512" height="512"><path d="M40,496H472a8,8,0,0,0,8-8V161.758a71.966,71.966,0,0,0-31.343-59.423L324.518,17.4A8.006,8.006,0,0,0,320,16H192a8.006,8.006,0,0,0-4.518,1.4L63.343,102.335A71.966,71.966,0,0,0,32,161.758V488A8,8,0,0,0,40,496Zm8-48h64v32H48Zm352,32V448h64v32ZM256,69.37,213.291,32h85.418ZM243.682,79.852,208.229,109.4l-54.481-49.53L191.4,34.1ZM244.529,144h22.942L288,178.216V420.155l-32,25.6-32-25.6V178.216Zm22.055-16H245.416l-8.63-21.575L256,90.413l19.214,16.012Zm1.734-48.148L320.6,34.1l37.651,25.762L303.771,109.4ZM72.378,115.54l67.8-46.388,62.443,56.768a8,8,0,0,0,10.5.226l10.741-8.951,7.236,18.091-21.958,36.6A8.009,8.009,0,0,0,208,176V424a8,8,0,0,0,3,6.247l40,32a8,8,0,0,0,10,0l40-32A8,8,0,0,0,304,424V176a8.009,8.009,0,0,0-1.14-4.116l-21.958-36.6,7.236-18.091,10.741,8.951a8,8,0,0,0,10.5-.226l62.443-56.768,67.8,46.388A55.971,55.971,0,0,1,464,161.758V432H400V184a8,8,0,0,0-16,0V480H128V184a8,8,0,0,0-16,0V432H48V161.758A55.971,55.971,0,0,1,72.378,115.54Z"/></svg>
