<svg width="40" height="43" viewBox="0 0 40 43" fill="none" xmlns="http://www.w3.org/2000/svg">
<path d="M35.6589 0H4.34109C1.94357 0 0 2.08934 0 4.66667V38.3333C0 40.9107 1.94357 43 4.34109 43H35.6589C38.0564 43 40 40.9107 40 38.3333V4.66667C40 2.08934 38.0564 0 35.6589 0Z" fill="#3B5999"/>
<path fill-rule="evenodd" clip-rule="evenodd" d="M13.0232 17.6667H17.2092V16.8334C17.2092 15.5001 17.0542 13.8334 17.2092 12.5001C17.3643 9.33341 18.9147 7.33341 22.9457 7.16675L26.9767 7.33341V12.0001C25.2713 12.0001 22.3255 11.3334 22.0154 13.6667V17.6667H26.6666L26.2015 22.8334H22.0154V35.8334H17.2092V22.8334L13.0232 22.6667V17.6667Z" fill="white"/>
<path fill-rule="evenodd" clip-rule="evenodd" d="M39.9999 21.3333L26.9767 7.33325V11.9999C25.2712 11.9999 22.3255 11.3333 22.0154 13.6666V17.6666H26.6666L26.2015 22.8333H22.0154V35.8333H17.2092L23.8759 42.9999H35.6588L39.9999 38.3333V21.3333Z" fill="#30487C"/>
</svg>
