<svg width="49" height="51" viewBox="0 0 49 51" fill="none" xmlns="http://www.w3.org/2000/svg">
<path fill-rule="evenodd" clip-rule="evenodd" d="M44.9127 14.8709C44.9127 9.00373 40.3414 4.24585 34.7043 4.24585C28.4691 4.24585 20.5229 4.24585 14.2877 4.24585C8.65064 4.24585 4.07935 9.00373 4.07935 14.8709C4.07935 21.3606 4.07935 29.6311 4.07935 36.1209C4.07935 41.988 8.65064 46.7459 14.2877 46.7459C20.5229 46.7459 28.4691 46.7459 34.7043 46.7459C40.3414 46.7459 44.9127 41.988 44.9127 36.1209C44.9127 29.6311 44.9127 21.3606 44.9127 14.8709Z" fill="url(#paint0_radial)"/>
<path d="M30.5358 10.632C34.8049 10.6745 38.7351 14.4889 38.778 19.2106C38.7923 23.4011 38.7923 27.5916 38.778 31.7821C38.7372 36.2085 35.0724 40.3161 30.5358 40.3608C26.5096 40.3756 22.4834 40.3756 18.4573 40.3608C14.1861 40.3183 10.2579 36.5039 10.2151 31.7821C10.2008 27.5916 10.2008 23.4011 10.2151 19.2106C10.2539 14.763 13.9105 10.6766 18.4573 10.632C22.4834 10.6171 26.5096 10.6171 30.5358 10.632ZM18.5124 12.6401C15.1988 12.6508 12.1771 15.6406 12.1444 19.2234C12.1322 23.4054 12.1322 27.5874 12.1444 31.7694C12.1751 35.18 14.9783 38.3186 18.4695 38.3526C22.4875 38.3654 26.5055 38.3654 30.5235 38.3526C33.8086 38.3208 36.8159 35.4031 36.8486 31.7694C36.8609 27.5874 36.8609 23.4054 36.8486 19.2234C36.818 15.7894 33.9597 12.6741 30.5235 12.6401C26.5198 12.6274 22.5161 12.6401 18.5124 12.6401Z" fill="white"/>
<path d="M24.5452 18.0667C27.8487 18.0985 30.9275 20.7505 31.5318 24.1484C31.9626 26.5709 31.15 29.1974 29.435 30.9017C27.5261 32.7929 24.5718 33.4687 22.0401 32.5039C19.2104 31.4265 17.2197 28.3219 17.3525 25.1769C17.5137 21.4199 20.7028 18.0794 24.4962 18.0667C24.5126 18.0667 24.5289 18.0667 24.5452 18.0667ZM24.4636 20.079C22.1055 20.1024 19.8821 21.9639 19.3921 24.3822C18.896 26.828 20.2475 29.5417 22.4668 30.517C24.8903 31.5838 28.0202 30.3874 29.19 27.8969C30.4007 25.3235 29.2594 21.8279 26.7033 20.5848C26.0071 20.2469 25.2333 20.0769 24.4636 20.079Z" fill="white"/>
<path fill-rule="evenodd" clip-rule="evenodd" d="M33.6875 17.4824C33.6875 17.0723 33.5303 16.6791 33.2526 16.3901C32.975 16.1011 32.5972 15.9375 32.2032 15.9375C32.1726 15.9375 32.1399 15.9375 32.1093 15.9375C31.7153 15.9375 31.3375 16.1011 31.0599 16.3901C30.7822 16.6791 30.625 17.0723 30.625 17.4824C30.625 17.4994 30.625 17.5143 30.625 17.5312C30.625 17.9541 30.7863 18.36 31.0742 18.6575C31.36 18.9571 31.75 19.125 32.1562 19.125C33.0015 19.125 33.6875 18.411 33.6875 17.5312C33.6875 17.5143 33.6875 17.4994 33.6875 17.4824Z" fill="white"/>
<defs>
<radialGradient id="paint0_radial" cx="0" cy="0" r="1" gradientUnits="userSpaceOnUse" gradientTransform="translate(4.07935 45.6834) scale(57.0299 59.3576)">
<stop stop-color="#FF8100"/>
<stop offset="0.19" stop-color="#FF7209"/>
<stop offset="0.32" stop-color="#F55E16"/>
<stop offset="0.48" stop-color="#D92938"/>
<stop offset="1" stop-color="#9100FF"/>
</radialGradient>
</defs>
</svg>
