<svg width="40" height="43" viewBox="0 0 40 43" fill="none" xmlns="http://www.w3.org/2000/svg">
<g clip-path="url(#clip0)">
<path d="M31.4667 0H8.53331C3.82049 0 0 4.10703 0 9.17331V33.8268C0 38.893 3.82049 43.0001 8.53331 43.0001H31.4667C36.1796 43.0001 40.0001 38.893 40.0001 33.8268V9.17331C40.0001 4.10703 36.1796 0 31.4667 0Z" fill="#0A93E2"/>
<path fill-rule="evenodd" clip-rule="evenodd" d="M32.168 14.9761C31.3063 15.3867 30.3785 15.6652 29.4067 15.7895C30.3996 15.1491 31.1611 14.1367 31.522 12.93C30.5923 13.5213 29.5626 13.9522 28.4679 14.1839C27.5908 13.1787 26.3405 12.5518 24.9572 12.5518C22.3007 12.5518 20.1491 14.8672 20.1491 17.7204C20.1491 18.1252 20.1908 18.5209 20.2732 18.8991C16.2774 18.6828 12.7334 16.6251 10.3625 13.4967C9.94749 14.261 9.71129 15.1491 9.71129 16.096C9.71129 17.8901 10.5602 19.473 11.8491 20.3992C11.061 20.3727 10.3204 20.1394 9.67087 19.7515C9.67087 19.7742 9.67087 19.7949 9.67087 19.8176C9.67087 22.321 11.329 24.4104 13.5282 24.8851C13.1257 25.0036 12.7003 25.0677 12.2623 25.0677C11.9526 25.0677 11.6513 25.0354 11.3568 24.9752C11.97 27.029 13.7457 28.5233 15.8503 28.5647C14.2042 29.952 12.131 30.7765 9.8775 30.7765C9.48843 30.7765 9.10519 30.7539 8.73047 30.7052C10.858 32.1715 13.3848 33.0279 16.1004 33.0279C24.9451 33.0279 29.7832 25.1501 29.7832 18.3194C29.7832 18.0954 29.7779 17.8731 29.7694 17.651C30.7093 16.9224 31.5238 16.0116 32.168 14.976L32.168 14.9761Z" fill="white"/>
</g>
<defs>
<clipPath id="clip0">
<rect width="40" height="43" fill="white"/>
</clipPath>
</defs>
</svg>
